<svg version="1.1" id="animate" xmlns="http://www.w3.org/2000/svg" xmlns:xlink="http://www.w3.org/1999/xlink" x="0px" y="0px" xml:space="preserve">
<g>
	
		<path class="dots01" fill="#670D23" d="M38.2,73.6c1.3,4.2,3.8,7.5,7.4,10c3,2.2,6.8-0.8,6.9-4c0.3-5.3-2.4-10-6.6-13c-2.6-1.8-5.9,0.2-6.8,2.8
			c-1.4,4.3-1.4,11.5,3.3,14c5.2,2.8,10.3-2.4,11-7.3c0.7-4.9-2.9-10.3-8.4-8.7c-4.9,1.4-6.8,8.6-1.9,11.3c5.2,2.9,9.9-5.1,4.7-8
			c1.8,1,2.5,5.1-0.1,5.5c-0.8-0.1-1.6-0.2-2.3-0.3c-0.4-0.3-0.7-0.6-0.9-1c0-0.4-0.1-0.5-0.1-0.1c0,0.3,0,0.3,0-0.1
			c0,0.3-0.1,0.5-0.2,0.5c0.1-0.1,0.1-0.2,0.3-0.2c1.3-0.4,2.4,0.1,3.5,1.5c0-0.2-0.3-1.1-0.3-1.1c-0.2-1.3,0-2.3,0.4-3.5
			c-2.3,0.9-4.5,1.8-6.8,2.8c0.6,0.4,1.3,1.3,1.7,2.3c0.3,0.7,0.4,1.5,0.4,2.7c2.3-1.3,4.6-2.7,6.9-4c-1.4-1-2.6-2.8-3.1-4.5
			c-0.8-2.4-3.2-3.9-5.7-3.2C39.1,68.5,37.4,71.2,38.2,73.6L38.2,73.6z"/>

		<path class="dots01" fill="#670D23" d="M79.5,57.3c-0.2-7.1-10.9-6.9-11.1,0.2c-0.1,4.7,4.7,10,9.5,9.7c6-0.3,7.9-7.1,4.9-11.6
			c-2.7-4.2-8-6.2-12.9-6.4c-3.3-0.1-4.9,3-4.5,5.8c1,5.9,6.2,11.1,12.1,11.9c2.5,0.4,4.9-0.6,5.7-3.2c1.4-5.1-1.5-9.9-6.3-11.7
			c-2.3-0.9-5.1,1-5.7,3.2c-0.7,2.6,0.9,4.8,3.2,5.7c-0.1,0-0.2-0.1-0.3-0.1c-0.2-0.2-0.3-0.2,0,0c0,0,0.1,0,0.2,0.4
			c-0.2-0.6-0.1,0.2,0,0.2c-0.2-0.1,0.2-1.3-0.1-0.2c1.9-1.1,3.8-2.2,5.7-3.2c-3.3-0.5-5.1-2.2-5.7-5.5c-1.5,1.9-3,3.9-4.5,5.8
			c0.9,0,2,0.2,2.9,0.6c0.5,0.2,1.1,0.5,1.6,0.9c0,0,1,1.1,0.6,0.5c0.8,0.9-0.2,0.1,0.1-0.2c0.1-1.2,1-2,2.6-2.3
			c0.2,0,0.4,0,0.6,0.1c0.1,0.4-0.5-0.5-0.6-0.7c0.2,0.2,0.2,0.1-0.2-0.3c0.1,0.4,0.1,0.8,0.1,1.2c-0.4,0.7-0.8,1.4-1.2,2
			c-1.3,0.2-2.7,0.4-4,0.5c-0.6-0.6-1.1-1.1-1.7-1.7c0,0.1,0.1,0.1,0.1,0.2c-0.2-0.8-0.4-1.6-0.6-2.3c0,0.1,0,0.2,0,0.3
			C70.4,63.2,79.6,63.3,79.5,57.3L79.5,57.3z"/>

		<path class="dots01" fill="#670D23" d="M110,25.8c-3.8-2-7.7,0.4-8.7,4.4c-0.8,3.2,0.8,7.1,3.2,9.3c2.6,2.4,6.4,3.1,9.5,1.2c2.8-1.7,3.8-5.3,3.1-8.4
			c-0.7-3.4-3.7-5.8-7.1-5.9c-3.7-0.1-7,2.6-8.2,6c-2.6,7.3,6,13.4,12.5,10.6c4.4-1.9,5.4-6.9,3.2-10.9c-1.8-3.3-4.9-6-8.2-7.5
			c-2.3-1-5-0.7-6.3,1.7c-1.2,2-0.6,5.3,1.7,6.3c1,0.4,2,0.9,2.8,1.6c0.5,0.4,1,0.9,1.3,1.4c0.1,0.2,0.5,1,0.7,1.1
			c-0.5-0.2,1.3-2.3,1.3-2.3c0.4,0,0.3,0-0.3,0c0.1,0,0.1,0,0.2,0c-1-0.2,0.5,0-0.1,0.5c0,0,0,0.3,0,0.3c-0.4,0.6-1.5,0.2-1.9-0.1
			c-0.4-0.3-0.4-0.5-0.6-0.9c0-0.2,0-0.4,0.1-0.6c-0.2,0.6-0.1,0.5,0.2-0.1c0.1-0.3,0.3-0.6,0.6-0.7c0.5-0.3,1-0.4,1.4-0.2
			c0.9-0.2,0.4,0.8,0.3-0.1c0,0.2-0.3-0.6-0.3-0.6c-0.1-0.3-0.1-0.4-0.1-0.1c0,0.7-0.4,1.2-1.1,1.7c-0.8,0.2-1.6,0.4-2.3,0.6
			c0.1,0,0.2,0,0.4,0c-0.8-0.2-1.6-0.4-2.3-0.6c0.1,0.1,0.2,0.1,0.4,0.2C110.6,36.5,115.3,28.5,110,25.8L110,25.8z"/>

		<path class="dots01" fill="#670D23" d="M134.6,22c0.1,5.9,4.7,10.5,10.6,10.7c2.5,0.1,4.6-2.2,4.6-4.6c0.2-9.6-7.4-17.3-16.7-18.3
			c-1.9-0.2-4.1,1.6-4.5,3.4C127,21.8,134,31,143.2,30c2.7-0.3,5.6-2.7,4.5-5.8c-1.9-4.9-6.1-7.3-11.2-6.4c-2.5,0.4-3.8,3.4-3.2,5.7
			c0.7,2.6,3.2,3.6,5.7,3.2c-0.6,0.1,0,0.2-0.1-0.1c1.5-1.9,3-3.9,4.5-5.8c-2.8,0.3-6.2-1.9-5.6-5.1c-1.5,1.1-3,2.3-4.5,3.4
			c4.4,0.5,7.5,4.9,7.4,9.1c1.5-1.5,3.1-3.1,4.6-4.6c-0.9,0-1.4-0.7-1.4-1.5C143.7,16.1,134.5,16.1,134.6,22L134.6,22z"/>
	
		<path class="dots01" fill="#670D23" d="M102.9,70.3c-2.8,1.6-5.8,3.7-7.6,6.5c-1.9,2.9-1.4,6.7,1.1,9.1c2.2,2.1,5.6,2.9,8.6,1.9
			c3.2-1.1,5.3-3.6,7.2-6.2c1.8-2.4-0.1-6.1-2.8-6.8c-4-1-8.3-0.5-11.8,1.8c-2.1,1.3-2.9,4.1-1.7,6.3c1.2,2.1,4.2,3,6.3,1.7
			c1.5-1,3-1.3,4.7-0.8c-0.9-2.3-1.8-4.5-2.8-6.8c-0.5,0.6-1.4,1.5-1.8,1.9c-0.9,0.9-0.4-0.1-0.1,0.1c0.5,0.1,0.4,0.1-0.1-0.1
			c0.2,0,0.3,0.1,0.4,0.2c0.1,0.1,0.3,0.2,0.3,0.4c0.5,0.8,0.5,1.6-0.1,2.4c0,0,1.3-1.3,1.4-1.3c1-0.9,2.1-1.6,3.3-2.3
			C112.7,75.3,108.1,67.3,102.9,70.3L102.9,70.3z"/>
	
		<path class="dots01" fill="#670D23" d="M73.9,93.8c1,3,2,6,3.1,9c1,2.8,4.1,4.3,6.8,2.8c4.8-2.7,6.2-9.8,2.4-13.9c-1.8-1.9-4.4-3-7-2.9
			c-3.1,0.2-5.5,1.7-7.3,4.1c-1.5,2-0.3,5.2,1.7,6.3c2.4,1.4,4.8,0.3,6.3-1.7c-0.3,0.4-0.3,0.3-0.7,0.6c0.5-0.1,0.6-0.2,0.2-0.1
			c-0.3,0-0.2,0,0.3,0c-0.8-0.2,0.4,0.1-0.1,0c-0.2,0-0.3-0.1-0.4-0.3c0.4,0.4,0.4,0.4,0.2,0.2c-0.6-0.7,0-0.1-0.2-0.1
			c-0.1-0.5-0.1-0.5-0.1-0.2c0,0.3,0,0.3,0-0.2c0,0.1-0.1,0.3-0.1,0.4c0.2-0.5,0.2-0.4-0.1,0c0.1-0.3,1-0.8,0.1-0.3
			c2.3,0.9,4.5,1.8,6.8,2.8c-1-3-2-6-3.1-9c-0.8-2.4-3.2-3.9-5.7-3.2C74.9,88.8,73.1,91.5,73.9,93.8L73.9,93.8z"/>

		<path class="dots01" fill="#670D23" d="M131.6,50.6c-1.9,1.4-3.1,3.2-3.3,5.6c-0.1,1.6,0.4,3.3,1.3,4.7c2.6,3.9,7.9,4.2,11.2,0.9
			c3.3-3.4,2.8-8.8-1-11.5c-3.1-2.2-7.7-1.7-10.3,1.1c-1.6,1.8-1.9,4.8,0,6.5c1.8,1.6,4.8,1.9,6.5,0c0.6-0.6-1,0.5-0.1,0
			c0.3-0.2,0.1-0.1-0.5,0.2c0.5-0.1,0.3-0.1-0.5,0c0.1,0,0.2,0,0.4,0c0.4,0,0.2,0-0.6-0.1c0.2,0,0.3,0.1,0.5,0.1
			c-0.2-0.1-0.4-0.2-0.6-0.3c0.1,0.1,0.3,0.1,0.4,0.2c-0.6-0.5-0.7-0.6-0.4-0.2c-0.1-0.2-0.3-0.4-0.4-0.5c-0.3-0.7-0.3-0.9-0.2-0.4
			c-0.1-0.8-0.1-0.9-0.1-0.6c0,0.4,0,0.2,0.1-0.6c-0.1,0.5-0.1,0.3,0.2-0.4c-0.2,0.3-0.2,0.3,0.1,0c0.9-0.7-1.4,0.9,0.3-0.3
			c-0.1,0-0.2,0.1-0.2,0.1c0.4-0.3,0.9-0.4,1.3-0.4c-0.4,0-0.4,0,0.1,0c0.4,0,0.7,0.1,1.1,0.3c-0.4-0.2-0.3-0.1,0.4,0.3
			c-0.2-0.3-0.2-0.2,0.1,0.1c0.3,0.4,0.3,0.4,0.1,0.1c0.3,0.8,0.4,0.9,0.2,0.5c-0.2-0.8,0,1.2,0,0.3c0-0.9-0.3,1.1-0.1,0.3
			c-0.4,0.8-0.4,0.9-0.2,0.5c-0.2,0.4-0.6,0.8-1,1c1-0.7,1.8-1.5,2.1-2.8c0.3-1.1,0.2-2.6-0.5-3.6C136.7,50.4,133.7,49.1,131.6,50.6
			L131.6,50.6z"/>
	
		<path class="dots01" fill="#670D23" d="M69.9,116.7c-3.3,1.3-5.8,3.8-6.6,7.3c-0.8,3.5,0.1,7.1,2.6,9.6c1.7,1.7,4.8,1.8,6.5,0
			c2.7-2.8,4.8-6.8,2.5-10.6c-2.1-3.3-7.2-4.5-10-1.3c-1.6,1.9-1.8,4.7,0,6.5c1.7,1.7,4.9,1.9,6.5,0c-1.5,1.1-2.8,1.1-4,0.1
			c-0.5-0.6-0.7-1.3-0.7-2c-0.1-0.1-0.7,0.6-0.8,0.8c2.2,0,4.4,0,6.5,0c-0.5-0.5-0.1,0.2-0.2-0.2c-0.1-0.2-0.1-0.2,0,0
			c0.1,0.2,0.1,0.2,0,0c-0.1-0.3-0.1-0.3,0,0.2c0-0.1,0-0.3,0-0.4c0-0.1,0-0.3,0-0.4c-0.1,0.5-0.1,0.5,0,0.2c0-0.1,0.2-0.9,0.1-0.4
			c-0.2,0.5,0.2-0.4,0.3-0.6c-0.3,0.5-0.2,0,0.1,0c-0.4,0.2-0.4,0.3-0.1,0.1c0.3-0.2,0.2-0.2-0.2,0c2.3-0.9,3.9-3.1,3.2-5.7
			C75,117.7,72.3,115.8,69.9,116.7L69.9,116.7z"/>
	
		<path class="dots01" fill="#670D23" d="M125.7,118.7c0.6,0.9,0.1-0.9,0.1,0.3c0,0.7,0.1,1.4,0.2,2c0.2,1.7,0.9,3.4,2.2,4.6c2.4,2.2,6,2.2,8.7,0.5
			c2.9-1.8,4.2-5.1,3.7-8.4c-0.5-3-2.5-5.5-4.7-7.5c-1.7-1.5-3.6-1.6-5.6-0.7c-1.9,0.9-3.7,2.2-5.1,3.8c-1.7,1.9-1.8,4.6,0,6.5
			c3.1,3.3,8.1,3.2,11.4,0.3c1.9-1.7,1.7-4.8,0-6.5c-1.9-1.9-4.7-1.7-6.5,0c0.3-0.3,0.7-0.5,1.2-0.4c0.4,0.1,1.1,0.8,0.5,0.1
			c0,2.2,0,4.4,0,6.5c1.1-1.2,1.7-1.7,3.2-2.4c-1.9-0.2-3.7-0.5-5.6-0.7c1,0.9,1.9,1.6,2.3,2.6c-0.2-0.3-0.1-0.2,0,0.3
			c-0.1-0.2-0.1-0.4,0-0.7c0-0.3,0.2-0.5,0.4-0.7c-0.4,0.4-0.4,0.4,0,0c1.4-0.3,2,0,3,1c0.1,0.2,0.2,0.4,0.2,0.6c0-0.3,0-0.6-0.1-1
			c-0.1-1.7-0.4-3.5-1.4-4.9c-1.5-2-4-3-6.3-1.7C125.3,113.6,124.2,116.7,125.7,118.7L125.7,118.7z"/>
	
		<path class="dots01" fill="#670D23" d="M140.5,77.8c-1.8,3.7-1.7,8.3,1.3,11.4c3,3.1,7.8,3.3,11.2,0.7c3.5-2.7,4.1-7.8,0.9-11
			c-2.8-2.9-7.9-3.4-10.7-0.2c-1.6,1.8-1.9,4.8,0,6.5c1.8,1.6,4.8,1.9,6.5,0c0.3-0.3,0.3-0.3,0,0c-0.2,0.2-0.5,0.4-0.8,0.5
			c-0.2,0-0.5,0.1-0.7,0.1c0.4,0,0.4,0,0,0c-0.4-0.1-0.4,0,0,0.1c-0.2-0.1-0.4-0.1-0.6-0.2c0.8,0.4-0.6-0.6,0,0
			c-0.4-0.4-0.6-0.8-0.6-1.4c0-0.3,0.3-1.3,0-0.6c0.1-0.2,0.9-1.3,0.3-0.7c0.1-0.1,0.3-0.2,0.4-0.3c-0.4,0.2-0.4,0.2,0,0.1
			c0.6-0.4-0.2,0.2-0.4,0.1c0.2,0,0.4-0.1,0.6-0.1c-0.4,0-0.4,0,0,0c0.4,0.1,0.4,0,0-0.1c0.2,0.1,0.3,0.1,0.5,0.2
			c0.4,0.3,0.5,0.4,0.2,0.2c-0.2-0.2-0.2-0.2,0.2,0.3c-0.3-0.8,0.2,0.5-0.1,0c-0.3-0.5-0.1-0.7-0.1,0c0-0.5,0.2-1.1-0.1-0.2
			c0.1-0.3,0.5-1.2,0-0.3c1.1-2.2,0.7-5.1-1.7-6.3C144.7,75.1,141.6,75.5,140.5,77.8L140.5,77.8z"/>
	
		<path class="dots01" fill="#670D23" d="M170.2,37.1c-2,3.6-2.8,8.6,0.3,11.8c3.4,3.5,9.2,2.4,11.6-1.6c2.5-4,0.3-9.1-4.2-10.4
			c-3.8-1-8.4,1.2-9.3,5.2c-0.5,2.4,0.7,5.1,3.2,5.7c2.3,0.5,5.1-0.7,5.7-3.2c0.1-0.4,0.1-0.3-0.1,0.1c-0.1,0.3-0.3,0.6-0.6,0.9
			c0.6-0.6-0.9,0.6-0.1,0.1c-0.2,0.1-0.4,0.2-0.6,0.3c0.5-0.1,0.3-0.1-0.5,0c0.2,0,1,0,0.2-0.1c-0.2,0-0.5-0.1-0.6-0.2
			c0.2,0.1-0.7-0.6-0.9-0.9c-0.3-0.5-0.4-1.3-0.3-1.9c0.3-0.6,0.4-0.7,0.2-0.4c-0.2,0.3-0.1,0.2,0.3-0.3c-0.5,0.7,0.8-0.4,0,0
			c0.2-0.1,0.4-0.2,0.5-0.2c0.7,0,0.9-0.1,0.5-0.1c-0.4,0-0.2,0,0.5,0.1c0.4,0.2,0.8,0.5,1.2,0.7c-0.4-0.4-0.3-0.3,0.1,0.2
			c0.1,0.2,0.1,0.3,0.2,0.5c-0.3-0.8-0.1,0.8,0-0.1c0.2-1.1-0.3,0.9,0-0.2c0.1-0.4,0.2-0.7,0.3-1.1c-0.3,0.7-0.1,0.2,0.2-0.2
			c1.2-2.1,0.6-5.1-1.7-6.3C174.4,34.3,171.5,34.8,170.2,37.1L170.2,37.1z"/>
	
		<path class="dots01" fill="#670D23" d="M215.5,5.5c-2.4-1.2-5.2-2.2-7.9-1.2c-1.8,0.7-3.4,1.9-3.9,3.9c-0.4,1.4-0.4,2.8,0,4.2c1.3,5,7.4,8,11.9,4.9
			c4.1-2.8,5.2-9.2,1.2-12.6c-3.7-3.2-10.4-2.4-12.6,2.2c-1,2.2-0.7,5.1,1.7,6.3c2,1.1,5.2,0.7,6.3-1.7c0.5-1.1-0.5,0.4,0-0.1
			c-0.2,0.1-0.4,0.3-0.5,0.4c0.4-0.2,0.3-0.2-0.4,0.1c0.2-0.1,0.3-0.1,0.5-0.2c-0.2,0-0.5,0.1-0.7,0.1c0.2,0,0.3,0,0.5,0
			c-0.8-0.1-0.9-0.2-0.5-0.1c0.8,0.3-0.9-0.6-0.2-0.1c-0.6-0.5-0.7-0.6-0.3-0.2c-0.1-0.2-0.3-0.3-0.4-0.5c0.2,0.4,0.2,0.3-0.1-0.4
			c0.1,0.5,0.1,0.3,0-0.4c0.1,0.8,0.3-1,0-0.2c-0.3,0.9,0.5-1,0-0.1c-0.3,0.4-0.2,0.3,0.2-0.3c-0.3,0.3-0.3,0.3,0.1,0
			c0.3-0.2,0.3-0.3,0-0.1c0.7-0.3,0.8-0.3,0.4-0.2c0.3-0.1,0.7-0.1,1,0c0.4,0.1,0.4,0.1,0,0c0.6,0.3,0.8,0.3,0.3,0.1
			c0.5,0.4,0.6,0.5,0.4,0.3c-0.8-0.7,0.3,0.6-0.1-0.1c0.2,0.6,0.3,0.8,0.2,0.4c0-0.1-0.1-0.3-0.1-0.4c0.5,0.3-0.3,2.1,0.2,0.7
			c-0.7,0.9-1.4,1.8-2.1,2.8c0.4-0.2,0.4-0.3,0-0.1c-0.3,0.1-0.5,0.2-0.8,0.2c0.8,0-0.5-0.2,0,0c0.3,0.1,0.6,0.2,0.9,0.3
			c-0.7-0.2-0.2-0.1,0.2,0.1c2.2,1.1,5.1,0.6,6.3-1.7C218.2,9.8,217.8,6.7,215.5,5.5L215.5,5.5z"/>
	
		<path class="dots01" fill="#670D23" d="M162.7,15.4c-0.3,1.7-0.3,3.3,0.2,5c0.8,2.2,2.2,4.3,4.7,4.6c2.2,0.3,4.2-0.8,5.4-2.7
			c1.5-2.5,0.5-5.6-1.9-7.1c-2.1-1.3-5.2-0.5-6.3,1.7c-1.2,2.3-0.5,4.9,1.7,6.3c0,0,0.1,0,0.1,0.1c-0.3-0.2-0.6-0.5-0.9-0.7
			c0,0,0.1,0.1,0.1,0.1c-0.2-0.3-0.5-0.6-0.7-0.9c0,0,0,0.1,0.1,0.1c-0.2-0.4-0.3-0.7-0.5-1.1c0,0,0,0.1,0,0.1
			c-0.1-0.4-0.1-0.8-0.2-1.2c0,0,0,0.1,0,0.1c0.1-0.4,0.1-0.8,0.2-1.2c0,0.1,0,0.2-0.1,0.2c0.2-0.4,0.3-0.7,0.5-1.1
			c0,0.1-0.1,0.2-0.1,0.2c0.2-0.3,0.5-0.6,0.7-0.9c-0.1,0.1-0.1,0.1-0.2,0.2c0.3-0.2,0.6-0.5,0.9-0.7c0,0-0.1,0-0.1,0.1
			c0.4-0.2,0.7-0.3,1.1-0.5c-0.1,0-0.1,0.1-0.2,0.1c0.4-0.1,0.8-0.1,1.2-0.2c0,0-0.1,0-0.1,0c0.4,0.1,0.8,0.1,1.2,0.2
			c0,0-0.1,0-0.1,0c0.4,0.2,0.7,0.3,1.1,0.5c0,0-0.1-0.1-0.1-0.1c0.6,0.6,1.1,1.1,1.7,1.7c-0.2-0.3-0.4-0.6-0.6-1
			c0.2,0.4,0.3,0.7,0.5,1.1c-0.2-0.4-0.3-0.9-0.4-1.3c0.1,0.4,0.1,0.8,0.2,1.2c0-0.4,0-0.8,0-1.2c-0.1,0.4-0.1,0.8-0.2,1.2
			c0-0.1,0-0.2,0-0.2c0.2-1.3,0.2-2.4-0.5-3.6c-0.6-1-1.7-1.9-2.8-2.1c-1.2-0.3-2.5-0.2-3.6,0.5C163.9,13.3,162.8,14.3,162.7,15.4
			L162.7,15.4z"/>
	
		<path class="dots01" fill="#670D23" d="M82.5,157.6c-3.9-3.7-11.2-3-13.6,2.1c-2.6,5.5,1.5,12.2,7.7,12.3c6.2,0.1,10.1-7.2,7.4-12.5
			c-2.6-5.2-10.4-5.6-13.7-0.9c-4.1,6,3.5,13.9,9.7,10.3c2.1-1.2,3-4.2,1.7-6.3c-1.4-2.1-4.1-3-6.3-1.7c0.5-0.3,1.1-0.3,1.6-0.3
			c0.2,0,1.1,0.4,0.8,0.2c-0.5-0.3,0.8,0.7,0.1,0c0.3,0.3,0.5,0.6,0.6,1c-0.2-0.6,0,0.1,0,0.4c0,0.5-0.2,1-0.5,1.4
			c-0.1,0.1-0.8,0.7-0.5,0.5c0.5-0.3-1,0.5-1.1,0.3c0,0,0.6,0,0.6,0c-0.2,0-0.4,0-0.6-0.1c0.4,0.1,0.4,0.1,0,0
			c-0.9,0,0.6-0.1-0.2-0.1c-0.3-0.2-0.3-0.2,0,0c-0.1-0.1-0.2-0.3-0.3-0.4c-0.1-0.2-0.3-0.8-0.1-0.2c0-0.2-0.1-0.4-0.1-0.6
			c0,0.4,0,0.5,0,0.1c0.2-0.9-0.3,0.6,0-0.2c0.2-0.6-0.6,0.6,0.2-0.3c0,0-0.5,0.5-0.5,0.5c-0.1-0.2,0.8-0.5,0.9-0.5
			c-1,0.4,0.6,0,0,0c-0.5,0,0.5,0.1,0.6,0.1c0.3,0.2,0.3,0.1-0.1-0.1c0.1,0.1,0.3,0.2,0.4,0.3c-0.1-0.4-0.2-0.2,0,0.2
			c-0.1-0.2-0.3-0.9-0.2-0.4c0.1,0.7,0.1-0.7,0.1,0.2c0,0.4,0.1,0.4,0.1-0.1c0,0.2,0,0.4,0,0.6c-0.1,0.3-0.4,0.6,0,0.2
			c-0.1,0.1-1,0.9-0.6,0.6c0.2-0.2,0.7-0.2,0.2-0.1c-0.3,0.1-0.3,0.1-0.1,0.1c0.3-0.1,0.2-0.1-0.4,0c0,0,0.6,0,0.7,0
			c-0.1-0.1-1-0.1-0.3,0c-0.5-0.3-0.7-0.3-0.4-0.1c0.3,0.2,0.2,0.1-0.3-0.2c1.8,1.7,4.8,1.9,6.5,0C84.2,162.3,84.4,159.3,82.5,157.6
			L82.5,157.6z"/>
	
		<path class="dots01" fill="#670D23" d="M160.9,101c-3.9,2.7-6.2,6.7-6.4,11.5c-0.1,1.9,1.5,4.1,3.4,4.5c3.4,0.6,7.1,0.9,10.2-1.1
			c2.9-1.9,4.7-5.3,4.2-8.7c-0.5-3.7-3.9-6.4-7.6-6.3c-3.3,0-6.3,2-8.7,4c-1.9,1.6-1.7,4.9,0,6.5c1.9,1.9,4.6,1.6,6.5,0
			c0.2-0.2,0.5-0.4,0.1-0.1c0.3-0.2,0.6-0.4,1-0.6c0.3-0.2,0.5-0.3,0.8-0.4c0.6-0.3-0.5,0.1,0.1,0c0.7-0.2,0.6,0.1,0.2-0.1
			c0.1,0,0.3,0,0.4,0c-0.2,0-0.3,0-0.5,0c-0.5-0.2-1-0.5-1.2-1c-0.1-0.2-0.2-1.3-0.2-0.8c0,0.7,0-0.8,0-0.1c-0.1,0.3-0.1,0.2,0,0
			c0.1-0.3,0.1-0.3,0,0c-0.1,0.2-0.1,0.2,0,0c0.2-0.3,0.1-0.2-0.2,0.1c0.1-0.2,0.3-0.3,0.5-0.3c-0.3,0.1-0.6,0.2-1,0.3
			c0.5-0.1-0.1,0-0.3,0c-0.9,0-1.4-0.1-1.8-0.1c1.1,1.5,2.3,3,3.4,4.5c0-0.5,0.2-1.3,0.5-1.9c0.1-0.2,0.9-1.3,0.5-0.8
			c0.1-0.2,1.3-1.2,0.8-0.8c2-1.4,3-4,1.7-6.3C166,100.7,162.9,99.6,160.9,101L160.9,101z"/>

		<path class="dots01" fill="#670D23" d="M35.9,109.6c-2.6,1-4.5,2.8-5.3,5.5c-0.7,2.2-0.5,4.9,0.8,6.9c1.2,1.8,3.1,2.5,5.2,2.1
			c3.3-0.7,5.8-3.3,6.8-6.4c0.9-2.8-1.5-6-4.5-5.8c-2.7,0.1-5.4,1.3-6.2,4.1c-0.8,2.8,0.8,6,3.7,6.7c3.2,0.8,6.1-1.6,6.2-4.9
			c0.1-3.4-3.1-5.6-6.2-4.9c-2.4,0.5-4,3.4-3.2,5.7c0.8,2.5,3.2,3.8,5.7,3.2c0,0,0.1,0,0.1,0c-1.2-0.2-2.4-0.3-3.6-0.5
			c0,0,0.1,0,0.1,0c-0.6-0.6-1.1-1.1-1.7-1.7c0-1.3,0-2.6,0-3.9c0.6-0.6,1.1-1.1,1.7-1.7c0,0-0.1,0.1-0.1,0.1
			c0.8-0.2,1.6-0.4,2.3-0.6c0.3,0,0.6,0.1,0.9,0.1c0.7,0.4,1.4,0.8,2,1.2c0.2,1.5,0.4,2.9,0.7,4.4c-0.6,0.6-1.1,1.1-1.7,1.7
			c0.5-0.3,0.3-0.3-0.4,0c-0.8,0.2-0.9,0.2-0.4,0.2c-1.5-1.9-3-3.9-4.5-5.8c-0.3,0.9,0.5-0.8-0.1,0.1c0.4-0.5,0.5-0.6,0.2-0.3
			c-0.1,0.1-0.2,0.2-0.3,0.3c0.1-0.1,0.3-0.2,0.4-0.3c-0.2,0.1-0.4,0.2-0.6,0.3c0.2-0.1,0.3-0.2,0.5-0.2c-0.2,0.1-0.4,0.1-0.6,0.1
			c1.7,0.7,3.5,1.4,5.2,2.1c-0.4-0.6,0.1,0.3,0.1,0.4c0,0-0.2-1.1-0.1-0.2c0.1,0.8,0,0.1,0.1,0c0.1-0.6-0.2,1.3,0,0.3
			c0.1-0.7,0,0.3-0.2,0.4c0,0,0.3-0.4,0.3-0.5c-0.1,0.2-0.3,0.3-0.4,0.5c0.3-0.3,0.2-0.3-0.1,0c-0.3,0.2-0.4,0.3-0.1,0.1
			c0.3-0.2,0.1-0.1-0.5,0.2c2.2-0.9,4.1-3.1,3.2-5.7C40.9,110.6,38.3,108.6,35.9,109.6L35.9,109.6z"/>
	
		<path class="dots01" fill="#670D23" d="M42.4,148.4c-5.4,0.4-9.6,5.4-8,10.9c1.5,5.1,8,7.5,12.5,4.7c4.5-2.9,5.2-10.2,0.4-13.1
			c-4.5-2.7-11.2,0.6-10.9,6.1c0.1,2.4,2,4.7,4.6,4.6c2.4-0.1,4.8-2,4.6-4.6c0-0.6-0.1-0.4-0.2,0.5c0,0.5-0.2,0.9-0.6,1.2
			c-0.5,0.4-0.7,0.5-0.4,0.3c0.3-0.2,0.2-0.1-0.4,0.2c0.7-0.3-0.3,0-0.6,0c-0.5-0.1-1-0.3-1.3-0.7c-0.4-0.4-0.5-0.9-0.6-1.5
			c0.1,1.1-0.1-1,0,0.1c0.1-0.2,0.1-0.3,0.2-0.5c-0.2,0.4-0.2,0.4,0,0.1c0.1-0.2,0.3-0.4,0.5-0.5c0.5-0.2,0.6-0.2,0.3-0.1
			c-0.6,0.1,0.9-0.1,0,0c0.6,0.1,0.7,0.1,0.4,0c-0.3-0.1-0.2-0.1,0.3,0.1c-0.7-0.5,0.4,0.7-0.2-0.1c0.1,0.2,0.5,1.1,0.4,0.7
			c-0.1-0.5,0,0.6-0.1,0.8c0.1-1.2-0.2,0.9,0.1-0.3c-0.3,0.4-0.4,0.4-0.1,0.2c0.2-0.2,0.2-0.2-0.2,0.1c0.6-0.4-0.2,0.1-0.6,0.1
			c2.4-0.2,4.7-2,4.6-4.6C46.9,150.7,45,148.2,42.4,148.4L42.4,148.4z"/>
	
		<path class="dots01" fill="#670D23" d="M144.9,143.6c-1.5,3.7-1.4,8.5,1.5,11.5c2.7,2.8,7.2,3.4,10.5,1.4c3.8-2.4,4.2-7.6,1-10.6
			c-3-2.9-8.4-2.9-10.5,1.1c-1.1,2.1-0.6,5.1,1.7,6.3c2.1,1.1,5.1,0.6,6.3-1.7c0.3-0.5,0.1-0.3-0.5,0.4c-0.3,0.5-0.7,0.8-1.3,0.9
			c-0.3,0-0.5,0.1-0.8,0.1c-0.8-0.1-1-0.2-0.6-0.1c0.5,0.1-1-0.5-0.3-0.1c-0.5-0.4-0.7-0.5-0.4-0.3c0.2,0.3,0.1,0.1-0.3-0.4
			c-0.6-1-0.4-2.4,0.4-3.2c0.5-0.4,0.7-0.5,0.4-0.3c-0.3,0.2-0.2,0.1,0.4-0.2c-0.8,0.3,0.7,0,0.2,0c-0.5,0,1.1,0.3,0.2,0
			c-0.8-0.2,0.6,0.3,0.1,0c-0.5-0.3,0.8,0.5,0.1,0c0.3,0.4,0.4,0.5,0.2,0.2c-0.2-0.3-0.1-0.2,0.1,0.2c-0.1-0.9-0.1,0.4-0.1-0.2
			c0-0.3,0-0.7,0-1c-0.1,1,0.1-0.3,0.2-0.4c0.1-0.4,0.3-0.8,0.4-1.2c0.9-2.2-1-5.2-3.2-5.7C147.9,139.7,145.9,141.2,144.9,143.6
			L144.9,143.6z"/>
	
	
		<path class="dots01" fill="#670D23" d="M104.5,124.2c-6.4,1.5-8.9,10.2-4.3,14.9c4.6,4.7,13.9,2.1,15-4.6c0.3-2.1-0.2-4.1-2.1-5.2
			c-4-2.3-9-2.3-13,0.2c-2.1,1.3-3,4.1-1.7,6.3c1.2,2.1,4.2,3,6.3,1.7c1.4-0.9,2.3-0.9,3.6-0.2c-0.7-1.7-1.4-3.5-2.1-5.2
			c0,0.1-0.1,0.7-0.2,0.7c-0.2-0.1,0.7-1.1,0.3-0.7c-0.4,0.5,0.6-0.5,0.1,0c-0.1,0.1-0.8,0.4-0.3,0.2c0.6-0.2-0.4,0.1-0.5,0.1
			c0.4-0.1,0.7-0.2,0.1-0.1c0.3-0.1,0.7,0.2,0.2,0c0.2,0.1,1,0.6,0.7,0.3c-0.3-0.3,0.2,0.3,0.3,0.5c0.2,0.3,0.1-0.2,0,0.2
			c-0.2,0.5,0-0.2,0-0.4c0,0.3,0,0.8,0,0.2c0.1-0.6,0.2-0.2-0.1,0.1c0.4-0.5,0,0-0.1,0.1c1-0.4-0.6,0.2,0,0c0.6-0.2-1.1,0.3,0.1,0
			c2.4-0.6,3.9-3.3,3.2-5.7C109.5,125,107,123.7,104.5,124.2L104.5,124.2z"/>
	
		<path class="dots01" fill="#670D23" d="M3.4,145.8c-0.6,6.8,4.2,13.1,10.6,14.9c2.8,0.8,6-1.5,5.8-4.5c-0.2-6-4.1-11-9.8-12.8
			c-1.5-0.5-3.4,0-4.5,1.2c-2.2,2.3-3.1,5.6-2,8.6c0.8,2.3,3.1,4,5.7,3.2c2.8-0.8,5-2.5,6.5-5c3-5.2-5-9.8-8-4.7
			c-0.3,0.6-0.3,0.6-1,0.8c1.9,1.1,3.8,2.2,5.7,3.2c-0.4-1.1,0.1-0.1-0.3,0.4c-1.5,0.4-3,0.8-4.5,1.2c1.8,0.5,2.9,2.2,3,3.9
			c1.9-1.5,3.9-3,5.8-4.5c-2.7-0.8-4-3.4-3.8-6c0.2-2.5-2.3-4.6-4.6-4.6C5.3,141.2,3.6,143.3,3.4,145.8L3.4,145.8z"/>
	
		<path class="dots01" fill="#670D23" d="M107.8,170.9c-2,5.4,3,12,8.7,11.4c2.1-0.2,3.9-1.3,4.5-3.4c1.8-6.5-3.1-12.7-9.6-13.3
			c-2.7-0.2-4.3,2.3-4.6,4.6c-0.6,5.2,3.3,10.3,8.3,11.5c2.9,0.7,5.8-1.4,5.8-4.5c0.1-5.9-4.7-10.5-10.4-11
			c-2.4-0.2-4.7,2.3-4.6,4.6c0.1,2.7,2,4.4,4.6,4.6c-0.4,0-0.5-0.1,0,0c0.4,0.1,0.4,0.2,0,0c0.2,0.1,0.5,0.3,0.7,0.4
			c-0.5-0.4-0.1,0,0.1,0.2c0.5,0.5-0.3-0.5,0,0.1c0,0.1,0.4,0.8,0.2,0.4c-0.2-0.5,0.1,0.3,0.1,0.4c0.2,0.6,0-1,0,0.2
			c1.9-1.5,3.9-3,5.8-4.5c-0.3-0.1-0.5-0.1-0.8-0.2c0.8,0.3,0-0.1-0.2-0.2c-0.5-0.4,0.4,0.4,0-0.1c-0.2-0.2-0.6-0.9-0.2-0.2
			c-0.1-0.2-0.3-0.5-0.4-0.7c0.2,0.4,0.1,0.4,0,0c-0.2-0.8-0.1,0.3,0-0.2c0-0.3,0-0.7,0.1-1c-1.5,1.5-3.1,3.1-4.6,4.6
			c-1-0.1-0.2,0,0.1,0.1c0.3,0.1,0.2,0.1-0.2-0.1c0.1,0.1,0.2,0.1,0.3,0.2c-0.3,0-0.5-0.5,0.1,0.1c0.3,0.3,0.4,0.8,0.1,0.1
			c0.1,0.2,0.3,0.5,0.4,0.7c-0.5-0.8,0-0.1,0,0.1c0,0.5-0.1-0.8,0,0.1c0.1,0.9,0.2-0.7-0.1,0.3c1.5-1.1,3-2.3,4.5-3.4
			c-1.1,0.1-0.5,0,0.2,0.3c-0.4-0.3-0.4-0.2,0,0.1c-0.2-0.2-0.4-0.3-0.5-0.5c0.3,0.4,0.4,0.5,0.1,0c0.2,0.5,0.3,0.6,0.1,0.1
			c0.1,0.8-0.2,1.4,0.2,0.3c0.9-2.3-0.9-5.2-3.2-5.7C110.8,167.1,108.7,168.5,107.8,170.9L107.8,170.9z"/>
	
		<path class="dots01" fill="#670D23" d="M21.2,189.7c-1.5-1-3.4-1.5-5.2-1.3c-2,0.2-4,1.3-4.5,3.4c-1.6,6.7,6.2,13,12.3,9.2c6-3.7,3.7-13.2-2.8-14.9
			c-3.6-0.9-7.8,1.2-8.7,5c-0.9,3.6,1.3,7.5,4.9,8.6c3.5,1.1,7.4-0.7,9.2-3.9c1.9-3.4,1.3-7.4-0.7-10.6c-3.1-5.1-11.1-0.4-8,4.7
			c0.1,0.2,0.9,1.6,0.6,1.6c-0.2,0,0.7-0.6,0.8-0.6c0.7-0.1,1.7,0.4,2.1,1c0.3,0.7,0.1,1.1-0.2,1.7c-0.6,1.4-1,1.4-2.4,1.4
			c-0.4-0.2-0.5-0.3-0.2-0.1c0.3,0.2,0.2,0.1-0.2-0.1c-0.1-0.1-0.1-0.2-0.2-0.3c0.2,0.4,0.3,0.5,0.1,0.1c-0.1-0.3-0.1-0.3,0.1,0.2
			c0-0.2,0-0.3,0-0.5c0,0.1,0,0.3,0,0.4c0-0.2,0-0.5,0.1-0.7c0.3-0.5,0.7-1,1.3-1.1c0.2-0.1,0.5-0.1,0.7,0c0.3,0.1,0.3,0.1-0.2,0
			c0.1,0.1,0.2,0.1,0.3,0.2c-0.4-0.3-0.5-0.3-0.2-0.1c0.2,0.2,0.2,0.1,0,0c-0.2-0.2-0.2-0.2,0.1,0.1c0.1,0.4,0.3,0.8,0.2,1.2
			c-1.5,1.1-3,2.3-4.5,3.4c1-0.1-0.3-0.5,0.6,0.1c2.1,1.4,5.1,0.4,6.3-1.7C24.2,193.8,23.3,191.1,21.2,189.7L21.2,189.7z"/>
	
		<path class="dots01" fill="#670D23" d="M68,187.5c-3.4,3.8-3.6,9.9,0.3,13.5c3.7,3.4,9.9,2.9,13.1-0.9c3.6-4.1,2.4-10.8-2.3-13.6
			c-2.2-1.3-4.8-1.6-7.2-0.9c-3,0.9-4.8,3.1-5.9,5.9c-0.9,2.3,1,5.1,3.2,5.7c2.6,0.7,4.7-0.9,5.7-3.2c-0.2,0.5-0.5,0.6,0,0.2
			c-0.5,0.4-0.7,0.2-0.1,0.2c-0.4,0-0.5,0-0.1,0c0.4,0,0.3,0-0.2,0c-0.4-0.2-0.5-0.2-0.2-0.1c0.3,0.2,0.2,0.1-0.1-0.1
			c0.3,0.3,0.4,0.4,0.2,0.2c-0.2-0.3-0.2-0.2,0.1,0.2c-0.2-0.4-0.2-0.5-0.1-0.2c0.1,0.3,0.1,0.3,0-0.2c0,0.5,0,0.5,0,0.2
			c0-0.2,0.1-0.4,0.2-0.6c-0.2,0.4-0.3,0.4-0.1,0.2c0.2-0.3,0.2-0.2-0.1,0.1c0.1-0.1,0.2-0.2,0.3-0.3c-0.5,0.2-0.4,0.3,0.1,0
			c-0.1,0-0.2,0.1-0.4,0.1c-0.5,0.1-0.5,0.1,0.1,0c-0.1,0-0.3,0-0.4,0c0.6,0.1,0.6,0.1,0.1,0c0.1,0.1,0.3,0.1,0.4,0.2
			c-0.4-0.3-0.4-0.3,0,0c0.1,0.1,0.1,0.2,0.2,0.3c-0.3-0.5-0.3-0.5-0.1,0c0-0.1-0.1-0.3-0.1-0.4c0,0.5,0,0.6,0,0.2
			c0-0.2,0-0.4,0-0.6c-0.1,0.5-0.1,0.6,0,0.2c0.1-0.3,0.1-0.3-0.1,0.2c0.3-0.4,0.3-0.5,0,0c1.7-1.8,1.8-4.7,0-6.5
			C72.8,185.8,69.7,185.7,68,187.5L68,187.5z"/>
	
</g>
</svg>