
<svg version="1.1" id="animate02" xmlns="http://www.w3.org/2000/svg" xmlns:xlink="http://www.w3.org/1999/xlink" x="0px" y="0px"
	 viewBox="0 0 470 412" style="enable-background:new 0 0 470 412;" xml:space="preserve">
<g>
	<path class="dots02" fill="#F9A46D" d="M354.5,275.4c-13.6-27.2-80.4-80-102.6-35c-0.2,0.2-0.2,0.4-0.4,0.6c-11.6,1.8-21.6,10.2-21,25.2
		c1.8,44,28.6,89.2,72.2,103.8C359.1,388.8,373.5,313,354.5,275.4z"/>
	<path class="dots02" fill="#F9A46D" d="M189.3,171.2c-10-10.4-22.4-9.6-31.6-3.6c-4.4,1-8.8,3.2-12.6,7.2c-15,15-21.2,35.6-17.8,56.4
		c3.4,20.8,18.6,42.8,40.8,45.4c28.6,3.4,42.2-23.6,43.8-48C213.1,207.2,203.9,186.4,189.3,171.2z"/>
	<path class="dots02" fill="#F9A46D" d="M262.3,120.8c-1.8-1.4-3.6-2.6-5.4-3.8c-4.6-3.6-10.4-5.6-15.8-5.4c-15.4,0.6-25.2,11.8-26.6,26.6
		c-2.2,25,19.4,61.8,48.6,49.4C291.3,175.6,281.9,136.2,262.3,120.8z"/>
	<path class="dots02" fill="#F9A46D" d="M425.1,161.4c-9.8-19.8-31.4-28.6-52.2-31.4c-15.8-2.2-31.2,6.2-35.2,22.4c-1,4.2-1.2,8-1,12
		c-3.6,9.4-1.6,20.2,5.8,28.2c12.8,14.2,32.8,26,52.4,26.6C425.9,220.2,436.9,185.2,425.1,161.4z"/>
	<path class="dots02" fill="#F9A46D" d="M346.1,36.8c-13.8-16-34.2-23.4-53.8-29.4c-23.2-7.2-37,16.4-31.4,34.4c-1.4,4.4-1.6,9.2,0.2,13.6
		c7.6,19.6,18.8,35.8,35.8,48.4c20,14.8,47.8,20.8,61-6.2C367.9,77.4,360.1,53,346.1,36.8z"/>
	<path class="dots02" fill="#F9A46D" d="M459.5,261.6c-6.2-13.6-17.4-22-31-27.4c-9.2-3.6-20.2,0.8-27,8.4c-3,0.6-6,1.4-8.4,3.2
		c-12.8,8.2-16.2,23-9.6,36.4c6.4,12.8,15,25.8,25.4,35.8c9.8,9.4,23.8,13.2,36.4,6.4c8-4.2,12.6-11,16-19.2
		C467.1,290.8,465.7,275.4,459.5,261.6z"/>
	<path class="dots02" fill="#F9A46D" d="M218.9,319.6c-6-11.2-20.4-15.6-32-11.6c-3.6-1.8-7.4-2.8-11.2-2.8c-15,0-26,12.2-26.6,26.6
		c-0.8,15-1,31.8,3.2,46.2c5.8,20.4,26.8,36.2,47.8,26.2C230.5,389.6,233.1,346,218.9,319.6z"/>
	<path class="dots02" fill="#F9A46D" d="M124.3,274.4c-1.2-14.4-11.4-26.6-26.6-26.6c-2.6,0-5.4,0.6-8,1.4c-5-0.4-10.2,0.6-14.2,3.8
		c-13.6,10.4-24.2,23-29,39.8c-5.4,18.6-1.6,40,16.8,49.8C102.9,363.8,126.9,304.6,124.3,274.4z"/>
	<path class="dots02" fill="#F9A46D" d="M114.3,61.8c-5-5.4-10.8-7.8-16.6-8.2c-11.6-8.6-29.6-9.4-39.8,6c-14,21.2-25.8,44.8-20.8,71
		c4,21,21.8,46.2,45.6,46.2c24.8,0,41-27,47.2-48.2C136.9,104.6,131.1,80,114.3,61.8z"/>
	<path class="dots02" fill="#F9A46D" d="M198.3,8.4c-10.6-6-25.4-4-33.4,5.2c-1.6,0.6-3.4,1.4-4.8,2.4c-11.6,7.4-17.6,24-9.6,36.4
		c6.8,10.4,13,23.4,22,32c15.8,15,41.4,10.8,50.2-9.8C232.7,50.2,220.5,21,198.3,8.4z"/>
	<path class="dots02" fill="#F9A46D" d="M451.1,69.4c-4.6-3-9.2-5.8-13.6-8.8c-11.8-7.6-29.8-2.8-36.4,9.6c-7,13.2-3,28.4,9.6,36.4
		c4.6,3,9.2,5.8,13.6,8.8c11.8,7.6,29.8,2.8,36.4-9.6C467.5,92.6,463.5,77.4,451.1,69.4z"/>
	<path class="dots02" fill="#F9A46D" d="M50.1,180.6c-9.2-10.6-28.4-10-37.6,0c-7.8,8.6-9.4,19.4-5.4,29c0,11.6,7.8,23.4,19.4,26.2
		c14.2,3.2,28.6-4.2,32.8-18.6C63.3,203.8,59.1,191,50.1,180.6z"/>
</g>
</svg>
