<?xml version="1.0" encoding="utf-8"?>
<!-- Generator: Adobe Illustrator 24.2.0, SVG Export Plug-In . SVG Version: 6.00 Build 0)  -->
<svg version="1.1" id="Layer_1" xmlns="http://www.w3.org/2000/svg" xmlns:xlink="http://www.w3.org/1999/xlink" x="0px" y="0px"
	 viewBox="0 0 106.6 87.5" style="enable-background:new 0 0 106.6 87.5;" xml:space="preserve">
<style type="text/css">
	.st0{opacity:0.1;}
	.st1{clip-path:url(#SVGID_2_);}
	.st2{fill:#FFFFFF;}
</style>
<g class="st0">
	<defs>
		<path id="SVGID_1_" class="st0" d="M14.5,76.6C4.3,70,0.9,54.9,7.3,44.5c1.8-2.9,4.2-5.4,5.6-8.4c3.5-7.4,0.8-16.9,5.3-23.8
			c2.7-4.1,7.6-6.4,12.5-7.2s9.9-0.3,14.8,0c7.9,0.5,15.9,0.3,23.8-1C74,3.3,79,2.1,83.6,3.6c6.8,2.2,10.5,9.3,13.2,15.8
			c4.6,10.9,8.7,22.5,7.3,34.3s-9.5,23.5-21.2,25.2c-3.9,0.6-7.9,0.1-11.9,0.6c-7.4,1-14.2,5.8-21.7,5.1c-4.8-0.4-9-3.1-12.9-5.9
			c-3.8-2.7-8.4-5.7-12.7-4c-1.1,0.5-2.1,1.2-3.3,1.5c-2.8,0.6-6-1.6-8.2,0.1"/>
	</defs>
	<clipPath id="SVGID_2_">
		<use xlink:href="#SVGID_1_"  style="overflow:visible;"/>
	</clipPath>
	<g class="st1">
		<path class="st2" d="M14.2,18c1-1.1,1.9-2.3,2.9-3.4c0.5-0.6-0.4-1.4-0.9-0.8c-1,1.1-1.9,2.3-2.9,3.4C12.7,17.9,13.7,18.6,14.2,18
			L14.2,18z"/>
	</g>
	<g class="st1">
		<path class="st2" d="M23.2,9.2c0.7-0.8,1.4-1.7,2.1-2.5c0.5-0.6-0.4-1.4-0.9-0.8c-0.7,0.8-1.4,1.7-2.1,2.5
			C21.7,9,22.6,9.8,23.2,9.2L23.2,9.2z"/>
	</g>
	<g class="st1">
		<path class="st2" d="M17.6,21.5c0.6-0.7,1.2-1.4,1.8-2.2c0.5-0.6-0.4-1.4-0.9-0.8c-0.6,0.7-1.2,1.4-1.8,2.2
			C16.2,21.3,17.1,22.1,17.6,21.5L17.6,21.5z"/>
	</g>
	<g class="st1">
		<path class="st2" d="M36.2,10.6c0.5-0.6,1-1.2,1.6-1.9c0.5-0.6-0.4-1.4-0.9-0.8c-0.5,0.6-1,1.2-1.6,1.9
			C34.8,10.4,35.7,11.2,36.2,10.6L36.2,10.6z"/>
	</g>
	<g class="st1">
		<path class="st2" d="M22.8,27.9c0.6-0.7,1.2-1.4,1.8-2.2c0.5-0.6-0.4-1.4-0.9-0.8c-0.6,0.7-1.2,1.4-1.8,2.2
			C21.4,27.7,22.3,28.5,22.8,27.9L22.8,27.9z"/>
	</g>
	<g class="st1">
		<path class="st2" d="M28.1,13.3c-0.7,0.8-1.4,1.7-2.1,2.5c-0.5,0.6,0.4,1.4,0.9,0.8c0.7-0.8,1.4-1.7,2.1-2.5
			C29.5,13.5,28.6,12.7,28.1,13.3L28.1,13.3z"/>
	</g>
	<g class="st1">
		<path class="st2" d="M9.4,31.7c0.6,0.5,1.4-0.4,0.8-0.9C9.6,30.2,8.8,31.2,9.4,31.7L9.4,31.7z"/>
	</g>
	<g class="st1">
		<path class="st2" d="M19.1,34.8c-1,1.2-2.1,2.5-3.1,3.7c-0.5,0.6,0.4,1.4,0.9,0.8c1-1.2,2.1-2.5,3.1-3.7
			C20.6,35,19.6,34.2,19.1,34.8L19.1,34.8z"/>
	</g>
	<g class="st1">
		<path class="st2" d="M5.3,38.1c-0.7,0.8-1.4,1.7-2.1,2.5c-0.5,0.6,0.4,1.4,0.9,0.8c0.7-0.8,1.4-1.7,2.1-2.5
			C6.8,38.2,5.9,37.5,5.3,38.1L5.3,38.1z"/>
	</g>
	<g class="st1">
		<path class="st2" d="M15.4,28c-0.3,0.3-0.5,0.6-0.8,0.9c-0.5,0.6,0.4,1.4,0.9,0.8c0.3-0.3,0.5-0.6,0.8-0.9
			C16.8,28.2,15.9,27.4,15.4,28L15.4,28z"/>
	</g>
	<g class="st1">
		<path class="st2" d="M-0.5,30.5c-0.4,0.5-0.9,1-1.3,1.6c-0.5,0.6,0.4,1.4,0.9,0.8c0.4-0.5,0.9-1,1.3-1.6C0.9,30.7,0,29.9-0.5,30.5
			L-0.5,30.5z"/>
	</g>
	<g class="st1">
		<path class="st2" d="M9.2,42.9c-0.7,0.8-1.4,1.7-2.1,2.5c-0.5,0.6,0.4,1.4,0.9,0.8c0.7-0.8,1.4-1.7,2.1-2.5
			C10.7,43.1,9.7,42.3,9.2,42.9L9.2,42.9z"/>
	</g>
	<g class="st1">
		<path class="st2" d="M8.7,24c-0.3,0.4-0.7,0.8-1,1.2c-0.5,0.6,0.4,1.4,0.9,0.8c0.3-0.4,0.7-0.8,1-1.2C10.1,24.2,9.2,23.4,8.7,24
			L8.7,24z"/>
	</g>
	<g class="st1">
		<path class="st2" d="M11.2,36.1c-0.4,0.5-0.9,1-1.3,1.6c-0.5,0.6,0.4,1.4,0.9,0.8c0.4-0.5,0.9-1,1.3-1.6
			C12.6,36.3,11.7,35.5,11.2,36.1L11.2,36.1z"/>
	</g>
	<g class="st1">
		<path class="st2" d="M37,0.5c0.6,0.5,1.4-0.4,0.8-0.9C37.2-0.9,36.4,0,37,0.5L37,0.5z"/>
	</g>
	<g class="st1">
		<path class="st2" d="M16.5,2c-1,1.2-2.1,2.5-3.1,3.7c-0.5,0.6,0.4,1.4,0.9,0.8c1-1.2,2.1-2.5,3.1-3.7C17.9,2.2,17,1.4,16.5,2
			L16.5,2z"/>
	</g>
	<g class="st1">
		<path class="st2" d="M35.6,19.6c-0.7,0.8-1.4,1.7-2.1,2.5c-0.5,0.6,0.4,1.4,0.9,0.8c0.7-0.8,1.4-1.7,2.1-2.5
			C37,19.7,36.1,19,35.6,19.6L35.6,19.6z"/>
	</g>
	<g class="st1">
		<path class="st2" d="M30.7,3.6c0.6,0.5,1.4-0.4,0.8-0.9C30.9,2.2,30.1,3.1,30.7,3.6L30.7,3.6z"/>
	</g>
	<g class="st1">
		<path class="st2" d="M30.3-7.5c-0.9,1-1.7,2.1-2.6,3.1c-0.5,0.6,0.4,1.4,0.9,0.8c0.9-1,1.7-2.1,2.6-3.1
			C31.7-7.3,30.8-8.1,30.3-7.5L30.3-7.5z"/>
	</g>
	<g class="st1">
		<path class="st2" d="M46.3,1.1c-1,1.1-1.9,2.3-2.9,3.4c-0.5,0.6,0.4,1.4,0.9,0.8c1-1.1,1.9-2.3,2.9-3.4
			C47.7,1.3,46.8,0.5,46.3,1.1L46.3,1.1z"/>
	</g>
	<g class="st1">
		<path class="st2" d="M30.9,2.5C29.6,4,28.3,5.6,27,7.1c-0.5,0.6,0.4,1.4,0.9,0.8c1.3-1.6,2.6-3.1,3.9-4.7
			C32.3,2.7,31.4,1.9,30.9,2.5L30.9,2.5z"/>
	</g>
	<g class="st1">
		<path class="st2" d="M38.8-2.5c-1.3,1.6-2.6,3.1-3.9,4.7c-0.5,0.6,0.4,1.4,0.9,0.8c1.3-1.6,2.6-3.1,3.9-4.7
			C40.2-2.4,39.3-3.1,38.8-2.5L38.8-2.5z"/>
	</g>
	<g class="st1">
		<path class="st2" d="M27.1,30.4c-0.7,0.8-1.4,1.7-2.1,2.5c-0.5,0.6,0.4,1.4,0.9,0.8c0.7-0.8,1.4-1.7,2.1-2.5
			C28.5,30.6,27.6,29.8,27.1,30.4L27.1,30.4z"/>
	</g>
	<g class="st1">
		<path class="st2" d="M5.2,16.8c-0.5,0.6-1,1.2-1.6,1.9c-0.5,0.6,0.4,1.4,0.9,0.8c0.5-0.6,1-1.2,1.6-1.9C6.6,17,5.7,16.2,5.2,16.8
			L5.2,16.8z"/>
	</g>
	<g class="st1">
		<path class="st2" d="M0,48.9c-0.4,0.5-0.9,1-1.3,1.6c-0.5,0.6,0.4,1.4,0.9,0.8c0.4-0.5,0.9-1,1.3-1.6C1.4,49.1,0.5,48.3,0,48.9
			L0,48.9z"/>
	</g>
	<g class="st1">
		<path class="st2" d="M11.3,11.4c-0.3,0.3-0.5,0.6-0.8,0.9c-0.5,0.6,0.4,1.4,0.9,0.8c0.3-0.3,0.5-0.6,0.8-0.9
			C12.7,11.6,11.8,10.8,11.3,11.4L11.3,11.4z"/>
	</g>
	<g class="st1">
		<path class="st2" d="M22.3-3.9c0.6,0.5,1.4-0.4,0.8-0.9C22.4-5.4,21.7-4.4,22.3-3.9L22.3-3.9z"/>
	</g>
	<g class="st1">
		<path class="st2" d="M59.7-2.4c-0.3,0.3-0.5,0.6-0.8,0.9c-0.5,0.6,0.4,1.4,0.9,0.8c0.3-0.3,0.5-0.6,0.8-0.9
			C61.2-2.2,60.2-3,59.7-2.4L59.7-2.4z"/>
	</g>
	<g class="st1">
		<path class="st2" d="M41.3,10.2c-0.9,1-1.7,2.1-2.6,3.1c-0.5,0.6,0.4,1.4,0.9,0.8c0.9-1,1.7-2.1,2.6-3.1
			C42.8,10.3,41.8,9.6,41.3,10.2L41.3,10.2z"/>
	</g>
	<g class="st1">
		<path class="st2" d="M29.4,18.1c-0.6,0.7-1.2,1.4-1.8,2.2c-0.5,0.6,0.4,1.4,0.9,0.8c0.6-0.7,1.2-1.4,1.8-2.2
			C30.8,18.3,29.9,17.5,29.4,18.1L29.4,18.1z"/>
	</g>
	<g class="st1">
		<path class="st2" d="M13.1,48c0.6,0.5,1.4-0.4,0.8-0.9C13.3,46.6,12.5,47.5,13.1,48L13.1,48z"/>
	</g>
	<g class="st1">
		<path class="st2" d="M26.4,38.8c-1,1.2-2.1,2.5-3.1,3.7c-0.5,0.6,0.4,1.4,0.9,0.8c1-1.2,2.1-2.5,3.1-3.7
			C27.8,38.9,26.9,38.2,26.4,38.8L26.4,38.8z"/>
	</g>
	<g class="st1">
		<path class="st2" d="M45.2,25c1-1.1,1.9-2.3,2.9-3.4c0.5-0.6-0.4-1.4-0.9-0.8c-1,1.1-1.9,2.3-2.9,3.4C43.8,24.8,44.7,25.6,45.2,25
			L45.2,25z"/>
	</g>
	<g class="st1">
		<path class="st2" d="M54.2,16.2c0.7-0.8,1.4-1.7,2.1-2.5c0.5-0.6-0.4-1.4-0.9-0.8c-0.7,0.8-1.4,1.7-2.1,2.5
			C52.8,16,53.7,16.8,54.2,16.2L54.2,16.2z"/>
	</g>
	<g class="st1">
		<path class="st2" d="M48.7,28.4c0.6-0.7,1.2-1.4,1.8-2.2c0.5-0.6-0.4-1.4-0.9-0.8c-0.6,0.7-1.2,1.4-1.8,2.2
			C47.3,28.3,48.2,29,48.7,28.4L48.7,28.4z"/>
	</g>
	<g class="st1">
		<path class="st2" d="M67.3,17.6c0.5-0.6,1-1.2,1.6-1.9c0.5-0.6-0.4-1.4-0.9-0.8c-0.5,0.6-1,1.2-1.6,1.9
			C65.8,17.4,66.8,18.2,67.3,17.6L67.3,17.6z"/>
	</g>
	<g class="st1">
		<path class="st2" d="M53.9,34.9c0.6-0.7,1.2-1.4,1.8-2.2c0.5-0.6-0.4-1.4-0.9-0.8c-0.6,0.7-1.2,1.4-1.8,2.2
			C52.4,34.7,53.4,35.5,53.9,34.9L53.9,34.9z"/>
	</g>
	<g class="st1">
		<path class="st2" d="M59.2,20.3c-0.7,0.8-1.4,1.7-2.1,2.5c-0.5,0.6,0.4,1.4,0.9,0.8c0.7-0.8,1.4-1.7,2.1-2.5
			C60.6,20.5,59.7,19.7,59.2,20.3L59.2,20.3z"/>
	</g>
	<g class="st1">
		<path class="st2" d="M40.4,38.7c0.6,0.5,1.4-0.4,0.8-0.9C40.6,37.2,39.8,38.2,40.4,38.7L40.4,38.7z"/>
	</g>
	<g class="st1">
		<path class="st2" d="M27.9,46.1c0.6,0.5,1.4-0.4,0.8-0.9C28.1,44.7,27.3,45.6,27.9,46.1L27.9,46.1z"/>
	</g>
	<g class="st1">
		<path class="st2" d="M50.2,41.8c-1,1.2-2.1,2.5-3.1,3.7c-0.5,0.6,0.4,1.4,0.9,0.8c1-1.2,2.1-2.5,3.1-3.7
			C51.6,42,50.7,41.2,50.2,41.8L50.2,41.8z"/>
	</g>
	<g class="st1">
		<path class="st2" d="M36.4,45c-0.7,0.8-1.4,1.7-2.1,2.5c-0.5,0.6,0.4,1.4,0.9,0.8c0.7-0.8,1.4-1.7,2.1-2.5
			C37.8,45.2,36.9,44.4,36.4,45L36.4,45z"/>
	</g>
	<g class="st1">
		<path class="st2" d="M46.4,35c-0.3,0.3-0.5,0.6-0.8,0.9c-0.5,0.6,0.4,1.4,0.9,0.8c0.3-0.3,0.5-0.6,0.8-0.9
			C47.8,35.1,46.9,34.4,46.4,35L46.4,35z"/>
	</g>
	<g class="st1">
		<path class="st2" d="M30.6,37.5c-0.4,0.5-0.9,1-1.3,1.6c-0.5,0.6,0.4,1.4,0.9,0.8c0.4-0.5,0.9-1,1.3-1.6
			C32,37.7,31.1,36.9,30.6,37.5L30.6,37.5z"/>
	</g>
	<g class="st1">
		<path class="st2" d="M40.3,49.9c-0.7,0.8-1.4,1.7-2.1,2.5c-0.5,0.6,0.4,1.4,0.9,0.8c0.7-0.8,1.4-1.7,2.1-2.5
			C41.7,50,40.8,49.3,40.3,49.9L40.3,49.9z"/>
	</g>
	<g class="st1">
		<path class="st2" d="M39.7,31c-0.3,0.4-0.7,0.8-1,1.2c-0.5,0.6,0.4,1.4,0.9,0.8c0.3-0.4,0.7-0.8,1-1.2
			C41.2,31.1,40.2,30.4,39.7,31L39.7,31z"/>
	</g>
	<g class="st1">
		<path class="st2" d="M42.3,43.1c-0.4,0.5-0.9,1-1.3,1.6c-0.5,0.6,0.4,1.4,0.9,0.8c0.4-0.5,0.9-1,1.3-1.6
			C43.7,43.3,42.8,42.5,42.3,43.1L42.3,43.1z"/>
	</g>
	<g class="st1">
		<path class="st2" d="M68.1,7.5C68.7,8,69.4,7,68.8,6.5C68.2,6,67.5,7,68.1,7.5L68.1,7.5z"/>
	</g>
	<g class="st1">
		<path class="st2" d="M47.5,9c-1,1.2-2.1,2.5-3.1,3.7c-0.5,0.6,0.4,1.4,0.9,0.8c1-1.2,2.1-2.5,3.1-3.7C49,9.2,48,8.4,47.5,9L47.5,9
			z"/>
	</g>
	<g class="st1">
		<path class="st2" d="M66.6,26.6c-0.7,0.8-1.4,1.7-2.1,2.5c-0.5,0.6,0.4,1.4,0.9,0.8c0.7-0.8,1.4-1.7,2.1-2.5
			C68,26.7,67.1,26,66.6,26.6L66.6,26.6z"/>
	</g>
	<g class="st1">
		<path class="st2" d="M61.7,10.6c0.6,0.5,1.4-0.4,0.8-0.9C61.9,9.2,61.1,10.1,61.7,10.6L61.7,10.6z"/>
	</g>
	<g class="st1">
		<path class="st2" d="M61.3-0.5c-0.9,1-1.7,2.1-2.6,3.1c-0.5,0.6,0.4,1.4,0.9,0.8c0.9-1,1.7-2.1,2.6-3.1
			C62.8-0.4,61.8-1.1,61.3-0.5L61.3-0.5z"/>
	</g>
	<g class="st1">
		<path class="st2" d="M77.3,8.1c-1,1.1-1.9,2.3-2.9,3.4c-0.5,0.6,0.4,1.4,0.9,0.8c1-1.1,1.9-2.3,2.9-3.4
			C78.7,8.3,77.8,7.5,77.3,8.1L77.3,8.1z"/>
	</g>
	<g class="st1">
		<path class="st2" d="M61.9,9.5c-1.3,1.6-2.6,3.1-3.9,4.7c-0.5,0.6,0.4,1.4,0.9,0.8c1.3-1.6,2.6-3.1,3.9-4.7
			C63.4,9.6,62.4,8.9,61.9,9.5L61.9,9.5z"/>
	</g>
	<g class="st1">
		<path class="st2" d="M69.8,4.4c-1.3,1.6-2.6,3.1-3.9,4.7c-0.5,0.6,0.4,1.4,0.9,0.8c1.3-1.6,2.6-3.1,3.9-4.7
			C71.2,4.6,70.3,3.8,69.8,4.4L69.8,4.4z"/>
	</g>
	<g class="st1">
		<path class="st2" d="M58.1,37.4c-0.7,0.8-1.4,1.7-2.1,2.5c-0.5,0.6,0.4,1.4,0.9,0.8c0.7-0.8,1.4-1.7,2.1-2.5
			C59.5,37.5,58.6,36.8,58.1,37.4L58.1,37.4z"/>
	</g>
	<g class="st1">
		<path class="st2" d="M36.2,23.8c-0.5,0.6-1,1.2-1.6,1.9c-0.5,0.6,0.4,1.4,0.9,0.8c0.5-0.6,1-1.2,1.6-1.9
			C37.7,24,36.7,23.2,36.2,23.8L36.2,23.8z"/>
	</g>
	<g class="st1">
		<path class="st2" d="M31.1,55.9c-0.4,0.5-0.9,1-1.3,1.6c-0.5,0.6,0.4,1.4,0.9,0.8c0.4-0.5,0.9-1,1.3-1.6
			C32.5,56,31.6,55.3,31.1,55.9L31.1,55.9z"/>
	</g>
	<g class="st1">
		<path class="st2" d="M42.3,18.4c-0.3,0.3-0.5,0.6-0.8,0.9c-0.5,0.6,0.4,1.4,0.9,0.8c0.3-0.3,0.5-0.6,0.8-0.9
			C43.8,18.6,42.8,17.8,42.3,18.4L42.3,18.4z"/>
	</g>
	<g class="st1">
		<path class="st2" d="M53.3,3.1c0.6,0.5,1.4-0.4,0.8-0.9C53.5,1.6,52.7,2.5,53.3,3.1L53.3,3.1z"/>
	</g>
	<g class="st1">
		<path class="st2" d="M90.8,4.6c-0.3,0.3-0.5,0.6-0.8,0.9c-0.5,0.6,0.4,1.4,0.9,0.8c0.3-0.3,0.5-0.6,0.8-0.9
			C92.2,4.8,91.3,4,90.8,4.6L90.8,4.6z"/>
	</g>
	<g class="st1">
		<path class="st2" d="M72.4,17.1c-0.9,1-1.7,2.1-2.6,3.1c-0.5,0.6,0.4,1.4,0.9,0.8c0.9-1,1.7-2.1,2.6-3.1
			C73.8,17.3,72.9,16.5,72.4,17.1L72.4,17.1z"/>
	</g>
	<g class="st1">
		<path class="st2" d="M60.5,25.1c-0.6,0.7-1.2,1.4-1.8,2.2c-0.5,0.6,0.4,1.4,0.9,0.8c0.6-0.7,1.2-1.4,1.8-2.2
			C61.9,25.3,61,24.5,60.5,25.1L60.5,25.1z"/>
	</g>
	<g class="st1">
		<path class="st2" d="M44.2,55c0.6,0.5,1.4-0.4,0.8-0.9C44.4,53.5,43.6,54.5,44.2,55L44.2,55z"/>
	</g>
	<g class="st1">
		<path class="st2" d="M53.1,20.3c0.6,0.5,1.4-0.4,0.8-0.9C53.3,18.9,52.5,19.8,53.1,20.3L53.1,20.3z"/>
	</g>
	<g class="st1">
		<path class="st2" d="M57.4,45.7c-1,1.2-2.1,2.5-3.1,3.7c-0.5,0.6,0.4,1.4,0.9,0.8c1-1.2,2.1-2.5,3.1-3.7
			C58.9,45.9,57.9,45.1,57.4,45.7L57.4,45.7z"/>
	</g>
	<g class="st1">
		<path class="st2" d="M-5.5,74.3c1-1.1,1.9-2.3,2.9-3.4c0.5-0.6-0.4-1.4-0.9-0.8c-1,1.1-1.9,2.3-2.9,3.4C-6.9,74.2-6,74.9-5.5,74.3
			L-5.5,74.3z"/>
	</g>
	<g class="st1">
		<path class="st2" d="M3.5,65.5c0.7-0.8,1.4-1.7,2.1-2.5c0.5-0.6-0.4-1.4-0.9-0.8c-0.7,0.8-1.4,1.7-2.1,2.5
			C2.1,65.3,3,66.1,3.5,65.5L3.5,65.5z"/>
	</g>
	<g class="st1">
		<path class="st2" d="M-2,77.8c0.6-0.7,1.2-1.4,1.8-2.2c0.5-0.6-0.4-1.4-0.9-0.8c-0.6,0.7-1.2,1.4-1.8,2.2
			C-3.4,77.6-2.5,78.4-2,77.8L-2,77.8z"/>
	</g>
	<g class="st1">
		<path class="st2" d="M16.5,66.9c0.5-0.6,1-1.2,1.6-1.9c0.5-0.6-0.4-1.4-0.9-0.8c-0.5,0.6-1,1.2-1.6,1.9
			C15.1,66.7,16,67.5,16.5,66.9L16.5,66.9z"/>
	</g>
	<g class="st1">
		<path class="st2" d="M3.2,84.2C3.8,83.5,4.4,82.7,5,82c0.5-0.6-0.4-1.4-0.9-0.8c-0.6,0.7-1.2,1.4-1.8,2.2
			C1.7,84,2.7,84.8,3.2,84.2L3.2,84.2z"/>
	</g>
	<g class="st1">
		<path class="st2" d="M8.5,69.6c-0.7,0.8-1.4,1.7-2.1,2.5c-0.5,0.6,0.4,1.4,0.9,0.8c0.7-0.8,1.4-1.7,2.1-2.5
			C9.9,69.8,9,69,8.5,69.6L8.5,69.6z"/>
	</g>
	<g class="st1">
		<path class="st2" d="M-10.3,88c0.6,0.5,1.4-0.4,0.8-0.9C-10.1,86.5-10.9,87.5-10.3,88L-10.3,88z"/>
	</g>
	<g class="st1">
		<path class="st2" d="M-0.5,91.1c-1,1.2-2.1,2.5-3.1,3.7c-0.5,0.6,0.4,1.4,0.9,0.8c1-1.2,2.1-2.5,3.1-3.7C0.9,91.3,0,90.5-0.5,91.1
			L-0.5,91.1z"/>
	</g>
	<g class="st1">
		<path class="st2" d="M-4.3,84.3c-0.3,0.3-0.5,0.6-0.8,0.9c-0.5,0.6,0.4,1.4,0.9,0.8c0.3-0.3,0.5-0.6,0.8-0.9
			C-2.9,84.5-3.8,83.7-4.3,84.3L-4.3,84.3z"/>
	</g>
	<g class="st1">
		<path class="st2" d="M-11,80.3c-0.3,0.4-0.7,0.8-1,1.2c-0.5,0.6,0.4,1.4,0.9,0.8c0.3-0.4,0.7-0.8,1-1.2
			C-9.5,80.5-10.5,79.7-11,80.3L-11,80.3z"/>
	</g>
	<g class="st1">
		<path class="st2" d="M-8.5,92.4c-0.4,0.5-0.9,1-1.3,1.6c-0.5,0.6,0.4,1.4,0.9,0.8c0.4-0.5,0.9-1,1.3-1.6C-7,92.6-8,91.8-8.5,92.4
			L-8.5,92.4z"/>
	</g>
	<g class="st1">
		<path class="st2" d="M17.4,56.8c0.6,0.5,1.4-0.4,0.8-0.9C17.5,55.4,16.8,56.3,17.4,56.8L17.4,56.8z"/>
	</g>
	<g class="st1">
		<path class="st2" d="M-3.2,58.3c-1,1.2-2.1,2.5-3.1,3.7c-0.5,0.6,0.4,1.4,0.9,0.8c1-1.2,2.1-2.5,3.1-3.7
			C-1.7,58.5-2.7,57.7-3.2,58.3L-3.2,58.3z"/>
	</g>
	<g class="st1">
		<path class="st2" d="M15.9,75.9c-0.7,0.8-1.4,1.7-2.1,2.5c-0.5,0.6,0.4,1.4,0.9,0.8c0.7-0.8,1.4-1.7,2.1-2.5
			C17.3,76.1,16.4,75.3,15.9,75.9L15.9,75.9z"/>
	</g>
	<g class="st1">
		<path class="st2" d="M11,59.9c0.6,0.5,1.4-0.4,0.8-0.9C11.2,58.5,10.4,59.4,11,59.9L11,59.9z"/>
	</g>
	<g class="st1">
		<path class="st2" d="M10.6,48.8c-0.9,1-1.7,2.1-2.6,3.1c-0.5,0.6,0.4,1.4,0.9,0.8c0.9-1,1.7-2.1,2.6-3.1
			C12,49,11.1,48.2,10.6,48.8L10.6,48.8z"/>
	</g>
	<g class="st1">
		<path class="st2" d="M26.6,57.4c-1,1.1-1.9,2.3-2.9,3.4c-0.5,0.6,0.4,1.4,0.9,0.8c1-1.1,1.9-2.3,2.9-3.4
			C28,57.6,27.1,56.8,26.6,57.4L26.6,57.4z"/>
	</g>
	<g class="st1">
		<path class="st2" d="M11.2,58.8c-1.3,1.6-2.6,3.1-3.9,4.7c-0.5,0.6,0.4,1.4,0.9,0.8c1.3-1.6,2.6-3.1,3.9-4.7
			C12.7,59,11.7,58.2,11.2,58.8L11.2,58.8z"/>
	</g>
	<g class="st1">
		<path class="st2" d="M19.1,53.8c-1.3,1.6-2.6,3.1-3.9,4.7c-0.5,0.6,0.4,1.4,0.9,0.8c1.3-1.6,2.6-3.1,3.9-4.7
			C20.5,53.9,19.6,53.2,19.1,53.8L19.1,53.8z"/>
	</g>
	<g class="st1">
		<path class="st2" d="M7.4,86.7c-0.7,0.8-1.4,1.7-2.1,2.5c-0.5,0.6,0.4,1.4,0.9,0.8c0.7-0.8,1.4-1.7,2.1-2.5
			C8.8,86.9,7.9,86.1,7.4,86.7L7.4,86.7z"/>
	</g>
	<g class="st1">
		<path class="st2" d="M-14.5,73.1c-0.5,0.6-1,1.2-1.6,1.9c-0.5,0.6,0.4,1.4,0.9,0.8c0.5-0.6,1-1.2,1.6-1.9
			C-13,73.3-14,72.5-14.5,73.1L-14.5,73.1z"/>
	</g>
	<g class="st1">
		<path class="st2" d="M-8.4,67.7c-0.3,0.3-0.5,0.6-0.8,0.9c-0.5,0.6,0.4,1.4,0.9,0.8c0.3-0.3,0.5-0.6,0.8-0.9
			C-6.9,67.9-7.9,67.1-8.4,67.7L-8.4,67.7z"/>
	</g>
	<g class="st1">
		<path class="st2" d="M2.6,52.4c0.6,0.5,1.4-0.4,0.8-0.9C2.8,50.9,2,51.9,2.6,52.4L2.6,52.4z"/>
	</g>
	<g class="st1">
		<path class="st2" d="M40.1,53.9c-0.3,0.3-0.5,0.6-0.8,0.9c-0.5,0.6,0.4,1.4,0.9,0.8c0.3-0.3,0.5-0.6,0.8-0.9
			C41.5,54.1,40.6,53.3,40.1,53.9L40.1,53.9z"/>
	</g>
	<g class="st1">
		<path class="st2" d="M21.7,66.5c-0.9,1-1.7,2.1-2.6,3.1c-0.5,0.6,0.4,1.4,0.9,0.8c0.9-1,1.7-2.1,2.6-3.1
			C23.1,66.6,22.2,65.9,21.7,66.5L21.7,66.5z"/>
	</g>
	<g class="st1">
		<path class="st2" d="M9.7,74.4c-0.6,0.7-1.2,1.4-1.8,2.2c-0.5,0.6,0.4,1.4,0.9,0.8c0.6-0.7,1.2-1.4,1.8-2.2
			C11.2,74.6,10.3,73.8,9.7,74.4L9.7,74.4z"/>
	</g>
	<g class="st1">
		<path class="st2" d="M6.7,95.1c-1,1.2-2.1,2.5-3.1,3.7c-0.5,0.6,0.4,1.4,0.9,0.8c1-1.2,2.1-2.5,3.1-3.7
			C8.1,95.2,7.2,94.5,6.7,95.1L6.7,95.1z"/>
	</g>
	<g class="st1">
		<path class="st2" d="M31.1,78.5c1-1.1,1.9-2.3,2.9-3.4c0.5-0.6-0.4-1.4-0.9-0.8c-1,1.1-1.9,2.3-2.9,3.4
			C29.6,78.4,30.6,79.1,31.1,78.5L31.1,78.5z"/>
	</g>
	<g class="st1">
		<path class="st2" d="M40,69.7c0.7-0.8,1.4-1.7,2.1-2.5c0.5-0.6-0.4-1.4-0.9-0.8c-0.7,0.8-1.4,1.7-2.1,2.5
			C38.6,69.5,39.5,70.3,40,69.7L40,69.7z"/>
	</g>
	<g class="st1">
		<path class="st2" d="M34.5,82c0.6-0.7,1.2-1.4,1.8-2.2c0.5-0.6-0.4-1.4-0.9-0.8c-0.6,0.7-1.2,1.4-1.8,2.2
			C33.1,81.8,34,82.6,34.5,82L34.5,82z"/>
	</g>
	<g class="st1">
		<path class="st2" d="M53.1,71.1c0.5-0.6,1-1.2,1.6-1.9c0.5-0.6-0.4-1.4-0.9-0.8c-0.5,0.6-1,1.2-1.6,1.9
			C51.7,70.9,52.6,71.7,53.1,71.1L53.1,71.1z"/>
	</g>
	<g class="st1">
		<path class="st2" d="M39.7,88.4c0.6-0.7,1.2-1.4,1.8-2.2c0.5-0.6-0.4-1.4-0.9-0.8c-0.6,0.7-1.2,1.4-1.8,2.2
			C38.3,88.2,39.2,89,39.7,88.4L39.7,88.4z"/>
	</g>
	<g class="st1">
		<path class="st2" d="M45,73.8c-0.7,0.8-1.4,1.7-2.1,2.5c-0.5,0.6,0.4,1.4,0.9,0.8c0.7-0.8,1.4-1.7,2.1-2.5
			C46.4,74,45.5,73.2,45,73.8L45,73.8z"/>
	</g>
	<g class="st1">
		<path class="st2" d="M26.3,92.2c0.6,0.5,1.4-0.4,0.8-0.9C26.4,90.7,25.7,91.7,26.3,92.2L26.3,92.2z"/>
	</g>
	<g class="st1">
		<path class="st2" d="M36,95.3c-1,1.2-2.1,2.5-3.1,3.7c-0.5,0.6,0.4,1.4,0.9,0.8c1-1.2,2.1-2.5,3.1-3.7
			C37.5,95.5,36.5,94.7,36,95.3L36,95.3z"/>
	</g>
	<g class="st1">
		<path class="st2" d="M22.2,98.6c-0.7,0.8-1.4,1.7-2.1,2.5c-0.5,0.6,0.4,1.4,0.9,0.8c0.7-0.8,1.4-1.7,2.1-2.5
			C23.7,98.7,22.7,98,22.2,98.6L22.2,98.6z"/>
	</g>
	<g class="st1">
		<path class="st2" d="M32.3,88.5c-0.3,0.3-0.5,0.6-0.8,0.9c-0.5,0.6,0.4,1.4,0.9,0.8c0.3-0.3,0.5-0.6,0.8-0.9
			C33.7,88.7,32.8,87.9,32.3,88.5L32.3,88.5z"/>
	</g>
	<g class="st1">
		<path class="st2" d="M16.4,91c-0.4,0.5-0.9,1-1.3,1.6c-0.5,0.6,0.4,1.4,0.9,0.8c0.4-0.5,0.9-1,1.3-1.6
			C17.8,91.2,16.9,90.4,16.4,91L16.4,91z"/>
	</g>
	<g class="st1">
		<path class="st2" d="M26.1,103.4c-0.7,0.8-1.4,1.7-2.1,2.5c-0.5,0.6,0.4,1.4,0.9,0.8c0.7-0.8,1.4-1.7,2.1-2.5
			C27.6,103.6,26.6,102.8,26.1,103.4L26.1,103.4z"/>
	</g>
	<g class="st1">
		<path class="st2" d="M25.6,84.5c-0.3,0.4-0.7,0.8-1,1.2c-0.5,0.6,0.4,1.4,0.9,0.8c0.3-0.4,0.7-0.8,1-1.2
			C27,84.7,26.1,83.9,25.6,84.5L25.6,84.5z"/>
	</g>
	<g class="st1">
		<path class="st2" d="M28.1,96.6c-0.4,0.5-0.9,1-1.3,1.6c-0.5,0.6,0.4,1.4,0.9,0.8c0.4-0.5,0.9-1,1.3-1.6
			C29.5,96.8,28.6,96,28.1,96.6L28.1,96.6z"/>
	</g>
	<g class="st1">
		<path class="st2" d="M53.9,61c0.6,0.5,1.4-0.4,0.8-0.9C54.1,59.6,53.3,60.5,53.9,61L53.9,61z"/>
	</g>
	<g class="st1">
		<path class="st2" d="M33.4,62.5c-1,1.2-2.1,2.5-3.1,3.7c-0.5,0.6,0.4,1.4,0.9,0.8c1-1.2,2.1-2.5,3.1-3.7
			C34.8,62.7,33.9,61.9,33.4,62.5L33.4,62.5z"/>
	</g>
	<g class="st1">
		<path class="st2" d="M52.5,80.1c-0.7,0.8-1.4,1.7-2.1,2.5c-0.5,0.6,0.4,1.4,0.9,0.8c0.7-0.8,1.4-1.7,2.1-2.5
			C53.9,80.2,53,79.5,52.5,80.1L52.5,80.1z"/>
	</g>
	<g class="st1">
		<path class="st2" d="M47.6,64.1c0.6,0.5,1.4-0.4,0.8-0.9C47.8,62.7,47,63.6,47.6,64.1L47.6,64.1z"/>
	</g>
	<g class="st1">
		<path class="st2" d="M47.2,53c-0.9,1-1.7,2.1-2.6,3.1c-0.5,0.6,0.4,1.4,0.9,0.8c0.9-1,1.7-2.1,2.6-3.1
			C48.6,53.2,47.7,52.4,47.2,53L47.2,53z"/>
	</g>
	<g class="st1">
		<path class="st2" d="M63.1,61.6c-1,1.1-1.9,2.3-2.9,3.4c-0.5,0.6,0.4,1.4,0.9,0.8c1-1.1,1.9-2.3,2.9-3.4
			C64.6,61.8,63.7,61,63.1,61.6L63.1,61.6z"/>
	</g>
	<g class="st1">
		<path class="st2" d="M47.8,63c-1.3,1.6-2.6,3.1-3.9,4.7c-0.5,0.6,0.4,1.4,0.9,0.8c1.3-1.6,2.6-3.1,3.9-4.7
			C49.2,63.2,48.3,62.4,47.8,63L47.8,63z"/>
	</g>
	<g class="st1">
		<path class="st2" d="M55.6,58c-1.3,1.6-2.6,3.1-3.9,4.7c-0.5,0.6,0.4,1.4,0.9,0.8c1.3-1.6,2.6-3.1,3.9-4.7
			C57.1,58.1,56.1,57.4,55.6,58L55.6,58z"/>
	</g>
	<g class="st1">
		<path class="st2" d="M43.9,90.9c-0.7,0.8-1.4,1.7-2.1,2.5c-0.5,0.6,0.4,1.4,0.9,0.8c0.7-0.8,1.4-1.7,2.1-2.5
			C45.4,91.1,44.5,90.3,43.9,90.9L43.9,90.9z"/>
	</g>
	<g class="st1">
		<path class="st2" d="M22.1,77.3c-0.5,0.6-1,1.2-1.6,1.9c-0.5,0.6,0.4,1.4,0.9,0.8c0.5-0.6,1-1.2,1.6-1.9
			C23.5,77.5,22.6,76.7,22.1,77.3L22.1,77.3z"/>
	</g>
	<g class="st1">
		<path class="st2" d="M16.9,109.4c-0.4,0.5-0.9,1-1.3,1.6c-0.5,0.6,0.4,1.4,0.9,0.8c0.4-0.5,0.9-1,1.3-1.6
			C18.3,109.6,17.4,108.8,16.9,109.4L16.9,109.4z"/>
	</g>
	<g class="st1">
		<path class="st2" d="M28.2,71.9c-0.3,0.3-0.5,0.6-0.8,0.9c-0.5,0.6,0.4,1.4,0.9,0.8c0.3-0.3,0.5-0.6,0.8-0.9
			C29.6,72.1,28.7,71.3,28.2,71.9L28.2,71.9z"/>
	</g>
	<g class="st1">
		<path class="st2" d="M39.6,61.1c0.6,0.5,1.4-0.4,0.8-0.9C39.7,59.7,39,60.6,39.6,61.1L39.6,61.1z"/>
	</g>
	<g class="st1">
		<path class="st2" d="M76.6,58.1c-0.3,0.3-0.5,0.6-0.8,0.9c-0.5,0.6,0.4,1.4,0.9,0.8c0.3-0.3,0.5-0.6,0.8-0.9
			C78,58.3,77.1,57.5,76.6,58.1L76.6,58.1z"/>
	</g>
	<g class="st1">
		<path class="st2" d="M58.2,70.7c-0.9,1-1.7,2.1-2.6,3.1c-0.5,0.6,0.4,1.4,0.9,0.8c0.9-1,1.7-2.1,2.6-3.1
			C59.6,70.8,58.7,70.1,58.2,70.7L58.2,70.7z"/>
	</g>
	<g class="st1">
		<path class="st2" d="M46.3,78.6c-0.6,0.7-1.2,1.4-1.8,2.2c-0.5,0.6,0.4,1.4,0.9,0.8c0.6-0.7,1.2-1.4,1.8-2.2
			C47.7,78.8,46.8,78,46.3,78.6L46.3,78.6z"/>
	</g>
	<g class="st1">
		<path class="st2" d="M30,108.5c0.6,0.5,1.4-0.4,0.8-0.9C30.2,107.1,29.4,108,30,108.5L30,108.5z"/>
	</g>
	<g class="st1">
		<path class="st2" d="M43.3,99.3c-1,1.2-2.1,2.5-3.1,3.7c-0.5,0.6,0.4,1.4,0.9,0.8c1-1.2,2.1-2.5,3.1-3.7
			C44.7,99.4,43.8,98.7,43.3,99.3L43.3,99.3z"/>
	</g>
	<g class="st1">
		<path class="st2" d="M79.6,24.2c1-1.1,1.9-2.3,2.9-3.4c0.5-0.6-0.4-1.4-0.9-0.8c-1,1.1-1.9,2.3-2.9,3.4
			C78.2,24.1,79.1,24.8,79.6,24.2L79.6,24.2z"/>
	</g>
	<g class="st1">
		<path class="st2" d="M88.6,15.4c0.7-0.8,1.4-1.7,2.1-2.5c0.5-0.6-0.4-1.4-0.9-0.8c-0.7,0.8-1.4,1.7-2.1,2.5
			C87.2,15.2,88.1,16,88.6,15.4L88.6,15.4z"/>
	</g>
	<g class="st1">
		<path class="st2" d="M83.1,27.7c0.6-0.7,1.2-1.4,1.8-2.2c0.5-0.6-0.4-1.4-0.9-0.8c-0.6,0.7-1.2,1.4-1.8,2.2
			C81.7,27.5,82.6,28.3,83.1,27.7L83.1,27.7z"/>
	</g>
	<g class="st1">
		<path class="st2" d="M101.6,16.8c0.5-0.6,1-1.2,1.6-1.9c0.5-0.6-0.4-1.4-0.9-0.8c-0.5,0.6-1,1.2-1.6,1.9
			C100.2,16.6,101.1,17.4,101.6,16.8L101.6,16.8z"/>
	</g>
	<g class="st1">
		<path class="st2" d="M88.3,34.1c0.6-0.7,1.2-1.4,1.8-2.2c0.5-0.6-0.4-1.4-0.9-0.8c-0.6,0.7-1.2,1.4-1.8,2.2
			C86.8,33.9,87.7,34.7,88.3,34.1L88.3,34.1z"/>
	</g>
	<g class="st1">
		<path class="st2" d="M93.6,19.5c-0.7,0.8-1.4,1.7-2.1,2.5c-0.5,0.6,0.4,1.4,0.9,0.8c0.7-0.8,1.4-1.7,2.1-2.5
			C95,19.7,94.1,18.9,93.6,19.5L93.6,19.5z"/>
	</g>
	<g class="st1">
		<path class="st2" d="M74.8,37.9c0.6,0.5,1.4-0.4,0.8-0.9C75,36.4,74.2,37.4,74.8,37.9L74.8,37.9z"/>
	</g>
	<g class="st1">
		<path class="st2" d="M57.9,54.3c0.6,0.5,1.4-0.4,0.8-0.9C58.1,52.9,57.3,53.8,57.9,54.3L57.9,54.3z"/>
	</g>
	<g class="st1">
		<path class="st2" d="M84.6,41c-1,1.2-2.1,2.5-3.1,3.7c-0.5,0.6,0.4,1.4,0.9,0.8c1-1.2,2.1-2.5,3.1-3.7C86,41.2,85.1,40.4,84.6,41
			L84.6,41z"/>
	</g>
	<g class="st1">
		<path class="st2" d="M70.8,44.3c-0.7,0.8-1.4,1.7-2.1,2.5c-0.5,0.6,0.4,1.4,0.9,0.8c0.7-0.8,1.4-1.7,2.1-2.5
			C72.2,44.4,71.3,43.7,70.8,44.3L70.8,44.3z"/>
	</g>
	<g class="st1">
		<path class="st2" d="M80.8,34.2c-0.3,0.3-0.5,0.6-0.8,0.9c-0.5,0.6,0.4,1.4,0.9,0.8c0.3-0.3,0.5-0.6,0.8-0.9
			C82.2,34.4,81.3,33.6,80.8,34.2L80.8,34.2z"/>
	</g>
	<g class="st1">
		<path class="st2" d="M64.9,36.7c-0.4,0.5-0.9,1-1.3,1.6c-0.5,0.6,0.4,1.4,0.9,0.8c0.4-0.5,0.9-1,1.3-1.6
			C66.4,36.9,65.4,36.1,64.9,36.7L64.9,36.7z"/>
	</g>
	<g class="st1">
		<path class="st2" d="M74.7,49.1c-0.7,0.8-1.4,1.7-2.1,2.5c-0.5,0.6,0.4,1.4,0.9,0.8c0.7-0.8,1.4-1.7,2.1-2.5
			C76.1,49.3,75.2,48.5,74.7,49.1L74.7,49.1z"/>
	</g>
	<g class="st1">
		<path class="st2" d="M74.1,30.2c-0.3,0.4-0.7,0.8-1,1.2c-0.5,0.6,0.4,1.4,0.9,0.8c0.3-0.4,0.7-0.8,1-1.2
			C75.6,30.4,74.6,29.6,74.1,30.2L74.1,30.2z"/>
	</g>
	<g class="st1">
		<path class="st2" d="M76.6,42.3c-0.4,0.5-0.9,1-1.3,1.6c-0.5,0.6,0.4,1.4,0.9,0.8c0.4-0.5,0.9-1,1.3-1.6
			C78.1,42.5,77.1,41.7,76.6,42.3L76.6,42.3z"/>
	</g>
	<g class="st1">
		<path class="st2" d="M102.5,6.7c0.6,0.5,1.4-0.4,0.8-0.9C102.6,5.3,101.9,6.2,102.5,6.7L102.5,6.7z"/>
	</g>
	<g class="st1">
		<path class="st2" d="M81.9,8.2c-1,1.2-2.1,2.5-3.1,3.7c-0.5,0.6,0.4,1.4,0.9,0.8c1-1.2,2.1-2.5,3.1-3.7
			C83.4,8.4,82.4,7.6,81.9,8.2L81.9,8.2z"/>
	</g>
	<g class="st1">
		<path class="st2" d="M101,25.8c-0.7,0.8-1.4,1.7-2.1,2.5c-0.5,0.6,0.4,1.4,0.9,0.8c0.7-0.8,1.4-1.7,2.1-2.5
			C102.4,26,101.5,25.2,101,25.8L101,25.8z"/>
	</g>
	<g class="st1">
		<path class="st2" d="M96.1,9.8c0.6,0.5,1.4-0.4,0.8-0.9C96.3,8.4,95.5,9.3,96.1,9.8L96.1,9.8z"/>
	</g>
	<g class="st1">
		<path class="st2" d="M95.7-1.3c-0.9,1-1.7,2.1-2.6,3.1c-0.5,0.6,0.4,1.4,0.9,0.8c0.9-1,1.7-2.1,2.6-3.1
			C97.1-1.1,96.2-1.9,95.7-1.3L95.7-1.3z"/>
	</g>
	<g class="st1">
		<path class="st2" d="M111.7,7.3c-1,1.1-1.9,2.3-2.9,3.4c-0.5,0.6,0.4,1.4,0.9,0.8c1-1.1,1.9-2.3,2.9-3.4
			C113.1,7.5,112.2,6.7,111.7,7.3L111.7,7.3z"/>
	</g>
	<g class="st1">
		<path class="st2" d="M96.3,8.7c-1.3,1.6-2.6,3.1-3.9,4.7c-0.5,0.6,0.4,1.4,0.9,0.8c1.3-1.6,2.6-3.1,3.9-4.7
			C97.7,8.9,96.8,8.1,96.3,8.7L96.3,8.7z"/>
	</g>
	<g class="st1">
		<path class="st2" d="M104.2,3.7c-1.3,1.6-2.6,3.1-3.9,4.7c-0.5,0.6,0.4,1.4,0.9,0.8c1.3-1.6,2.6-3.1,3.9-4.7
			C105.6,3.8,104.7,3.1,104.2,3.7L104.2,3.7z"/>
	</g>
	<g class="st1">
		<path class="st2" d="M92.5,36.6c-0.7,0.8-1.4,1.7-2.1,2.5c-0.5,0.6,0.4,1.4,0.9,0.8c0.7-0.8,1.4-1.7,2.1-2.5
			C93.9,36.8,93,36,92.5,36.6L92.5,36.6z"/>
	</g>
	<g class="st1">
		<path class="st2" d="M70.6,23c-0.5,0.6-1,1.2-1.6,1.9c-0.5,0.6,0.4,1.4,0.9,0.8c0.5-0.6,1-1.2,1.6-1.9C72,23.2,71.1,22.4,70.6,23
			L70.6,23z"/>
	</g>
	<g class="st1">
		<path class="st2" d="M65.4,55.1c-0.4,0.5-0.9,1-1.3,1.6c-0.5,0.6,0.4,1.4,0.9,0.8c0.4-0.5,0.9-1,1.3-1.6
			C66.9,55.3,65.9,54.5,65.4,55.1L65.4,55.1z"/>
	</g>
	<g class="st1">
		<path class="st2" d="M76.7,17.6c-0.3,0.3-0.5,0.6-0.8,0.9c-0.5,0.6,0.4,1.4,0.9,0.8c0.3-0.3,0.5-0.6,0.8-0.9
			C78.2,17.8,77.2,17,76.7,17.6L76.7,17.6z"/>
	</g>
	<g class="st1">
		<path class="st2" d="M87.7,2.3c0.6,0.5,1.4-0.4,0.8-0.9C87.9,0.8,87.1,1.8,87.7,2.3L87.7,2.3z"/>
	</g>
	<g class="st1">
		<path class="st2" d="M125.2,3.8c-0.3,0.3-0.5,0.6-0.8,0.9c-0.5,0.6,0.4,1.4,0.9,0.8c0.3-0.3,0.5-0.6,0.8-0.9
			C126.6,4,125.7,3.2,125.2,3.8L125.2,3.8z"/>
	</g>
	<g class="st1">
		<path class="st2" d="M106.8,16.4c-0.9,1-1.7,2.1-2.6,3.1c-0.5,0.6,0.4,1.4,0.9,0.8c0.9-1,1.7-2.1,2.6-3.1
			C108.2,16.5,107.3,15.8,106.8,16.4L106.8,16.4z"/>
	</g>
	<g class="st1">
		<path class="st2" d="M94.8,24.3c-0.6,0.7-1.2,1.4-1.8,2.2c-0.5,0.6,0.4,1.4,0.9,0.8c0.6-0.7,1.2-1.4,1.8-2.2
			C96.3,24.5,95.3,23.7,94.8,24.3L94.8,24.3z"/>
	</g>
	<g class="st1">
		<path class="st2" d="M78.6,54.2c0.6,0.5,1.4-0.4,0.8-0.9C78.7,52.8,78,53.7,78.6,54.2L78.6,54.2z"/>
	</g>
	<g class="st1">
		<path class="st2" d="M91.8,45c-1,1.2-2.1,2.5-3.1,3.7c-0.5,0.6,0.4,1.4,0.9,0.8c1-1.2,2.1-2.5,3.1-3.7
			C93.2,45.1,92.3,44.4,91.8,45L91.8,45z"/>
	</g>
	<g class="st1">
		<path class="st2" d="M64.9,91c1-1.1,1.9-2.3,2.9-3.4c0.5-0.6-0.4-1.4-0.9-0.8c-1,1.1-1.9,2.3-2.9,3.4C63.5,90.8,64.4,91.6,64.9,91
			L64.9,91z"/>
	</g>
	<g class="st1">
		<path class="st2" d="M73.9,82.2c0.7-0.8,1.4-1.7,2.1-2.5c0.5-0.6-0.4-1.4-0.9-0.8c-0.7,0.8-1.4,1.7-2.1,2.5
			C72.5,82,73.4,82.8,73.9,82.2L73.9,82.2z"/>
	</g>
	<g class="st1">
		<path class="st2" d="M68.4,94.4c0.6-0.7,1.2-1.4,1.8-2.2c0.5-0.6-0.4-1.4-0.9-0.8c-0.6,0.7-1.2,1.4-1.8,2.2
			C67,94.3,67.9,95,68.4,94.4L68.4,94.4z"/>
	</g>
	<g class="st1">
		<path class="st2" d="M86.9,83.6c0.5-0.6,1-1.2,1.6-1.9c0.5-0.6-0.4-1.4-0.9-0.8c-0.5,0.6-1,1.2-1.6,1.9
			C85.5,83.4,86.4,84.2,86.9,83.6L86.9,83.6z"/>
	</g>
	<g class="st1">
		<path class="st2" d="M73.6,100.9c0.6-0.7,1.2-1.4,1.8-2.2c0.5-0.6-0.4-1.4-0.9-0.8c-0.6,0.7-1.2,1.4-1.8,2.2
			C72.1,100.7,73.1,101.5,73.6,100.9L73.6,100.9z"/>
	</g>
	<g class="st1">
		<path class="st2" d="M78.9,86.3c-0.7,0.8-1.4,1.7-2.1,2.5c-0.5,0.6,0.4,1.4,0.9,0.8c0.7-0.8,1.4-1.7,2.1-2.5
			C80.3,86.5,79.4,85.7,78.9,86.3L78.9,86.3z"/>
	</g>
	<g class="st1">
		<path class="st2" d="M60.1,104.6c0.6,0.5,1.4-0.4,0.8-0.9C60.3,103.2,59.5,104.1,60.1,104.6L60.1,104.6z"/>
	</g>
	<g class="st1">
		<path class="st2" d="M69.9,107.8c-1,1.2-2.1,2.5-3.1,3.7c-0.5,0.6,0.4,1.4,0.9,0.8c1-1.2,2.1-2.5,3.1-3.7
			C71.3,108,70.4,107.2,69.9,107.8L69.9,107.8z"/>
	</g>
	<g class="st1">
		<path class="st2" d="M56.1,111c-0.7,0.8-1.4,1.7-2.1,2.5c-0.5,0.6,0.4,1.4,0.9,0.8c0.7-0.8,1.4-1.7,2.1-2.5
			C57.5,111.2,56.6,110.4,56.1,111L56.1,111z"/>
	</g>
	<g class="st1">
		<path class="st2" d="M66.1,101c-0.3,0.3-0.5,0.6-0.8,0.9c-0.5,0.6,0.4,1.4,0.9,0.8c0.3-0.3,0.5-0.6,0.8-0.9
			C67.5,101.1,66.6,100.4,66.1,101L66.1,101z"/>
	</g>
	<g class="st1">
		<path class="st2" d="M50.2,103.5c-0.4,0.5-0.9,1-1.3,1.6c-0.5,0.6,0.4,1.4,0.9,0.8c0.4-0.5,0.9-1,1.3-1.6
			C51.7,103.7,50.7,102.9,50.2,103.5L50.2,103.5z"/>
	</g>
	<g class="st1">
		<path class="st2" d="M60,115.9c-0.7,0.8-1.4,1.7-2.1,2.5c-0.5,0.6,0.4,1.4,0.9,0.8c0.7-0.8,1.4-1.7,2.1-2.5
			C61.4,116,60.5,115.3,60,115.9L60,115.9z"/>
	</g>
	<g class="st1">
		<path class="st2" d="M59.4,97c-0.3,0.4-0.7,0.8-1,1.2c-0.5,0.6,0.4,1.4,0.9,0.8c0.3-0.4,0.7-0.8,1-1.2
			C60.9,97.1,59.9,96.4,59.4,97L59.4,97z"/>
	</g>
	<g class="st1">
		<path class="st2" d="M61.9,109.1c-0.4,0.5-0.9,1-1.3,1.6c-0.5,0.6,0.4,1.4,0.9,0.8c0.4-0.5,0.9-1,1.3-1.6
			C63.4,109.3,62.4,108.5,61.9,109.1L61.9,109.1z"/>
	</g>
	<g class="st1">
		<path class="st2" d="M87.8,73.5c0.6,0.5,1.4-0.4,0.8-0.9C87.9,72,87.2,73,87.8,73.5L87.8,73.5z"/>
	</g>
	<g class="st1">
		<path class="st2" d="M67.2,75c-1,1.2-2.1,2.5-3.1,3.7c-0.5,0.6,0.4,1.4,0.9,0.8c1-1.2,2.1-2.5,3.1-3.7
			C68.7,75.2,67.7,74.4,67.2,75L67.2,75z"/>
	</g>
	<g class="st1">
		<path class="st2" d="M86.3,92.5c-0.7,0.8-1.4,1.7-2.1,2.5c-0.5,0.6,0.4,1.4,0.9,0.8c0.7-0.8,1.4-1.7,2.1-2.5
			C87.7,92.7,86.8,91.9,86.3,92.5L86.3,92.5z"/>
	</g>
	<g class="st1">
		<path class="st2" d="M81.4,76.6c0.6,0.5,1.4-0.4,0.8-0.9C81.6,75.2,80.8,76.1,81.4,76.6L81.4,76.6z"/>
	</g>
	<g class="st1">
		<path class="st2" d="M81,65.5c-0.9,1-1.7,2.1-2.6,3.1c-0.5,0.6,0.4,1.4,0.9,0.8c0.9-1,1.7-2.1,2.6-3.1
			C82.4,65.6,81.5,64.9,81,65.5L81,65.5z"/>
	</g>
	<g class="st1">
		<path class="st2" d="M97,74.1c-1,1.1-1.9,2.3-2.9,3.4c-0.5,0.6,0.4,1.4,0.9,0.8c1-1.1,1.9-2.3,2.9-3.4
			C98.4,74.3,97.5,73.5,97,74.1L97,74.1z"/>
	</g>
	<g class="st1">
		<path class="st2" d="M81.6,75.5c-1.3,1.6-2.6,3.1-3.9,4.7c-0.5,0.6,0.4,1.4,0.9,0.8c1.3-1.6,2.6-3.1,3.9-4.7
			C83,75.6,82.1,74.9,81.6,75.5L81.6,75.5z"/>
	</g>
	<g class="st1">
		<path class="st2" d="M89.5,70.4c-1.3,1.6-2.6,3.1-3.9,4.7c-0.5,0.6,0.4,1.4,0.9,0.8c1.3-1.6,2.6-3.1,3.9-4.7
			C90.9,70.6,90,69.8,89.5,70.4L89.5,70.4z"/>
	</g>
	<g class="st1">
		<path class="st2" d="M77.8,103.4c-0.7,0.8-1.4,1.7-2.1,2.5c-0.5,0.6,0.4,1.4,0.9,0.8c0.7-0.8,1.4-1.7,2.1-2.5
			C79.2,103.5,78.3,102.8,77.8,103.4L77.8,103.4z"/>
	</g>
	<g class="st1">
		<path class="st2" d="M55.9,89.8c-0.5,0.6-1,1.2-1.6,1.9c-0.5,0.6,0.4,1.4,0.9,0.8c0.5-0.6,1-1.2,1.6-1.9
			C57.3,90,56.4,89.2,55.9,89.8L55.9,89.8z"/>
	</g>
	<g class="st1">
		<path class="st2" d="M50.7,121.9c-0.4,0.5-0.9,1-1.3,1.6c-0.5,0.6,0.4,1.4,0.9,0.8c0.4-0.5,0.9-1,1.3-1.6
			C52.2,122,51.2,121.3,50.7,121.9L50.7,121.9z"/>
	</g>
	<g class="st1">
		<path class="st2" d="M62,84.4c-0.3,0.3-0.5,0.6-0.8,0.9c-0.5,0.6,0.4,1.4,0.9,0.8c0.3-0.3,0.5-0.6,0.8-0.9
			C63.5,84.6,62.5,83.8,62,84.4L62,84.4z"/>
	</g>
	<g class="st1">
		<path class="st2" d="M73,69c0.6,0.5,1.4-0.4,0.8-0.9C73.2,67.6,72.4,68.5,73,69L73,69z"/>
	</g>
	<g class="st1">
		<path class="st2" d="M110.5,70.6c-0.3,0.3-0.5,0.6-0.8,0.9c-0.5,0.6,0.4,1.4,0.9,0.8c0.3-0.3,0.5-0.6,0.8-0.9
			C111.9,70.8,111,70,110.5,70.6L110.5,70.6z"/>
	</g>
	<g class="st1">
		<path class="st2" d="M92.1,83.1c-0.9,1-1.7,2.1-2.6,3.1c-0.5,0.6,0.4,1.4,0.9,0.8c0.9-1,1.7-2.1,2.6-3.1
			C93.5,83.3,92.6,82.5,92.1,83.1L92.1,83.1z"/>
	</g>
	<g class="st1">
		<path class="st2" d="M80.1,91.1c-0.6,0.7-1.2,1.4-1.8,2.2c-0.5,0.6,0.4,1.4,0.9,0.8c0.6-0.7,1.2-1.4,1.8-2.2
			C81.6,91.3,80.6,90.5,80.1,91.1L80.1,91.1z"/>
	</g>
	<g class="st1">
		<path class="st2" d="M63.9,121c0.6,0.5,1.4-0.4,0.8-0.9C64,119.5,63.3,120.5,63.9,121L63.9,121z"/>
	</g>
	<g class="st1">
		<path class="st2" d="M77.1,111.7c-1,1.2-2.1,2.5-3.1,3.7c-0.5,0.6,0.4,1.4,0.9,0.8c1-1.2,2.1-2.5,3.1-3.7
			C78.5,111.9,77.6,111.1,77.1,111.7L77.1,111.7z"/>
	</g>
	<g class="st1">
		<path class="st2" d="M108.5,45.2c1-1.1,1.9-2.3,2.9-3.4c0.5-0.6-0.4-1.4-0.9-0.8c-1,1.1-1.9,2.3-2.9,3.4
			C107,45,108,45.8,108.5,45.2L108.5,45.2z"/>
	</g>
	<g class="st1">
		<path class="st2" d="M117.4,36.4c0.7-0.8,1.4-1.7,2.1-2.5c0.5-0.6-0.4-1.4-0.9-0.8c-0.7,0.8-1.4,1.7-2.1,2.5
			C116,36.2,116.9,37,117.4,36.4L117.4,36.4z"/>
	</g>
	<g class="st1">
		<path class="st2" d="M111.9,48.6c0.6-0.7,1.2-1.4,1.8-2.2c0.5-0.6-0.4-1.4-0.9-0.8c-0.6,0.7-1.2,1.4-1.8,2.2
			C110.5,48.4,111.4,49.2,111.9,48.6L111.9,48.6z"/>
	</g>
	<g class="st1">
		<path class="st2" d="M130.5,37.8c0.5-0.6,1-1.2,1.6-1.9c0.5-0.6-0.4-1.4-0.9-0.8c-0.5,0.6-1,1.2-1.6,1.9
			C129.1,37.6,130,38.4,130.5,37.8L130.5,37.8z"/>
	</g>
	<g class="st1">
		<path class="st2" d="M117.1,55.1c0.6-0.7,1.2-1.4,1.8-2.2c0.5-0.6-0.4-1.4-0.9-0.8c-0.6,0.7-1.2,1.4-1.8,2.2
			C115.7,54.9,116.6,55.7,117.1,55.1L117.1,55.1z"/>
	</g>
	<g class="st1">
		<path class="st2" d="M122.4,40.5c-0.7,0.8-1.4,1.7-2.1,2.5c-0.5,0.6,0.4,1.4,0.9,0.8c0.7-0.8,1.4-1.7,2.1-2.5
			C123.8,40.7,122.9,39.9,122.4,40.5L122.4,40.5z"/>
	</g>
	<g class="st1">
		<path class="st2" d="M103.7,58.8c0.6,0.5,1.4-0.4,0.8-0.9C103.8,57.4,103.1,58.3,103.7,58.8L103.7,58.8z"/>
	</g>
	<g class="st1">
		<path class="st2" d="M113.4,62c-1,1.2-2.1,2.5-3.1,3.7c-0.5,0.6,0.4,1.4,0.9,0.8c1-1.2,2.1-2.5,3.1-3.7
			C114.9,62.2,113.9,61.4,113.4,62L113.4,62z"/>
	</g>
	<g class="st1">
		<path class="st2" d="M99.6,65.2c-0.7,0.8-1.4,1.7-2.1,2.5c-0.5,0.6,0.4,1.4,0.9,0.8c0.7-0.8,1.4-1.7,2.1-2.5
			C101.1,65.4,100.1,64.6,99.6,65.2L99.6,65.2z"/>
	</g>
	<g class="st1">
		<path class="st2" d="M109.7,55.1c-0.3,0.3-0.5,0.6-0.8,0.9c-0.5,0.6,0.4,1.4,0.9,0.8c0.3-0.3,0.5-0.6,0.8-0.9
			C111.1,55.3,110.2,54.5,109.7,55.1L109.7,55.1z"/>
	</g>
	<g class="st1">
		<path class="st2" d="M93.8,57.7c-0.4,0.5-0.9,1-1.3,1.6c-0.5,0.6,0.4,1.4,0.9,0.8c0.4-0.5,0.9-1,1.3-1.6
			C95.2,57.9,94.3,57.1,93.8,57.7L93.8,57.7z"/>
	</g>
	<g class="st1">
		<path class="st2" d="M103.5,70c-0.7,0.8-1.4,1.7-2.1,2.5c-0.5,0.6,0.4,1.4,0.9,0.8c0.7-0.8,1.4-1.7,2.1-2.5
			C105,70.2,104,69.4,103.5,70L103.5,70z"/>
	</g>
	<g class="st1">
		<path class="st2" d="M103,51.1c-0.3,0.4-0.7,0.8-1,1.2c-0.5,0.6,0.4,1.4,0.9,0.8c0.3-0.4,0.7-0.8,1-1.2
			C104.4,51.3,103.5,50.5,103,51.1L103,51.1z"/>
	</g>
	<g class="st1">
		<path class="st2" d="M105.5,63.3c-0.4,0.5-0.9,1-1.3,1.6c-0.5,0.6,0.4,1.4,0.9,0.8c0.4-0.5,0.9-1,1.3-1.6
			C106.9,63.4,106,62.7,105.5,63.3L105.5,63.3z"/>
	</g>
	<g class="st1">
		<path class="st2" d="M131.3,27.7c0.6,0.5,1.4-0.4,0.8-0.9C131.5,26.2,130.7,27.2,131.3,27.7L131.3,27.7z"/>
	</g>
	<g class="st1">
		<path class="st2" d="M110.8,29.2c-1,1.2-2.1,2.5-3.1,3.7c-0.5,0.6,0.4,1.4,0.9,0.8c1-1.2,2.1-2.5,3.1-3.7
			C112.2,29.4,111.3,28.6,110.8,29.2L110.8,29.2z"/>
	</g>
	<g class="st1">
		<path class="st2" d="M129.9,46.7c-0.7,0.8-1.4,1.7-2.1,2.5c-0.5,0.6,0.4,1.4,0.9,0.8c0.7-0.8,1.4-1.7,2.1-2.5
			C131.3,46.9,130.4,46.1,129.9,46.7L129.9,46.7z"/>
	</g>
	<g class="st1">
		<path class="st2" d="M125,30.8c0.6,0.5,1.4-0.4,0.8-0.9C125.2,29.4,124.4,30.3,125,30.8L125,30.8z"/>
	</g>
	<g class="st1">
		<path class="st2" d="M124.6,19.6c-0.9,1-1.7,2.1-2.6,3.1c-0.5,0.6,0.4,1.4,0.9,0.8c0.9-1,1.7-2.1,2.6-3.1
			C126,19.8,125.1,19,124.6,19.6L124.6,19.6z"/>
	</g>
	<g class="st1">
		<path class="st2" d="M140.6,28.3c-1,1.1-1.9,2.3-2.9,3.4c-0.5,0.6,0.4,1.4,0.9,0.8c1-1.1,1.9-2.3,2.9-3.4
			C142,28.4,141.1,27.7,140.6,28.3L140.6,28.3z"/>
	</g>
	<g class="st1">
		<path class="st2" d="M125.2,29.6c-1.3,1.6-2.6,3.1-3.9,4.7c-0.5,0.6,0.4,1.4,0.9,0.8c1.3-1.6,2.6-3.1,3.9-4.7
			C126.6,29.8,125.7,29,125.2,29.6L125.2,29.6z"/>
	</g>
	<g class="st1">
		<path class="st2" d="M133.1,24.6c-1.3,1.6-2.6,3.1-3.9,4.7c-0.5,0.6,0.4,1.4,0.9,0.8c1.3-1.6,2.6-3.1,3.9-4.7
			C134.5,24.8,133.6,24,133.1,24.6L133.1,24.6z"/>
	</g>
	<g class="st1">
		<path class="st2" d="M121.4,57.5c-0.7,0.8-1.4,1.7-2.1,2.5c-0.5,0.6,0.4,1.4,0.9,0.8c0.7-0.8,1.4-1.7,2.1-2.5
			C122.8,57.7,121.9,56.9,121.4,57.5L121.4,57.5z"/>
	</g>
	<g class="st1">
		<path class="st2" d="M99.5,44c-0.5,0.6-1,1.2-1.6,1.9c-0.5,0.6,0.4,1.4,0.9,0.8c0.5-0.6,1-1.2,1.6-1.9
			C100.9,44.2,100,43.4,99.5,44L99.5,44z"/>
	</g>
	<g class="st1">
		<path class="st2" d="M94.3,76c-0.4,0.5-0.9,1-1.3,1.6c-0.5,0.6,0.4,1.4,0.9,0.8c0.4-0.5,0.9-1,1.3-1.6
			C95.7,76.2,94.8,75.4,94.3,76L94.3,76z"/>
	</g>
	<g class="st1">
		<path class="st2" d="M105.6,38.6c-0.3,0.3-0.5,0.6-0.8,0.9c-0.5,0.6,0.4,1.4,0.9,0.8c0.3-0.3,0.5-0.6,0.8-0.9
			C107,38.7,106.1,38,105.6,38.6L105.6,38.6z"/>
	</g>
	<g class="st1">
		<path class="st2" d="M116.6,23.2c0.6,0.5,1.4-0.4,0.8-0.9C116.7,21.8,116,22.7,116.6,23.2L116.6,23.2z"/>
	</g>
	<g class="st1">
		<path class="st2" d="M154,24.8c-0.3,0.3-0.5,0.6-0.8,0.9c-0.5,0.6,0.4,1.4,0.9,0.8c0.3-0.3,0.5-0.6,0.8-0.9
			C155.5,24.9,154.5,24.2,154,24.8L154,24.8z"/>
	</g>
	<g class="st1">
		<path class="st2" d="M135.6,37.3c-0.9,1-1.7,2.1-2.6,3.1c-0.5,0.6,0.4,1.4,0.9,0.8c0.9-1,1.7-2.1,2.6-3.1
			C137.1,37.5,136.1,36.7,135.6,37.3L135.6,37.3z"/>
	</g>
	<g class="st1">
		<path class="st2" d="M123.7,45.3c-0.6,0.7-1.2,1.4-1.8,2.2c-0.5,0.6,0.4,1.4,0.9,0.8c0.6-0.7,1.2-1.4,1.8-2.2
			C125.1,45.5,124.2,44.7,123.7,45.3L123.7,45.3z"/>
	</g>
	<g class="st1">
		<path class="st2" d="M107.4,75.2c0.6,0.5,1.4-0.4,0.8-0.9C107.6,73.7,106.8,74.7,107.4,75.2L107.4,75.2z"/>
	</g>
	<g class="st1">
		<path class="st2" d="M120.7,65.9c-1,1.2-2.1,2.5-3.1,3.7c-0.5,0.6,0.4,1.4,0.9,0.8c1-1.2,2.1-2.5,3.1-3.7
			C122.1,66.1,121.2,65.3,120.7,65.9L120.7,65.9z"/>
	</g>
	<g class="st1">
		<path class="st2" d="M87.1-33.8c1-1.1,1.9-2.3,2.9-3.4c0.5-0.6-0.4-1.4-0.9-0.8c-1,1.1-1.9,2.3-2.9,3.4
			C85.6-34,86.6-33.2,87.1-33.8L87.1-33.8z"/>
	</g>
	<g class="st1">
		<path class="st2" d="M90.5-30.4c0.6-0.7,1.2-1.4,1.8-2.2c0.5-0.6-0.4-1.4-0.9-0.8c-0.6,0.7-1.2,1.4-1.8,2.2
			C89.1-30.6,90-29.8,90.5-30.4L90.5-30.4z"/>
	</g>
	<g class="st1">
		<path class="st2" d="M95.7-24c0.6-0.7,1.2-1.4,1.8-2.2c0.5-0.6-0.4-1.4-0.9-0.8c-0.6,0.7-1.2,1.4-1.8,2.2
			C94.3-24.2,95.2-23.4,95.7-24L95.7-24z"/>
	</g>
	<g class="st1">
		<path class="st2" d="M82.2-20.2c0.6,0.5,1.4-0.4,0.8-0.9C82.4-21.6,81.6-20.7,82.2-20.2L82.2-20.2z"/>
	</g>
	<g class="st1">
		<path class="st2" d="M92-17.1c-1,1.2-2.1,2.5-3.1,3.7c-0.5,0.6,0.4,1.4,0.9,0.8c1-1.2,2.1-2.5,3.1-3.7
			C93.4-16.9,92.5-17.7,92-17.1L92-17.1z"/>
	</g>
	<g class="st1">
		<path class="st2" d="M78.2-13.8c-0.7,0.8-1.4,1.7-2.1,2.5c-0.5,0.6,0.4,1.4,0.9,0.8c0.7-0.8,1.4-1.7,2.1-2.5
			C79.7-13.6,78.7-14.4,78.2-13.8L78.2-13.8z"/>
	</g>
	<g class="st1">
		<path class="st2" d="M88.2-23.9c-0.3,0.3-0.5,0.6-0.8,0.9c-0.5,0.6,0.4,1.4,0.9,0.8c0.3-0.3,0.5-0.6,0.8-0.9
			C89.7-23.7,88.7-24.5,88.2-23.9L88.2-23.9z"/>
	</g>
	<g class="st1">
		<path class="st2" d="M72.4-21.3c-0.4,0.5-0.9,1-1.3,1.6c-0.5,0.6,0.4,1.4,0.9,0.8c0.4-0.5,0.9-1,1.3-1.6
			C73.8-21.2,72.9-21.9,72.4-21.3L72.4-21.3z"/>
	</g>
	<g class="st1">
		<path class="st2" d="M82.1-9c-0.7,0.8-1.4,1.7-2.1,2.5c-0.5,0.6,0.4,1.4,0.9,0.8c0.7-0.8,1.4-1.7,2.1-2.5
			C83.5-8.8,82.6-9.6,82.1-9L82.1-9z"/>
	</g>
	<g class="st1">
		<path class="st2" d="M81.6-27.9c-0.3,0.4-0.7,0.8-1,1.2c-0.5,0.6,0.4,1.4,0.9,0.8c0.3-0.4,0.7-0.8,1-1.2
			C83-27.7,82.1-28.5,81.6-27.9L81.6-27.9z"/>
	</g>
	<g class="st1">
		<path class="st2" d="M84.1-15.8c-0.4,0.5-0.9,1-1.3,1.6c-0.5,0.6,0.4,1.4,0.9,0.8c0.4-0.5,0.9-1,1.3-1.6
			C85.5-15.6,84.6-16.4,84.1-15.8L84.1-15.8z"/>
	</g>
	<g class="st1">
		<path class="st2" d="M99.9-21.5c-0.7,0.8-1.4,1.7-2.1,2.5c-0.5,0.6,0.4,1.4,0.9,0.8c0.7-0.8,1.4-1.7,2.1-2.5
			C101.4-21.3,100.4-22.1,99.9-21.5L99.9-21.5z"/>
	</g>
	<g class="st1">
		<path class="st2" d="M78-35c-0.5,0.6-1,1.2-1.6,1.9c-0.5,0.6,0.4,1.4,0.9,0.8c0.5-0.6,1-1.2,1.6-1.9C79.5-34.9,78.5-35.6,78-35
			L78-35z"/>
	</g>
	<g class="st1">
		<path class="st2" d="M72.9-3c-0.4,0.5-0.9,1-1.3,1.6c-0.5,0.6,0.4,1.4,0.9,0.8c0.4-0.5,0.9-1,1.3-1.6C74.3-2.8,73.4-3.6,72.9-3
			L72.9-3z"/>
	</g>
	<g class="st1">
		<path class="st2" d="M86-3.9c0.6,0.5,1.4-0.4,0.8-0.9C86.2-5.3,85.4-4.4,86-3.9L86-3.9z"/>
	</g>
	<g class="st1">
		<path class="st2" d="M99.2-13.1c-1,1.2-2.1,2.5-3.1,3.7c-0.5,0.6,0.4,1.4,0.9,0.8c1-1.2,2.1-2.5,3.1-3.7
			C100.7-12.9,99.7-13.7,99.2-13.1L99.2-13.1z"/>
	</g>
</g>
</svg>
