<svg version="1.1" id="animate-09" xmlns="http://www.w3.org/2000/svg" xmlns:xlink="http://www.w3.org/1999/xlink" x="0px" y="0px"
	 viewBox="0 0 99.5 99.7" style="enable-background:new 0 0 99.5 99.7;" xml:space="preserve">
<path class="dots-02" fill="#89746f" d="M28.3,4.5c-1.4,0.3-2.5,1.2-3.1,2.3c-0.2-0.2-0.6-0.2-0.8,0.1c-2,2.4-0.8,5.9,2.1,6.7c3,0.8,5.9-1.3,6.6-4.2
	C33.9,6.3,31.4,3.9,28.3,4.5z M24.7,9.2c0,0.5,0.1,1,0.3,1.5C24.7,10.2,24.6,9.7,24.7,9.2z M31.8,9.3c-0.6,1.8-2.3,3.3-4.3,3.1
	c-0.8-0.1-1.4-0.4-1.9-0.9c0.5,0.1,1-0.4,0.7-1c-0.9-1.8-0.1-4.2,2-4.7C30.7,5.2,32.6,7,31.8,9.3z"/>
<path class="dots-02" fill="#89746f" d="M42,9.7c-1.4-1-3.9-1.5-4.7,0.4c-0.1,0.2-0.1,0.4,0,0.6c-0.8,0.8-0.9,2.1-0.1,3.1c1.1,1.5,3.3,1.4,4.6,0.3
	C43.3,13,43.7,10.9,42,9.7z M41.1,13c-0.7,0.6-1.6,0.9-2.4,0.4c-0.8-0.5-1.1-1.8,0-2.1c0.5-0.2,0.6-0.8,0.3-1.1
	C40.4,9.7,43.1,11.3,41.1,13z"/>
<path class="dots-02" fill="#89746f" d="M33.2,25.6c0,0.2,0,0.4,0.2,0.5c-0.4,1.4-0.2,2.8,1,3.8c1.9,1.6,5.5,1,7-0.9C45,24,33.9,19.2,33.2,25.6z
	 M39.4,28.9c-1.2,0.7-3.4,1-4.4-0.2c-1.3-1.4,0-3.6,1-4.8c0,0,0,0,0-0.1c1-0.3,2.3,0,3.1,0.5C40.7,25.5,41.3,27.8,39.4,28.9z"/>
<path class="dots-02" fill="#89746f" d="M53.2,20.8c-1.1-0.7-3-0.7-3.8,0.3c0,0,0,0-0.1,0c-1.6,0.9-2.1,3.7-0.6,4.9c1.5,1.2,4,1,5.2-0.5
	C55.1,24.1,54.9,21.8,53.2,20.8z M52.4,25.1c-0.8,0.5-1.9,0.5-2.7,0c-0.7-0.4-0.7-1.5-0.3-2.3c0.4,0.2,1-0.2,1-0.8
	c-0.1-0.6,1.3-0.5,1.6-0.4c0.5,0.1,1,0.4,1.2,0.9C53.6,23.5,53.3,24.6,52.4,25.1z"/>
<path class="dots-02" fill="#89746f" d="M76.5,16c-0.9-0.3-2,0-2.5,0.7c-0.1,0-0.1,0-0.2,0.1c-1.3,0.7-1.2,2.5-0.1,3.4c0.7,0.5,1.6,0.7,2.4,0.6
	c0.9-0.1,1.5-0.3,1.8-1.2C78.4,18.3,77.9,16.5,76.5,16z M76.8,19.1c-0.1,0.4-0.3,0.5-0.8,0.5c-0.4,0-0.8,0-1.1-0.1
	c-0.3-0.1-0.7-0.5-0.7-0.9c0.3,0,0.6-0.2,0.7-0.6c0.1-0.6,0.9-0.8,1.4-0.6C76.8,17.5,76.9,18.5,76.8,19.1z"/>
<path class="dots-02" fill="#89746f" d="M53.5,5.9c-1.4,0.2-2.5,0.9-3.3,1.7c-0.2-0.1-0.5,0-0.7,0.3c-0.5,0.7-0.8,1.6-1,2.4c-0.4,0.9-0.6,2-0.8,3
	c-0.1,0.5,0.3,0.7,0.7,0.6c0.2,0.8,0.5,1.6,1.1,2.3c1.8,2.3,5.5,2.3,8,1.2C63.3,14.9,59.5,4.9,53.5,5.9z M59,13.2
	c-0.2,3.2-4.3,4.1-6.9,3.3c-2.6-0.9-3-3.6-2.4-5.9c0.8-1.8,2.3-3.3,4.5-3.4C57.4,7,59.2,10.4,59,13.2z"/>
<path class="dots-02" fill="#89746f" d="M71.6,24.7c-1.8-1.5-4.3-1.7-6.1-0.3c-0.2-0.1-0.5-0.1-0.7,0.1c-2.1,2.1-3.1,5.5-0.8,7.9c2,2.1,6,1.7,8.1,0
	C74.5,30.3,73.8,26.6,71.6,24.7z M70.7,31.7c-1.7,1-4.7,1.2-6-0.5c-1.1-1.4-0.9-3-0.1-4.4c0.3,0.2,0.6,0.1,0.8-0.2
	c1.1-2.3,3.9-2.4,5.6-0.7C72.7,27.5,72.9,30.4,70.7,31.7z"/>
<path class="dots-02" fill="#89746f" d="M48.7,31.5c-3.3-0.5-4.6,3.2-5.2,5.7c-0.1,0.5,0.3,0.8,0.7,0.8c0.4,1.2,1.2,2.3,2.6,2.8c2.5,1,5.3-0.6,5.9-3.2
	C53.3,35.2,51.3,31.9,48.7,31.5z M47.7,39.8c-2-0.5-2.9-2.6-2.1-4.4c0.1-0.2,0.1-0.4,0-0.6c0.4-0.9,1-1.6,2.1-1.9
	c2-0.6,3.9,2.2,3.9,3.9C51.5,38.8,49.6,40.3,47.7,39.8z"/>
<path class="dots-02" fill="#89746f" d="M29.2,31.5c-2.2-1-4.2-0.2-5.7,1.3c-0.3-0.1-0.8,0-0.9,0.4c-0.2,0.4-0.4,0.9-0.5,1.4c-0.5,0.7-0.9,1.5-1.2,2.2
	c-0.2,0.4,0.1,0.9,0.5,1c-0.2,2.2,0.4,4.2,2.6,5.5c2.9,1.6,7.5,1.1,8.9-2.2C34.1,37.8,32.3,33,29.2,31.5z M31.6,40.5
	c-1.1,2.7-5.4,2.9-7.5,1.3c-2.2-1.6-1.7-4.3-0.9-6.7c1.2-1.8,2.9-3.3,5.2-2.5C31,33.5,32.6,37.9,31.6,40.5z"/>
<path class="dots-02" fill="#89746f" d="M61.7,42.1c0.2-0.6-0.8-1.1-1.2-0.5c-1.1,1.9-1.9,4.6-0.1,6.3c1.5,1.5,4.1,1.2,5.7,0.1
	C70.2,45,64.3,39.9,61.7,42.1z M63.8,47.6c-1.2,0.2-2.5-0.2-3-1.4c-0.3-0.8-0.2-1.7,0.1-2.6c0.2,0.4,1,0.5,1.2-0.1
	c0.8-2,3.6,0.1,4,1.4C66.5,46.4,65,47.4,63.8,47.6z"/>
<path class="dots-02" fill="#89746f" d="M43.4,45.9c-2.1-0.9-3.7-0.4-5,0.8c-0.2-0.1-0.4-0.2-0.7,0c-2.7,1.7-3,6.7-1.2,9.1c2.4,3.3,6.8,0.9,8.8-1.6
	C47.5,51.4,46.7,47.4,43.4,45.9z M44.4,53.2c-1.4,1.9-5,4.4-6.9,1.9c-0.7-0.9-1-2.4-0.9-3.9c0.2,0,0.4-0.1,0.5-0.3
	c0.8-2,2.1-4.5,4.7-4.1C44.9,47.3,46.2,50.7,44.4,53.2z"/>
<path class="dots-02" fill="#89746f" d="M85.7,34.3c-2.7-2.4-7.1-2-8.8,1.3c-0.2,0.3,0,0.7,0.2,0.9c-2,1.5-2.8,5-1.4,7c1,1.4,3,2.2,4.6,2.5
	c1.8,0.3,3.5-0.2,4.8-1.5C87.4,42,88.4,36.7,85.7,34.3z M85,42.4c-1.4,2.8-4.5,2.8-7,1.4c-1.5-0.8-1.9-2.1-1.5-3.8
	c0.3-1.4,1.1-3.2,2.8-2.9c0.8,0.2,1.2-1.1,0.4-1.2c-0.5-0.1-1-0.1-1.4,0.1c1.3-2,4.1-2.4,6.1-1C86.7,36.5,86.2,40.1,85,42.4z"/>
<path class="dots-02" fill="#89746f" d="M17.6,22c-1.3-0.5-2.7-0.3-3.8,0.4c-0.2-0.3-0.7-0.5-1-0.1c-1.9,1.8-2.1,5.1,0,6.9c2,1.6,5.1,1.3,6.7-0.8
	C21.1,26.1,20.1,23,17.6,22z M18.4,27.8c-1.2,1.4-3.5,1.5-4.8,0.2c-0.5-0.5-0.8-1.1-0.9-1.7c0.1-0.1,0.2-0.2,0.2-0.4
	c0.3-1.8,2.1-3.4,4-2.8C18.9,23.8,19.7,26.2,18.4,27.8z"/>
<path class="dots-02" fill="#89746f" d="M13.2,7C10.5,6.2,9,7.6,8.2,9.7C8,9.7,7.9,9.8,7.8,10c-1.4,2.5-0.2,5.6,2.4,6.6c2.6,1,5.8-0.2,6.8-2.9
	C18,10.8,16,7.8,13.2,7z M15.9,13c-0.5,2-2.9,3-4.8,2.5c-1.5-0.4-2.6-1.7-2.6-3.1c0.3,0,0.5-0.1,0.6-0.5c0.3-2,0.9-4.3,3.4-3.8
	C14.6,8.6,16.5,10.7,15.9,13z"/>
<path class="dots-02" fill="#89746f" d="M12.9,35c-1.7-0.7-4-1-5.7,0.1c-0.4,0.2-0.7,0.5-1,0.8c-1.7-0.2-2.7,1.6-3.4,2.9c-0.9,1.7-1.2,3.3-0.4,5.1
	c1.3,3.1,4.4,5.4,7.8,5.3c3.3,0,6.3-2.4,7.2-5.6C18.4,40.1,16.2,36.4,12.9,35z M14.6,46c-2.4,2.4-5.9,2.4-8.6,0.4
	c-1.4-1-2.7-2.8-2.7-4.6c0-1,0.8-3.1,1.8-4.1c-0.3,0.6-0.5,1.2-0.8,1.8c-0.3,0.8,1,1.1,1.2,0.4c0.5-1.4,1.2-3.1,2.6-3.8
	c1.7-0.9,4.1-0.1,5.5,0.9C16.8,39,17.2,43.3,14.6,46z"/>
<path class="dots-02" fill="#89746f" d="M24.2,49.8c-2.1-1.3-5.6-1.3-6.3,1.2c-1.5,1.8-2.1,4.5-0.2,6.3c2,2,5.8,1.3,7.6-0.6
	C27.2,54.6,26.7,51.4,24.2,49.8z M23.3,56.7c-1.6,0.9-4.1,1-5.1-0.7c-0.7-1.1-0.4-2.3,0.2-3.4c0.3,0,0.7-0.2,0.7-0.6
	c0-0.1,0-0.2,0-0.3c0.2-0.2,0.4-0.4,0.6-0.5c0.3-0.2,0.3-0.5,0.1-0.7c1.2-0.8,3.6,0.1,4.5,1.1C25.9,53.2,25.1,55.6,23.3,56.7z"/>
<path class="dots-02" fill="#89746f" d="M58.6,55.1c-0.7-1.6-2.5-2.2-4.1-2c0.3-0.5-0.3-1.3-0.9-0.9c-1.6,1.1-2.8,3.3-2.1,5.2c0.7,1.8,3.6,2.3,5.2,1.8
	C58.7,58.7,59.4,56.8,58.6,55.1z M56.1,58.1c-1.1,0.1-3-0.1-3.3-1.3c-0.2-0.7,0-1.5,0.4-2.2c0.1,0.1,0.3,0.1,0.5,0.1
	c1.1-0.4,2.6-0.5,3.5,0.5C58.1,56.3,57.6,57.9,56.1,58.1z"/>
<path class="dots-02" fill="#89746f" d="M78.3,51.9c-1.5-1.6-7.9-4.4-8.1-0.5c0,0.1,0,0.1,0,0.2c-0.5,0.6-0.9,1.4-1.1,2.3c-0.5,1.8-0.9,3.9-0.2,5.7
	c0.7,1.7,2.2,2.6,4,2.8c1.7,0.2,3.8,0.3,5.2-0.8C80.8,59.5,80.5,54.1,78.3,51.9z M76.9,60.7c-1.8,0.9-5.6,0.6-6.6-1.3
	c-0.7-1.3-0.5-2.8-0.2-4.1c0.3-1.3,0.6-3.3,2.2-3.4c0.6,0,0.8-0.7,0.5-1.1c0.1,0,0.1,0,0.2,0c0.3,0,0.5,0.1,0.8,0.2
	c0.5,0.1,1,0.3,1.4,0.5c1.1,0.4,2.2,1.1,2.8,2.1C79.1,55.4,79.2,59.6,76.9,60.7z"/>
<path class="dots-02" fill="#89746f" d="M96.5,21.5c-0.4-2.6-3-4.3-5.5-3.7c-0.9-0.7-2.2-0.7-3.3-0.2c-1.4,0.7-2.2,2.3-2.7,3.8c-0.6,1.8,0,3.3,1.4,4.5
	c1.3,1.1,2.9,1.8,4.6,1.7C94.2,27.5,97,24.8,96.5,21.5z M91.6,26.3c-2,0.3-5.5-1-5.5-3.4c0-1.5,1.7-4.8,3.5-4.4
	c-0.5,0.5,0.1,1.5,0.8,1c0.2-0.1,0.3-0.2,0.5-0.3c0.3,0.1,0.5,0,0.7-0.2c1.8-0.4,3.6,0.9,3.8,3C95.4,24.1,93.7,25.9,91.6,26.3z"/>
<path class="dots-02" fill="#89746f" d="M94.8,50.7c-0.6-1.2-2-2-3.2-2.5c-1.2-0.6-2.5-0.8-3.7,0c-0.3,0.2-0.4,0.6-0.2,0.9c-1.5,1-2.6,2.6-2.2,4.6
	c0.3,1.3,1.2,2.3,2.4,2.8c1.2,0.5,2.9,1,4.2,0.6C94.3,56.3,95.8,52.8,94.8,50.7z M91,55.8c-1.7,0-4.1-0.8-4.3-2.7
	c-0.2-2,1.5-3.2,3.2-3.7c0.2-0.1,0.3-0.2,0.4-0.4c1.3,0.3,2.7,1.2,3.2,2.1C94.4,52.8,92.9,55.8,91,55.8z"/>
<path class="dots-02" fill="#89746f" d="M13.5,58.7c-1.2-1.2-3.2-1.5-4.5-0.5c-1.6,1-1.9,3.1-0.9,4.7c1.1,1.7,3.3,2.2,4.9,0.9
	C14.7,62.6,15,60.2,13.5,58.7z M12,63c-2,1.1-3.8-1.4-2.9-2.9c0.2,0,0.3-0.1,0.4-0.3c0.1-0.2,0.2-0.3,0.3-0.4
	c0.1-0.1,0.2-0.1,0.3-0.2c0.1-0.1,0.2-0.1,0.3-0.2C12.1,58.4,14.8,61.4,12,63z"/>
<path class="dots-02" fill="#89746f" d="M32,58.8c-1.8-0.3-3.3,1.1-3.5,2.8c0,0.2,0,0.3,0.1,0.4c-0.2,1.1,0.5,2.3,1.6,2.7c1.6,0.6,3.6-0.3,4.1-2
	C34.9,61,33.8,59.1,32,58.8z M33.2,62c-0.1,0.8-0.9,1.5-1.8,1.6c-1.1,0.1-2.2-1.2-1.1-2c0.4-0.3,0.2-0.7-0.1-0.9
	C31.2,59.5,33.4,60.2,33.2,62z"/>
<path class="dots-02" fill="#89746f" d="M25.3,71.4c-1.6-2.1-5.4-3.8-7.7-2.1c-2.8,0.5-5.2,1.6-5.7,4.8c-0.3,1.6-0.3,3.4,0.6,4.8
	c0.8,1.3,2.3,2.2,3.6,2.8c3.1,1.3,6.8,0.8,9-1.9C27.1,77.4,27.2,73.9,25.3,71.4z M20.7,81.1c-3.1,0.6-7.4-1.2-7.6-4.7
	c-0.1-1.6,0.1-3.5,1.4-4.5c0.6-0.5,1.4-0.8,2.2-1c0.2,0.4,0.9,0.6,1.2,0.1c0.1-0.2,0.2-0.3,0.3-0.4c0.2,0,0.4-0.1,0.7-0.1
	c0.3,0,0.5-0.3,0.6-0.5c0.9-0.2,2,0.1,2.8,0.5c1.4,0.7,2.5,2,2.9,3.5C26.1,77.1,23.9,80.5,20.7,81.1z"/>
<path class="dots-02" fill="#89746f" d="M44.9,69.2c-1.4-2.5-4.3-3.2-6.7-2.1c-3.1-0.3-4.7,3.7-4.2,6.4c0.6,3.4,5.2,4.5,8.1,3.4
	C45.1,75.7,46.5,72.1,44.9,69.2z M42.1,75.4c-1.8,1-5.5,0.7-6.6-1.4c-0.7-1.5-0.2-4.3,1.3-5.3c0.2,0.3,0.7,0.4,1,0.1
	c0.2-0.2,0.4-0.3,0.6-0.4c0.1,0,0.1,0,0.2,0c0.4,0.1,0.7-0.1,0.8-0.5c1.7-0.5,3.5,0.2,4.4,1.9C44.9,71.9,44.1,74.3,42.1,75.4z"/>
<path class="dots-02" fill="#89746f" d="M58.5,65.8c-1.2-0.2-2.3,0.1-3.1,0.8c-0.1,0-0.3,0-0.5,0.1c-2.1,1.4-2.5,4.4-0.6,6.2c2,1.8,5.2,1.2,6.5-1.1
	C62.3,69.5,61.3,66.4,58.5,65.8z M59.8,71.1c-0.9,1.4-2.7,2-4.2,1.1c-0.5-0.3-0.8-0.8-1-1.3c0.3,0,0.6-0.2,0.6-0.6
	C55,68.7,56.1,67,57.9,67C59.9,67.1,60.8,69.4,59.8,71.1z"/>
<path class="dots-02" fill="#89746f" d="M77.7,72.4c-1.2-1.6-3.8-2.7-5.7-2.2c-3.1,0-6,2.9-5.2,6.1c0.9,3.5,5.2,4.7,8.4,3.8
	C78.6,79,79.8,75.2,77.7,72.4z M73.6,79c-2.2,0.2-4.9-0.7-5.5-3.1c-0.4-1.6,0.6-3.1,2-3.8c0,0.1-0.1,0.2-0.1,0.3
	c-0.2,0.8,1,1.1,1.2,0.4c0.2-0.6,0.5-1,0.9-1.3c0.2,0,0.5,0,0.7,0c0.3,0,0.5-0.1,0.6-0.3c1.6,0.2,3.6,1.7,4,3.1
	C78.1,77,76,78.8,73.6,79z"/>
<path class="dots-02" fill="#89746f" d="M93.6,67.2c-1-1.8-3-2.5-4.9-2.3c-0.1-0.1-0.2-0.2-0.4-0.2c-1.5-0.3-2.7,0.5-3.5,1.8c-0.8,1.2-1.7,2.9-1.2,4.4
	c0.8,2.7,5.4,3.2,7.6,2.5C93.8,72.5,94.8,69.5,93.6,67.2z M91.5,71.8c-1.5,0.9-4.3,0.6-5.8-0.3c-1.4-0.8-0.9-2.2-0.3-3.4
	c0.2-0.5,0.5-1,0.9-1.4c0.2,0.2,0.5,0.4,0.8,0.2c1.5-1,3.7-1.1,5,0.4C93.2,68.5,93,70.9,91.5,71.8z"/>
<path class="dots-02" fill="#89746f" d="M72.8,9.6c-0.6-1.6-3.4-3.5-5-2.6c-0.1,0.1-0.2,0.1-0.2,0.2c-1.4,0.5-2.3,1.9-2.2,3.4c0.2,2.2,2.2,3.7,4.4,3.3
	C71.7,13.7,73.5,11.7,72.8,9.6z M69.3,12.7c-1.2,0.1-2.3-0.7-2.6-1.9c-0.3-1.6,1-2.7,2.5-2.5c0.1,0,0.2,0,0.3,0
	c0.8,0.3,1.7,1.1,1.9,1.5C72.3,11.1,70.8,12.6,69.3,12.7z"/>
<path class="dots-02" fill="#89746f" d="M87.7,6c-1.5-1.6-3.7-1.8-5.5-1.1c-0.1-0.2-0.3-0.3-0.5-0.3c-2.6-0.1-3.3,4.8-2.5,6.6c1.2,2.6,5.8,3.3,8,1.8
	C89.5,11.4,89.7,8,87.7,6z M87,11.4c-1.4,1.7-4.2,1.3-5.8,0.2c-1-0.7-1.1-1.8-1-2.9c0-0.3,0.1-0.7,0.2-1.2c0.2,0,0.4,0,0.5-0.2
	c1.3-1.4,3.5-2.1,5.2-0.9C87.9,7.6,88.3,9.8,87,11.4z"/>
<path class="dots-02" fill="#89746f" d="M16.9,87.3c-1.1-1.4-3.6-2.5-5.5-2c-0.1-0.4-0.5-0.6-0.9-0.4C8,86.5,6.7,90,8.3,92.7c1.5,2.5,5.2,3.5,7.6,1.8
	C18.1,92.8,18.6,89.4,16.9,87.3z M14.6,93.7c-1.9,0.9-4.3,0-5.3-1.8c-0.8-1.4-0.5-3.1,0.3-4.4c0.3,0.3,0.8,0.4,1-0.1
	c1.1-2.1,4.6-0.5,5.5,1C17.2,90.2,16.5,92.8,14.6,93.7z"/>
<path class="dots-02" fill="#89746f" d="M35.9,85.3c-0.7-2-3-2.7-4.8-1.9c-0.1,0-0.1,0.1-0.2,0.1c0-0.4-0.3-0.7-0.8-0.6c-2.1,0.5-2.8,3.8-2,5.6
	c1,1.9,3.5,2.6,5.5,1.8C35.5,89.5,36.6,87.3,35.9,85.3z M32.9,89.2c-1.1,0.4-2.6,0.1-3.3-0.8c-0.8-1-0.7-3.9,0.9-4.2
	c0.1,0,0.2-0.1,0.3-0.2c0.1,0.4,0.5,0.8,1,0.6c1.2-0.5,2.7,0.2,3,1.5C35.1,87.4,34.2,88.7,32.9,89.2z"/>
<path class="dots-02" fill="#89746f" d="M54.3,80.4c-2.4-1.3-6.4-1.2-8.5,0.9c-2.9,1.4-3.5,5-2,7.7c1.6,2.7,4.7,4,7.7,3.6c2.9-0.4,5.3-2.5,5.8-5.4
	C57.8,84.6,56.7,81.7,54.3,80.4z M55,89.4c-1.9,2.3-5.5,2.6-7.9,1.1c-2.4-1.5-3.7-5-1.8-7.1c0.3,0.2,0.7,0.2,0.9-0.2
	c0.2-0.3,0.4-0.6,0.6-0.8c0.1-0.1,0.2-0.1,0.2-0.2c2-1.8,5.9-1.6,7.7,0.1C56.6,84,56.6,87.4,55,89.4z"/>
<path class="dots-02" fill="#89746f" d="M73.4,85.5c-1.4-1.4-3.1-1.3-4.6-0.4c-0.2-0.2-0.5-0.3-0.7-0.1c-1.6,0.9-2.1,3.2-0.9,4.6c1.3,1.5,4.1,2,5.8,0.9
	C74.7,89.5,74.8,87,73.4,85.5z M72.1,89.6c-1.1,0.6-2.8,0.2-3.7-0.6c-0.6-0.5-0.7-1.2-0.5-1.9c0.2,0,0.3,0,0.5-0.2
	c1-1,2.4-1.7,3.7-0.8C73.4,87,73.4,88.9,72.1,89.6z"/>
<path class="dots-02" fill="#89746f" d="M95.3,83.3c-1.3-2-3.7-2.9-5.9-2.6c0-0.3-0.2-0.5-0.6-0.5c-6.6,0.4-9.2,10.5-2.7,13.1c2.9,1.2,6.4,0.4,8.5-1.9
	C96.5,89.3,96.9,85.9,95.3,83.3z M91,92.3c-3,1-6.6-0.2-7.4-3.5c-0.6-2.5,0.8-5.3,3-6.6c0,0.5,0.4,1,0.9,0.6
	c2.5-1.8,6.2-0.7,7.2,2.3C95.8,88.2,94,91.3,91,92.3z"/>
</svg>
