
<svg version="1.1" id="animate-08" xmlns="http://www.w3.org/2000/svg" xmlns:xlink="http://www.w3.org/1999/xlink" x="0px" y="0px"
	 viewBox="0 0 99.5 99.7" style="enable-background:new 0 0 99.5 99.7;" xml:space="preserve">
<path class="dots-01" fill="#F0B37B" d="M25.4,16.1c0.5,0.6,1,1.3,1.5,1.9c0.8,0.9,1.8,1.6,3,1.9c0.7,0.4,1.5,0.6,2.4,0.6c1.2,0.3,2.5,0.2,3.7-0.2
	c0.7-0.3,1.5-0.6,2.2-0.9c1.4-0.8,2.5-1.9,3.4-3.4c0,0,0-0.1,0.1-0.1c0.8-1.5,1.3-3,1.3-4.7c-0.1-0.8-0.2-1.7-0.3-2.5
	c-0.4-1.6-1.2-3-2.4-4.1c-0.8-0.9-1.9-1.6-3-1.9c-1.1-0.6-2.3-0.9-3.6-0.8c-1.3,0-2.5,0.2-3.6,0.8c-1.2,0.4-2.2,1-3,1.9
	c-1.2,1.2-2,2.5-2.4,4.1c0,0,0,0.1,0,0.1c-0.4,1.2-0.4,2.5-0.2,3.7C24.4,13.9,24.7,15.1,25.4,16.1z"/>
<path class="dots-01" fill="#F0B37B" d="M17.5,32c4.8,0,4.8-7.5,0-7.5C12.7,24.5,12.7,32,17.5,32z"/>
<path class="dots-01" fill="#F0B37B" d="M13.2,44c6,0,6-9.4,0-9.4C7.2,34.7,7.2,44,13.2,44z"/>
<path class="dots-01" fill="#F0B37B" d="M12.8,47.1C2.6,47.1,2.6,63,12.8,63C23,63,23,47.1,12.8,47.1z"/>
<path class="dots-01" fill="#F0B37B" d="M20.5,76.6c1-3.6-1.8-7.2-5.5-7.2c-3.7,0-6.5,3.7-5.5,7.2c0,0.1,0.1,0.2,0.1,0.3c0.3,1.2,1.1,2.2,2,2.9
	c0.9,0.7,2.2,1.3,3.4,1.2c1,0,2-0.3,2.8-0.8c1.2-0.6,2.2-2.1,2.6-3.4C20.4,76.8,20.4,76.7,20.5,76.6z"/>
<path class="dots-01" fill="#F0B37B" d="M28.5,84.4c-0.1-0.2-0.3-0.3-0.4-0.5c-0.8-0.9-2.3-1.4-3.4-1.4c-1.2,0-2.6,0.5-3.4,1.4
	c-0.8,0.9-1.5,2.1-1.4,3.4c0.1,1.2,0.5,2.6,1.4,3.4c0.2,0.1,0.3,0.3,0.5,0.4c0.8,0.7,1.3,1,2.3,1.3c1.5,0.6,3.5-0.1,4.6-1.2
	c1.1-1.1,1.8-3,1.2-4.6C29.5,85.7,29.2,85.2,28.5,84.4z"/>
<path class="dots-01" fill="#F0B37B" d="M49.4,88.8c-0.2-0.9-0.6-1.7-1.3-2.4c-0.5-0.8-1.2-1.4-2-1.8c-1.7-0.9-3.6-1.3-5.5-0.7
	c-0.3,0.1-0.6,0.2-0.9,0.3c-0.9,0.3-1.7,0.8-2.4,1.5c-0.8,0.8-1.4,1.8-1.7,2.9c-0.2,1.3-0.5,2.7,0,4c0.3,1.2,0.9,2.3,1.8,3.1
	c0.6,0.7,1.4,1.2,2.3,1.5c0.8,0.4,1.8,0.6,2.7,0.6c1.3,0,2.5-0.3,3.6-1c0,0,0,0,0.1-0.1c0.5-0.4,0.9-0.7,1.4-1.1
	c0.7-0.6,1.2-1.4,1.4-2.2c0.3-0.5,0.5-1.1,0.5-1.8C49.8,90.7,49.7,89.8,49.4,88.8C49.4,88.8,49.4,88.8,49.4,88.8z"/>
<path class="dots-01" fill="#F0B37B" d="M66.8,83.3c-0.6-0.9-1.3-1.7-2.3-2.3c-0.7-0.5-1.5-0.7-2.3-0.7c-0.8-0.2-1.7-0.1-2.5,0.1
	c-1.1,0.3-2,0.8-2.8,1.6c0,0-0.1,0-0.1,0.1c-0.8,0.8-1.3,1.7-1.6,2.7c-0.3,0.8-0.3,1.6-0.1,2.5c0,0.8,0.3,1.6,0.7,2.3
	c0.6,0.9,1.3,1.7,2.2,2.2c0,0,0.1,0,0.1,0.1c1,0.6,2,0.9,3.2,0.9c0.9,0,1.7-0.1,2.4-0.5c0.8-0.3,1.5-0.7,2-1.3
	c0.8-0.8,1.3-1.7,1.6-2.8c0.2-1.2,0.3-1.5,0.1-2.5C67.5,84.9,67.3,84,66.8,83.3z"/>
<path class="dots-01" fill="#F0B37B" d="M77,73.1c-5.7,0-5.7,8.9,0,8.9C82.7,82,82.7,73.1,77,73.1z"/>
<path class="dots-01" fill="#F0B37B" d="M83.8,63.5c-4.5,0-4.5,6.9,0,6.9C88.2,70.4,88.2,63.5,83.8,63.5z"/>
<path class="dots-01" fill="#F0B37B" d="M85.9,53.3c-3.9,0-3.9,6,0,6C89.8,59.3,89.8,53.3,85.9,53.3z"/>
<path class="dots-01" fill="#F0B37B" d="M94.1,40.1c-0.3-0.6-0.5-1.2-0.8-1.8c-0.4-0.5-0.8-1-1.2-1.5c-0.5-0.4-1-0.8-1.5-1.2c-0.6-0.3-1.2-0.5-1.8-0.8
	c-1-0.3-2-0.4-3-0.1c-0.7,0-1.3,0.2-1.9,0.5c-0.6,0.2-1.2,0.5-1.7,1c-0.6,0.3-1,0.8-1.4,1.4c-0.5,0.5-0.8,1-1,1.7
	c-0.3,0.6-0.5,1.2-0.5,1.9c-0.2,0.7-0.2,1.4,0,2c0,0.7,0.2,1.3,0.5,1.9c0.3,0.9,0.8,1.8,1.6,2.5c0,0,0,0.1,0.1,0.1
	c0.9,0.9,2.1,1.6,3.3,1.9c1,0.3,2,0.4,3,0.1c1,0,1.9-0.3,2.8-0.9c1.1-0.7,2-1.6,2.7-2.7c0,0,0-0.1,0.1-0.1c0.3-0.6,0.5-1.2,0.8-1.8
	c0.1-0.7,0.2-1.4,0.3-2C94.3,41.5,94.2,40.8,94.1,40.1z"/>
<path class="dots-01" fill="#F0B37B" d="M76,23.1c-0.7,2.3,1.2,4.6,3.5,4.6c2.3,0,4.2-2.3,3.5-4.6c0-0.1-0.1-0.2-0.1-0.3c-0.5-1.4-1.9-2.7-3.4-2.6
	c-1.6,0.1-3,1.1-3.4,2.6C76.1,22.9,76,23,76,23.1z"/>
<path class="dots-01" fill="#F0B37B" d="M72.4,21.5c0.4-0.1,1-0.3,1.4-0.6c1-0.7,1.9-1.6,2.2-2.8c0.3-1.3,0.1-2.4-0.5-3.6c-0.3-0.5-0.7-0.9-1-1.3
	c-0.6-0.6-1.3-1-2.1-1.2c-0.9-0.2-1.7-0.2-2.6,0c-1.6,0.4-3,1.8-3.4,3.4c0,0.1,0,0.1,0,0.2c-0.4,1.7,0,3.5,1.3,4.8
	C68.9,21.4,70.7,22,72.4,21.5z"/>
<path class="dots-01" fill="#F0B37B" d="M52.9,17.5c0.4,0.3,0.9,0.7,1.3,1c0.5,0.2,1,0.4,1.5,0.6c0.8,0.3,1.7,0.3,2.5,0.1c0.6,0,1.1-0.1,1.6-0.4
	c0.5-0.2,1-0.4,1.4-0.8c0.5-0.3,0.9-0.7,1.1-1.1c0.8-1.1,1.4-2.5,1.4-3.9c0-1.1-0.3-2.3-0.9-3.2c-0.5-0.9-1.4-1.8-2.3-2.3
	c-2.4-1.4-5.8-1-7.7,1c0,0,0,0-0.1,0.1C50.5,11,50.5,15,52.9,17.5C52.9,17.5,52.9,17.5,52.9,17.5z"/>
<path class="dots-01" fill="#F0B37B" d="M39,23.4c-0.3,0.3-0.7,0.5-1,0.8c-0.6,0.6-1,1.3-1.2,2.1c0,0.1-0.1,0.2-0.1,0.3c-0.4,1-0.1,2.6,0.5,3.5
	c0.6,1,1.5,1.7,2.7,2.1c0.1,0,0.2,0.1,0.3,0.1c1.1,0.3,2.7,0.2,3.7-0.5c0.3-0.3,0.7-0.5,1-0.8c0.6-0.6,1-1.3,1.2-2.1
	c0-0.1,0.1-0.1,0.1-0.2c0.3-1.1,0.2-2.6-0.5-3.5c-0.2-0.3-0.5-0.6-0.7-0.9c-0.6-0.6-1.2-1-2-1.2c-0.1,0-0.1-0.1-0.2-0.1
	C41.6,22.6,40,22.8,39,23.4z"/>
<path class="dots-01" fill="#F0B37B" d="M34.7,31.8C33.5,30.7,32,30,30.2,30c-1.6,0-3.3,0.7-4.5,1.9c-1.1,1.1-1.9,2.9-1.9,4.5c0.1,1.6,0.6,3.3,1.9,4.5
	c1.2,1.1,2.8,1.9,4.5,1.9c1.6,0,3.3-0.7,4.5-1.9c1.1-1.1,1.9-2.9,1.9-4.5C36.5,34.6,36,32.9,34.7,31.8z"/>
<path class="dots-01" fill="#F0B37B" d="M27.3,57.5c2,0,3.6-1.4,4.2-3.3c0.5-1.6-0.1-3.5-1.3-4.6c-1.7-1.6-4.2-1.6-5.9,0c-1.2,1.1-1.6,2.5-1.4,4
	C23.2,55.8,25.1,57.5,27.3,57.5z"/>
<path class="dots-01" fill="#F0B37B" d="M31.1,62.4c-4.3,0-4.3,6.7,0,6.7C35.4,69,35.4,62.4,31.1,62.4z"/>
<path class="dots-01" fill="#F0B37B" d="M39.2,76.7c3.3,0,3.3-5.1,0-5.1C35.9,71.7,35.9,76.7,39.2,76.7z"/>
<path class="dots-01" fill="#F0B37B" d="M58.4,76.4c0.4-0.4,0.7-0.9,0.8-1.4c0.3-0.5,0.4-1,0.4-1.6c0.2-0.6,0.2-1.1,0-1.7c0-0.8-0.3-1.6-0.7-2.3
	c-0.6-0.9-1.3-1.7-2.3-2.3c-0.5-0.2-1-0.4-1.5-0.6c-0.6-0.1-1.1-0.2-1.7-0.2c-0.6,0.1-1.1,0.2-1.7,0.2c-0.8,0.2-1.5,0.6-2.1,1.1
	c-0.5,0.3-0.9,0.7-1.1,1.1c-0.6,0.6-0.9,1.3-1.1,2.1c0,0.1-0.1,0.1-0.1,0.2c-0.3,0.8-0.3,1.6-0.1,2.4c0,0.8,0.3,1.6,0.7,2.3
	c0.9,1.3,2.1,2.4,3.7,2.8c0.1,0,0.1,0,0.2,0.1c1.1,0.3,2.3,0.2,3.4,0C56.5,78.3,57.6,77.4,58.4,76.4z"/>
<path class="dots-01" fill="#F0B37B" d="M67.6,60.4c-6.2,0-6.2,9.7,0,9.7C73.8,70.1,73.8,60.4,67.6,60.4z"/>
<path class="dots-01" fill="#F0B37B" d="M72.7,58.1c5,0,5-7.8,0-7.8C67.7,50.3,67.7,58.1,72.7,58.1z"/>
<path class="dots-01" fill="#F0B37B" d="M67.6,34.5c-10,0-10,15.6,0,15.6C77.6,50.1,77.7,34.5,67.6,34.5z"/>
<path class="dots-01" fill="#F0B37B" d="M56.6,39.2c4.7,0,4.7-7.3,0-7.3C51.9,31.9,51.9,39.2,56.6,39.2z"/>
<path class="dots-01" fill="#F0B37B" d="M43.1,51.8c2,0,4.1-0.9,5.5-2.3c0.8-0.7,1.3-1.5,1.6-2.5c0.5-0.9,0.7-1.9,0.7-3c-0.1-2-0.8-4.1-2.3-5.5
	c-1.5-1.4-3.4-2.3-5.5-2.3c-2,0-4.1,0.9-5.5,2.3c-0.8,0.7-1.3,1.5-1.6,2.5c-0.5,0.9-0.7,1.9-0.7,3c0.1,2,0.8,4.1,2.3,5.5
	C39.1,50.9,41,51.8,43.1,51.8z"/>
<path class="dots-01" fill="#F0B37B" d="M45,58.9c0.1,1.9,1.5,3.5,3.5,3.5c1.8,0,3.6-1.6,3.5-3.5c-0.1-1.9-1.5-3.5-3.5-3.5C46.7,55.4,44.9,57,45,58.9z"
	/>
<path class="dots-01" fill="#F0B37B" d="M59.6,59c0.1,0,0.2,0,0.3,0c0.8-0.1,1.5-0.3,2.1-0.9c0.5-0.5,0.9-1.4,0.9-2.1c0-0.8-0.3-1.6-0.9-2.1
	c-0.6-0.6-1.3-0.8-2.1-0.9c-0.1,0-0.2,0-0.3,0c-0.7-0.1-1.7,0.4-2.2,0.9c-0.5,0.5-0.9,1.4-0.9,2.2c0,0.8,0.3,1.6,0.9,2.2
	C57.9,58.6,58.8,59.1,59.6,59z"/>
<path class="dots-01" fill="#F0B37B" d="M56.6,53c3.3,0,3.3-5.2,0-5.2C53.3,47.8,53.3,53,56.6,53z"/>
<path class="dots-01" fill="#F0B37B" d="M63.4,31.7c6,0,6-9.4,0-9.4C57.3,22.3,57.3,31.7,63.4,31.7z"/>
<path class="dots-01" fill="#F0B37B" d="M75.3,28.8c-4.9,0-4.9,7.6,0,7.6C80.2,36.3,80.2,28.8,75.3,28.8z"/>
</svg>
