<?xml version="1.0" encoding="utf-8"?>
<!-- Generator: Adobe Illustrator 24.2.0, SVG Export Plug-In . SVG Version: 6.00 Build 0)  -->
<svg version="1.1" id="Layer_1" xmlns="http://www.w3.org/2000/svg" xmlns:xlink="http://www.w3.org/1999/xlink" x="0px" y="0px"
	 viewBox="0 0 1200 131.9" style="enable-background:new 0 0 1200 131.9;" xml:space="preserve">
<style type="text/css">
	.st0{fill:#2EA399;}
</style>
<g>
	<path class="st0" d="M95.2,4.2v16.7c0.1,0.9-0.7,1.8-1.6,1.8c-0.1,0-0.1,0-0.2,0H21.6v34.2h59.2c0.9-0.1,1.8,0.7,1.8,1.6
		c0,0.1,0,0.1,0,0.2v16.7c0.1,0.9-0.7,1.8-1.6,1.8c-0.1,0-0.1,0-0.2,0H21.6v50.5c0.1,0.9-0.7,1.8-1.6,1.8c-0.1,0-0.1,0-0.2,0h-18
		c-0.9,0.1-1.8-0.7-1.8-1.6c0-0.1,0-0.1,0-0.2V4.2c-0.1-0.9,0.7-1.8,1.6-1.8c0.1,0,0.1,0,0.2,0h91.6c0.9,0,1.7,0.7,1.8,1.6
		C95.2,4.1,95.2,4.1,95.2,4.2z"/>
	<path class="st0" d="M241.7,129.5h-19.8c-1,0.1-1.9-0.6-2.1-1.6c-2.6-10.4-5.8-21.4-9.5-32.5h-60.8c-3.6,11.1-6.8,22.1-9.4,32.5
		c-0.2,1-1.1,1.7-2.1,1.6h-19c-1.3,0-2-0.7-1.6-2C128.8,87,146.3,42.3,163.9,4.7c0.5-1.5,2-2.5,3.5-2.4h25.8c1.6-0.1,3,0.9,3.5,2.4
		c18.7,39.6,34.3,80.7,46.5,122.8C243.7,128.8,242.9,129.5,241.7,129.5z M203.6,75.8c-6.6-18.4-14-36.7-21.5-53.4h-4.3
		c-7.5,16.7-15,35.1-21.6,53.4H203.6z"/>
	<path class="st0" d="M274.2,67c0-39.4,26-67,63.1-67h2.7c23.3,0,41.2,11.8,50.8,28.9c0.6,0.7,0.5,1.7-0.2,2.3
		c-0.1,0.1-0.3,0.2-0.5,0.3l-16,7.9c-1,0.7-2.4,0.4-3.1-0.6c0-0.1-0.1-0.1-0.1-0.2c-6.7-11.6-16.8-17.8-31.7-17.8h-2.7
		c-23.3,0-39.4,18.5-39.4,45.4s15.8,45.1,39.4,45.1h2.7c15.3,0,24.2-5.2,31-13.1c0.7-0.9,2-1.2,3-0.6l16.5,8
		c0.5,0.2,0.9,0.7,0.9,1.3c0,0.5-0.2,1-0.5,1.4c-10.1,14.7-28.2,23.8-50.4,23.8H337C299.2,131.9,274.2,106,274.2,67z"/>
	<path class="st0" d="M535.5,111v16.7c0.1,0.9-0.7,1.8-1.6,1.8c-0.1,0-0.1,0-0.2,0h-95.4c-0.9,0.1-1.8-0.7-1.8-1.6
		c0-0.1,0-0.1,0-0.2V4.2c-0.1-0.9,0.7-1.8,1.6-1.8c0.1,0,0.1,0,0.2,0H532c0.9-0.1,1.8,0.7,1.8,1.6c0,0.1,0,0.1,0,0.2v16.7
		c0.1,0.9-0.7,1.8-1.6,1.8c-0.1,0-0.1,0-0.2,0h-74v33.1h60.1c0.9-0.1,1.8,0.7,1.8,1.6c0,0.1,0,0.1,0,0.2v16.5
		c0.1,0.9-0.7,1.8-1.6,1.8c-0.1,0-0.1,0-0.2,0H458v33.2h75.6c0.9-0.1,1.8,0.7,1.8,1.6C535.5,110.9,535.5,111,535.5,111z"/>
	<path class="st0" d="M699.7,94.7c0,22.3-17.1,34.9-47.2,34.9H590c-0.9,0.1-1.8-0.7-1.8-1.6c0-0.1,0-0.1,0-0.2V4.2
		c-0.1-0.9,0.7-1.8,1.6-1.8c0.1,0,0.1,0,0.2,0h57c29.3,0,45.3,11.6,45.3,32.9c0,14-7.1,23.2-21.4,27.4C691,67,699.7,79,699.7,94.7z
		 M646.5,22.2h-36.7v34.2h36.7c16.4,0,24-5.4,24-17.1S662.9,22.2,646.5,22.2z M677.6,92.8c0-11.8-7.8-17.2-25-17.2h-42.8v34.2h42.8
		C670,109.8,677.6,104.7,677.6,92.8z"/>
	<path class="st0" d="M737.8,66c0-38.3,25.4-66,65.4-66h2.7c40,0,65.4,27.6,65.4,66s-25.4,66-65.4,66h-2.8
		C763.2,131.9,737.8,104.3,737.8,66z M805.9,111.2c26.1,0,42.5-17.9,42.5-45.2S832,20.7,805.9,20.7h-2.8
		c-26.1,0-42.5,17.9-42.5,45.2s16.5,45.2,42.5,45.2L805.9,111.2L805.9,111.2z"/>
	<path class="st0" d="M908.2,66c0-38.3,25.4-66,65.4-66h2.7c40,0,65.4,27.6,65.4,66s-25.4,66-65.4,66h-2.7
		C933.7,131.9,908.2,104.3,908.2,66z M976.4,111.2c26.1,0,42.5-17.9,42.5-45.2s-16.4-45.2-42.5-45.2h-2.7
		c-26.1,0-42.5,17.9-42.5,45.2s16.4,45.2,42.5,45.2H976.4z"/>
	<path class="st0" d="M1198.5,129.5h-23.4c-1.3,0.1-2.5-0.5-3.2-1.5c-16.1-18.9-33.6-36.5-52.4-52.8H1109v52.5
		c0.1,0.9-0.7,1.8-1.6,1.8c-0.1,0-0.1,0-0.2,0h-18c-0.9,0.1-1.8-0.7-1.8-1.6c0-0.1,0-0.1,0-0.2V4.2c-0.1-0.9,0.7-1.8,1.6-1.8
		c0.1,0,0.1,0,0.2,0h18c0.9-0.1,1.8,0.7,1.8,1.6c0,0.1,0,0.1,0,0.2v50.1h10.7c17.3-15.4,33.2-32.4,47.4-50.6
		c0.6-0.9,1.6-1.5,2.7-1.4h22.2c1.1,0,1.6,0.5,1.6,1.3c0,0.5-0.3,1-0.6,1.4c-19.5,24.1-38.9,43.8-56.8,59.1
		c22.8,19.3,44,40.5,63.3,63.2C1200.5,128.5,1200,129.5,1198.5,129.5z"/>
</g>
</svg>
