<svg id="Layer_1" data-name="Layer 1" xmlns="http://www.w3.org/2000/svg" viewBox="0 0 649.25 240.64">
  <defs>
    <style>
      .cls-1 {
        fill: #fff;
      }
    </style>
  </defs>
  <title>facebook-logo</title>
  <g>
    <path class="cls-1" d="M90.35,54.69c-7.64,0-9.85,3.4-9.85,10.87V78h20.39l-2,20H80.51v60.82H56V98H39.55V78H56V65.9C56,45.68,64.19,35,86.93,35a117.23,117.23,0,0,1,14.26.84V54.71Z" transform="translate(-39.55 -35.01)"/>
    <path class="cls-1" d="M127,121.29c0,12,4.41,20,15.8,20,10,0,15.12-7.31,15.12-18.85v-8.12c0-11.56-5.09-18.86-15.12-18.86-11.39,0-15.8,8-15.8,20Zm-24.46-5.45c0-22.58,10.7-39.6,33.13-39.6,12.23,0,19.7,6.29,23.27,14.1V78h23.44v80.85H159V146.6c-3.4,7.82-11,13.93-23.27,13.93-22.43,0-33.13-17-33.13-39.61Z" transform="translate(-39.55 -35.01)"/>
    <path class="cls-1" d="M233.39,76.26c9.5,0,18.51,2,23.43,5.44L251.39,99a38.33,38.33,0,0,0-16.31-3.74c-13.25,0-19,7.65-19,20.73v4.75c0,13.09,5.78,20.73,19,20.73a38.33,38.33,0,0,0,16.31-3.74l5.43,17.33c-4.92,3.39-13.92,5.44-23.43,5.44-28.72,0-41.79-15.46-41.79-40.26v-3.74c0-24.8,13.07-40.27,41.79-40.27" transform="translate(-39.55 -35.01)"/>
    <path class="cls-1" d="M284.51,111h29.56v-2c0-8.84-3.56-15.85-14.25-15.85-11.06,0-15.31,7-15.31,17.85Zm-24.46,10.53v-7.13c0-22.93,13.08-38,39.75-38C325,76.33,336,91.62,336,114V127H284.5c.52,11,5.44,16,19,16a69.45,69.45,0,0,0,26-4.93L334,154.75c-6.46,3.41-19.71,5.95-31.43,5.95-31,0-42.51-15.45-42.51-39.22" transform="translate(-39.55 -35.01)"/>
    <path class="cls-1" d="M402.2,115.34c0-11.38-4.41-19.88-16.13-19.88-10,0-15.46,7.13-15.46,18.69v8.49c0,11.55,5.43,18.69,15.46,18.69,11.72,0,16.13-8.5,16.13-19.87ZM426.66,121c0,22.59-10.87,39.6-33.27,39.6-12.23,0-20.72-6.11-24.11-13.93v12.23h-23.1V37.36l24.46-2.22v54C374.2,82,382,76.26,393.4,76.26c22.43,0,33.27,17,33.27,39.6Z" transform="translate(-39.55 -35.01)"/>
    <path class="cls-1" d="M490.91,114.65c0-10.69-4.42-19.19-15.84-19.19s-15.8,8.5-15.8,19.19v7.49c0,10.69,4.42,19.19,15.8,19.19s15.84-8.5,15.84-19.19Zm-56.06,5.78v-4.07c0-23.28,13.25-40.1,40.26-40.1s40.27,16.82,40.27,40.1v4.07c0,23.27-13.25,40.1-40.26,40.1s-40.27-16.83-40.27-40.1" transform="translate(-39.55 -35.01)"/>
    <path class="cls-1" d="M579.58,114.65c0-10.69-4.42-19.19-15.8-19.19S548,104,548,114.65v7.49c0,10.69,4.41,19.19,15.79,19.19s15.8-8.5,15.8-19.19Zm-56.06,5.78v-4.07c0-23.28,13.25-40.1,40.26-40.1s40.27,16.82,40.27,40.1v4.07c0,23.27-13.26,40.1-40.27,40.1s-40.26-16.83-40.26-40.1" transform="translate(-39.55 -35.01)"/>
    <polygon class="cls-1" points="598.13 81.52 622.24 42.96 648.24 42.96 622.93 82.88 649.25 123.82 623.27 123.82 598.13 84.21 598.13 123.82 573.66 123.82 573.66 2.35 598.13 0.13 598.13 81.52"/>
    <path class="cls-1" d="M272.45,229.59l-10.69,17a5.47,5.47,0,0,1-7.89,1.46l-8.51-6.38a2.19,2.19,0,0,0-2.63,0l-11.48,8.72a1.73,1.73,0,0,1-2.5-2.3l10.69-17a5.46,5.46,0,0,1,7.89-1.46l8.51,6.38a2.19,2.19,0,0,0,2.63,0L270,227.29a1.72,1.72,0,0,1,2.5,2.3M250.6,202.42c-20.51,0-36.4,15-36.4,35.31a34.52,34.52,0,0,0,11.44,26.11,2.92,2.92,0,0,1,1,2.07l.2,6.47A2.92,2.92,0,0,0,230.9,275l7.22-3.18a2.82,2.82,0,0,1,1.94-.15A39.39,39.39,0,0,0,250.6,273c20.5,0,36.39-15,36.39-35.3s-15.89-35.31-36.39-35.31" transform="translate(-39.55 -35.01)"/>
    <path class="cls-1" d="M343.1,203.44c-9.61,0-10.82.05-14.59.22a26,26,0,0,0-8.58,1.64,18.07,18.07,0,0,0-10.35,10.35,26,26,0,0,0-1.64,8.58c-.17,3.77-.21,5-.21,14.58s0,10.81.21,14.58a26,26,0,0,0,1.64,8.59,18.07,18.07,0,0,0,10.35,10.35,25.8,25.8,0,0,0,8.58,1.63c3.77.18,5,.22,14.59.22s10.8,0,14.58-.22a25.8,25.8,0,0,0,8.58-1.63A18.07,18.07,0,0,0,376.61,262a26,26,0,0,0,1.64-8.59c.17-3.77.21-5,.21-14.58s0-10.81-.21-14.58a26,26,0,0,0-1.64-8.58,18.07,18.07,0,0,0-10.35-10.35,26,26,0,0,0-8.58-1.64c-3.78-.17-5-.22-14.58-.22m0,6.38c9.44,0,10.56,0,14.29.2a19.63,19.63,0,0,1,6.56,1.22,11.75,11.75,0,0,1,6.72,6.72,19.45,19.45,0,0,1,1.21,6.56c.17,3.73.21,4.85.21,14.29s0,10.56-.21,14.29a19.52,19.52,0,0,1-1.21,6.57,11.08,11.08,0,0,1-2.65,4.07,10.93,10.93,0,0,1-4.07,2.64,19.38,19.38,0,0,1-6.56,1.22c-3.73.17-4.85.21-14.29.21s-10.57,0-14.29-.21a19.39,19.39,0,0,1-6.57-1.22,10.93,10.93,0,0,1-4.07-2.64,11.08,11.08,0,0,1-2.65-4.07,19.52,19.52,0,0,1-1.21-6.57c-.17-3.73-.21-4.85-.21-14.29s0-10.56.21-14.29a19.45,19.45,0,0,1,1.21-6.56,11.75,11.75,0,0,1,6.72-6.72,19.65,19.65,0,0,1,6.57-1.22c3.72-.17,4.84-.2,14.29-.2" transform="translate(-39.55 -35.01)"/>
    <path class="cls-1" d="M343.1,250.6a11.79,11.79,0,1,1,11.78-11.79A11.79,11.79,0,0,1,343.1,250.6m0-29.95a18.17,18.17,0,1,0,18.16,18.16,18.16,18.16,0,0,0-18.16-18.16" transform="translate(-39.55 -35.01)"/>
    <path class="cls-1" d="M366.22,219.93a4.25,4.25,0,1,1-4.24-4.24,4.24,4.24,0,0,1,4.24,4.24" transform="translate(-39.55 -35.01)"/>
    <path class="cls-1" d="M452.35,245.83c-.88-.43-5.19-2.55-6-2.85s-1.38-.43-2,.44-2.26,2.85-2.77,3.44-1,.65-1.9.22a24,24,0,0,1-7-4.35,26,26,0,0,1-4.87-6.07c-.51-.88-.06-1.35.38-1.79s.88-1,1.31-1.53a5.92,5.92,0,0,0,.88-1.46,1.6,1.6,0,0,0-.07-1.53c-.22-.44-2-4.75-2.7-6.51s-1.44-1.47-2-1.5-1.1,0-1.68,0a3.24,3.24,0,0,0-2.34,1.09,9.85,9.85,0,0,0-3.07,7.31c0,4.31,3.15,8.48,3.58,9.06s6.18,9.43,15,13.22a50.49,50.49,0,0,0,5,1.85,12.19,12.19,0,0,0,5.52.35c1.69-.25,5.19-2.12,5.92-4.17a7.16,7.16,0,0,0,.5-4.16c-.21-.37-.8-.59-1.67-1m-16,21.83h0a29.1,29.1,0,0,1-14.82-4.07l-1.07-.63-11,2.89,2.94-10.75-.69-1.1a29.13,29.13,0,1,1,24.68,13.66m24.79-53.94A35.07,35.07,0,0,0,406,256l-5,18.16,18.58-4.87a35,35,0,0,0,16.75,4.26h0a35.07,35.07,0,0,0,24.79-59.85" transform="translate(-39.55 -35.01)"/>
    <path class="cls-1" d="M580.52,205.4a34.63,34.63,0,0,1,13.67,6.67,34.28,34.28,0,0,1,0,53.48,34.72,34.72,0,0,1-13.67,6.68,43.88,43.88,0,0,1-8.69,1.09c-2.19.07-4.37.05-6.55.05h-31c-2.18,0-4.36,0-6.54-.05a43.33,43.33,0,0,1-8.7-1.09,34.33,34.33,0,0,1,0-66.83,43.35,43.35,0,0,1,8.7-1.1c2.18-.07,4.36-.05,6.55-.05h31c2.18,0,4.36,0,6.54.05a43.26,43.26,0,0,1,8.7,1.1m-1.47,42.71a11.27,11.27,0,0,0,0-18.59,12.17,12.17,0,0,0-5-2,33.06,33.06,0,0,0-5.45-.24H531a33.15,33.15,0,0,0-5.45.24,12.17,12.17,0,0,0-5,2,11.27,11.27,0,0,0,0,18.6,12.17,12.17,0,0,0,5,2,33.32,33.32,0,0,0,5.46.24h37.55a33.15,33.15,0,0,0,5.45-.24,12.08,12.08,0,0,0,5-2" transform="translate(-39.55 -35.01)"/>
    <path class="cls-1" d="M195.31,238.76a37.35,37.35,0,1,0-43.16,36.89v-26.1h-9.54V238.76h9.54v-8.23c0-9.36,5.54-14.55,14.07-14.55a53.3,53.3,0,0,1,8.33.78v9.13h-4.68c-4.64,0-6.12,2.91-6.12,5.86v7h10.38l-1.67,10.79h-8.71v26.1a37.36,37.36,0,0,0,31.54-36.89" transform="translate(-39.55 -35.01)"/>
  </g>
</svg>
