<?xml version="1.0" encoding="utf-8"?>
<!-- Generator: Adobe Illustrator 25.2.1, SVG Export Plug-In . SVG Version: 6.00 Build 0)  -->
<svg version="1.1" id="Layer_1" xmlns="http://www.w3.org/2000/svg" xmlns:xlink="http://www.w3.org/1999/xlink" x="0px" y="0px"
	 viewBox="0 0 1305.8 238.8" style="enable-background:new 0 0 1305.8 238.8;" xml:space="preserve">
<style type="text/css">
	.st0{fill:#232323;}
</style>
<path class="st0" d="M138.2,82.7v9.9c0,0.6-0.4,1-0.9,1.1c-0.1,0-0.1,0-0.2,0H94.5V114h35.2c0.6,0,1,0.4,1.1,0.9c0,0.1,0,0.1,0,0.2
	v9.9c0,0.6-0.4,1-0.9,1.1c-0.1,0-0.1,0-0.2,0H94.5v30c0,0.6-0.4,1-0.9,1.1c-0.1,0-0.1,0-0.2,0H82.8c-0.6,0-1-0.4-1.1-0.9
	c0-0.1,0-0.1,0-0.2V82.7c0-0.6,0.4-1,0.9-1.1c0.1,0,0.1,0,0.2,0h54.4c0.6,0,1,0.4,1.1,0.9C138.3,82.6,138.3,82.6,138.2,82.7z"/>
<path class="st0" d="M225.3,157.2h-11.8c-0.6,0-1.1-0.4-1.2-1c-1.6-6.2-3.4-12.7-5.6-19.3h-36.1c-2.2,6.6-4.1,13.1-5.6,19.3
	c-0.1,0.6-0.6,1-1.2,1h-11.3c-0.8,0-1.2-0.4-1-1.2c6.8-24.1,17.2-50.6,27.6-73c0.3-0.9,1.2-1.5,2.1-1.4h15.4
	c0.9-0.1,1.8,0.5,2.1,1.4c11.1,23.6,20.4,48,27.6,73C226.5,156.8,226,157.2,225.3,157.2z M202.7,125.2c-3.9-10.9-8.3-21.8-12.8-31.7
	h-2.5c-4.5,9.9-8.9,20.8-12.9,31.7H202.7z"/>
<path class="st0" d="M244.6,120.1c0-23.4,15.4-39.8,37.5-39.8h1.6c13.8,0,24.5,7,30.2,17.2c0.3,0.4,0.3,1.1-0.2,1.4
	c-0.1,0-0.1,0.1-0.2,0.1l-9.5,4.7c-0.6,0.4-1.4,0.2-1.8-0.4c0,0-0.1-0.1-0.1-0.1c-4-6.9-10-10.6-18.8-10.6h-1.6
	c-13.9,0-23.4,11-23.4,27s9.4,26.8,23.4,26.8h1.6c9.1,0,14.4-3.1,18.4-7.8c0.4-0.6,1.2-0.7,1.8-0.4l9.8,4.8c0.3,0.1,0.5,0.4,0.5,0.8
	c0,0.3-0.1,0.6-0.3,0.8c-6,8.7-16.8,14.1-30,14.1h-1.6C259.4,158.6,244.6,143.2,244.6,120.1z"/>
<path class="st0" d="M399.9,146.2v9.9c0,0.6-0.4,1-0.9,1.1c-0.1,0-0.1,0-0.2,0h-56.7c-0.6,0-1-0.4-1.1-0.9c0-0.1,0-0.1,0-0.2V82.7
	c0-0.6,0.4-1,0.9-1.1c0.1,0,0.1,0,0.2,0h55.7c0.6,0,1,0.4,1.1,0.9c0,0.1,0,0.1,0,0.2v9.9c0,0.6-0.4,1-0.9,1.1c-0.1,0-0.1,0-0.2,0
	h-43.9v19.7h35.7c0.6,0,1,0.4,1.1,0.9c0,0.1,0,0.1,0,0.2v9.8c0,0.6-0.4,1-0.9,1.1c-0.1,0-0.1,0-0.2,0h-35.7v19.8h44.9
	c0.6,0,1,0.4,1.1,0.9C399.9,146.1,399.9,146.1,399.9,146.2z"/>
<path class="st0" d="M497.5,136.5c0,13.2-10.1,20.7-28.1,20.7h-37.1c-0.6,0-1-0.4-1.1-0.9c0-0.1,0-0.1,0-0.2V82.7
	c0-0.6,0.4-1,0.9-1.1c0.1,0,0.1,0,0.2,0h33.9c17.4,0,26.9,6.9,26.9,19.5c0,8.3-4.2,13.8-12.7,16.3
	C492.3,120,497.5,127.2,497.5,136.5z M465.8,93.4H444v20.3h21.8c9.8,0,14.2-3.2,14.2-10.2S475.6,93.4,465.8,93.4z M484.3,135.4
	c0-7-4.6-10.2-14.9-10.2H444v20.3h25.4C479.8,145.4,484.3,142.4,484.3,135.4L484.3,135.4z"/>
<path class="st0" d="M520.1,119.4c0-22.8,15.1-39.2,38.9-39.2h1.6c23.8,0,38.9,16.4,38.9,39.2s-15.1,39.2-38.9,39.2h-1.6
	C535.2,158.6,520.1,142.2,520.1,119.4z M560.6,146.3c15.5,0,25.3-10.6,25.3-26.9s-9.8-26.9-25.3-26.9h-1.6
	c-15.5,0-25.3,10.6-25.3,26.9s9.8,26.9,25.3,26.9H560.6z"/>
<path class="st0" d="M621.3,119.4c0-22.8,15.1-39.2,38.9-39.2h1.6c23.8,0,38.9,16.4,38.9,39.2s-15.1,39.2-38.9,39.2h-1.6
	C636.5,158.6,621.3,142.2,621.3,119.4z M661.8,146.3c15.5,0,25.3-10.6,25.3-26.9s-9.8-26.9-25.3-26.9h-1.6
	c-15.5,0-25.3,10.6-25.3,26.9s9.8,26.9,25.3,26.9H661.8z"/>
<path class="st0" d="M793.8,157.2h-13.9c-0.8,0.1-1.5-0.3-1.9-0.9c-9.6-11.2-20-21.7-31.2-31.4h-6.3v31.2c0,0.6-0.4,1-0.9,1.1
	c-0.1,0-0.1,0-0.2,0h-10.7c-0.6,0-1-0.4-1.1-0.9c0-0.1,0-0.1,0-0.2V82.7c0-0.6,0.4-1,0.9-1.1c0.1,0,0.1,0,0.2,0h10.7
	c0.6,0,1,0.4,1.1,0.9c0,0.1,0,0.1,0,0.2v29.8h6.4c10.3-9.2,19.7-19.2,28.2-30.1c0.3-0.6,1-0.9,1.6-0.8H790c0.7,0,1,0.3,1,0.8
	c0,0.3-0.2,0.6-0.4,0.8c-10.2,12.7-21.5,24.4-33.7,35.1c13.5,11.5,26.1,24,37.6,37.6C795,156.6,794.7,157.2,793.8,157.2z"/>
<path class="st0" d="M838.4,81.8h49.5v8.1h-40.4V114h33.9v8.1h-33.9v27H889v8.1h-50.6V81.8z"/>
<path class="st0" d="M907.3,80.7h8.6v76.5h-8.6V80.7z"/>
<path class="st0" d="M931.6,129.1c0-15.4,10.5-29.8,27.5-29.8c19.2,0,26.5,14,26.5,27.8v4h-45.5c0.5,11.3,7.7,19.5,19.1,19.5
	c9.3,0,13.6-4.2,16.8-8.9l6.6,4.5c-3.3,5.2-10.3,12.2-23.4,12.2C944.3,158.3,931.6,148.6,931.6,129.1z M977.1,123.3
	c-0.9-7.3-4.5-16.3-18-16.3c-8.1,0-16.7,5-18.5,16.3L977.1,123.3z"/>
<path class="st0" d="M994,100.3h9.6l18,46.2l18.3-46.2h9.3l-23.5,56.9h-8.2L994,100.3z"/>
<path class="st0" d="M1111.3,100.3v56.9h-7.8l-2.3-6.9c-4.2,5.1-10.4,8-16.9,8c-17.3,0-27.7-12.4-27.7-29.7s10.7-29.3,27.7-29.3
	c8.9,0,15.6,4.3,18.3,8.9v-7.9L1111.3,100.3z M1103.3,128.6c0-12.3-7.4-21.7-19-21.7s-19,9.4-19,21.7s7.3,21.9,19,21.9
	S1103.3,140.9,1103.3,128.6z"/>
<path class="st0" d="M1135.7,141.8v-33.7h-9.9v-7.8h9.9V81.8h8.6v18.5h14v7.8h-14v33.8c0,5.8,2.5,8.6,7.1,8.6c2.3,0,4.7-0.3,6.9-1
	v7.8c-2.6,0.8-5.3,1.1-8,1C1143,158.3,1135.7,155.5,1135.7,141.8z"/>
<path class="st0" d="M1170.2,129.1c0-15.4,10.4-29.8,27.5-29.8c19.2,0,26.5,14,26.5,27.8v4h-45.5c0.5,11.3,7.7,19.5,19.1,19.5
	c9.3,0,13.6-4.2,16.8-8.9l6.6,4.5c-3.3,5.2-10.3,12.2-23.4,12.2C1182.9,158.3,1170.2,148.6,1170.2,129.1z M1215.6,123.3
	c-0.9-7.3-4.5-16.3-18-16.3c-8.1,0-16.7,5-18.5,16.3L1215.6,123.3z"/>
</svg>
