<?xml version="1.0" encoding="utf-8"?>
<!-- Generator: Adobe Illustrator 24.2.0, SVG Export Plug-In . SVG Version: 6.00 Build 0)  -->
<svg version="1.1" id="Layer_1" xmlns="http://www.w3.org/2000/svg" xmlns:xlink="http://www.w3.org/1999/xlink" x="0px" y="0px"
	 viewBox="0 0 934 380.1" style="enable-background:new 0 0 934 380.1;" xml:space="preserve">
<style type="text/css">
	.st0{fill:#FFFFFF;}
</style>
<path class="st0" d="M81.7,220.8h50.9v8.3H91V254h34.9v8.3H91v27.8h42.7v8.3h-52L81.7,220.8z"/>
<path class="st0" d="M152.5,219.7h8.9v78.7h-8.9V219.7z"/>
<path class="st0" d="M177.6,269.5c0-15.9,10.8-30.7,28.3-30.7c19.7,0,27.3,14.4,27.3,28.6v4.1h-46.8c0.6,11.6,7.9,20.1,19.6,20.1
	c9.5,0,14-4.3,17.3-9.2l6.8,4.7c-3.4,5.3-10.6,12.5-24,12.5C190.6,299.5,177.6,289.5,177.6,269.5z M224.3,263.5
	c-0.9-7.5-4.7-16.7-18.5-16.7c-8.3,0-17.2,5.1-19.1,16.7H224.3z"/>
<path class="st0" d="M241.7,239.9h9.9l18.5,47.5l18.9-47.5h9.5l-24.2,58.5h-8.4L241.7,239.9z"/>
<path class="st0" d="M362.4,239.9v58.5h-8l-2.3-7.1c-4.3,5.2-10.7,8.2-17.4,8.2c-17.9,0-28.5-12.8-28.5-30.6s11-30.1,28.5-30.1
	c9.2,0,16.1,4.4,18.8,9.2v-8.1H362.4z M354.1,269c0-12.6-7.6-22.3-19.5-22.3s-19.5,9.6-19.5,22.3s7.5,22.5,19.5,22.5
	S354.1,281.7,354.1,269z"/>
<path class="st0" d="M387.5,282.6v-34.7h-10.2v-8h10.2v-19.1h8.9v19.1h14.4v8h-14.4v34.8c0,6,2.5,8.9,7.3,8.9c2.4,0,4.8-0.3,7.1-1v8
	c-2.7,0.8-5.4,1.1-8.2,1C395,299.5,387.5,296.6,387.5,282.6z"/>
<path class="st0" d="M423,269.5c0-15.9,10.8-30.7,28.3-30.7c19.7,0,27.3,14.4,27.3,28.6v4.1h-46.8c0.5,11.6,7.9,20.1,19.6,20.1
	c9.5,0,14-4.3,17.3-9.2l6.8,4.6c-3.4,5.3-10.6,12.5-24.1,12.5C436,299.5,423,289.5,423,269.5z M469.8,263.5
	c-0.9-7.5-4.6-16.7-18.5-16.7c-8.3,0-17.2,5.1-19.1,16.7H469.8z"/>
<path class="st0" d="M142.8,83.2v10.7c0,0.6-0.4,1.1-1,1.2c0,0-0.1,0-0.1,0H95.6V117h38c0.6,0,1.1,0.4,1.2,1c0,0,0,0.1,0,0.1v10.7
	c0,0.6-0.4,1.1-1,1.2c0,0-0.1,0-0.1,0h-38v32.4c0,0.6-0.4,1.1-1,1.2c0,0-0.1,0-0.1,0H82.8c-0.6,0-1.1-0.4-1.2-1c0,0,0-0.1,0-0.1
	V83.2c0-0.6,0.4-1.1,1-1.2c0,0,0.1,0,0.1,0h58.8c0.6,0,1.1,0.4,1.2,1C142.8,83.1,142.8,83.1,142.8,83.2z"/>
<path class="st0" d="M236.9,163.7h-12.7c-0.6,0-1.2-0.4-1.3-1c-1.7-6.7-3.7-13.8-6.1-20.9h-39c-2.3,7.1-4.4,14.2-6,20.9
	c-0.1,0.6-0.7,1-1.3,1h-12.3c-0.8,0-1.3-0.5-1-1.3c7.4-26,18.6-54.7,29.9-78.9c0.3-0.9,1.2-1.5,2.2-1.5h16.6c1-0.1,2,0.5,2.3,1.5
	c12,25.5,22,51.8,29.9,78.9C238.2,163.2,237.7,163.7,236.9,163.7z M212.4,129.1c-4.2-11.8-9-23.6-13.8-34.3h-2.8
	c-4.8,10.7-9.6,22.5-13.9,34.3H212.4z"/>
<path class="st0" d="M257.8,123.5c0-25.3,16.7-43,40.5-43h1.8c14.9,0,26.5,7.6,32.6,18.5c0.4,0.4,0.4,1,0,1.4
	c-0.1,0.1-0.2,0.2-0.4,0.2l-10.3,5.1c-0.7,0.4-1.5,0.3-2-0.4c0,0,0-0.1-0.1-0.1c-4.3-7.5-10.8-11.4-20.4-11.4h-1.8
	c-15,0-25.3,11.9-25.3,29.2s10.1,28.9,25.3,28.9h1.8c9.8,0,15.5-3.3,19.9-8.4c0.4-0.6,1.3-0.8,1.9-0.4l10.6,5.1
	c0.3,0.1,0.6,0.5,0.6,0.8c0,0.3-0.1,0.6-0.4,0.9c-6.5,9.4-18.1,15.3-32.4,15.3H298C273.8,165.2,257.8,148.6,257.8,123.5z"/>
<path class="st0" d="M425.6,151.8v10.7c0,0.6-0.4,1.1-1,1.2c0,0-0.1,0-0.1,0h-61.3c-0.6,0-1.1-0.5-1.1-1.1c0,0,0-0.1,0-0.1V83.2
	c0-0.6,0.4-1.1,1-1.1c0,0,0.1,0,0.1,0h60.2c0.6,0,1.1,0.4,1.2,1c0,0,0,0.1,0,0.1v10.7c0,0.6-0.4,1.1-1,1.2c0,0-0.1,0-0.1,0h-47.5
	v21.2h38.6c0.6,0,1.1,0.4,1.2,1c0,0,0,0.1,0,0.1v10.6c0,0.6-0.4,1.1-1,1.2c0,0-0.1,0-0.1,0h-38.6v21.4h48.5c0.6,0,1.1,0.4,1.2,1
	C425.6,151.7,425.6,151.7,425.6,151.8z"/>
<path class="st0" d="M531,141.3c0,14.3-11,22.4-30.3,22.4h-40.1c-0.6,0-1.1-0.4-1.2-1c0,0,0-0.1,0-0.1V83.2c0-0.6,0.4-1.1,1-1.2
	c0,0,0.1,0,0.1,0h36.6c18.8,0,29.1,7.5,29.1,21.1c0,9-4.5,14.9-13.8,17.6C525.4,123.5,531,131.2,531,141.3z M496.9,94.7h-23.6v21.9
	h23.6c10.6,0,15.4-3.4,15.4-11S507.4,94.7,496.9,94.7z M516.8,140c0-7.6-5-11-16-11h-27.5v21.9h27.5
	C512,150.9,516.8,147.7,516.8,140z"/>
<path class="st0" d="M555.5,122.8c0-24.6,16.3-42.3,42-42.3h1.8c25.7,0,42,17.7,42,42.3s-16.3,42.4-42,42.4h-1.8
	C571.8,165.2,555.5,147.4,555.5,122.8z M599.2,151.9c16.8,0,27.3-11.5,27.3-29.1s-10.6-29-27.3-29h-1.8c-16.7,0-27.3,11.5-27.3,29.1
	s10.6,29.1,27.3,29.1L599.2,151.9z"/>
<path class="st0" d="M664.9,122.8c0-24.6,16.3-42.3,42-42.3h1.8c25.7,0,42,17.7,42,42.3s-16.3,42.4-42,42.4H707
	C681.3,165.2,664.9,147.4,664.9,122.8z M708.7,151.9c16.7,0,27.3-11.5,27.3-29.1s-10.6-29-27.3-29H707c-16.8,0-27.3,11.5-27.3,29.1
	s10.5,29,27.3,29H708.7z"/>
<path class="st0" d="M851.3,163.7h-15c-0.8,0.1-1.6-0.3-2-1c-10.4-12.1-21.6-23.5-33.7-33.9h-6.8v33.7c0,0.6-0.4,1.1-1,1.2
	c0,0-0.1,0-0.1,0h-11.6c-0.6,0-1.1-0.4-1.2-1c0,0,0-0.1,0-0.1V83.2c0-0.6,0.4-1.1,1-1.2c0,0,0.1,0,0.1,0h11.5c0.6,0,1.1,0.4,1.2,1
	c0,0,0,0.1,0,0.1v32.2h6.9c11.1-9.9,21.3-20.8,30.5-32.5c0.4-0.6,1-0.9,1.8-0.9h14.2c0.7,0,1,0.3,1,0.8c0,0.3-0.2,0.6-0.4,0.9
	c-11,13.7-23.2,26.4-36.5,37.9c14.6,12.4,28.2,26,40.7,40.6C852.6,163,852.3,163.7,851.3,163.7z"/>
</svg>
