<?xml version="1.0" encoding="utf-8"?>
<!-- Generator: Adobe Illustrator 25.2.1, SVG Export Plug-In . SVG Version: 6.00 Build 0)  -->
<svg version="1.1" id="Layer_1" xmlns="http://www.w3.org/2000/svg" xmlns:xlink="http://www.w3.org/1999/xlink" x="0px" y="0px"
	 viewBox="0 0 1142.5 158.6" style="enable-background:new 0 0 1142.5 158.6;" xml:space="preserve">
<style type="text/css">
	.st0{fill:#677B8C;}
	.st1{fill:#232323;}
</style>
<path class="st0" d="M56.5,2.5v9.9c0,0.6-0.4,1-0.9,1.1c-0.1,0-0.1,0-0.2,0H12.8v20.3H48c0.6,0,1,0.4,1.1,0.9c0,0.1,0,0.1,0,0.2v9.9
	c0,0.6-0.4,1-0.9,1.1c-0.1,0-0.1,0-0.2,0H12.8v30c0,0.6-0.4,1-0.9,1.1c-0.1,0-0.1,0-0.2,0H1.1c-0.6,0-1-0.4-1.1-0.9
	C0,76,0,76,0,75.9V2.5c0-0.6,0.4-1,0.9-1.1c0.1,0,0.1,0,0.2,0h54.4c0.6,0,1,0.4,1.1,0.9C56.6,2.4,56.6,2.4,56.5,2.5z"/>
<path class="st0" d="M143.6,77h-11.8c-0.6,0-1.1-0.4-1.2-1c-1.6-6.2-3.4-12.7-5.6-19.3H88.9c-2.2,6.6-4.1,13.1-5.6,19.3
	c-0.1,0.6-0.6,1-1.2,1H70.8c-0.8,0-1.2-0.4-1-1.2c6.8-24.1,17.2-50.6,27.6-73c0.3-0.9,1.2-1.5,2.1-1.4h15.4c0.9-0.1,1.8,0.5,2.1,1.4
	c11.1,23.6,20.4,48,27.6,73C144.8,76.6,144.3,77,143.6,77z M121,45c-3.9-10.9-8.3-21.8-12.8-31.7h-2.5c-4.5,9.9-8.9,20.8-12.9,31.7
	H121z"/>
<path class="st0" d="M162.9,39.9c0-23.4,15.4-39.8,37.5-39.8h1.6c13.8,0,24.5,7,30.2,17.2c0.3,0.4,0.3,1.1-0.2,1.4
	c-0.1,0-0.1,0.1-0.2,0.1l-9.5,4.7c-0.6,0.4-1.4,0.2-1.8-0.4l-0.1-0.1c-4-6.9-10-10.6-18.8-10.6H200c-13.9,0-23.4,11-23.4,27
	S186,66.2,200,66.2h1.6c9.1,0,14.4-3.1,18.4-7.8c0.4-0.6,1.2-0.7,1.8-0.4l9.8,4.8c0.3,0.1,0.5,0.4,0.5,0.8c0,0.3-0.1,0.6-0.3,0.8
	c-6,8.7-16.8,14.1-30,14.1h-1.6C177.7,78.4,162.9,63,162.9,39.9z"/>
<path class="st0" d="M318.2,66v9.9c0,0.6-0.4,1-0.9,1.1c-0.1,0-0.1,0-0.2,0h-56.7c-0.6,0-1-0.4-1.1-0.9c0-0.1,0-0.1,0-0.2V2.5
	c0-0.6,0.4-1,0.9-1.1c0.1,0,0.1,0,0.2,0h55.7c0.6,0,1,0.4,1.1,0.9c0,0.1,0,0.1,0,0.2v9.9c0,0.6-0.4,1-0.9,1.1c-0.1,0-0.1,0-0.2,0
	h-43.9v19.7h35.7c0.6,0,1,0.4,1.1,0.9c0,0.1,0,0.1,0,0.2v9.8c0,0.6-0.4,1-0.9,1.1c-0.1,0-0.1,0-0.2,0h-35.7V65h44.9
	c0.6,0,1,0.4,1.1,0.9C318.2,65.9,318.2,65.9,318.2,66z"/>
<path class="st0" d="M415.8,56.3c0,13.2-10.1,20.7-28.1,20.7h-37.1c-0.6,0-1-0.4-1.1-0.9c0-0.1,0-0.1,0-0.2V2.5c0-0.6,0.4-1,0.9-1.1
	c0.1,0,0.1,0,0.2,0h33.9c17.4,0,26.9,6.9,26.9,19.5c0,8.3-4.2,13.8-12.7,16.3C410.6,39.8,415.8,47,415.8,56.3z M384.1,13.2h-21.8
	v20.3h21.8c9.8,0,14.2-3.2,14.2-10.2S393.9,13.2,384.1,13.2z M402.6,55.2c0-7-4.6-10.2-14.9-10.2h-25.4v20.3h25.4
	C398.1,65.2,402.6,62.2,402.6,55.2L402.6,55.2z"/>
<path class="st0" d="M438.4,39.2c0-22.8,15.1-39.2,38.9-39.2h1.6c23.8,0,38.9,16.4,38.9,39.2s-15.1,39.2-38.9,39.2h-1.6
	C453.5,78.4,438.4,62,438.4,39.2z M478.9,66.1c15.5,0,25.3-10.6,25.3-26.9s-9.8-26.9-25.3-26.9h-1.6c-15.5,0-25.3,10.6-25.3,26.9
	s9.8,26.9,25.3,26.9H478.9z"/>
<path class="st0" d="M539.6,39.2c0-22.8,15.1-39.2,38.9-39.2h1.6C603.9,0,619,16.4,619,39.2s-15.1,39.2-38.9,39.2h-1.6
	C554.8,78.4,539.6,62,539.6,39.2z M580.1,66.1c15.5,0,25.3-10.6,25.3-26.9s-9.8-26.9-25.3-26.9h-1.6c-15.5,0-25.3,10.6-25.3,26.9
	s9.8,26.9,25.3,26.9H580.1z"/>
<path class="st0" d="M712.1,77h-13.9c-0.8,0.1-1.5-0.3-1.9-0.9c-9.6-11.2-20-21.7-31.2-31.4h-6.3v31.2c0,0.6-0.4,1-0.9,1.1
	c-0.1,0-0.1,0-0.2,0H647c-0.6,0-1-0.4-1.1-0.9c0-0.1,0-0.1,0-0.2V2.5c0-0.6,0.4-1,0.9-1.1c0.1,0,0.1,0,0.2,0h10.7
	c0.6,0,1,0.4,1.1,0.9c0,0.1,0,0.1,0,0.2v29.8h6.4c10.3-9.2,19.7-19.2,28.2-30.1c0.3-0.6,1-0.9,1.6-0.8h13.3c0.7,0,1,0.3,1,0.8
	c0,0.3-0.2,0.6-0.4,0.8c-10.2,12.7-21.5,24.4-33.7,35.1c13.5,11.5,26.1,24,37.6,37.6C713.3,76.4,713,77,712.1,77z"/>
<path class="st1" d="M756.7,1.6h49.5v8.1h-40.4v24.1h33.9v8.1h-33.9v27h41.5V77h-50.6V1.6z"/>
<path class="st1" d="M825.6,0.5h8.6V77h-8.6V0.5z"/>
<path class="st1" d="M849.9,48.9c0-15.4,10.5-29.8,27.5-29.8c19.2,0,26.5,14,26.5,27.8v4h-45.5c0.5,11.3,7.7,19.5,19.1,19.5
	c9.3,0,13.6-4.2,16.8-8.9l6.6,4.5c-3.3,5.2-10.3,12.2-23.4,12.2C862.6,78.1,849.9,68.4,849.9,48.9z M895.4,43.1
	c-0.9-7.3-4.5-16.3-18-16.3c-8.1,0-16.7,5-18.5,16.3H895.4z"/>
<path class="st1" d="M912.3,20.1h9.6l18,46.2l18.3-46.2h9.3L944,77h-8.2L912.3,20.1z"/>
<path class="st1" d="M1029.6,20.1V77h-7.8l-2.3-6.9c-4.2,5.1-10.4,8-16.9,8c-17.3,0-27.7-12.4-27.7-29.7s10.7-29.3,27.7-29.3
	c8.9,0,15.6,4.3,18.3,8.9v-7.9L1029.6,20.1z M1021.6,48.4c0-12.3-7.4-21.7-19-21.7s-19,9.4-19,21.7s7.3,21.9,19,21.9
	S1021.6,60.7,1021.6,48.4z"/>
<path class="st1" d="M1054,61.6V27.9h-9.9v-7.8h9.9V1.6h8.6v18.5h14v7.8h-14v33.8c0,5.8,2.5,8.6,7.1,8.6c2.3,0,4.7-0.3,6.9-1v7.8
	c-2.6,0.8-5.3,1.1-8,1C1061.3,78.1,1054,75.3,1054,61.6z"/>
<path class="st1" d="M1088.5,48.9c0-15.4,10.4-29.8,27.5-29.8c19.2,0,26.5,14,26.5,27.8v4H1097c0.5,11.3,7.7,19.5,19.1,19.5
	c9.3,0,13.6-4.2,16.8-8.9l6.6,4.5c-3.3,5.2-10.3,12.2-23.4,12.2C1101.2,78.1,1088.5,68.4,1088.5,48.9z M1133.9,43.1
	c-0.9-7.3-4.5-16.3-18-16.3c-8.1,0-16.7,5-18.5,16.3H1133.9z"/>
</svg>
