<?xml version="1.0" encoding="utf-8"?>
<!-- Generator: Adobe Illustrator 24.2.0, SVG Export Plug-In . SVG Version: 6.00 Build 0)  -->
<svg version="1.1" id="FB_Buttons" xmlns="http://www.w3.org/2000/svg" xmlns:xlink="http://www.w3.org/1999/xlink" x="0px" y="0px"
	 viewBox="0 0 70 70" style="enable-background:new 0 0 70 70;" xml:space="preserve">
<style type="text/css">
	.st0{fill:#FDFADA;}
</style>
<g>
	<path class="st0" d="M35,70C15.7,70,0,54.3,0,35S15.7,0,35,0s35,15.7,35,35S54.3,70,35,70z M35,2C16.8,2,2,16.8,2,35s14.8,33,33,33
		s33-14.8,33-33S53.2,2,35,2z"/>
	<polygon class="st0" points="48.8,35 46,32.2 46,32.2 36.8,23 33.9,25.8 41.1,33 21.2,33 21.2,37 41.1,37 33.9,44.2 36.8,47 
		46,37.8 46,37.8 	"/>
</g>
</svg>
