<?xml version="1.0" encoding="utf-8"?>
<!-- Generator: Adobe Illustrator 24.2.0, SVG Export Plug-In . SVG Version: 6.00 Build 0)  -->
<svg version="1.1" id="FB_Buttons" xmlns="http://www.w3.org/2000/svg" xmlns:xlink="http://www.w3.org/1999/xlink" x="0px" y="0px"
	 viewBox="0 0 70 70" style="enable-background:new 0 0 70 70;" xml:space="preserve">
<style type="text/css">
	.st0{opacity:0.5;}
	.st1{fill:#111922;}
</style>
<g class="st0">
	<path class="st1" d="M35,69.7C15.9,69.7,0.3,54.1,0.3,35S15.9,0.3,35,0.3c19.1,0,34.7,15.5,34.7,34.7S54.1,69.7,35,69.7z M35,2.3
		C17,2.3,2.3,17,2.3,35S17,67.7,35,67.7C53,67.7,67.7,53,67.7,35S53,2.3,35,2.3z"/>
	<polygon class="st1" points="48.6,35 45.8,32.2 45.8,32.2 36.7,23.1 33.9,25.9 41.1,33 21.4,33 21.4,37 41.1,37 33.9,44.1 
		36.7,46.9 45.8,37.8 45.8,37.8 	"/>
</g>
</svg>
