<?xml version="1.0" encoding="utf-8"?>
<!-- Generator: Adobe Illustrator 24.2.0, SVG Export Plug-In . SVG Version: 6.00 Build 0)  -->
<svg version="1.1" id="FB_Buttons" xmlns="http://www.w3.org/2000/svg" xmlns:xlink="http://www.w3.org/1999/xlink" x="0px" y="0px"
	 viewBox="0 0 70 70" style="enable-background:new 0 0 70 70;" xml:space="preserve">
<style type="text/css">
	.st0{fill:#101922;}
</style>
<g>
	<path class="st0" d="M35,69.7C15.9,69.7,0.3,54.1,0.3,35S15.9,0.3,35,0.3S69.7,15.9,69.7,35S54.1,69.7,35,69.7z M35,2.3
		C17,2.3,2.3,17,2.3,35S17,67.7,35,67.7S67.7,53,67.7,35S53,2.3,35,2.3z"/>
	<polygon class="st0" points="48.7,35 45.9,32.2 45.9,32.2 36.8,23.1 33.9,25.9 41,33 21.3,33 21.3,37 41,37 33.9,44.1 36.8,46.9 
		45.9,37.8 45.9,37.8 	"/>
</g>
</svg>
