<svg version="1.1"  id="animate04"  xmlns="http://www.w3.org/2000/svg" xmlns:xlink="http://www.w3.org/1999/xlink" x="0px" y="0px"
	 viewBox="0 0 312 294" style="enable-background:new 0 0 312 294;" xml:space="preserve">
<g>
		<path class="flower01" fill="#F9EAED" d="M128.5,184c-3.9,2.5-9,0.4-13-1.9c-5.1-3.1-10.6-7.9-9.8-13.8c0.8-5.8,7.7-9,13.4-8.1
			c5.8,0.9,10.6,4.7,15.1,8.4c-4-5.1-3.1-13.3,1.8-17.5c4.9-4.2,13.2-3.7,17.6,1c4.4,4.7,4.4,13-0.1,17.6c3.2-4.3,8-7.6,13.3-8.2
			c5.3-0.5,11.1,2.3,13,7.3c2,5.3-0.8,11.6-5.3,15.1c-4.5,3.5-10.3,4.9-16,5.7c4.3,0.2,8,3.8,9.4,8c1.4,4.1,1,8.6,0.4,12.9
			c-0.2,1.1-0.4,2.2-1,3c-0.9,1.1-2.3,1.5-3.7,1.7c-10,1.5-20.6-5.6-22.8-15.5c0.4,5.6-4.4,11-10,11.2c-5.6,0.2-10.8-4.8-10.8-10.4
			c0-6,4.9-10.7,8.4-15.6"/>
		<path class="flower01" fill="#F9EAED" d="M56.3,48.9c-3.9,2.5-9,0.4-13-1.9c-5.1-3.1-10.6-7.9-9.8-13.8c0.8-5.8,7.7-9,13.4-8.1
			c5.8,0.9,10.6,4.7,15.1,8.4c-4-5.1-3.1-13.3,1.8-17.5c4.9-4.2,13.2-3.7,17.6,1c4.4,4.7,4.4,13-0.1,17.6c3.2-4.3,8-7.6,13.3-8.2
			c5.3-0.5,11.1,2.3,13,7.3c2,5.3-0.8,11.6-5.3,15.1c-4.5,3.5-10.3,4.9-16,5.7c4.3,0.2,8,3.8,9.4,8c1.4,4.1,1,8.6,0.4,12.9
			c-0.2,1.1-0.4,2.2-1,3c-0.9,1.1-2.3,1.5-3.7,1.7c-10,1.5-20.6-5.6-22.8-15.5c0.4,5.6-4.4,11-10,11.2c-5.6,0.2-10.8-4.8-10.8-10.4
			c0-6,4.9-10.7,8.4-15.6"/>
		<path class="flower01" fill="#F9EAED" d="M52,207c-3.1,2-7.2,0.3-10.4-1.6c-4.1-2.5-8.5-6.3-7.8-11c0.7-4.6,6.1-7.2,10.7-6.5c4.6,0.7,8.4,3.8,12,6.7
			c-3.2-4.1-2.5-10.6,1.5-14c3.9-3.3,10.5-3,14,0.8c3.5,3.8,3.5,10.3-0.1,14.1c2.6-3.4,6.4-6.1,10.6-6.5c4.3-0.4,8.9,1.9,10.4,5.8
			c1.6,4.3-0.6,9.3-4.2,12.1c-3.6,2.8-8.2,3.9-12.7,4.6c3.5,0.2,6.3,3.1,7.5,6.4c1.1,3.3,0.8,6.9,0.3,10.3c-0.1,0.9-0.3,1.7-0.8,2.4
			c-0.7,0.9-1.8,1.2-2.9,1.4c-8,1.2-16.4-4.5-18.2-12.4c0.3,4.4-3.5,8.8-8,9c-4.5,0.2-8.6-3.9-8.6-8.3c0-4.8,3.9-8.5,6.7-12.4"/>
		<path class="flower01" fill="#F9EAED" d="M179.2,108.8c-2.5-2.3-1.9-6.3-1-9.5c1.2-4.2,3.6-8.9,7.9-9.4c4.2-0.5,7.7,3.7,8.1,7.9
			c0.4,4.2-1.4,8.3-3.2,12.1c2.9-3.7,8.8-4.6,12.6-1.9c3.8,2.7,5,8.5,2.5,12.5c-2.5,4-8.3,5.4-12.4,3.1c3.6,1.5,6.8,4.2,8.1,7.8
			c1.3,3.6,0.4,8.2-2.8,10.5c-3.4,2.4-8.3,1.6-11.6-0.9c-3.3-2.5-5.3-6.3-6.9-10.1c0.7,3.1-1.2,6.3-3.9,8c-2.6,1.7-5.9,2.3-9,2.6
			c-0.8,0.1-1.6,0.1-2.3-0.2c-0.9-0.4-1.5-1.3-1.9-2.3c-2.9-6.7,0.2-15.4,6.7-18.8c-3.8,1.3-8.5-1.1-9.7-5c-1.2-3.9,1.4-8.5,5.3-9.5
			c4.2-1.1,8.4,1.5,12.4,3.1"/>
		<path class="flower01" fill="#F9EAED" d="M267.6,125.7c-3.3-0.6-5-4.2-6-7.4c-1.2-4.2-1.8-9.4,1.5-12.1c3.3-2.7,8.5-1,11.1,2.3
			c2.6,3.3,3.3,7.7,3.9,11.9c0.4-4.7,4.9-8.6,9.6-8.4c4.7,0.2,8.8,4.5,8.9,9.1s-4,9-8.7,9.3c3.8-0.7,8-0.2,11.1,2.2
			c3.1,2.3,4.8,6.7,3.3,10.3c-1.5,3.8-6.1,5.8-10.2,5.5c-4.1-0.3-7.9-2.5-11.3-4.8c2.2,2.2,2.4,5.9,1.1,8.8
			c-1.3,2.9-3.7,5.1-6.1,7.1c-0.6,0.5-1.3,1-2,1.1c-1,0.2-2-0.3-2.8-0.9c-6.1-4.1-8.2-13.1-4.6-19.4c-2.5,3.2-7.7,3.7-10.8,1.1
			c-3.1-2.6-3.4-7.9-0.7-10.8c2.9-3.2,7.9-3.2,12.1-4.2"/>
		<path class="flower01" fill="#F9EAED"  d="M23.7,132.3c-3.3-0.6-5-4.2-6-7.4c-1.2-4.2-1.8-9.4,1.5-12.1c3.3-2.7,8.5-1,11.1,2.3
			c2.6,3.3,3.3,7.7,3.9,11.9c0.4-4.7,4.9-8.6,9.6-8.4s8.8,4.5,8.9,9.1c0,4.7-4,9-8.7,9.3c3.8-0.7,8-0.2,11.1,2.2
			c3.1,2.3,4.8,6.7,3.3,10.3c-1.5,3.8-6.1,5.8-10.2,5.5c-4.1-0.3-7.9-2.5-11.3-4.8c2.2,2.2,2.4,5.9,1.1,8.8
			c-1.3,2.9-3.7,5.1-6.1,7.1c-0.6,0.5-1.3,1-2,1.1c-1,0.2-2-0.3-2.8-0.9c-6.1-4.1-8.2-13.1-4.6-19.4c-2.5,3.2-7.7,3.7-10.8,1.1
			c-3.1-2.6-3.4-7.9-0.7-10.8c2.9-3.2,7.9-3.2,12.1-4.2"/>
		<path class="flower01" fill="#F9EAED" d="M260.5,82.5c0.1,3.4-3.1,5.8-6.1,7.4c-3.8,2.1-8.8,3.7-12.2,0.9c-3.3-2.7-2.8-8.1,0-11.4s6.9-4.8,10.8-6.2
			c-4.7,0.5-9.4-3-10.2-7.7c-0.8-4.6,2.6-9.6,7.2-10.5c4.6-1,9.7,2.1,10.9,6.6c-1.4-3.6-1.8-7.8-0.1-11.3c1.7-3.5,5.6-6,9.4-5.4
			c4.1,0.7,6.9,4.8,7.4,8.9s-0.8,8.2-2.4,12c1.7-2.6,5.3-3.5,8.4-2.8c3.1,0.7,5.7,2.6,8.2,4.6c0.6,0.5,1.2,1,1.5,1.8
			c0.4,0.9,0.1,2-0.3,2.9c-2.8,6.8-11.1,10.7-18.1,8.4c3.6,1.8,5.2,6.8,3.2,10.4c-1.9,3.5-7,4.9-10.5,2.8c-3.7-2.2-4.8-7-6.5-11"/>
		<path class="flower01" fill="#F9EAED" d="M177.4,37.2c2.3-2.4,6.3-1.8,9.5-0.8c4.1,1.3,8.8,3.7,9.2,8.1c0.4,4.2-3.9,7.6-8.1,8c-4.2,0.3-8.2-1.6-12-3.4
			c3.6,2.9,4.4,8.9,1.7,12.6c-2.8,3.8-8.6,4.8-12.5,2.3c-3.9-2.6-5.3-8.4-2.9-12.4c-1.6,3.5-4.3,6.7-8,8c-3.7,1.3-8.2,0.2-10.4-3
			c-2.3-3.4-1.4-8.3,1.1-11.5c2.6-3.2,6.4-5.2,10.3-6.7c-3.1,0.6-6.2-1.4-7.9-4c-1.7-2.7-2.2-5.9-2.4-9c-0.1-0.8-0.1-1.6,0.2-2.3
			c0.4-0.9,1.4-1.4,2.3-1.8c6.8-2.8,15.4,0.5,18.7,7.1c-1.2-3.8,1.2-8.5,5.1-9.6s8.4,1.6,9.4,5.5c1,4.2-1.7,8.3-3.3,12.4"/>
		<path class="flower01" fill="#F9EAED" d="M117.8,102.8c-1-2.5,0.8-5.3,2.6-7.4c2.4-2.6,5.8-5.3,9.1-4.1c3.3,1.1,4.4,5.5,3.2,8.7
			c-1.2,3.2-4,5.6-6.6,7.8c3.4-1.7,8.1-0.3,10,3.1c1.9,3.3,0.7,8.1-2.6,10.1c-3.2,2-8,1.1-10.2-2.1c2.1,2.4,3.5,5.5,3.2,8.7
			c-0.3,3.2-2.6,6.2-5.7,6.7c-3.3,0.6-6.7-1.8-8.2-4.8c-1.5-3-1.7-6.5-1.5-9.9c-0.6,2.5-3.1,4.2-5.7,4.5c-2.6,0.4-5.1-0.4-7.6-1.2
			c-0.6-0.2-1.2-0.5-1.6-0.9c-0.5-0.6-0.6-1.5-0.6-2.3c0.2-6,5.6-11.3,11.6-11.5c-3.3-0.4-5.9-3.8-5.4-7.1c0.5-3.3,4-5.7,7.3-5.1
			c3.5,0.7,5.6,4.1,8.1,6.7"/>
		<path class="flower01" fill="#F9EAED" d="M131.1,256c-3,1.6-6.5-0.3-9.3-2.3c-3.5-2.6-7.1-6.4-6.1-10.6c1-4.1,6.1-6,10.2-5c4.1,1,7.3,4.1,10.3,7.1
			c-2.5-4-1.4-9.8,2.5-12.5c3.8-2.7,9.7-1.8,12.6,1.9c2.9,3.7,2.3,9.6-1.3,12.7c2.6-2.9,6.3-5,10.1-5c3.9,0,7.9,2.4,8.9,6.1
			c1.1,4-1.3,8.3-4.8,10.6c-3.5,2.3-7.7,2.8-11.9,3.1c3.1,0.4,5.5,3.3,6.2,6.4c0.7,3.1,0.2,6.3-0.6,9.3c-0.2,0.8-0.4,1.5-0.9,2.1
			c-0.7,0.7-1.8,0.9-2.8,1c-7.3,0.4-14.4-5.4-15.4-12.7c-0.1,4-3.9,7.6-7.9,7.4c-4-0.2-7.5-4.2-7.1-8.2c0.4-4.3,4.3-7.4,7.1-10.7"/>
		<path class="flower01" fill="#F9EAED" d="M212.4,197.8c-3-1.6-3.4-5.6-3.3-8.9c0.1-4.3,1.3-9.5,5.3-11c3.9-1.5,8.4,1.7,9.8,5.7c1.4,4,0.7,8.3-0.1,12.5
			c1.9-4.3,7.4-6.6,11.7-5c4.4,1.7,7,7,5.5,11.5c-1.4,4.5-6.7,7.3-11.2,6.1c3.8,0.6,7.6,2.4,9.8,5.6c2.2,3.2,2.4,7.9-0.1,10.8
			c-2.7,3.2-7.6,3.6-11.4,2c-3.8-1.6-6.7-4.8-9.2-8.1c1.4,2.8,0.4,6.4-1.8,8.7c-2.1,2.3-5.1,3.7-8.1,4.8c-0.7,0.3-1.5,0.5-2.3,0.4
			c-1-0.2-1.8-0.9-2.4-1.7c-4.5-5.8-3.6-15,1.8-19.9c-3.4,2.2-8.5,1.1-10.6-2.4c-2.1-3.5-0.7-8.5,2.8-10.5c3.8-2.1,8.5-0.6,12.8-0.1
			"/>
</g>
</svg>