<?xml version="1.0" encoding="utf-8"?>
<!-- Generator: Adobe Illustrator 24.2.0, SVG Export Plug-In . SVG Version: 6.00 Build 0)  -->
<svg version="1.1" id="Layer_1" xmlns="http://www.w3.org/2000/svg" xmlns:xlink="http://www.w3.org/1999/xlink" x="0px" y="0px"
	 viewBox="0 0 690 87.7" style="enable-background:new 0 0 690 87.7;" xml:space="preserve">
<g>
	<path d="M642,51.6c2.3-4.2,4.3-8,6.3-11.8C654,29.1,659.6,18.6,665.2,8c0.6-1.1,1.2-1.7,2.6-1.7c4.3,0.1,8.6,0.1,13,0
		c1.4,0,1.9,0.3,1.9,1.8c0,23.8,0,47.6,0,71.5c0,1.5-0.5,1.8-1.9,1.8c-3.3-0.1-6.6-0.1-9.9,0c-1.7,0.1-2.1-0.5-2.1-2.2
		c0.1-16.9,0-33.9,0-50.8c0-0.8,0-1.6,0-2.4c-0.2-0.1-0.3-0.1-0.5-0.2c-0.4,0.6-0.7,1.1-1.1,1.8c-5.9,11.1-11.9,22.2-17.7,33.4
		c-1.1,2.1-2.3,2.8-4.5,2.7c-2.5-0.2-5-0.1-7.5,0c-1.5,0.1-2.3-0.4-3-1.8c-5.9-11.3-12-22.5-18-33.7c-0.3-0.6-0.7-1.2-1-1.9
		c-0.2,0-0.4,0-0.5,0.1c0,0.8,0,1.5,0,2.3c0,16.7,0,33.5,0,50.2c0,1.9-0.4,2.6-2.4,2.5c-3.2-0.2-6.5-0.1-9.7,0
		c-1.3,0-1.8-0.3-1.8-1.7c0-23.9,0-47.8,0-71.7c0-1.4,0.5-1.7,1.8-1.7c4.4,0.1,8.8,0.1,13.2,0c1.3,0,1.9,0.5,2.5,1.6
		c7.2,13.6,14.5,27.2,21.8,40.8C640.8,49.5,641.2,50.3,642,51.6z"/>
	<path d="M95.3,60.9c0-0.8,0-1.5,0-2.3c0-16.7,0-33.3,0-50c0-1.9,0.6-2.4,2.4-2.3c3.1,0.1,6.2,0.1,9.3,0c1.8-0.1,2.2,0.5,2.2,2.3
		c-0.1,19.4,0,38.7,0,58.1c0,4.3-0.1,8.5,0,12.8c0,1.5-0.5,2-2,1.9c-3.9-0.1-7.8-0.1-11.7,0c-1.6,0-2.5-0.5-3.4-1.8
		c-10.6-17-21.3-33.9-32-50.8c-0.5-0.7-1-1.4-1.8-2.7c-0.1,1.5-0.3,2.3-0.3,3.2c0,16.4,0,32.8,0,49.2c0,3,0,3-3,3
		c-2.8,0-5.7-0.1-8.5,0c-1.8,0.1-2.3-0.5-2.3-2.3c0.1-16.8,0-33.6,0-50.4c0-6.8,0-13.6,0-20.4c0-1.5,0.4-2,2-1.9c4,0.1,8,0.1,11.9,0
		c1.4,0,2.2,0.4,2.9,1.6c10.7,17,21.4,33.9,32.1,50.8c0.5,0.8,1.1,1.6,1.7,2.4C94.9,61,95.1,61,95.3,60.9z"/>
	<path d="M484.1,52c6,9.7,12,19.3,18.2,29.3c-5.6,0-10.4,0.1-15.2-0.1c-0.6,0-1.3-1-1.7-1.6c-4.7-7.9-9.4-15.7-14-23.6
		c-0.9-1.6-2-2.2-3.9-2.2c-4.7,0.2-9.4,0.1-14.2,0c-1.5,0-2,0.5-2,2c0.1,7.7-0.1,15.4,0.1,23.1c0,2.2-0.6,2.6-2.6,2.5
		c-3.2-0.2-6.3-0.2-9.5,0c-1.9,0.1-2.2-0.6-2.2-2.3c0.1-23.5,0-47,0-70.4c0-0.3,0-0.5,0-0.8c-0.1-1.2,0.4-1.5,1.5-1.5
		c10.8,0,21.6-0.1,32.4,0.1c6.1,0.1,12.1,0.9,17.5,4c6.9,3.8,10.4,9.8,11,17.5c0.5,6.6-0.7,12.9-5.5,17.7c-2.1,2.1-5,3.6-7.5,5.3
		C485.8,51.4,484.9,51.6,484.1,52z M451.5,42.5c0.3,0.1,0.5,0.2,0.7,0.2c6.7,0,13.4,0.2,20-0.1c8.1-0.4,12-4,12.8-11.6
		c0.4-3.9-0.6-8.5-5.2-10.7c-2.8-1.4-6.1-2.2-9.2-2.4c-5.8-0.4-11.6-0.1-17.4-0.1c-0.6,0-1.1,0.1-1.7,0.2
		C451.5,26.3,451.5,34.4,451.5,42.5z"/>
	<path d="M414.7,21c-3.5,2.3-6.9,4.6-10.5,7c-0.5-0.6-0.9-1.2-1.3-1.7c-4.5-6-10.4-9-18.1-9.4c-15.1-0.8-22.9,10.8-24.1,21.8
		c-0.7,6.1-0.5,12.1,1.7,17.9c4.2,11.2,13.2,15.1,23.4,14.3c3.7-0.3,7.3-1.1,10.9-1.8c1.1-0.2,2.1-0.8,3.2-1.3
		c2.5-1,3.7-2.5,3.4-5.4c-0.3-2.9-0.2-5.8,0-8.7c0.1-1.7-0.4-2.4-2.3-2.3c-5.5,0.1-10.9,0-16.4,0.1c-1.6,0-2.1-0.5-2.1-2.1
		c0.1-2.5,0.1-5,0-7.5c0-1.2,0.4-1.7,1.6-1.7c10.5,0,20.9,0,31.4,0c1.1,0,1.6,0.4,1.6,1.5c0,9.8,0,19.6-0.1,29.4
		c0,0.7-0.6,1.6-1.2,2.1c-4.8,4-10.4,6.2-16.4,7.5c-9.4,2-18.8,2.8-28.2,0.3c-13.3-3.6-22.9-14.8-24.8-28.4
		c-1.3-9.6-0.8-18.9,3.6-27.6c5.8-11.5,15.1-18.1,28-19.6c6.7-0.8,13.2-0.3,19.5,1.8C404.8,9.6,410.3,14.4,414.7,21z"/>
	<path d="M124.9,68.3c2.9-2.8,5.8-5.5,9-8.5c1.2,1.3,2.3,2.8,3.7,4c5.1,4.6,11.2,7,18.1,6.9c3.7,0,7.4-0.2,11-1
		c5.1-1.1,7.4-4.5,7.1-9.5c-0.2-4.5-3.4-6.7-7.1-7.8c-5.3-1.6-10.7-2.6-16.1-3.8c-4.7-1.1-9.3-2.5-13.6-4.8
		c-13.3-7.1-12.2-25.3-0.9-33c5.1-3.5,10.8-5.1,16.9-5.5c6.9-0.5,13.7,0,20.2,2.8c5.4,2.3,9.9,5.7,13.6,10.5
		c-2.8,2.6-5.6,5.2-8.5,7.8c-2.2-1.8-4.1-3.8-6.3-5.3c-5.1-3.6-10.9-4.6-17.1-4.1c-3.1,0.2-6,0.6-8.7,2.2c-3.4,2-5.1,5.4-4.5,9
		c0.5,2.5,1.7,4.6,4.1,5.4c4.3,1.4,8.6,2.7,12.9,3.7c6.3,1.5,12.8,2.4,18.7,5.6c6.5,3.5,10.4,8.6,10.8,16.1
		c0.4,8.6-2.9,15.2-10.4,19.6c-4.8,2.8-10.2,3.9-15.6,4.2c-8,0.4-16-0.2-23.6-3.5C133.1,76.7,128.6,73.2,124.9,68.3z"/>
	<path d="M336.5,81.3c-5,0-9.7,0-14.3-0.1c-0.5,0-1.1-1-1.3-1.6c-1.5-5.1-2.9-10.2-4.3-15.3c-0.4-1.4-1-2-2.5-2
		c-9.2,0.1-18.5,0.1-27.7,0c-1.4,0-2,0.4-2.4,1.8c-1.3,5.2-2.8,10.4-4.3,15.5c-0.2,0.6-0.9,1.6-1.3,1.6c-4.5,0.1-9,0.1-13.8,0.1
		c1.3-4.5,2.5-8.8,3.8-13c6.4-20.4,13.9-40.5,22.6-60.1c0.7-1.5,1.5-2.1,3.2-2c4.3,0.1,8.6,0.1,13,0c1.7,0,2.5,0.5,3.1,2
		c8.4,18.9,15.6,38.2,21.8,58C333.5,71.2,334.9,76,336.5,81.3z M300.7,18.5c-0.3,0-0.6,0-0.9,0.1c-3.9,10.7-7.8,21.3-11.8,32.1
		c8.4,0,16.2,0,24.5,0C308.5,39.7,304.6,29.1,300.7,18.5z"/>
	<path d="M513.1,81.2c1.6-5.3,3-10.5,4.7-15.6c6.2-19.4,13.3-38.4,21.5-57c0.8-1.7,1.7-2.4,3.6-2.3c4.3,0.2,8.6,0.1,13,0
		c1.4,0,2.2,0.4,2.7,1.7c7.9,17.8,14.8,36,20.7,54.5c2,6.1,3.8,12.3,5.8,18.8c-4,0-7.7,0-11.4,0c-4.8-0.1-3.6,0.7-4.9-3.7
		c-1.3-4.5-2.6-9-3.7-13.6c-0.3-1.3-1-1.7-2.3-1.7c-9.3,0-18.6,0.1-27.9,0c-1.5,0-2,0.6-2.3,1.9c-1.4,5.1-2.8,10.2-4.1,15.4
		c-0.4,1.4-0.9,1.8-2.3,1.8c-3.7-0.1-7.4,0-11.1,0C514.4,81.3,513.9,81.3,513.1,81.2z M561.1,50.7c-4-10.9-7.9-21.6-11.8-32.3
		c-0.3,0-0.6,0-0.9,0c-3.9,10.7-7.8,21.3-11.9,32.3C544.9,50.7,552.7,50.7,561.1,50.7z"/>
	<path d="M237.1,18.6c0,1.1,0,2,0,2.9c0,19.2,0,38.3,0,57.5c0,1.9-0.5,2.6-2.5,2.5c-3-0.2-6.1,0-9.1,0c-2.8,0-2.8,0-2.8-2.7
		c0-18.8,0-37.6,0-56.5c0-0.6-0.1-1.2,0-1.8c0.2-1.4-0.5-1.8-1.9-1.8c-6.9,0.1-13.8,0-20.6,0.1c-1.8,0-2.3-0.5-2.2-2.3
		c0.1-2.7,0.1-5.4,0-8.1c-0.1-1.5,0.5-1.9,2-1.9c12.1,0.1,24.3,0,36.4,0c7.8,0,15.5,0,23.3,0c1.6,0,2.2,0.4,2.1,2
		c-0.1,2.6-0.1,5.3,0,7.9c0.1,1.8-0.4,2.4-2.3,2.4c-6.6-0.1-13.2,0-19.8,0C239,18.6,238.2,18.6,237.1,18.6z"/>
	<path d="M21.7,43.9c0,11.7,0,23.5,0,35.2c0,1.8-0.4,2.4-2.2,2.3c-3.4-0.1-6.7-0.1-10.1,0c-1.7,0.1-2-0.5-2-2.1
		c0-14.2,0-28.3,0-42.5c0-9.4,0-18.9,0-28.3c0-1.7,0.4-2.2,2.1-2.2c3.4,0.1,6.9,0.1,10.3,0c1.6,0,1.9,0.5,1.9,2
		C21.6,20.2,21.7,32,21.7,43.9z"/>
</g>
</svg>
