<svg version="1.1" xmlns="http://www.w3.org/2000/svg" xmlns:xlink="http://www.w3.org/1999/xlink" x="0px" y="0px"
	 viewBox="0 0 678.6 592.9" style="enable-background:new 0 0 678.6 592.9;" xml:space="preserve">

<path class="leaf-001" d="M265.7,71c0.4-0.4,0.9-0.7,1.3-0.9c2.2-3.6,7.5-3.1,5.9,1.2c-22.5,62.2-45.6,126-51.7,186.8
	c-3.2,31.2,2.1,58.6,1.1,89c-0.9,28.3-7.5,58-9.4,86.6c0.2-0.5,0.6-1,1.2-1.4c3.7-3.4,7.6-6.9,11.5-10.1c7.7-7.7,15.4-15.4,22.9-23
	c19.7-19.7,38.3-40.3,56.1-61.5c-0.2-0.2-0.3-0.4-0.4-0.6c-0.7-0.4-1.3-1-1.2-2.3c0.2-2.3,0.5-4.6,0.8-6.9
	c-12.1-47.8-21-103.1-11.8-159.2c8.5-51.5,36.5-103.6,71.2-150.5c2.8-3.7,6.3-1.2,5.5,2c-13.9,56.4-32.5,115.4-36.6,170.2
	c-1.8,24-2.1,47.7-7.1,72.5c-4.2,20.7-11.2,41.5-14,61.9c0.3,1.3,0.6,2.7,1,4c30.7-37.1,59.2-75.9,86.6-115.3
	c-8.8-63.1-9.4-131.8,26.2-204c1.9-3.8,6.6-3.1,6.4,0.2c-2,35.1-4.6,70.3-8.1,105.8c-2.6,25.8-3.7,52.4-11.4,79.2
	c10.2-14.9,20.4-29.8,30.4-44.6c23-55.1,69.8-102.9,122.6-124.2c4-1.6,5.6,2.8,1.9,5.9c-40.3,34.5-78.2,71.7-113.7,111.8
	c-0.1,0.1-0.1,0.1-0.1,0.1c-0.1,0.6-0.3,1.3-0.8,2.1c-12.4,18.4-24.9,36.8-37.5,55.1c37-17,73.9-34.5,111-50.2
	c17.2-7.3,34.7-14.7,51.9-20c16.6-5.2,32.2-1.9,48.6-8.8c3.8-1.6,5.9,3,1.9,5.9c-34.6,25.7-70.6,49.1-107.9,63.7
	c-17.8,7.1-35.5,11.7-52.9,14.1c-19.3,2.6-39.7,1.3-59.6,9.9c-1.4,0.6-2.4,0.4-3.1-0.2c-27,38.6-55,76.7-85,113.2
	c28.2-6.9,56.4-20.2,84.8-33.6c32.3-15.2,64.6-29.3,97.1-41.5c62.1-23.3,112.1-18.2,162.7-3.1c1-0.1,2-0.2,2.9-0.2
	c4.4-0.3,1.8,7.2-2.5,7.4c-0.5,0-0.9,0.1-1.4,0.1c-0.7,0.2-1.4,0.4-2.1,0.2c0,0-0.1-0.1-0.2-0.1c-30.5,1.8-61.9,6.9-94,17.9
	c-32.8,11.3-65.3,28.6-97.8,44.4c-26.5,12.9-51.6,24.5-77.6,26.1c-27.4,1.7-52.9-2.2-76.4-9.7c-0.9,0.2-1.8,0.5-2.6,0.7
	c-20,24-41,47.2-63.1,69.4c1-0.4,2-0.9,3-1.2c13.2-4.8,26.1-3.9,38.3-3.9c29.5,0.1,58.5,2.2,84.3,10.9c28.6,9.7,54.4,23.5,84.1,31.5
	c30.8,8.4,63.5,12.7,97.5,13.6c4.2,0.1,1.7,7.5-2.5,7.4c0,0,0,0,0,0l-0.2,0.3c-54.9,32.5-118.7,28.7-166,20.3
	c-28.2-5.1-54-14.9-80-24.1c-13.7-5-27.5-9.7-41.8-13.7c-15.7-4.2-33.9-10.9-53.3-4.4C154.1,501,92.1,558,22.7,590.6
	c-4.5,2.1-5.6-4.4-1-6.6c66.7-31.3,127.3-86,184.1-141.9c-0.2-0.4-0.3-0.8-0.2-1.3c0-0.2,0-0.4,0.1-0.6
	c-16.8-57.9-34.6-120.4-30.8-188.2C178.5,188.3,210.6,122.2,265.7,71z"/>
</svg>
