<svg version="1.1" xmlns="http://www.w3.org/2000/svg" xmlns:xlink="http://www.w3.org/1999/xlink" x="0px" y="0px"
	 viewBox="0 0 445 272" style="enable-background:new 0 0 445 272;" xml:space="preserve">
<g id="line01_1_">
	<path fill="#FFA969" class="lines-01" d="M148,241.7c7.6-47,51.5-77.2,98.2-70.2c45,6.7,86.9,46.1,99,89.8c0.7,2.3,4.3,1.2,3.6-1.1
		c-12.9-46.6-58.3-87.9-106.7-93c-47-4.9-90.2,26.6-97.8,73.6C144,243.2,147.6,244.1,148,241.7z"/>

	<path  fill="#FFA969" class="lines01"  d="M122.6,244.7c0.1-34.8,17.9-65.6,42.6-89.2c12.2-11.6,26.6-24.2,43.4-28.3c16.8-4.1,37.2-3.2,54.1,0
		c29.6,5.5,56.9,22.7,75.2,46.6c19.6,25.7,27.8,57.6,35.4,88.4c0.6,2.4,4.2,1.2,3.6-1.1c-6.7-27.4-13.9-55.4-29-79.5
		c-13-20.7-31.9-37.5-53.9-48c-24-11.5-51.5-14.4-77.8-11.4c-25.7,3-47.2,22.6-63.8,41.2c-20.1,22.6-33.5,50.8-33.5,81.5
		C118.8,247.3,122.6,247.1,122.6,244.7z"/>

	<path  fill="#FFA969" class="lines01"  d="M80.3,236.9c7-62.9,32.5-137.7,101-156.1c18.3-4.9,37.5-4.2,56.3-2.7c18.4,1.5,37,3,54.1,10.2
		c28.3,11.9,50.5,35.1,66.8,60.6c21.6,33.9,33.8,72.9,36.4,112.9c0.2,2.4,3.9,2.3,3.8-0.1c-4.3-65.5-36.1-141.6-97.4-173.1
		c-14.5-7.5-30.1-11-46.2-12.7c-20.1-2.2-40.8-4.2-60.9-1.5c-31.3,4.2-58.5,22.5-77.7,47.2c-25.4,32.7-35.3,74-39.8,114.4
		C76.4,238.4,80,239.3,80.3,236.9z"/>

	<path  fill="#FFA969" class="lines01"  d="M52,238.6c1.9-23.6,5.2-47,10.3-70.1c4.7-21.2,11.2-41.6,25.7-58.3c13.4-15.4,30.6-27.3,47.5-38.4
		c18-11.8,37.2-22.1,57.9-28.4c80.4-24.4,162.8,26.7,200,97.1c19.5,36.9,27.7,79.4,22.3,120.8c-0.3,2.4,3.4,3.3,3.7,0.9
		c9.8-75.5-24.8-154.3-87.8-197.4C296.5,41,252.5,28.1,210.1,35.6c-42.2,7.4-84,33.3-115.2,62.1c-18,16.6-28.2,36.9-34.1,60.4
		c-6.6,26.4-10.5,53.5-12.6,80.6C48,241.1,51.8,241,52,238.6z"/>

	<path fill="#FFA969" class="lines01"  d="M20,240.9c1.8-42.8,8-87.4,30.2-124.8c24.6-41.3,71.6-68.6,115.6-84.8c44.6-16.5,94.6-19.3,139.5-2.6
		c39.6,14.7,73.9,43,96.6,78.5c28.7,44.8,38.5,99.8,31,152.2c-0.3,2.4,3.3,3.3,3.7,0.9C449.9,168.6,408.2,73,322.8,32
		c-43.2-20.7-92.3-23.1-138.3-10.7c-25.7,6.9-49.8,18.7-72.6,32.2C90.8,66,71,80.7,56.2,100.4c-30.1,40-37.9,91.9-40,140.6
		C16.1,243.4,19.9,243.3,20,240.9z"/>
</g>
</svg>
