<?xml version="1.0" encoding="utf-8"?>
<!-- Generator: Adobe Illustrator 24.2.0, SVG Export Plug-In . SVG Version: 6.00 Build 0)  -->
<svg version="1.1" id="line05" xmlns="http://www.w3.org/2000/svg" xmlns:xlink="http://www.w3.org/1999/xlink" x="0px" y="0px"
	 viewBox="0 0 312 294" style="enable-background:new 0 0 312 294;" xml:space="preserve">
<style type="text/css">
	.st0{fill:none;}
	.st1{fill:#FFAD8D;}
</style>
<path class="st0" d="M14.8,134.7c0.5,2.8,1.1,5.6,1.8,8.4c7.6-14.1,15.6-28,23.8-41.8C31.9,112.5,23.4,123.6,14.8,134.7z"/>
<path class="st0" d="M65,229c4.8,4.9,9.8,9.5,15,13.8c51.8-72.3,103.1-145,153.9-218C175.6,91.2,119.3,159.3,65,229z"/>
<path class="st0" d="M204,9.3c-0.6-0.1-1.1-0.2-1.7-0.3c-0.3-0.1-0.6-0.1-1-0.1c-20.5,25.7-40.2,51.9-59.5,78.5
	C162.4,61.2,183.2,35.2,204,9.3z"/>
<path class="st0" d="M301.7,128.8c-0.2-1.1-0.3-2.3-0.5-3.4c-15,22.6-29.8,45.4-44.3,68.3C271.8,172,286.7,150.4,301.7,128.8z"/>
<path class="st0" d="M63,168.4c41.5-55,84.9-108.4,130.2-160.3c-5.6-0.2-11.3,0.2-16.7,1.4c-12.9,15.6-25.6,31.2-38.2,47
	C111,92.2,85.9,129.6,63,168.4z"/>
<path class="st0" d="M99,13.4c-10.3,2.5-20.3,5.7-29.9,9.6c-2.2,0.9-4.5,1.8-6.7,2.8c-18.9,30.5-35.5,62.3-49.5,95.3
	c0,0.4,0.1,0.8,0.1,1.1c0.2,1.8,0.4,3.6,0.7,5.4C37.5,96.9,61,65.8,84,34.3C88.9,27.3,93.9,20.4,99,13.4z"/>
<path class="st0" d="M84.5,246.4c4.4,3.4,9,6.7,13.7,9.7C134,200.6,170.7,145.5,208.1,91C166.5,142.5,125.3,194.3,84.5,246.4z"/>
<path class="st0" d="M53,215.7c2.3,2.8,4.7,5.6,7.2,8.3c27.8-46.2,57-91.5,87.6-135.9C115.1,129.8,83.1,172.1,53,215.7z"/>
<path class="st0" d="M247,35c1.9-2.3,5.7,0.8,4.1,3.1c-48.2,68.8-95.2,138.5-140.9,209.1c52-63.4,104.1-126.8,156.1-190.1
	c1.9-2.3,5.7,0.7,4.1,3.1c-37.7,56.8-73.9,114.7-108.6,173.4c40.6-53.2,81.1-106.4,121.7-159.5C276.1,61,267,48.9,256.3,38.5
	c-5-4.9-10.5-9.4-16.2-13.4c-33.6,48.2-67.3,96.3-101.3,144.2C174.5,124.3,210.6,79.5,247,35z"/>
<path class="st0" d="M36.1,191.4c1.3,2.3,2.7,4.5,4.1,6.7c11.3-20.7,23.2-41,35.7-60.9C62.5,155.1,49.2,173.2,36.1,191.4z"/>
<path class="st0" d="M291.5,91c-1.1-2.6-2.2-5.3-3.4-7.8c-15.8,24.7-31.6,49.5-47.5,74.2C257.2,134.9,274.2,112.8,291.5,91z"/>
<path class="st0" d="M298.7,113.1c-1.2-4.9-2.6-9.8-4.3-14.6c-28.9,42.6-56.1,86.3-81.4,131.1C240.8,190.2,269.4,151.4,298.7,113.1z
	"/>
<path class="st0" d="M19.9,155.1c1.2,3.7,2.5,7.3,3.9,10.9c28-44.1,57-87.6,86.9-130.4C79,74.3,48.8,114.2,19.9,155.1z"/>
<path class="st0" d="M231.6,19.7c-6.9-3.9-14.2-7.1-21.9-9.1c-46,61.8-89.4,125.6-129.8,191.2C128.8,139.8,179.4,79.1,231.6,19.7z"
	/>
<path class="st0" d="M43.6,203.1c1.9,2.8,4,5.6,6,8.3c34.2-50.6,68.7-101.1,105.1-150.2C116.2,107.3,79.1,154.6,43.6,203.1z"/>
<path class="st0" d="M26.2,171.9c1.6,3.7,3.4,7.4,5.2,11c21.1-34.8,43-69.2,65.7-103.1C73.5,110.5,49.8,141.2,26.2,171.9z"/>
<path class="st0" d="M224.9,279.6c3.7-1.4,7.2-3.1,10.7-5c12.1-22.8,24.6-45.4,37.7-67.6C256.8,230.9,240.6,255.1,224.9,279.6z"/>
<path class="st0" d="M145.5,8.5c-3.1-0.1-6.3-0.1-9.4-0.1c-26.2,36.8-51.8,74.2-76.7,112C88.1,83.1,116.8,45.8,145.5,8.5z"/>
<path class="st0" d="M134.1,53.5c10.9-14.3,22.2-28.4,33.8-42.1c-5.1-1.1-10.2-1.9-15.5-2.4C115,61.2,79.3,114.8,45.5,169.7
	C74.2,130.3,103.8,91.6,134.1,53.5z"/>
<path class="st0" d="M15.7,78.1c-2.7,10.2-3.7,21-3.5,31.7c10.7-24.2,22.7-47.7,36.1-70.6C36.9,51.7,26,64.7,15.7,78.1z"/>
<path class="st0" d="M35.4,43c-6,5.7-10.6,12.5-14.1,19.8c7.6-9.3,15.4-18.4,23.5-27.3C41.4,37.7,38.3,40.2,35.4,43z"/>
<path class="st0" d="M23.8,140.7C56.1,95.5,90.2,51.6,125.9,9c-6.4,0.6-12.9,1.5-19.2,2.8c-6,8.4-12.1,16.8-18.2,25.1
	C65,70.3,43.4,105,23.8,140.7z"/>
<path class="st0" d="M251.9,263.1c4.1-3.6,8-7.4,11.6-11.4c13.1-14.6,23.3-31.8,30.1-50.2C279.1,221.6,265.2,242.1,251.9,263.1z"/>
<path class="st0" d="M298.2,186.4c1.3-5.2,2.4-10.4,3.1-15.6c-15,24-29.4,48.4-43.2,73.1C271,224.3,284.3,205.1,298.2,186.4z"/>
<path class="st0" d="M140.5,269.9c-2,2.6-6.2,0.4-4.5-2.6c33.2-57.6,67.9-114.3,104-170.1c-44.8,54.5-89.5,109-134.3,163.6
	c15.6,9.1,32.4,15.9,49.9,20c40.5-63.3,81-126.6,121.5-189.9C231.5,150.5,186,210.2,140.5,269.9z"/>
<path class="st0" d="M204.1,279.2c-1.9,2.7-6.2,0.3-4.5-2.6c28.9-48.3,58.9-95.9,89.9-143c-34.2,45.2-67.3,91.1-99.4,137.8
	c-1.9,2.7-6,0.4-4.5-2.6c24.6-46.4,51.1-91.6,79.6-135.7c-36.7,48.2-71.5,97.8-104.3,148.8c6.8,1.3,13.6,2.3,20.6,2.7
	c11.5,0.8,23.3,0.4,34.4-2.3c19.6-35.8,39.5-71.4,59.7-106.9C251.8,210.1,228,244.6,204.1,279.2z"/>
<path class="st0" d="M302.8,156.7c0.2-4.4,0.3-8.7,0.1-13.1c-0.1-1.5-0.1-3.1-0.2-4.6c-18.4,31.6-36.5,63.4-54.3,95.4
	C266,208.1,284.1,182.2,302.8,156.7z"/>
<path class="st1" d="M75.9,137.2C96.3,110,117.2,83,138.4,56.4c12.2-16,24.9-31.7,38-47c-2.6,0.5-5.1,1.2-7.6,2
	c-0.2,0-0.3-0.1-0.5-0.1c-11.5,13.9-22.8,28-34.1,42.1C113.5,80.5,94.1,108.4,75.9,137.2z"/>
<path class="st1" d="M176.5,9.4c0,0-0.1,0-0.1,0c-13.1,15.3-25.8,31-38,47C150.9,40.6,163.7,25,176.5,9.4z"/>
<path class="st1" d="M199.6,8.6c-1.4-0.2-2.9-0.3-4.3-0.4c-13.8,17.4-27.3,35.1-40.6,53C169.5,43.5,184.5,25.9,199.6,8.6z"/>
<path class="st1" d="M140.5,269.9c45.5-59.7,91-119.4,136.5-179c2.8-4.4,5.6-8.7,8.4-13.1c-0.7-1.3-1.3-2.5-2-3.7
	c-40.6,53.2-81.1,106.4-121.7,159.5C154.6,245.7,147.5,257.7,140.5,269.9z"/>
<path class="st1" d="M236,22.5c-0.1-0.1-0.2-0.1-0.3-0.2c-0.6,0.8-1.2,1.7-1.8,2.5C234.7,24,235.4,23.2,236,22.5z"/>
<path class="st1" d="M168.2,11.4c-0.1,0-0.2,0-0.2-0.1c-11.6,13.8-22.9,27.8-33.8,42.1C145.4,39.3,156.8,25.3,168.2,11.4z"/>
<path class="st1" d="M151.7,8.9c-1.7-0.1-3.5-0.3-5.2-0.3C129.7,32,113.2,55.8,97.1,79.8C115.3,56.1,133.5,32.5,151.7,8.9z"/>
<path class="st1" d="M209.6,10.6c-1.8-0.5-3.6-0.9-5.4-1.2c-19.3,25.9-38.1,52.2-56.4,78.8C168.2,62.1,188.9,36.3,209.6,10.6z"/>
<path class="st1" d="M204.1,279.2c23.9-34.6,47.7-69.2,71.6-103.8c8.6-15.1,17.4-30.2,26.1-45.3c-0.1-0.5-0.1-0.9-0.2-1.4
	c-14.9,21.6-29.9,43.3-44.8,64.9C238.9,222,221.3,250.5,204.1,279.2z"/>
<path class="st1" d="M302.5,136.6c-0.2-2.2-0.4-4.3-0.7-6.4c-8.8,15.1-17.5,30.2-26.1,45.3C284.6,162.5,293.6,149.6,302.5,136.6z"/>
<path class="st1" d="M204.1,279.2c-1.5-0.9-3-1.7-4.5-2.6C197.9,279.5,202.3,281.9,204.1,279.2z"/>
<path class="st1" d="M199.7,276.6c19.1-27.6,38.2-55.3,57.2-82.9c14.5-22.9,29.3-45.7,44.3-68.3c-0.3-1.9-0.7-3.8-1-5.7
	c-3.6,4.7-7.1,9.3-10.6,14C258.6,180.7,228.6,228.3,199.7,276.6z"/>
<path class="st1" d="M59.5,27.2c-3.8,4-7.6,8-11.3,12c-13.4,22.8-25.4,46.4-36.1,70.6c0.1,3.8,0.3,7.6,0.7,11.4
	c14-33,30.6-64.8,49.5-95.3C61.4,26.3,60.5,26.7,59.5,27.2z"/>
<path class="st1" d="M59.5,27.2c-2,0.9-3.9,1.9-5.8,2.9c-1.8,3-3.7,6.1-5.5,9.2C52,35.2,55.7,31.2,59.5,27.2z"/>
<path class="st1" d="M301.9,166.6c0.3-2.5,0.5-5.1,0.7-7.6c-10,15.8-19.8,31.8-29.3,48C282.7,193.4,292.2,180,301.9,166.6z"/>
<path class="st1" d="M53.7,30.1c-3.1,1.6-6.1,3.4-9,5.4c-8.1,8.9-15.9,18-23.5,27.3c-2.3,4.9-4.2,10-5.5,15.3
	C26,64.7,36.9,51.7,48.3,39.2C50.1,36.2,51.9,33.1,53.7,30.1z"/>
<path class="st1" d="M300.1,119.6c-0.1-0.5-0.2-1.1-0.3-1.6c-3.5,5.2-6.9,10.4-10.3,15.6C293,129,296.6,124.3,300.1,119.6z"/>
<path class="st1" d="M265.8,57.6c-8.7,13.1-17.3,26.3-25.9,39.6c10-12.1,20-24.3,29.9-36.4C268.6,59.7,267.2,58.6,265.8,57.6z"/>
<path class="st1" d="M286.1,79c-0.2-0.4-0.4-0.8-0.6-1.3c-2.8,4.4-5.6,8.7-8.4,13.1C280,86.9,283,83,286.1,79z"/>
<path class="st1" d="M293.7,96.5c-0.5-1.3-1-2.7-1.5-4c-9.2,13.4-18.1,26.9-26.9,40.5C274.6,120.8,284.1,108.6,293.7,96.5z"/>
<path class="st1" d="M140.5,269.9c-1.5-0.9-3-1.7-4.5-2.6C134.3,270.2,138.5,272.5,140.5,269.9z"/>
<path class="st1" d="M136,267.3c1.5,0.9,3,1.7,4.5,2.6c7-12.1,14.1-24.2,21.2-36.3C153.2,244.8,144.6,256,136,267.3z"/>
<path class="st1" d="M185.7,268.8c1.5,0.9,3,1.7,4.5,2.6c7.4-14,15.1-28,22.9-41.8C203.8,242.6,194.7,255.7,185.7,268.8z"/>
<path class="st1" d="M190.1,271.4c-1.5-0.9-3-1.7-4.5-2.6C184.1,271.8,188.3,274.2,190.1,271.4z"/>
<path class="st1" d="M190.1,271.4c32.1-46.7,65.2-92.6,99.4-137.8c3.4-5.2,6.9-10.4,10.3-15.6c-0.3-1.7-0.7-3.3-1.1-5
	c-29.3,38.3-57.9,77.1-85.7,116.5C205.2,243.5,197.6,257.4,190.1,271.4z"/>
<path class="st1" d="M185.7,268.8c9-13.1,18.2-26.2,27.3-39.2c25.3-44.8,52.4-88.6,81.4-131.1c-0.2-0.6-0.5-1.3-0.7-1.9
	c-9.6,12.1-19.1,24.3-28.4,36.6C236.8,177.2,210.3,222.5,185.7,268.8z"/>
<path class="st1" d="M199.7,276.6c1.5,0.9,3,1.7,4.5,2.6c17.2-28.7,34.8-57.3,52.8-85.6C237.8,221.3,218.7,249,199.7,276.6z"/>
<path class="st1" d="M246.6,35.5C233.6,54,220.8,72.5,208.1,91c14.1-17.5,28.3-34.9,42.5-52.4C249.3,37.6,247.9,36.6,246.6,35.5z"/>
<path class="st1" d="M265.8,57.6c1.4,1,2.7,2.1,4.1,3.1c-10,12.1-20,24.3-29.9,36.4c-36.1,55.8-70.7,112.5-104,170.1
	c8.6-11.2,17.1-22.5,25.7-33.7c34.7-58.7,70.9-116.5,108.6-173.4c1.6-2.4-2.2-5.4-4.1-3.1c-52,63.4-104.1,126.8-156.1,190.1
	c-2.5,3.9-5,7.8-7.6,11.7c1,0.6,2.1,1.2,3.1,1.8c44.8-54.5,89.5-109,134.3-163.6C248.5,83.9,257.1,70.7,265.8,57.6z"/>
<path class="st1" d="M101.2,258.1c0.5,0.3,0.9,0.6,1.4,0.8c2.5-3.9,5-7.8,7.6-11.7C107.1,250.8,104.2,254.4,101.2,258.1z"/>
<path class="st1" d="M80.5,243.2c1.2,1,2.4,1.9,3.6,2.9c18.3-25.5,36.5-51.1,54.7-76.7C119.2,193.9,99.8,218.5,80.5,243.2z"/>
<path class="st1" d="M251,38.1c1.7-2.4-2.2-5.4-4.1-3.1c-36.4,44.5-72.4,89.3-108.2,134.4c-18.2,25.6-36.4,51.2-54.7,76.7
	c0.1,0.1,0.3,0.2,0.4,0.3c40.8-52.1,82-103.9,123.6-155.4c12.7-18.6,25.5-37.1,38.5-55.5c1.4,1,2.7,2.1,4.1,3.1
	c-14.2,17.4-28.4,34.9-42.5,52.4C170.7,145.5,134,200.6,98.2,256.1c1,0.6,2,1.3,3,1.9c3-3.6,5.9-7.2,8.9-10.9
	C155.8,176.7,202.8,107,251,38.1z"/>
<path class="st1" d="M204.2,9.4c-0.1,0-0.1,0-0.2,0c-20.8,25.9-41.6,51.9-62.1,78c-30.5,42.1-59.8,85.1-88.9,128.3
	c0,0,0,0.1,0.1,0.1c30.1-43.6,62.1-85.9,94.8-127.5C166.1,61.5,184.9,35.3,204.2,9.4z"/>
<path class="st1" d="M61.4,225.3c0.8,0.9,1.7,1.8,2.5,2.6c5.3-8.7,10.6-17.5,15.9-26.1C73.7,209.6,67.5,217.4,61.4,225.3z"/>
<path class="st1" d="M133.1,8.5c-1.2,0.1-2.3,0.1-3.5,0.2c-6.3,8.9-12.6,17.8-18.9,26.8C118.1,26.5,125.5,17.5,133.1,8.5z"/>
<path class="st1" d="M235.8,22.3c-1.4-0.9-2.8-1.7-4.2-2.5c-52.2,59.3-102.8,120-151.7,182c-5.4,8.7-10.7,17.4-15.9,26.1
	c0.4,0.4,0.7,0.7,1.1,1.1c54.3-69.7,110.6-137.8,169-204.2C234.6,24,235.2,23.1,235.8,22.3z"/>
<path class="st1" d="M209.7,10.6c0,0-0.1,0-0.1,0c-20.7,25.8-41.4,51.6-61.8,77.6C117.2,132.5,88,177.8,60.2,224
	c0.4,0.4,0.8,0.9,1.2,1.3c6.1-7.9,12.3-15.7,18.4-23.5C120.3,136.2,163.6,72.4,209.7,10.6z"/>
<path class="st1" d="M240.4,271.7c1.4-0.9,2.7-1.8,4.1-2.8c4.5-8.4,9.1-16.8,13.7-25.1C252.1,253.1,246.2,262.3,240.4,271.7z"/>
<path class="st1" d="M301.4,170.7c0.2-1.4,0.4-2.7,0.6-4.1c-9.7,13.3-19.2,26.8-28.6,40.3c-13.1,22.2-25.7,44.8-37.7,67.6
	c1.6-0.9,3.2-1.9,4.8-2.9c5.8-9.4,11.7-18.6,17.8-27.8C271.9,219.1,286.3,194.7,301.4,170.7z"/>
<path class="st1" d="M298.2,186.4c-13.9,18.8-27.2,38-40.1,57.5c-4.6,8.3-9.2,16.7-13.7,25.1c2.6-1.8,5-3.8,7.4-5.9
	c13.3-21,27.2-41.5,41.7-61.7C295.4,196.5,296.9,191.4,298.2,186.4z"/>
<path class="st1" d="M302.6,159c0.1-0.8,0.1-1.5,0.1-2.3c-18.7,25.5-36.8,51.4-54.4,77.7c-8.5,15.3-17,30.6-25.3,45.9
	c0.6-0.2,1.3-0.5,1.9-0.7c15.7-24.5,31.8-48.7,48.4-72.6C282.8,190.8,292.6,174.8,302.6,159z"/>
<path class="st1" d="M302.7,139c-0.1-0.8-0.1-1.6-0.2-2.4c-8.9,13-17.9,25.9-26.8,38.9c-20.2,35.4-40.1,71-59.7,106.9
	c0.4-0.1,0.8-0.2,1.3-0.3c10.2-16,20.5-31.9,31.1-47.6C266.2,202.4,284.3,170.6,302.7,139z"/>
<path class="st1" d="M155.6,280.7c1.8,0.4,3.6,0.8,5.4,1.2c26.5-41.5,53.1-83,79.6-124.5C210.9,197.6,182.6,238.7,155.6,280.7z"/>
<path class="st1" d="M292.2,92.6c-0.2-0.5-0.4-1.1-0.6-1.6c-17.4,21.8-34.3,44-50.9,66.4c-26.5,41.5-53.1,83-79.6,124.5c0,0,0,0,0,0
	c32.8-51,67.6-100.6,104.3-148.8C274,119.5,283,106,292.2,92.6z"/>
<path class="st1" d="M288.1,83.2c-0.7-1.4-1.3-2.8-2-4.1c-3,3.9-6,7.9-9,11.8c-40.5,63.3-81,126.6-121.5,189.9c0,0,0,0,0,0
	c27-42,55.4-83.2,85-123.4C256.4,132.6,272.3,107.9,288.1,83.2z"/>
<path class="st1" d="M217.3,282c1.8-0.5,3.6-1,5.4-1.6c0.1,0,0.2-0.1,0.4-0.1c8.4-15.3,16.8-30.6,25.3-45.9
	C237.8,250.1,227.4,266,217.3,282z"/>
<path class="st1" d="M240,25.1c-1.3-0.9-2.7-1.8-4-2.7c-0.7,0.8-1.4,1.6-2.1,2.4c-50.8,73-102.1,145.7-153.9,218
	c0.2,0.1,0.3,0.3,0.5,0.4c19.3-24.7,38.7-49.3,58.2-73.9C172.7,121.4,206.5,73.4,240,25.1z"/>
<path class="st1" d="M129.5,8.7c-1.2,0.1-2.4,0.2-3.6,0.3C90.2,51.6,56.1,95.5,23.8,140.7c-1.8,3.2-3.5,6.5-5.3,9.7
	c0.4,1.5,0.9,3.1,1.4,4.6C48.8,114.2,79,74.3,110.7,35.5C116.9,26.5,123.2,17.6,129.5,8.7z"/>
<path class="st1" d="M18,148.8c0.2,0.6,0.3,1.1,0.5,1.7c1.7-3.2,3.5-6.5,5.3-9.7C21.8,143.4,19.9,146.1,18,148.8z"/>
<path class="st1" d="M136.1,8.4c-1,0-2,0.1-3,0.1c-7.5,8.9-15,17.9-22.4,27c-29.9,42.8-58.9,86.3-86.9,130.4
	c0.1,0.2,0.1,0.3,0.2,0.5c11.8-15.3,23.6-30.7,35.4-46C84.3,82.6,109.8,45.3,136.1,8.4z"/>
<path class="st1" d="M88.5,36.9C72.6,58.5,56.6,80,40.4,101.4c-8.2,13.7-16.2,27.7-23.8,41.8c0.5,1.9,0.9,3.8,1.5,5.7
	c1.9-2.7,3.8-5.4,5.7-8C43.4,105,65,70.3,88.5,36.9z"/>
<path class="st1" d="M106.7,11.8C106.7,11.8,106.7,11.8,106.7,11.8c-6.2,8.3-12.3,16.7-18.2,25.1C94.6,28.5,100.7,20.2,106.7,11.8z"
	/>
<path class="st1" d="M49.7,211.5c1.1,1.4,2.2,2.8,3.3,4.1c29.1-43.1,58.4-86.1,88.9-128.3C110.1,127.9,79,169.1,49.7,211.5z"/>
<path class="st1" d="M84,34.3c-23,31.5-46.4,62.6-70.3,93.4c0.3,2.3,0.7,4.6,1.1,6.9c8.6-11.1,17.1-22.2,25.6-33.3
	C54.1,78.5,68.6,56.1,84,34.3z"/>
<path class="st1" d="M23.9,166.4c0.7,1.8,1.4,3.6,2.2,5.3c10.9-17.2,22-34.4,33.2-51.4C47.6,135.7,35.8,151.1,23.9,166.4z"/>
<path class="st1" d="M99.2,13.4c-0.1,0-0.1,0-0.2,0c-5.1,6.9-10.1,13.9-15,20.9C89,27.4,94.1,20.4,99.2,13.4z"/>
<path class="st1" d="M40.4,101.4C56.6,80,72.6,58.5,88.5,36.9c5.9-8.5,12-16.8,18.2-25.1c-2.5,0.5-5,1-7.5,1.6
	c-5,7-10.1,14-15.2,20.9C68.6,56.1,54.1,78.5,40.4,101.4z"/>
<path class="st1" d="M40.5,198.5c1,1.5,1.9,3,2.9,4.4c6.3-11.6,12.8-23.2,19.5-34.6C55.5,178.4,48,188.4,40.5,198.5z"/>
<path class="st1" d="M138.4,56.4c-21.2,26.6-42,53.5-62.4,80.8c-12.5,19.9-24.4,40.2-35.7,60.9c0.1,0.2,0.2,0.3,0.3,0.5
	c7.4-10.1,14.9-20.2,22.5-30.2C85.9,129.6,111,92.2,138.4,56.4z"/>
<path class="st1" d="M146.5,8.5c-0.3,0-0.7,0-1,0c-28.7,37.3-57.4,74.6-86.1,111.9c-11.2,17-22.3,34.2-33.2,51.4c0,0,0,0.1,0.1,0.1
	c23.6-30.7,47.3-61.4,70.9-92.1C113.2,55.8,129.7,32,146.5,8.5z"/>
<path class="st1" d="M201.3,8.8c-0.6-0.1-1.1-0.2-1.7-0.2c-15.2,17.3-30.2,34.9-44.9,52.6c-36.4,49.1-70.9,99.6-105.1,150.2
	c0,0,0.1,0.1,0.1,0.1c29.3-42.4,60.4-83.5,92.2-124.1C161.1,60.7,180.9,34.5,201.3,8.8z"/>
<path class="st1" d="M195.3,8.2c-0.7,0-1.4-0.1-2-0.1C148,59.9,104.5,113.4,63,168.4c-6.7,11.4-13.2,22.9-19.5,34.6
	c0,0,0.1,0.1,0.1,0.1c35.6-48.5,72.6-95.8,111.1-141.9C168,43.3,181.5,25.6,195.3,8.2z"/>
<path class="st1" d="M152.5,8.9c-0.3,0-0.6,0-0.8-0.1c-18.2,23.6-36.4,47.3-54.6,70.9C74.4,113.6,52.5,148,31.4,182.8
	c0.6,1.2,1.3,2.4,1.9,3.6c4-5.6,8.1-11.2,12.2-16.8C79.3,114.8,115,61.2,152.5,8.9z"/>
<path class="st1" d="M134.1,53.5c-30.4,38.1-59.9,76.9-88.6,116.2c-3.8,6.1-7.5,12.3-11.2,18.4c0.6,1.1,1.2,2.2,1.9,3.3
	c13.1-18.2,26.4-36.3,39.8-54.2C94.1,108.4,113.5,80.5,134.1,53.5z"/>
<path class="st1" d="M33.3,186.5c0.3,0.6,0.6,1.1,0.9,1.7c3.7-6.2,7.5-12.3,11.2-18.4C41.4,175.3,37.4,180.9,33.3,186.5z"/>
</svg>
