
<svg version="1.1" id="line05" xmlns="http://www.w3.org/2000/svg" xmlns:xlink="http://www.w3.org/1999/xlink" x="0px" y="0px"
	 viewBox="0 0 312 294" style="enable-background:new 0 0 312 294;" xml:space="preserve">

<path class="lines-03" fill="#9E673E" d="M253.5,51.8c-3.6-26.4-33.1-36.1-55.8-39.4c-24.4-3.5-49.8-2.8-73.7,3.3c-24,6-47.2,17.2-65.2,34.3
	c-17,16.2-29.9,37-35.9,59.8c-6.1,23.3-5.1,47.8,4.7,70c10.7,24.1,30.2,43.3,51.7,58.1c11.1,7.6,22.9,14.2,35,20.2
	c12.7,6.3,25.8,12,39.5,15.6c26,6.8,53.1,5,77.5-6.9c23.1-11.4,41.4-30.5,51.4-54.3c10.3-24.6,11.1-52.2,2.6-77.4
	c-4.5-13.2-11.5-25.5-19.2-37c-8.5-12.6-18.4-24.7-30.7-33.9c-19.1-14.3-43.3-18.9-66.4-13.3c-44,10.6-81.3,51.8-80.3,98.3
	c0.3,11.8,2.8,23.4,9.1,33.6c6.8,11.1,17.7,19,30.1,22.9c24.9,7.9,54.3,3.8,75.7-11.3c20-14.1,30.9-39.7,25.3-63.9
	c-2.7-11.5-9-22.4-18.9-29.1c-10-6.8-22.5-9.3-34.4-7.6c-11.4,1.6-22.6,7.5-29.1,17.2c-7.4,11-8.9,25.5-0.9,36.5
	c6.5,9,19,14.4,29.9,11.9c12-2.7,23.5-15.6,17.4-28.3c-2.5-5.2-8.2-8.5-13.8-9.1c-6.6-0.6-11.8,2.8-14.7,8.5
	c-1.8,3.6,0.9,8.4,4.4,9.7c4.2,1.6,7.8-0.8,9.7-4.4c-0.2,0.4-1,1-1.1,1.2c0-0.1,0.4,0,1,0.1c-0.1,0,0.9,0.6,0.9,0.4
	c-0.2-0.6,0.2,0.7,0.1,1.1c0,0.3-0.3,1.2-0.3,1.2c-0.7,1.6-2.2,2.9-3.8,3.8c-6.4,3.6-14.7-0.4-18.3-6c-4.3-6.7-0.7-16.8,5.1-22
	c6.4-5.7,15.1-7.9,23.6-7.2c8.9,0.8,17,4.7,22.4,11.9c5.3,7.1,7.5,16.3,7.1,25c-1,20.3-14.4,36-32.7,43.6c-19.1,8-46,8.8-63.1-4.3
	c-14.9-11.4-17.4-31.9-14.5-49.3c6.1-36,38.8-66.1,74.7-71.1c20.3-2.8,39,4.2,54,18c9.4,8.7,17.1,19.4,24,30.2
	c6.2,9.8,11.5,20.4,14.9,31.5c12.7,41.9-7.2,88.8-46.2,108.6c-19.7,10-41.7,12.7-63.2,8c-22.9-4.9-45.2-16.2-65.1-28.5
	c-19.1-11.7-36.9-26.1-49.3-45c-11.1-16.8-16-36.8-14.2-56.8c3.7-40.1,31.1-74.3,67.1-90.9c19.2-8.9,40.4-13.3,61.5-13.9
	c10.7-0.3,21.5,0.3,32.1,1.8c9.9,1.4,20,3.5,28.8,8.4c7.4,4.1,13.6,10,14.7,18.6C239.9,63.8,254.8,61.4,253.5,51.8L253.5,51.8z"/>
</svg>
