<?xml version="1.0" encoding="utf-8"?>
<!-- Generator: Adobe Illustrator 24.2.0, SVG Export Plug-In . SVG Version: 6.00 Build 0)  -->
<svg version="1.1" id="Layer_1" xmlns="http://www.w3.org/2000/svg" xmlns:xlink="http://www.w3.org/1999/xlink" x="0px" y="0px"
	 viewBox="0 0 690 87.7" style="enable-background:new 0 0 690 87.7;" xml:space="preserve">
<style type="text/css">
	.st0{fill:#CBCBCB;}
</style>
<g>
	<path class="st0" d="M44,51.2c2.7-5,5-9.3,7.2-13.5c4.6-8.6,9.2-17.3,13.7-25.9c0.8-1.6,1.8-2.4,3.7-2.3c4.5,0.1,9.1,0,13.8,0
		c0,23.6,0,46.8,0,70.3c-4.3,0-8.6,0-13.3,0c0-16.6,0-33.2,0-49.9c-0.3-0.1-0.5-0.2-0.8-0.2c-0.5,0.9-1.1,1.7-1.6,2.6
		c-5.1,9.6-10.3,19.2-15.2,28.9c-1,2-2.3,2.4-4.4,2.7c-7.2,1.2-11.1-1.6-14-8.2C29.2,46.8,24.1,38.5,19,30c0,16.5,0,33,0,49.7
		c-4.7,0-9,0-13.6,0c0-23.2,0-46.5,0-70.2c5.1,0,10.3-0.1,15.5,0.1c0.7,0,1.5,1.4,2,2.4c6.3,11.8,12.6,23.6,18.9,35.5
		C42.4,48.5,43,49.5,44,51.2z"/>
	<path class="st0" d="M446.7,80c-4.9,0-9.5,0.1-14.2-0.1c-1-0.1-2.1-1.4-2.7-2.4c-9.4-15.1-18.8-30.2-28.1-45.2
		c-0.6-0.9-1.2-1.7-1.8-2.6c-0.2,0.1-0.5,0.1-0.7,0.2c0,16.6,0,33.1,0,49.9c-4.6,0-8.8,0-13.2,0c-0.1-1.1-0.2-2.2-0.2-3.3
		c0-21.2,0-42.3-0.1-63.5c0-2.7,0.7-3.8,3.5-3.6c3.9,0.3,8.6-1.1,11.6,0.6c3,1.7,4.6,6.2,6.6,9.5c7.7,12.4,15.4,24.9,23.2,37.3
		c0.6,0.9,1.2,1.8,2.5,2.7c0-16.5,0-33,0-49.7c4.8,0,9.1,0,13.6,0C446.7,33.1,446.7,56.3,446.7,80z"/>
	<path class="st0" d="M665.8,52.9c5.6,9,11.1,17.7,16.9,27c-5.5,0-10.1,0.1-14.7-0.1c-0.8,0-1.7-1.2-2.2-2.1
		c-4.2-7-8.4-14-12.5-21.1c-0.9-1.6-2.1-2.2-3.9-2.2c-3.9,0.1-7.9,0.1-11.8,0c-2.1-0.1-2.8,0.6-2.8,2.7c0.1,6.3,0,12.7,0,19
		c0,1.1,0,2.2,0,3.6c-4.2,0-8.1,0.1-12.1-0.1c-0.6,0-1.4-0.9-1.7-1.5c-0.3-0.6-0.1-1.4-0.1-2.1c0-21,0-41.9,0-62.9c0-4,0-4,4-4
		c10.4,0,20.9-0.1,31.3,0.2c6.9,0.2,13.2,2.2,18.4,7.3c8,7.9,8.4,29.1-6.9,35C667.1,52.1,666.5,52.5,665.8,52.9z M635,42.3
		c7.6,0,15.1,0.5,22.4-0.2c5.7-0.5,8.5-4.5,8.5-10c0-5.4-2.9-9.5-8.5-10.1c-7.3-0.7-14.7-0.5-22-0.6c-0.1,0-0.3,0.2-0.5,0.4
		C635,28.7,635,35.6,635,42.3z"/>
	<path class="st0" d="M529.2,23c-4.1,2.9-7.4,5.2-10.8,7.6c-0.6-0.6-1.1-1.1-1.5-1.6c-6-8-14.2-9.5-23.3-7.9
		c-7.2,1.3-11.8,6.1-14.2,12.8c-2.8,7.9-2.6,15.8,0.7,23.6c2.3,5.4,6.4,9.1,12.2,10.5c7.7,1.9,15.3,1.2,22.5-2.3
		c1.7-0.8,2.6-2,2.4-4c-0.3-2.9,0.9-7-0.7-8.4c-1.7-1.6-5.7-0.8-8.7-0.9c-2-0.1-4.1-0.2-6.1,0c-3,0.3-3.7-1-3.7-3.8
		c0.1-7.8,0-7.8,7.9-7.8c7.1,0,14.2,0.1,21.3,0c2.7-0.1,3.7,0.5,3.6,3.5c-0.2,8.1-0.2,16.1,0,24.2c0,2.2-0.8,3.5-2.5,4.7
		c-5.7,3.9-12,6.2-18.8,7.1c-7.4,1.1-14.8,1.4-22-0.6c-12.8-3.5-20.6-12-23.3-24.9c-2.7-12.9-1-25.1,8-35.5c6-7,13.9-10.5,23.1-11
		c8.8-0.5,17.3,0.2,24.5,5.8C523.1,16.6,525.8,19.7,529.2,23z"/>
	<path class="st0" d="M103.2,79.8c0-23.4,0-46.5,0-70.1c1-0.1,1.9-0.3,2.9-0.3c15.5,0,31,0,46.5-0.1c2.3,0,3.4,0.6,3.1,3
		c-0.2,2.1-0.2,4.2,0,6.3c0.2,2.3-0.9,2.9-3,2.9c-10.3-0.1-20.7,0-31,0c-1.4,0-2.8,0.1-4.5,0.2c0,5.2-0.1,10.1,0.1,15
		c0,0.6,1.8,1.6,2.8,1.6c8,0.1,16,0.1,24,0.1c1.2,0,2.4,0,4.1,0c0,3.7,0.1,7.2-0.1,10.6c0,0.5-1.8,1.3-2.7,1.3
		c-8.1,0.1-16.2,0.1-24.3,0.1c-3.9,0-3.9,0-3.9,4c0,3.3,0.1,6.7,0,10c-0.1,2.4,0.8,3.1,3.1,3.1c11.1-0.1,22.3,0,33.4,0
		c0.9,0,1.8,0.1,2.9,0.2c0,4,0,7.9,0,12C138.9,79.8,121.2,79.8,103.2,79.8z"/>
	<path class="st0" d="M367.7,67.6c0,4.4,0,8.2,0,12.2c-17.8,0-35.5,0-53.4,0c0-23.3,0-46.5,0-70.1c1-0.1,2.1-0.2,3.1-0.2
		c15.3,0,30.6,0.1,45.9-0.1c2.7,0,3.7,0.7,3.4,3.4c-0.2,1.6,0,3.2,0,4.8c0,4,0,4-3.9,4c-10.1,0-20.3,0-30.4,0
		c-1.3,0-2.6,0.1-4.1,0.2c0,5.1,0,9.9,0,14.7c0,2,1.4,1.9,2.7,1.9c8.1,0,16.2,0,24.3,0c1.2,0,2.4,0,4.1,0c0,3.7,0.1,7.2-0.1,10.7
		c0,0.5-1.8,1.3-2.8,1.3c-8.1,0.1-16.2,0.2-24.3,0c-2.9-0.1-4.3,0.6-4,3.8c0.3,3.2,0.3,6.5,0,9.7c-0.2,3,0.9,3.7,3.8,3.6
		c10.6-0.2,21.3-0.1,31.9-0.1C365.1,67.6,366.3,67.6,367.7,67.6z"/>
	<path class="st0" d="M602.5,67.6c0,4.3,0,8.1,0,12.1c-17.6,0-35.2,0-53,0c-0.1-1-0.2-2-0.2-3c0-21.3,0-42.6-0.1-63.8
		c0-2.8,0.8-3.6,3.6-3.5c15.2,0.1,30.4,0.1,45.6,0.1c1,0,2,0,3.5,0c0,3.8,0.1,7.3-0.1,10.7c0,0.6-1.9,1.4-3,1.4
		c-10.3,0.1-20.7,0.1-31,0.1c-4.7,0-4.7,0-4.7,4.8c0,2.8,0.2,5.7,0,8.5c-0.2,2.7,0.7,3.7,3.5,3.7c8.3-0.2,16.6,0,24.9-0.1
		c2.4,0,3.3,0.7,3.1,3.1c-0.3,2.9,0.7,6.7-0.9,8.4c-1.3,1.5-5.3,0.6-8.1,0.6c-6.3,0.1-12.6,0.2-18.8,0c-3-0.1-3.9,1-3.7,3.8
		c0.2,3.2,0.2,6.5,0,9.7c-0.2,2.7,0.7,3.7,3.5,3.6c10.8-0.2,21.7-0.1,32.5-0.1C600.1,67.6,601.1,67.6,602.5,67.6z"/>
	<path class="st0" d="M168.5,67.8c3-2.9,5.9-5.5,8.9-8.4c0,0,0.4,0.1,0.6,0.4c8,8.5,18,10.2,29,8.3c5.3-0.9,7.9-4.1,7.3-8.7
		c-0.6-4.1-3.7-5.6-7.1-6.5c-4.8-1.3-9.7-2-14.5-3.2c-4.2-1.1-8.4-2.3-12.3-4.2c-13.7-6.9-12.3-25-1.6-31.7c3.8-2.4,8.4-4.3,12.8-5
		c12.2-1.8,23.7-0.3,32.9,9c0.8,0.9,1.6,1.8,2.3,2.5c-2.8,2.8-5.5,5.5-8.4,8.4c-0.3-0.3-1-0.8-1.6-1.4c-7.5-7.1-16.3-8.5-25.9-5.8
		c-2.2,0.6-4.5,2.8-5.7,4.8c-1.7,3-0.1,6.8,3.3,7.9c5.7,1.8,11.6,2.7,17.3,4.4c5,1.5,10.4,2.7,14.6,5.5c12.5,8.1,10.7,26.5-3.1,33.5
		c-11.6,5.9-34.9,5.2-45.8-6.4C170.5,70.1,169.6,69,168.5,67.8z"/>
	<path class="st0" d="M238.1,67.9c3.1-3,5.9-5.7,8.9-8.7c0.6,0.6,1.3,1.2,2,1.9c8.5,7.9,18.6,9.3,29.4,6.5c5.4-1.4,7.6-6.9,4.4-10.8
		c-1.5-1.8-4-3.2-6.3-3.8c-5.5-1.5-11.2-2.5-16.8-3.8c-5.8-1.3-11.3-3.4-15.3-8c-7.1-8.3-5-21.1,4.2-27.7C259,6,283.5,5.2,295,18.7
		c0.6,0.7,1.1,1.4,1.6,2c-2.8,2.8-5.5,5.4-7.7,7.6c-4.5-2.4-8.7-5.2-13.3-6.9c-5-1.9-10.4-1.4-15.5,0.3c-3.9,1.3-6.2,4.3-5.8,7.6
		c0.3,2.6,1.7,4.7,4.3,5.3c5.6,1.5,11.4,2.6,17,4.2c5,1.5,10.2,2.9,14.6,5.5C302,51,300.8,71,287.2,77.6
		c-11.6,5.6-34.5,5.2-45.4-5.7C240.6,70.6,239.5,69.3,238.1,67.9z"/>
</g>
</svg>
