<?xml version="1.0" encoding="utf-8"?>
<!-- Generator: Adobe Illustrator 24.2.0, SVG Export Plug-In . SVG Version: 6.00 Build 0)  -->
<svg version="1.1" id="Layer_1" xmlns="http://www.w3.org/2000/svg" xmlns:xlink="http://www.w3.org/1999/xlink" x="0px" y="0px"
	 viewBox="0 0 497.4 985.4" style="enable-background:new 0 0 497.4 985.4;" xml:space="preserve">
<style type="text/css">
	.st0{fill:none;}
	.st1{fill:#D6D5D5;}
	.st2{fill:#FFFFFF;}
	.st3{fill:#B4B4B4;}
</style>
<path class="st0" d="M298,45.5c-16.4,0-32.8,0-49.2,0c-16.2,0-32.4,0-48.7,0c16.2,0,32.4,0,48.7,0C265.3,45.5,281.7,45.5,298,45.5z"
	/>
<path class="st1" d="M440,985c9.3-0.8,18.5-2.2,26.8-6.8c15.4-8.4,25.3-21,28.6-38.4c1.4-7.4,2-15,2-22.5c0-282.8,0-565.6,0-848.4
	c0-9.5-0.4-19.2-3.4-28.3c-6.6-19.6-20-32.1-40.3-37C446.2,1.8,438.5,1,430.8,1c-1,0-8.4-0.5-9.3-0.5c-112.1,0-224.3,0-336.4,0
	C84.2,0.5,75.3,1,74.5,1c-7.1-0.1-14.1,0.3-21.1,1C40.7,3.4,29.2,7.4,19.6,16.1c-10.4,9.4-16.2,21-18,34.7C1.3,52.6,0.9,54.3,1,56
	c0.1,0.7-0.1,1.3-1,1.5c0,0.3,0,0.7,0,1c0.8,1.2,0.8,2.3,0,3.5c0,287.5,0,575,0,862.5c0.7,1,0.8,2,0,3c0,0.5,0,1,0,1.5
	c1.2,0.2,0.9,1.2,1,2c1,13.2,5.2,25.1,14.2,35.1c9.2,10.2,20.7,15.9,34.1,17.9c3,0.5,6,1.1,9.1,1c0.7,0,1.4,0.1,1.5,1
	c0.3,0,0.7,0,1,0c1.3-0.8,2.7-0.7,4,0c122.5,0,245,0,367.6,0c1.3-0.7,2.7-0.8,4,0c0.3,0,0.7,0,1,0C437.9,984.5,439.1,985.1,440,985z
	 M198,45.5c0.7-0.1,1.5,0,2.2,0c16.2,0,32.4,0,48.7,0c16.4,0,32.8,0,49.2,0c1.3,0,2.5,0,3.6,0.8c1.6,1.2,2.5,2.8,1.9,4.8
	c-0.5,1.9-1.9,3.1-3.9,3.4c-0.7,0.1-1.5,0-2.2,0c-32.4,0-64.9,0-97.3,0c-0.7,0-1.3,0-2,0c-2.4-0.2-4.2-2.2-4.3-4.4
	C193.8,47.8,195.6,45.8,198,45.5z M168,45.1c2.1-0.1,4.8,2.5,4.8,4.6c0,2.3-2.2,4.7-4.6,4.8c-2.6,0.1-4.8-2-4.8-4.7
	C163.4,47.5,165.7,45.1,168,45.1z M27.3,893c-0.6,0-1.2-0.1-1.7,0c-2,0.3-2.8-0.5-2.5-2.5c0.1-0.7,0-1.5,0-2.2
	c0-131.7,0-263.3,0-395c0-132,0-264,0-396c0-3.8,0-3.8,3.7-3.8c148.2,0,296.3,0,444.5,0c0.6,0,1.2,0.1,1.7,0c2-0.3,2.8,0.5,2.5,2.5
	c-0.1,0.6,0,1.2,0,1.7c0,263.7,0,527.3,0,791c0,0.6-0.1,1.2,0,1.7c0.3,2-0.5,2.8-2.5,2.5c-0.6-0.1-1.2,0-1.7,0
	C323.2,893,175.3,893,27.3,893z"/>
<path class="st2" d="M61,986c1.3,0,2.7,0,4,0C63.6,985.2,62.3,985.2,61,986z"/>
<path class="st2" d="M432.5,986c1.3,0,2.7,0,4,0C435.2,985.2,433.9,985.2,432.5,986z"/>
<path class="st2" d="M0,58.5c0,1.2,0,2.3,0,3.5C0.8,60.8,0.8,59.7,0,58.5z"/>
<path class="st2" d="M0,924.5c0,1,0,2,0,3C0.8,926.5,0.8,925.5,0,924.5z"/>
<path class="st3" d="M198.1,54.5c0.7,0.1,1.3,0,2,0c32.4,0,64.9,0,97.3,0c0.7,0,1.5,0.1,2.2,0c2-0.3,3.4-1.5,3.9-3.4
	c0.6-2-0.3-3.6-1.9-4.8c-1.1-0.8-2.3-0.8-3.6-0.8c-16.4,0-32.8,0-49.2,0c-16.2,0-32.4,0-48.7,0c-0.7,0-1.5,0-2.2,0
	c-2.3,0.2-4.2,2.3-4.2,4.5C193.8,52.3,195.7,54.3,198.1,54.5z"/>
<path class="st3" d="M168.2,54.5c2.3-0.1,4.6-2.5,4.6-4.8c0-2.2-2.6-4.7-4.8-4.6c-2.3,0.1-4.6,2.4-4.6,4.7
	C163.4,52.4,165.6,54.6,168.2,54.5z"/>
</svg>
