<?xml version="1.0" encoding="utf-8"?>
<!-- Generator: Adobe Illustrator 24.2.0, SVG Export Plug-In . SVG Version: 6.00 Build 0)  -->
<svg version="1.1" id="Layer_1" xmlns="http://www.w3.org/2000/svg" xmlns:xlink="http://www.w3.org/1999/xlink" x="0px" y="0px"
	 viewBox="0 0 403 328" style="enable-background:new 0 0 403 328;" xml:space="preserve">
<style type="text/css">
	.st0{fill:#5B777B;}
</style>
<path class="st0" d="M143.3,157.1c8.6-4.1,11.5-13.4,6.7-21.6c-7.8-13.3-33.1-30-44.8-13.2c-2.9,2-5.3,4.6-6.7,7.9
	c-3.7,9.2,4.9,18.2,12.3,22.3C119.8,157.4,133.5,161.8,143.3,157.1z M109.7,130.8c0.3,0,0.7,0,1.1-0.1c8.8-2,22-3.9,27.4,5.1
	c2.3,3.8,2.8,6.4,1.1,10.5c-2.1,5-4.1,3.6-9,2.8c-8-1.2-17.5-3.9-20.3-12.5C109.3,134.4,109.3,132.5,109.7,130.8z"/>
<path class="st0" d="M43.6,118.7c-11.9-8.1-29.7-6.6-35,8.2c-1,2.7,1.2,4.5,3.4,4.6c2.2,12.9,16.1,23.1,29.1,18.1
	C55.1,144.2,55.1,126.5,43.6,118.7z M20.2,132.1c-3.9-13.8,12.8-11,18.9-5.8c0.6,0.5,1.2,0.8,1.8,0.9c4.3,4.4,5.6,10.3-0.9,14.4
	C32.2,146.5,22.5,140.1,20.2,132.1z"/>
<path class="st0" d="M74.3,200.9c-2.5-3.4-6.4-7-10.8-9.5c-0.8-1-2.1-1.8-3.6-1.7c-3.2-1.2-6.5-1.8-9.6-1.1c-3.4,0.7-6.1,2.7-8,5.4
	c-3.3,1.5-5.6,4-5.5,9c0.2,9,10,20.3,17.2,24.8c2.7,1.7,5.7,2.7,8.6,2.8c6.7,1.8,13,0.1,16.3-7.8c2.6-6.2,1.3-12.3-2.1-17.3
	C76.2,203.9,75.4,202.3,74.3,200.9z M47.1,202.6c5.5-4.1,12.8-1.6,18,2.2c2,1.5,4.4,4.4,6,7.5c0,0,0,0,0,0.1
	c0.5,5.8-3.2,10.1-7.9,10.3c-5.8-1.6-11.9-7.8-14.6-12.2C47.1,207.8,46.6,205,47.1,202.6z"/>
<path class="st0" d="M128.7,221.3c-0.1,2.5,1.8,3.8,3.8,3.7c1.2,2.9,3.2,5.6,5.8,7.6c6.1,4.8,15.5,9,23.6,8
	c8.1,0.1,15.6-5.5,15.2-14.2C175.8,204.3,130.1,194.5,128.7,221.3z M151.9,227.8c-2-1.9-10.4-8.9-10.6-11.7c0.2-0.2,0.4-0.4,0.7-0.6
	c0.5-0.4,1.4-0.9,2.3-1.2c2.1,0,4.8,0.6,7.2,1.2c0.8,0.6,1.7,0.8,2.6,0.8c0.9,0.3,1.6,0.5,1.9,0.7c5.1,2,16.6,9.3,8.2,15
	c-0.6,0.4-1.3,0.7-2,0.9C158.7,232.8,154.6,230.3,151.9,227.8z"/>
<path class="st0" d="M160.9,285.1c-1.2-1-2.7-2-4.3-3.2c-0.2-1.8-1.4-3.4-3.7-3.5c-0.7,0-1.5-0.1-2.2-0.2c-7.2-4-15.6-6.6-21.5-1.6
	c-1.1,0.9-1.9,2-2.5,3.1c-10.6,6.4-4.6,20.6,2.5,28.3c1.2,1.3,2.6,1.4,3.8,1c3.7,3.8,7.9,7,11.6,9.1c8.3,4.8,21.6,8.3,27-2.5
	C177,304.4,169.6,291.9,160.9,285.1z M142,299.9c-2.2-2.4-4.2-5.1-5.8-7.9c-0.9-1.5-1.6-3.1-2.3-4.8c1.2-1.9,3.1-2.6,6-1.9
	c0.5-0.1,1-0.1,1.6-0.2c1.3,0.3,2.7,0.8,3.8,1.2c6.5,2.5,13.3,8.5,14.7,15.7c1.1,5.4-3.7,8.3-8.4,5.7
	C148,305.8,144.7,302.9,142,299.9z"/>
<path class="st0" d="M248.8,288.7c-1.6-4.2-4.6-7.3-8.3-9c-3.7-3.1-8-5.5-12.5-7.1c-2-0.7-4.3-1.3-6.7-1.6c-1.2-1.8-3.9-2.8-6.1-0.9
	c-0.2,0.2-0.4,0.4-0.7,0.7c-3.4,0.4-6.6,1.6-8.9,4.2c-5.9,6.9-0.2,15.2,5.5,19.9c0.4,0.3,0.8,0.6,1.2,0.9
	c3.9,6.5,10.3,12.2,16.7,15.4c6.7,3.4,16.1,5.5,21.3-1.6c4.3-5.9,2.2-13.8-1.2-19.7C249.1,289.5,249,289.1,248.8,288.7z M218.9,291
	c-0.3-0.2-0.6-0.4-1-0.7c-1.8-3.9-2.1-8.1,0.4-12c0.8,0,1.9,0.2,3.3,0.5c1.7,0.3,3.4,0.9,5,1.5c-1,2.5,1.1,6.2,4.6,5.4
	c1.8-0.4,3.5-0.2,5.1,0.3c2,1.8,3.9,3.8,5.4,6.1c-0.3,0.8-1,1.5-2.2,2.3c-1.2,3.1-3.3,3.8-6.3,2.3
	C228.1,295.8,223.2,293.8,218.9,291z M238.6,306.5c-1.6,0.4-3.7-0.8-5.6-1.9c1.8,0.3,3.6,0.4,5.4,0.4c1,0,1.9-0.1,2.7-0.3
	C240.2,305.3,239.4,305.9,238.6,306.5z"/>
<path class="st0" d="M313.7,228.2c-6.2-4.8-18.3-11.7-26.1-7.2c-7.8,4.5-5.3,14.4-0.9,20.4c2.8,3.9,6.4,7.2,10.4,10
	c3.7,3.6,8.2,6.5,12.8,8.5c5.9,2.5,13.3,3,16.7-1.8c2.4-1.3,4.2-3.5,4.2-7C331,242.9,321.4,232.4,313.7,228.2z M317.9,251.8
	c-4.3,0.6-10.1-2.4-14.4-5.2c-2.5-2.7-4.6-6-7.2-8.4c2.6-6.3,9.6-5.2,14.5-2.4c3.4,3.4,6.2,7.1,7.7,9.9c1.1,2.1,1.3,4.3,0.6,5.8
	C318.8,251.6,318.4,251.7,317.9,251.8z M294.5,227.6c0.8-0.1,1.5-0.1,2.3,0c-0.5,0.2-0.9,0.5-1.4,0.8c-0.9-0.3-1.7-0.5-2.4-0.5
	C293.5,227.8,294,227.7,294.5,227.6z"/>
<path class="st0" d="M220.7,204.2c2.6,1,5.6,1.7,8.7,1.8c22.4,5.4,16-29.4,0.9-35.3c-1.8-0.7-3.2,0-4,1.3
	c-10.7-8.1-27.1-16.8-29.7-2.9c-0.8,4.2,0.8,8.6,3.2,12.6c0.1,1.5,0.4,3,1.1,4.6C204.3,193.9,213.1,201.1,220.7,204.2z M214.4,173
	c5.1,2.6,29.7,21.9,15.7,25.1c-0.3,0.1-0.6,0.1-0.9,0.1c-4.3-1.8-10.2-6.5-11.7-7.8c-3.4-2.9-6.4-6.2-8.9-9.9
	c-0.1-4.1,1.9-5.7,4.8-8.1C213.8,172.7,214.1,172.9,214.4,173z"/>
<path class="st0" d="M224.3,94.2c-7.6-7.8-20.9-10-30.7-5.6c-6.2,2.8-12.9,9.2-13.9,16.4c-1.4,2.7-1.8,5.8-0.4,9.6
	c3.6,9.9,14.8,19.3,25.1,20.9C224.9,138.6,238.2,108.5,224.3,94.2z M211.4,123.9c-6,0-14.4-6.4-19-10.3c2.7-6.5,9.4-11,16.6-8.7
	C217.1,107.4,224.6,124,211.4,123.9z M220.8,103.7c-3.1-3.4-7.4-5.9-11.9-6.8c-3.2-0.6-6.3-0.4-9.2,0.4c-0.4-0.9-1-1.7-1.9-2.2
	c0.4-0.1,0.8-0.3,1.2-0.4C207,92.5,218,95.4,220.8,103.7z"/>
<path class="st0" d="M99.5,64.5C98,55.3,89.8,48.2,81,46.1c-8.9-2.1-18.4,1.4-22.9,9.6c-2,3.7-2.4,7.5-1.7,11.1
	c-2,4-2.4,8.4,0.9,12.7c4.1,5.4,12.7,7.5,20.2,7.3c5.2,1.5,10.6,1.2,15.2-2.7c3.1-2.6,4.7-5.8,5.2-9.2
	C99.5,71.8,100.1,68.2,99.5,64.5z M84.2,55.7c2.5,1.5,4.4,3.4,5.6,5.5c-1.9,1.2-3,4-1.2,6.3c1.1,1.4,1.7,3,1.8,4.7
	c-1.5,3.1-4.6,5.6-9.3,6.5c-0.7,0.1-1.5,0.2-2.3,0.3c-0.4-0.2-0.9-0.3-1.3-0.5c-4.5-1.8-9.5-5.2-12.1-9.4c-0.3-0.5-0.5-1-0.7-1.6
	c0.3-0.3,0.6-0.6,0.9-0.8c1.4-1.5,3-2.7,4.6-4c3.1-2.4,0.3-6.3-2.9-6.3c0.5-0.4,1-0.8,1.5-1.2C73.4,52.1,79.6,53,84.2,55.7z"/>
<path class="st0" d="M144.3,26c0.4,9,5.3,18.3,13.4,22.1c7,3.3,14.1,2,19.8-1.8c5.1-0.9,9.4-3.9,11.8-9.7c1.9-4.6,1.6-9.7-0.1-14.2
	c-0.4-3-1.5-6-3.4-8.7c-4.8-6.9-15.7-9.5-25.2-7.9c-0.4-0.1-0.7-0.1-1.2,0c-3.7,0.5-6.6,1.9-8.9,3.8c-4.8,3.2-7.8,8.3-6.5,15.2
	C144.1,25.2,144.2,25.6,144.3,26z M157.7,31.6c-2.5-2.2-4.6-4.1-5.3-6.7c1.7,0.9,3.9,0.8,5.2-1.3c3.7-6.2,11.7-9.5,18.3-5.7
	c2.2,1.2,4,3.3,5.3,5.8c0.3,5.2-2,11.3-5.7,15.1C169,40.2,162.4,35.7,157.7,31.6z"/>
<path class="st0" d="M270.7,63.4c4-3.7,6.2-9.2,4.4-16.1c-2.9-11.2-15.7-16.3-26.3-14c-5.8-0.1-11.2,2.1-13,8.7
	c-0.2,0.7-0.3,1.4-0.4,2.1c-6,15.1,9.6,34,25.8,27.8C265.1,70.5,268.3,67.3,270.7,63.4z M247.6,41.3c1.2-0.3,2.8-0.3,4.6,0.1
	c0.7,0.2,1.3,0.1,1.9-0.1c-0.8,2.4,0.3,5.3,3.4,4.9c2-0.3,4.8-0.8,6.7-0.1c3.8,1.4,2.8,5.5,1.7,8.7c-0.4,1.3-1,2.6-1.6,3.9
	c-1.2,1-2.7,1.8-4.3,2.2c-5.6,1.4-11.1-1.5-14.2-6c-2.4-3.5-3.3-7.8-2-10.7C244.8,43.1,246,42.1,247.6,41.3z"/>
<path class="st0" d="M349.1,102.5c7.1,0,15.7-1.5,19.7-6.7c4.4-5.8-0.8-13-5.6-16.6c-0.9-0.7-2-1.3-3.2-1.9
	c-1.9-1.8-4.2-3.2-6.7-4.2c-7.3-2.8-15.3-2.5-22,1c-6.3,2-10.6,8.6-8.4,15.3c2.6,8,13.3,11.8,20.8,12.8c0.6,0.1,1.2,0.1,1.9,0.2
	C346.7,102.5,347.9,102.5,349.1,102.5z M340,92c-2.8-2.1-5.2-7.4-2.4-10.7c1.3-1.6,5.9-1.1,7.6-0.9c2.3,0.3,7.1,1.9,11,4
	c0.8,1.3,1,2.9,0.5,4.8c-1,3.7-3.9,5.2-7.2,5.5c-0.8,0-1.7,0-2.5-0.1C344.4,94.4,341.8,93.4,340,92z"/>
<path class="st0" d="M305.6,138.6c4-4.9,6.6-10.9,4.2-16.4c-2.3-5.4-8.3-7.4-14.8-7.7c-2.9-0.6-6-0.8-9.2-0.6
	c-4.5-1.4-8.4-0.3-11.4,2.1c-5.5,1.8-10.2,4.5-12.8,7.8c-6.1,7.7-3.6,17.1,4.5,22c0.5,0.3,1.1,0.6,1.7,0.8c0.6,1.5,1.3,2.9,2.1,4.1
	C281.2,166.6,299,152.5,305.6,138.6z M274,139.2c-0.4-3.8,0.3-11.4,3.2-15.4c0.8,0.7,2,1,3.3,0.5c1.6-0.5,3.8-1.2,6.1-1.6
	c1.3,0.5,2.5,0.2,3.4-0.5c0.3,0,0.6,0,0.9-0.1c3.9,0.5,8.3,2.2,9.4,6.4c0.4,1.4,0,3.2-0.7,5.1c-2.4,3.3-6.6,6-9.5,7.1
	c-5,1.9-10.9,2-15.9,0.3C274.2,140.4,274.1,139.8,274,139.2z M266.6,131.9c-0.1,0.7-0.2,1.4-0.3,2.1
	C266.2,133.3,266.4,132.6,266.6,131.9z"/>
<path class="st0" d="M393.6,187.8c-4.8-20.5-36.1-27.6-47.5-8.7c-1.7,2.8,0.6,5.3,3.1,5.7c0.5,3.4,2.1,6.7,4.2,9.4
	c2.3,2.9,5.3,5.6,8.6,7.9c4.4,7.8,12.4,13.5,21.5,12.1c8.5-1.3,13.6-8.8,12.8-17.2C396.1,193.7,395.1,190.6,393.6,187.8z M367.7,182
	c1.6-2,0.8-4.5-0.7-5.8c7,1,14.4,7.1,18.4,13.2c3.4,11.9-10.7,11.1-17.7,6.9C365.5,191.6,364.7,185.9,367.7,182z M360.5,176.9
	c0.6-0.3,1.3-0.5,2-0.6c-0.1,0.1-0.2,0.2-0.3,0.3c-2.5,3.2-3.8,7.1-3.9,11.1C355.5,183.8,354.6,179.4,360.5,176.9z"/>
</svg>
