<?xml version="1.0" encoding="utf-8"?>
<!-- Generator: Adobe Illustrator 24.2.0, SVG Export Plug-In . SVG Version: 6.00 Build 0)  -->
<svg version="1.1" id="Layer_1" xmlns="http://www.w3.org/2000/svg" xmlns:xlink="http://www.w3.org/1999/xlink" x="0px" y="0px"
	 viewBox="0 0 388.9 396" style="enable-background:new 0 0 388.9 396;" xml:space="preserve">
<style type="text/css">
	.st0{fill:#AEAC92;}
</style>
<g>
	<path class="st0" d="M69.3,14.7L56.1,33.7c-2.3,3.3,3.1,6.5,5.4,3.2l13.2-18.9C77.1,14.6,71.6,11.4,69.3,14.7z"/>
	<path class="st0" d="M72.8,30.3c-4.3,4.2-7.8,9.2-10.3,14.8c-1.6,3.7,3.8,6.9,5.4,3.2c2.3-5.1,5.3-9.6,9.3-13.5
		C80.1,31.9,75.7,27.5,72.8,30.3z"/>
	<path class="st0" d="M89.9,18.4L74.8,39.2c-2.4,3.3,3.1,6.4,5.4,3.2c5-7,10.1-13.9,15.1-20.9C97.7,18.2,92.3,15.1,89.9,18.4z"/>
	<path class="st0" d="M83.7,5.8c-2.5,4.4-5,8.9-7.5,13.3c-2,3.5,3.5,6.7,5.4,3.2L89.1,9C91.1,5.5,85.7,2.3,83.7,5.8z"/>
	<path class="st0" d="M98,26.5C92.8,34.7,87.6,43,82.7,51.4c-2.1,3.5,3.4,6.7,5.4,3.2c5-8.4,10.1-16.7,15.3-24.9
		C105.6,26.3,100.2,23.1,98,26.5z"/>
	<path class="st0" d="M112.7,24.7c-4.2,7.6-7.8,15.4-10.8,23.6c-1.4,3.8,4.7,5.5,6.1,1.7c2.8-7.6,6.2-15,10.2-22.1
		C120.1,24.4,114.7,21.2,112.7,24.7z"/>
	<path class="st0" d="M133.5,99.8c-6.4,9.6-12.2,19.5-17.6,29.7c-1.9,3.6,3.6,6.8,5.4,3.2c5.4-10.2,11.2-20.1,17.6-29.7
		C141.2,99.6,135.8,96.4,133.5,99.8z"/>
	<path class="st0" d="M150,96.1c-5.4,11.2-10.8,22.4-16.2,33.5c-1.8,3.6,3.7,6.8,5.4,3.2c5.4-11.2,10.8-22.4,16.2-33.5
		C157.2,95.6,151.7,92.4,150,96.1z"/>
	<path class="st0" d="M158.6,116.1c-4.6,5.5-8.5,11.4-11.6,17.9c-0.6,1.3-0.3,2.5,0.4,3.4c-1.4-1-3.4-1.1-4.3,0.9
		c-2.2,5.1-4.5,10.2-6.7,15.2c-1.6,3.7,3.8,6.9,5.4,3.2c2.2-5.1,4.5-10.2,6.7-15.2c0.6-1.3,0.3-2.5-0.5-3.4c1.4,1,3.4,1.1,4.4-0.9
		c2.8-6,6.3-11.5,10.6-16.6C165.6,117.5,161.2,113,158.6,116.1z"/>
	<path class="st0" d="M123.8,136c-0.9,3.2-2.2,6-4,8.8c-2.2,3.4,3.2,6.6,5.4,3.2c2.1-3.2,3.6-6.6,4.6-10.3
		C131,133.7,124.9,132.1,123.8,136z"/>
	<path class="st0" d="M172.8,129c-2.7,4.8-5.5,9.7-8.2,14.5c-2,3.5,3.4,6.7,5.4,3.2c2.7-4.8,5.5-9.7,8.2-14.5
		C180.3,128.6,174.8,125.4,172.8,129z"/>
	<path class="st0" d="M188.4,30c-1.4-0.8-3.6-0.4-4.3,1.1c-1.3,2.5-2.5,5-3.8,7.6c-0.8,1.5-0.4,3.4,1.1,4.3c1.4,0.8,3.6,0.4,4.3-1.1
		c1.3-2.5,2.5-5,3.8-7.6C190.3,32.8,189.9,30.9,188.4,30z"/>
	<path class="st0" d="M196.5,30.3c-3.2,4.8-5.7,10-7.5,15.5c-1.2,3.9,4.8,5.5,6.1,1.7c1.6-5,3.9-9.6,6.8-14
		C204.2,30.1,198.7,26.9,196.5,30.3z"/>
	<path class="st0" d="M211.8,22.2c-3.3,6.8-6.5,13.6-9.8,20.3c-1.8,3.6,3.7,6.8,5.4,3.2c3.3-6.8,6.5-13.6,9.8-20.3
		C219,21.8,213.5,18.6,211.8,22.2z"/>
	<path class="st0" d="M196.8,10.9c-1.7,3.4-3.4,6.7-5,10.1c-1.8,3.6,3.6,6.8,5.4,3.2c1.7-3.4,3.4-6.7,5-10.1
		C204,10.5,198.6,7.3,196.8,10.9z"/>
	<path class="st0" d="M182.8,12.2c-5.1,8.8-9.7,17.9-13.8,27.2c-1.6,3.7,3.8,6.9,5.4,3.2c4.1-9.3,8.7-18.4,13.8-27.2
		C190.3,11.8,184.8,8.6,182.8,12.2z"/>
	<path class="st0" d="M213.3,40.1c-3.2,5-6.5,10-9.7,15c-2.2,3.4,3.3,6.6,5.4,3.2c3.2-5,6.5-10,9.7-15
		C221,39.8,215.5,36.7,213.3,40.1z"/>
	<path class="st0" d="M191.5,55c-1.3-1.3-3.1-1.1-4.5,0c-2.7,2.2-4.2,5.8-4,9.3c0.1,1.7,1.4,3.2,3.2,3.2c1.6,0,3.3-1.4,3.2-3.2
		c-0.1-2,0.6-3.5,2.1-4.8C192.9,58.4,192.7,56.1,191.5,55z"/>
	<path class="st0" d="M14.4,101.8c-3,6.2-5.6,12.6-7.8,19.1c-1.3,3.8,4.8,5.5,6.1,1.7c2.1-6,4.4-11.8,7.2-17.6
		C21.6,101.3,16.1,98.1,14.4,101.8z"/>
	<path class="st0" d="M25.5,101.7c-2.8,6.6-5.6,13.2-8.4,19.7c-1.6,3.7,3.9,6.9,5.4,3.2c2.8-6.6,5.6-13.2,8.4-19.7
		C32.5,101.2,27,97.9,25.5,101.7z"/>
	<path class="st0" d="M44.4,89.3c-1.2,5.2-2.9,10.2-5,15.2c-1.6,3.7,4.5,5.4,6.1,1.7c2.1-4.9,3.7-10,5-15.2
		C51.4,87,45.3,85.3,44.4,89.3z"/>
	<path class="st0" d="M30.8,123.2c-2.7,5.9-5.4,11.8-8.1,17.7c-1.7,3.7,3.8,6.9,5.4,3.2c2.7-5.9,5.4-11.8,8.1-17.7
		C37.9,122.7,32.4,119.5,30.8,123.2z"/>
	<path class="st0" d="M28.9,84.1c-1.7,2.7-2.9,5.8-3.5,9c-0.3,1.7,0.4,3.4,2.2,3.9c1.5,0.4,3.6-0.5,3.9-2.2c0.5-2.7,1.4-5.1,2.8-7.4
		C36.6,83.9,31.1,80.7,28.9,84.1z"/>
	<path class="st0" d="M50.6,109.5c-2.5,7.4-5,14.7-7.5,22.1c-1.3,3.9,4.8,5.5,6.1,1.7c2.5-7.4,5-14.7,7.5-22.1
		C58,107.3,51.9,105.6,50.6,109.5z"/>
	<path class="st0" d="M61.7,180c-2.9,6.5-6.4,12.6-10.7,18.3c-2.4,3.3,3,6.4,5.4,3.2c4.3-5.7,7.8-11.8,10.7-18.3
		C68.8,179.5,63.3,176.3,61.7,180z"/>
	<path class="st0" d="M80.6,173.7c-3.4,7.4-7.1,14.5-11.3,21.5c-2.1,3.5,3.4,6.7,5.4,3.2c4.1-7,7.9-14.1,11.3-21.5
		C87.8,173.2,82.3,170,80.6,173.7z"/>
	<path class="st0" d="M89.6,190.2l-12,17.6c-2.3,3.4,3.2,6.5,5.4,3.2l12-17.6C97.3,190,91.9,186.9,89.6,190.2z"/>
	<path class="st0" d="M57.6,207.6c-3.2,3.8-5.6,8.1-6.9,12.9c-1.1,3.9,5,5.6,6.1,1.7c1-3.7,2.7-7.2,5.2-10.1
		C64.7,209,60.3,204.5,57.6,207.6z"/>
	<path class="st0" d="M75.4,221.7c-1-1.5-2.8-2-4.3-1.1c-2.3,1.3-4.3,3.2-5.6,5.5c-0.8,1.4-0.4,3.5,1.1,4.3c1.5,0.8,3.4,0.4,4.3-1.1
		c0.1-0.2,0.2-0.4,0.4-0.6c0.1-0.1,0.1-0.2,0.2-0.3c0.3-0.3,0.6-0.7,0.9-1c0.1-0.1,0.3-0.3,0.4-0.4c0.1-0.1,0.1-0.1,0.1-0.1
		c0,0,0,0,0,0c0.4-0.3,0.9-0.6,1.4-0.8C75.7,225.2,76.3,223.1,75.4,221.7z"/>
	<path class="st0" d="M95.1,212.4c-6,4.6-10.4,10.4-13,17.5c-1.4,3.8,4.7,5.5,6.1,1.7c2-5.4,5.5-10.3,10.1-13.8
		C101.5,215.4,98.3,210,95.1,212.4z"/>
	<path class="st0" d="M188.2,186.2l-8.3,16.7c-1.8,3.6,3.6,6.8,5.4,3.2c2.8-5.6,5.6-11.1,8.3-16.7
		C195.5,185.7,190,182.5,188.2,186.2z"/>
	<path class="st0" d="M204.8,178.9c-1.6,6.5-4.5,12.3-8.6,17.6c-2.5,3.2,3,6.4,5.4,3.2c4.4-5.7,7.4-12.1,9.2-19.1
		C211.9,176.7,205.8,175,204.8,178.9z"/>
	<path class="st0" d="M199,205.1c-1.8-0.5-3.3,0.6-3.9,2.2c-1.2,3.2-2.4,6.4-3.6,9.5c-0.6,1.6,0.7,3.5,2.2,3.9
		c1.8,0.5,3.3-0.6,3.9-2.2c1.2-3.2,2.4-6.4,3.6-9.5C201.8,207.4,200.6,205.5,199,205.1z"/>
	<path class="st0" d="M222,185.1c-6.6,10.4-12.7,21.2-18.3,32.2c-1.8,3.6,3.6,6.8,5.4,3.2c5.5-11,11.6-21.8,18.3-32.2
		C229.6,184.8,224.1,181.7,222,185.1z"/>
	<path class="st0" d="M229.3,195.3c-2.4,6-5.5,11.6-9.1,17c-2.3,3.4,3.2,6.5,5.4,3.2c3.9-5.8,7.1-12,9.7-18.5
		C236.8,193.2,230.7,191.6,229.3,195.3z"/>
	<path class="st0" d="M246.9,91.8c-2.7,6.5-5.5,13-8.2,19.6c-1.6,3.7,4.5,5.4,6.1,1.7c2.7-6.5,5.5-13,8.2-19.6
		C254.6,89.8,248.5,88.2,246.9,91.8z"/>
	<path class="st0" d="M257.9,99.2c-3.8,7.4-7.5,14.8-11.3,22.1c-1.8,3.6,3.6,6.8,5.4,3.2c3.8-7.4,7.5-14.8,11.3-22.1
		C265.2,98.8,259.7,95.6,257.9,99.2z"/>
	<path class="st0" d="M276.5,93.7c-2.2,6.4-4.8,12.7-7.8,18.9c-1.8,3.6,3.7,6.8,5.4,3.2c3.2-6.6,6-13.4,8.4-20.4
		C283.9,91.5,277.8,89.9,276.5,93.7z"/>
	<path class="st0" d="M255.2,123.4c-1.1,5.9-2.8,11.5-5.5,16.9c-1.8,3.6,3.7,6.8,5.4,3.2c2.9-5.9,5-12,6.1-18.4
		C262,121.1,255.9,119.4,255.2,123.4z"/>
	<path class="st0" d="M280.7,120.3c-2.4,8.5-5.6,16.5-9.7,24.3c-1.9,3.6,3.5,6.8,5.4,3.2c4.4-8.2,7.8-16.8,10.3-25.8
		C287.8,118.1,281.8,116.4,280.7,120.3z"/>
	<path class="st0" d="M297.5,110.2c-1.9,5.5-3.8,10.9-5.7,16.4c-1.3,3.8,4.8,5.5,6.1,1.7c1.9-5.5,3.8-10.9,5.7-16.4
		C304.9,108,298.8,106.3,297.5,110.2z"/>
	<path class="st0" d="M271.6,77.6c-1.8-0.5-3.2,0.6-3.9,2.2c-1.7,4.2-2.7,8.4-3.3,12.8c-0.2,1.7,1.6,3.1,3.2,3.2
		c1.9,0,2.9-1.5,3.2-3.2c0.5-3.8,1.6-7.6,3.1-11.1C274.5,79.9,273.1,78.1,271.6,77.6z"/>
	<path class="st0" d="M312.5,27.1c0,5.1-0.8,10.1-2.5,14.9c-1.3,3.8,4.8,5.5,6.1,1.7c1.8-5.4,2.7-10.9,2.7-16.6
		C318.8,23,312.5,23,312.5,27.1z"/>
	<g>
		<path class="st0" d="M337.8,16.6C337.8,16.6,337.8,16.6,337.8,16.6c0.1-0.6,0.3-0.8,0.3-0.6c0.1-0.3,0.2-0.7,0.1-1
			c-0.1-0.7-0.1-1.1-0.5-1.7c-0.8-1.3-2.9-2.2-4.3-1.1c-1.9,1.3-2.1,3.9-2.5,6c-0.5,2.4-1,4.9-1.4,7.3c-0.3,1.7,0.4,3.4,2.2,3.9
			c1.5,0.4,3.6-0.5,3.9-2.2c0.3-2.1,0.8-4.1,1.2-6.2c0.2-1.1,0.5-2.2,0.7-3.3c0.1-0.4,0.2-0.7,0.3-1.1c0.1-0.2,0.2-0.4,0.3-0.6
			C338.1,16.3,338,16.4,337.8,16.6z"/>
		<path class="st0" d="M338.1,16.1C338.1,16.1,338.1,16.1,338.1,16.1C338.1,16.1,338.1,16.1,338.1,16.1z"/>
	</g>
	<path class="st0" d="M325.8,38.2c-2.3,6.3-4.6,12.6-6.9,19c-1.4,3.8,4.7,5.5,6.1,1.7c2.3-6.3,4.6-12.6,6.9-19
		C333.3,36.1,327.2,34.4,325.8,38.2z"/>
	<path class="st0" d="M340.5,39.3c-2.2,4.8-3.5,9.7-4.1,14.9c-0.4,4,5.9,4,6.3,0c0.4-4,1.6-8,3.2-11.7
		C347.6,38.8,342.2,35.6,340.5,39.3z"/>
	<path class="st0" d="M351.9,17.9c-1.9,3.2-3.4,6.7-4.6,10.3c-1.3,3.9,4.8,5.5,6.1,1.7c1-3.1,2.4-6,4-8.7
		C359.4,17.5,354,14.4,351.9,17.9z"/>
	<path class="st0" d="M358.2,30.7c-2.2,8.4-4.4,16.8-6.6,25.2c-1,3.9,5.1,5.6,6.1,1.7c2.2-8.4,4.4-16.8,6.6-25.2
		C365.3,28.5,359.3,26.8,358.2,30.7z"/>
	<path class="st0" d="M371.5,27.6c-3.1,8.6-6.2,17.1-9.3,25.7c-1.4,3.8,4.7,5.5,6.1,1.7c3.1-8.6,6.2-17.1,9.3-25.7
		C379,25.5,372.9,23.8,371.5,27.6z"/>
	<path class="st0" d="M327.2,161.7c-5.6,8.7-11.2,17.3-16.8,26c-2.2,3.4,3.2,6.6,5.4,3.2c5.6-8.7,11.2-17.3,16.8-26
		C334.9,161.4,329.4,158.3,327.2,161.7z"/>
	<path class="st0" d="M347.7,152.3c-4,7.8-8,15.6-12,23.3c-1.9,3.6,3.6,6.8,5.4,3.2c4-7.8,8-15.6,12-23.3
		C355,151.9,349.5,148.7,347.7,152.3z"/>
	<path class="st0" d="M327.8,181.2c-2.4,5.6-4.3,11.3-5.7,17.2c-0.9,3.9,5.2,5.6,6.1,1.7c1.3-5.4,2.9-10.7,5.1-15.7
		C334.9,180.7,329.4,177.5,327.8,181.2z"/>
	<path class="st0" d="M351.7,172.6c-2.7,7.3-6.2,14.1-10.5,20.7c-2.2,3.4,3.2,6.6,5.4,3.2c4.5-7,8.2-14.4,11.1-22.2
		C359.2,170.5,353.1,168.8,351.7,172.6z"/>
	<path class="st0" d="M368.9,168.6c-4.1,7.4-7.8,15-11.2,22.8c-1.6,3.7,3.8,6.9,5.4,3.2c3.4-7.8,7.1-15.4,11.2-22.8
		C376.4,168.3,370.9,165.1,368.9,168.6z"/>
	<path class="st0" d="M352.5,200.3c-2.9,3.1-4.9,6.7-5.9,10.8c-1,3.9,5.1,5.6,6.1,1.7c0.8-3,2.2-5.7,4.3-8
		C359.7,201.7,355.3,197.3,352.5,200.3z"/>
	<path class="st0" d="M133.5,256.2c-6.4,9.6-12.2,19.5-17.6,29.7c-1.9,3.6,3.6,6.8,5.4,3.2c5.4-10.2,11.2-20.1,17.6-29.7
		C141.2,256,135.8,252.8,133.5,256.2z"/>
	<path class="st0" d="M150,252.5c-5.4,11.2-10.8,22.4-16.2,33.5c-1.8,3.6,3.7,6.8,5.4,3.2c5.4-11.2,10.8-22.4,16.2-33.5
		C157.2,252,151.7,248.8,150,252.5z"/>
	<path class="st0" d="M158.6,272.5c-4.6,5.5-8.5,11.4-11.6,17.9c-0.6,1.3-0.3,2.5,0.4,3.4c-1.4-1-3.4-1.1-4.3,0.9
		c-2.2,5.1-4.5,10.2-6.7,15.2c-1.6,3.7,3.8,6.9,5.4,3.2c2.2-5.1,4.5-10.2,6.7-15.2c0.6-1.3,0.3-2.5-0.5-3.4c1.4,1,3.4,1.1,4.4-0.9
		c2.8-6,6.3-11.5,10.6-16.6C165.6,273.9,161.2,269.4,158.6,272.5z"/>
	<path class="st0" d="M123.8,292.4c-0.9,3.2-2.2,6-4,8.8c-2.2,3.4,3.2,6.6,5.4,3.2c2.1-3.2,3.6-6.6,4.6-10.3
		C131,290.1,124.9,288.5,123.8,292.4z"/>
	<path class="st0" d="M172.8,285.4c-2.7,4.8-5.5,9.7-8.2,14.5c-2,3.5,3.4,6.7,5.4,3.2c2.7-4.8,5.5-9.7,8.2-14.5
		C180.3,285,174.8,281.8,172.8,285.4z"/>
	<path class="st0" d="M14.4,258.2c-3,6.2-5.6,12.6-7.8,19.1c-1.3,3.8,4.8,5.5,6.1,1.7c2.1-6,4.4-11.8,7.2-17.6
		C21.6,257.7,16.1,254.5,14.4,258.2z"/>
	<path class="st0" d="M25.5,258.1c-2.8,6.6-5.6,13.2-8.4,19.7c-1.6,3.7,3.9,6.9,5.4,3.2c2.8-6.6,5.6-13.2,8.4-19.7
		C32.5,257.5,27,254.3,25.5,258.1z"/>
	<path class="st0" d="M44.4,245.7c-1.2,5.2-2.9,10.2-5,15.2c-1.6,3.7,4.5,5.4,6.1,1.7c2.1-4.9,3.7-10,5-15.2
		C51.4,243.4,45.3,241.7,44.4,245.7z"/>
	<path class="st0" d="M30.8,279.6c-2.7,5.9-5.4,11.8-8.1,17.7c-1.7,3.7,3.8,6.9,5.4,3.2c2.7-5.9,5.4-11.8,8.1-17.7
		C37.9,279.1,32.4,275.9,30.8,279.6z"/>
	<path class="st0" d="M28.9,240.5c-1.7,2.7-2.9,5.8-3.5,9c-0.3,1.7,0.4,3.4,2.2,3.9c1.5,0.4,3.6-0.5,3.9-2.2
		c0.5-2.7,1.4-5.1,2.8-7.4C36.6,240.3,31.1,237.1,28.9,240.5z"/>
	<path class="st0" d="M50.6,265.8c-2.5,7.4-5,14.7-7.5,22.1c-1.3,3.9,4.8,5.5,6.1,1.7c2.5-7.4,5-14.7,7.5-22.1
		C58,263.7,51.9,262,50.6,265.8z"/>
	<path class="st0" d="M61.7,336.4c-2.9,6.5-6.4,12.6-10.7,18.3c-2.4,3.3,3,6.4,5.4,3.2c4.3-5.7,7.8-11.8,10.7-18.3
		C68.8,335.9,63.3,332.7,61.7,336.4z"/>
	<path class="st0" d="M80.6,330.1c-3.4,7.4-7.1,14.5-11.3,21.5c-2.1,3.5,3.4,6.7,5.4,3.2c4.1-7,7.9-14.1,11.3-21.5
		C87.8,329.6,82.3,326.4,80.6,330.1z"/>
	<path class="st0" d="M89.6,346.6l-12,17.6c-2.3,3.4,3.2,6.5,5.4,3.2l12-17.6C97.3,346.4,91.9,343.2,89.6,346.6z"/>
	<path class="st0" d="M57.6,364c-3.2,3.8-5.6,8.1-6.9,12.9c-1.1,3.9,5,5.6,6.1,1.7c1-3.7,2.7-7.2,5.2-10.1
		C64.7,365.4,60.3,360.9,57.6,364z"/>
	<path class="st0" d="M75.4,378.1c-1-1.5-2.8-2-4.3-1.1c-2.3,1.3-4.3,3.2-5.6,5.5c-0.8,1.4-0.4,3.5,1.1,4.3c1.5,0.8,3.4,0.4,4.3-1.1
		c0.1-0.2,0.2-0.4,0.4-0.6c0.1-0.1,0.1-0.2,0.2-0.3c0.3-0.3,0.6-0.7,0.9-1c0.1-0.1,0.3-0.3,0.4-0.4c0.1-0.1,0.1-0.1,0.1-0.1
		c0,0,0,0,0,0c0.4-0.3,0.9-0.6,1.4-0.8C75.7,381.6,76.3,379.5,75.4,378.1z"/>
	<path class="st0" d="M95.1,368.8c-6,4.6-10.4,10.4-13,17.5c-1.4,3.8,4.7,5.5,6.1,1.7c2-5.4,5.5-10.3,10.1-13.8
		C101.5,371.8,98.3,366.3,95.1,368.8z"/>
	<path class="st0" d="M188.2,342.6l-8.3,16.7c-1.8,3.6,3.6,6.8,5.4,3.2c2.8-5.6,5.6-11.1,8.3-16.7
		C195.5,342.1,190,338.9,188.2,342.6z"/>
	<path class="st0" d="M204.8,335.3c-1.6,6.5-4.5,12.3-8.6,17.6c-2.5,3.2,3,6.4,5.4,3.2c4.4-5.7,7.4-12.1,9.2-19.1
		C211.9,333.1,205.8,331.4,204.8,335.3z"/>
	<path class="st0" d="M199,361.5c-1.8-0.5-3.3,0.6-3.9,2.2c-1.2,3.2-2.4,6.4-3.6,9.5c-0.6,1.6,0.7,3.5,2.2,3.9
		c1.8,0.5,3.3-0.6,3.9-2.2c1.2-3.2,2.4-6.4,3.6-9.5C201.8,363.7,200.6,361.9,199,361.5z"/>
	<path class="st0" d="M222,341.5c-6.6,10.4-12.7,21.2-18.3,32.2c-1.8,3.6,3.6,6.8,5.4,3.2c5.5-11,11.6-21.8,18.3-32.2
		C229.6,341.2,224.1,338,222,341.5z"/>
	<path class="st0" d="M229.3,351.7c-2.4,6-5.5,11.6-9.1,17c-2.3,3.4,3.2,6.5,5.4,3.2c3.9-5.8,7.1-12,9.7-18.5
		C236.8,349.6,230.7,348,229.3,351.7z"/>
	<path class="st0" d="M246.9,248.2c-2.7,6.5-5.5,13-8.2,19.6c-1.6,3.7,4.5,5.4,6.1,1.7c2.7-6.5,5.5-13,8.2-19.6
		C254.6,246.2,248.5,244.5,246.9,248.2z"/>
	<path class="st0" d="M257.9,255.6c-3.8,7.4-7.5,14.8-11.3,22.1c-1.8,3.6,3.6,6.8,5.4,3.2c3.8-7.4,7.5-14.8,11.3-22.1
		C265.2,255.2,259.7,252,257.9,255.6z"/>
	<path class="st0" d="M276.5,250.1c-2.2,6.4-4.8,12.7-7.8,18.9c-1.8,3.6,3.7,6.8,5.4,3.2c3.2-6.6,6-13.4,8.4-20.4
		C283.9,247.9,277.8,246.3,276.5,250.1z"/>
	<path class="st0" d="M255.2,279.8c-1.1,5.9-2.8,11.5-5.5,16.9c-1.8,3.6,3.7,6.8,5.4,3.2c2.9-5.9,5-12,6.1-18.4
		C262,277.5,255.9,275.8,255.2,279.8z"/>
	<path class="st0" d="M280.7,276.7c-2.4,8.5-5.6,16.5-9.7,24.3c-1.9,3.6,3.5,6.8,5.4,3.2c4.4-8.2,7.8-16.8,10.3-25.8
		C287.8,274.5,281.8,272.8,280.7,276.7z"/>
	<path class="st0" d="M297.5,266.5c-1.9,5.5-3.8,10.9-5.7,16.4c-1.3,3.8,4.8,5.5,6.1,1.7c1.9-5.5,3.8-10.9,5.7-16.4
		C304.9,264.4,298.8,262.7,297.5,266.5z"/>
	<path class="st0" d="M271.6,234c-1.8-0.5-3.2,0.6-3.9,2.2c-1.7,4.2-2.7,8.4-3.3,12.8c-0.2,1.7,1.6,3.1,3.2,3.2
		c1.9,0,2.9-1.5,3.2-3.2c0.5-3.8,1.6-7.6,3.1-11.1C274.5,236.3,273.1,234.5,271.6,234z"/>
	<path class="st0" d="M327.2,318.1c-5.6,8.7-11.2,17.3-16.8,26c-2.2,3.4,3.2,6.6,5.4,3.2c5.6-8.7,11.2-17.3,16.8-26
		C334.9,317.8,329.4,314.7,327.2,318.1z"/>
	<path class="st0" d="M347.7,308.7c-4,7.8-8,15.6-12,23.3c-1.9,3.6,3.6,6.8,5.4,3.2c4-7.8,8-15.6,12-23.3
		C355,308.3,349.5,305.1,347.7,308.7z"/>
	<path class="st0" d="M327.8,337.6c-2.4,5.6-4.3,11.3-5.7,17.2c-0.9,3.9,5.2,5.6,6.1,1.7c1.3-5.4,2.9-10.7,5.1-15.7
		C334.9,337.1,329.4,333.9,327.8,337.6z"/>
	<path class="st0" d="M351.7,329c-2.7,7.3-6.2,14.1-10.5,20.7c-2.2,3.4,3.2,6.6,5.4,3.2c4.5-7,8.2-14.4,11.1-22.2
		C359.2,326.9,353.1,325.2,351.7,329z"/>
	<path class="st0" d="M368.9,325c-4.1,7.4-7.8,15-11.2,22.8c-1.6,3.7,3.8,6.9,5.4,3.2c3.4-7.8,7.1-15.4,11.2-22.8
		C376.4,324.7,370.9,321.5,368.9,325z"/>
	<path class="st0" d="M352.5,356.6c-2.9,3.1-4.9,6.7-5.9,10.8c-1,3.9,5.1,5.6,6.1,1.7c0.8-3,2.2-5.7,4.3-8
		C359.7,358.1,355.3,353.7,352.5,356.6z"/>
</g>
</svg>
