<?xml version="1.0" encoding="utf-8"?>
<!-- Generator: Adobe Illustrator 24.2.0, SVG Export Plug-In . SVG Version: 6.00 Build 0)  -->
<svg version="1.1" id="Layer_1" xmlns="http://www.w3.org/2000/svg" xmlns:xlink="http://www.w3.org/1999/xlink" x="0px" y="0px"
	 viewBox="0 0 388.9 396" style="enable-background:new 0 0 388.9 396;" xml:space="preserve">
<style type="text/css">
	.st0{fill:#AFAD93;}
</style>
<g>
	<path class="st0" d="M188.8,142.6c-3.6-0.1-7,0.7-10.2,2.4c-3.3,1.1-6.1,3.1-8.5,5.9c-2.6,2.6-4.4,5.6-5.5,9.1
		c-1.7,3.4-2.4,7-2.3,10.9c0.3,2.5,0.6,5,0.9,7.5c1.3,4.8,3.5,9,6.8,12.5c5.2,5.1,11.5,8.3,18.7,8.3c3.6,0.1,7-0.7,10.2-2.4
		c3.3-1.1,6.1-3.1,8.5-5.9c2.6-2.6,4.4-5.6,5.5-9.1c1.7-3.4,2.4-7,2.3-10.9c-0.3-2.5-0.6-5-0.9-7.5c-1.3-4.8-3.5-9-6.8-12.5
		C202.3,145.8,195.9,142.6,188.8,142.6z"/>
	<path class="st0" d="M253.8,143.1c-20.8,0-20.8,34.8,0,34.8C274.6,177.9,274.6,143.1,253.8,143.1z"/>
	<path class="st0" d="M231.1,214.4c-2,2.2-3.5,5.7-3.4,8.8c0.3,6.7,5.1,12.4,11.5,12.4c3,0,6.1-1.4,8.2-3.6c2-2.2,3.5-5.7,3.4-8.8
		c-0.3-6.7-5.1-12.4-11.5-12.4C236.2,210.8,233.1,212.1,231.1,214.4z"/>
	<path class="st0" d="M179.2,232.4c-4.3,0-8,2.5-10.2,6.3c-0.2,0.4-0.4,0.7-0.5,1.1c-1.1,2.1-1.7,4.3-1.7,6.8c0,2.4,0.6,4.7,1.7,6.8
		c2.2,4.1,6.4,6.6,10.8,6.6c4.4,0,8.5-2.6,10.8-6.6c1.1-2.1,1.7-4.3,1.7-6.8c0-2.4-0.6-4.7-1.7-6.8c-0.2-0.4-0.3-0.8-0.5-1.1
		C187.1,234.9,183.4,232.4,179.2,232.4z"/>
	<path class="st0" d="M149.8,165.4c-1.6-3-3.9-5.4-6.6-7.3c-4.5-3-10.9-3-15.4,0c-2.7,1.8-4.9,4.1-6.5,7c-0.4,0.7-0.8,1.5-1.2,2.3
		c-1.7,3.4-2.6,7.3-2.5,11.2c0.1,3.4,0.8,7,2.5,10c0.9,1.3,1.9,2.6,2.8,3.9c0.2,0.2,0.4,0.4,0.6,0.5c1.5,1.8,3.4,3,5.5,3.8
		c2,1.1,4.2,1.7,6.5,1.6c1.5-0.2,3-0.4,4.5-0.7c2.9-0.9,5.4-2.4,7.5-4.7c1-0.8,1-1,2-2.5c1.6-1.9,2.6-4,3.2-6.5
		c0.2-1.7,0.4-3.4,0.6-5.1c0.2-3.9-0.7-8.1-2.5-11.5C150.5,166.7,150.2,166,149.8,165.4z"/>
	<path class="st0" d="M128.9,103.4c-0.7,4.6-1.2,7.1,0,11.7c0.9,3.4,2.7,6.7,5,9.2c0.1,0.1,0.2,0.3,0.4,0.4c2.2,2.3,4.7,3.9,7.6,4.8
		c2.4,0.7,4.7,0.8,7.1,0.4c1.1-0.1,2.2-0.2,3.3-0.5c3.2-0.8,7.7-3.7,10-6.2c1.6-1.7,3-4,4.3-6.1c2.3-3.6,2.5-7.9,3-12.1
		c0-3.6-0.9-7-2.6-10.2c-1.2-2.3-2.8-4.2-4.8-5.7c-1.8-1.8-3.9-3-6.4-3.6c-3.3-1-6.6-1-10,0C138.5,87.2,130.1,95.2,128.9,103.4z"/>
	<path class="st0" d="M176.3,71c-2.4,2-3.8,3.9-5.7,6.6c-0.2,0.2-0.3,0.5-0.5,0.7c-1.6,2.6-2.7,7.2-2.5,10.4
		c0.3,4.9,1.8,10.3,5.3,13.8c1.2,1,2.4,2,3.7,3c2.8,1.8,5.9,2.6,9.1,2.7c2.4,0.3,4.5-0.4,6.5-1.2c0.3-0.1,0.6-0.2,1-0.3
		c2.4-0.8,4-1.8,5.7-3c-0.2,0.1-0.4,0.3-0.5,0.4c1.3-1,2.4-1.9,3.5-2.9c0.1-0.1,0.2-0.2,0.3-0.2c-0.1,0.1-0.2,0.1-0.2,0.2
		c0.9-0.8,1.7-1.7,2.5-2.8c1.6-2.2,2.8-4.4,3.4-7.2c1.2-4.8,0.5-10.3-1.9-14.6c-2.4-4.3-6.7-8.1-11.2-9.3
		C188.2,65.6,181.7,66.5,176.3,71z"/>
	<path class="st0" d="M228.7,113.6c6,1.4,10.8,1.5,16.7-0.1c6.6-1.8,13-8.2,14.4-15.5c0.8-4,1.2-7.8,0-11.8
		c-1.5-4.7-3.7-8.5-7.4-11.6c-1.3-1.4-2.8-2.3-4.6-2.9c-2.5-1.4-5.1-2-8-1.9c-0.6-0.1-1.2-0.1-1.9,0c-4,0.3-8.1,1.3-11.5,3.7
		c-3.8,2.6-7.1,5.9-9.2,10.2c-2.9,5.9-3.4,12-1,18.1C218.6,107.3,223,112.3,228.7,113.6z"/>
	<path class="st0" d="M295,92.1c-2.9-1.8-6.8-3.2-10.2-2.8c-1.7,0.2-3.3,0.5-5,0.7c-2.4,0.6-4.6,1.8-6.4,3.6
		c-1.4,0.9-2.5,2.1-3.4,3.6c-1.7,1.9-2.8,4.2-3.4,6.9c-0.8,3.5-0.8,7.2,0,10.7c1,4.8,4.7,9.6,8.6,12.1c1.6,1,3.3,1.9,5.1,2.3
		c0.9,0.1,1.8,0.3,2.7,0.4c1,0.4,2,0.5,3,0.3c3.3,0,6.5-0.9,9.4-2.7c2.8-1.8,5-4.2,6.7-7.2c1.7-3.1,2.5-6.5,2.5-10.1
		c0-3.6-0.9-7-2.5-10.1C299.9,96.4,298.5,94.3,295,92.1z"/>
	<path class="st0" d="M314.1,144.1c2,1.5,4.2,2.4,6.6,2.7c3.7,0.5,7-0.4,10.3-2.3c9.3-5.6,9.3-21.1,0-26.7
		c-3.3-1.9-6.5-2.8-10.3-2.3c-2.4,0.3-4.6,1.2-6.6,2.7c-4.1,3-6.9,7.4-6.9,12.9C307.2,136.7,309.9,141,314.1,144.1z"/>
	<path class="st0" d="M331.6,161.7c-1.1-0.5-2.2-1-3.2-1.5c-1.8-0.6-3.6-0.7-5.4-0.3c-2.8,0.4-5.8,1.7-7.8,4c-1.6,1.9-2.8,4-3.5,6.4
		c-1,3.2-0.5,8.4,1.4,11.2c0.3,0.4,0.5,0.8,0.7,1.2c0.9,1.7,2,3,3.3,4.2c3.2,3.7,8.4,5,12.9,3.6c4.2-1.2,8.4-5.2,9.2-9.9
		c0.7-4,0.8-7.1-0.7-11C337.2,166.3,334.7,163.2,331.6,161.7z"/>
	<path class="st0" d="M310,233.3c-0.6-1.5-1.2-2.9-1.8-4.3c-2.1-4.9-7.8-7.8-12.6-7.8c-4.8,0-10.5,2.9-12.6,7.8
		c-0.6,1.4-1.2,2.9-1.8,4.3c-1,2.4-1.6,4.2-1.5,7.1c0.1,1.8,0.3,3.9,1,5.6c0.5,1.3,1,2.6,1.6,4c1,1.9,2.3,3.5,4,4.7
		c2.6,2.2,6,3.7,9.3,3.6c2.7-0.1,5.4-0.9,7.8-2.3c1.8-1,3.2-2.5,4.3-4.3c1.4-1.6,2.3-3.5,2.8-5.6C312.1,241.9,311.6,237.2,310,233.3
		z"/>
	<path class="st0" d="M277.7,290.1c1.6-3.3,2.3-6.7,1.8-10.4c-0.4-3.4-1.7-6.9-4.2-9.3c-2.8-2.8-6.7-5.1-10.7-4.8
		c-1.6,0.1-3.5,0.2-5,0.8c-3.6,1.4-7.2,3.7-9,7.5c-1.6,3.3-2.3,6.7-1.8,10.4c0.4,3.4,1.7,6.9,4.2,9.3c2.7,2.7,6.8,5.3,10.7,4.8
		c1.6-0.2,3.5-0.2,5-0.9C272.3,296,275.8,294,277.7,290.1z"/>
	<path class="st0" d="M222.4,288.2c-1.4-1.4-2.9-2.9-4.6-3.9c-2.3-1.3-4.8-2-7.4-2.1c-1.1-0.1-3,0.4-4.4,0.7
		c-4.3,0.8-8.9,5.8-9.6,10.4c-0.1,0.9-0.2,1.7-0.3,2.6c-0.4,3.4,0,7,1.7,10c1,1.8,2.3,3.4,3.6,4.9c2.4,3,7,4.7,10.5,4.7
		c3.6,0,8-1.7,10.5-4.7c2.6-3,4.5-7,4.3-11.3C226.6,295.4,225.4,291,222.4,288.2z"/>
	<path class="st0" d="M167.3,303c0.5-2.3,0.5-4.7,0-7c-0.6-2.8-3.1-6.6-5.6-7.8c-0.8-0.4-1.5-0.9-2.2-1.4c-3.7-2.5-8.5-2.9-12.5-1.1
		c-2.6,1.2-4.9,3.2-6.3,5.8c-1.2,2.2-1.6,4.6-1.4,7.1c0-0.2-0.1-0.4-0.1-0.7c0,0.3,0.1,0.6,0.1,0.8c0,0.1,0,0.2,0,0.4
		c0.1,0.8,0.2,1.5,0.3,2.3c-0.1-0.5-0.1-1-0.2-1.5c0.5,2.9,1.4,5.4,3.5,7.7c1.7,1.8,4,3.4,6.3,4.1c2,0.6,4.2,0.9,6.3,0.9
		C160.7,312.5,166.1,308.7,167.3,303z"/>
	<path class="st0" d="M117,279.1c6.5-2.3,10.5-9.2,8.7-16.5c-0.6-2.4-1.6-4.8-3-6.8c-0.6-0.9-1.3-1.7-2-2.5
		c-2.5-3.4-6.2-5.3-10.3-4.7c-2,0.3-3.6,1-5.2,2.3c-1.8,1.5-3.5,3.7-3.9,6.1c-0.3,2-0.6,4-0.6,6.1c0,2.3,0.7,4.3,1,6.5
		c0.4,3.1,3.4,6.5,5.7,8C110,279.5,114,280.2,117,279.1z"/>
	<path class="st0" d="M86.3,233.5c6-0.3,11.6-5.4,11.4-12.3c-0.1-3.1,0.2-6.2-0.6-9.2c-1.3-5-5.5-9.1-10.2-10.4
		c-3.7-1-7.6,0.4-9.9,3.6c-1.9,2.6-2.3,5.7-1.6,8.6c-0.3,2.4-0.5,4.9-0.6,7.3C74.6,227.6,80.4,233.7,86.3,233.5z M75.7,214.5
		c0.2,0.7,0.4,1.4,0.7,2C76,215.9,75.8,215.2,75.7,214.5z M75.6,213.3c0.1-0.9,0.2-1.7,0.3-2.6c-0.1,0.9-0.2,1.8-0.3,2.7
		C75.6,213.4,75.6,213.4,75.6,213.3z"/>
	<path class="st0" d="M73.6,167c2.9,0.4,6.1,0,8.6-1.7c2.5-1.7,4.2-4,5.4-6.7c-0.1,0.4-0.3,0.7-0.4,1.1c0.3-0.8,0.7-1.5,1.2-2.2
		c1.1-1.7,1.8-3.5,2.4-5.5c1.1-4.1,0.8-9.4-1.3-12.9c-1.4-2.3-3.4-4.8-5.8-6c-2.7-1.3-5.1-2.1-8.1-1.6c-1.9,0.3-3.5,0.9-5.1,2
		c0,0,0.1,0,0.1-0.1c-0.1,0-0.1,0.1-0.1,0.1c-0.3,0.2-0.7,0.5-1,0.8c-1.3,1-2,1.8-3.1,3.3c-1.2,1.4-2,3.1-2.5,5
		c-0.1,0.2-0.2,0.5-0.3,0.7c0,0.1,0,0.1-0.1,0.2c0,0,0-0.1,0-0.1c-1,3-1.7,6.2-1.6,9.4C62.1,160,66.9,166,73.6,167z"/>
	<path class="st0" d="M80.9,108.7c6.1,0.9,11.4-2.4,14.1-8c0,0,0,0,0,0.1c0-0.1,0.1-0.1,0.1-0.2c0,0,0-0.1,0.1-0.1
		c0.4-0.8,0.8-1.7,1.3-2.4c1.3-2,1.9-4.3,2.7-6.6c0.4-1.1,0.7-2.2,0.9-3.4c0.4-2.4,0.4-4.4,0.1-6.5c0,0.3,0.1,0.7,0.1,1
		c0-0.1,0-0.2,0-0.3c0-0.5-0.1-0.9-0.2-1.4c-0.1-0.6-0.1-1.2-0.2-1.8c0.1,0.5,0.1,1.1,0.2,1.6c-0.4-2.8-1.3-5.5-3.3-7.5
		c-2.4-2.4-5.2-3.7-8.5-3.8c-11.7-0.4-20,13.1-19.4,24.7C69.2,101.5,73.8,107.6,80.9,108.7z"/>
	<path class="st0" d="M118.3,59.6c2.3,1,4.4,1.3,6.7,1.2c-0.1,0-0.1,0-0.2,0c0.1,0,0.2,0,0.3,0c0.1,0,0.3,0,0.4,0
		c1.8-0.2,3.6-0.2,5.3-0.7c2.2-0.7,3.9-1.8,5.7-3.1c4.1-2.9,7-6.8,8.1-11.9c0.8-3.5,0.5-8-1.3-11.1c-1.8-3-4.6-6-8-6.6
		c-0.6-0.1-1.1-0.3-1.6-0.5c-3.4-1.1-6.7-0.5-10,0.2c-5.2,1.2-9.9,5.3-12.4,10.4c-2.8,5.6-2.5,12.3,1.1,17.4
		C114.1,56.9,115.9,58.5,118.3,59.6z"/>
	<path class="st0" d="M174.7,44.5c1.8-0.1,3.7,0,5.4-0.6c3-1,5.4-2.6,7.7-4.9c0.8-1.1,1.6-2.2,2.4-3.3c0.5-1.3,1-2.6,1.5-3.9
		c0.9-3.6,0.6-7.3-0.8-10.7c-1.1-2.7-2.5-4.8-4.7-6.6c-1-1-2.1-1.7-3.4-2.1c-1.8-1-3.8-1.5-5.9-1.4c-1.3-0.1-3.5,0.2-4.8,0.7
		c-2.1,0.7-3.9,1.8-5.6,3.2c-1.9,1.6-3.5,3.6-4.7,5.9c-2.6,5-2.7,11,0,16C164.6,41.3,169.6,44.8,174.7,44.5z"/>
	<path class="st0" d="M233.9,41c4.7,1.1,9.5,2.5,14.2,0.9c5.7-2,10.5-7.7,10.3-14.5c-0.3-6.8-4.2-12.4-10.3-14.5
		c-4.7-1.6-9.5-0.2-14.2,0.9c-5.4,1.2-9.9,7.7-9.6,13.6C224.5,33.4,228.1,39.7,233.9,41z"/>
	<path class="st0" d="M269.5,49.8c0.8,0.4,1.6,0.9,2.3,1.5c-0.4-0.4-0.8-0.7-1.3-1.1c1.7,1.3,3.3,2.4,5.7,3.2
		c0.9,0.3,1.8,0.4,2.7,0.5c4,0.8,8.6,0.4,12.1-2c1.1-1,2.3-1.9,3.4-2.9c1.7-1.7,2.8-3.6,3.5-5.9c1.4-3.6,2-8,0.9-11.9
		c-1.4-4.5-3.9-8.5-7.8-10.9c-4.5-2.7-9.9-4.3-15-2.6c-2.2,0.8-4.4,1.8-6.5,3c-4.8,2.8-7.7,8.8-7.7,14.5
		C261.8,40.9,264.7,47.1,269.5,49.8z"/>
	<path class="st0" d="M315.1,65.9c0.3,0.4,0.5,0.9,0.8,1.3c2.6,3.6,6.1,6,10.3,6.9c6.5,1.5,14.1-0.9,17.4-7.6c0.3-0.6,1.4-3.3,1.6-4
		c1.6-5.3,0-12.4-4-16.1c-1.6-1.5-2.9-3.1-4.8-4.2c-3-1.9-6.2-2.4-9.6-2.6c-5-0.3-9.3,1.9-13,5.3c-3.5,3.1-4.5,9.1-3.3,13.6
		C311.2,61.6,312.9,64.1,315.1,65.9z"/>
	<path class="st0" d="M345,92.6c-0.6,6.4,2.8,14.7,8.5,17.5c4.6,2.3,10.6,3.5,15.2,0c3.7-2.9,6.2-5.9,7.5-10.7
		c1.4-5,0.3-10.2-1.8-14.6c-1-2.1-2.2-4.1-3.1-6.2c-2.6-5.6-10.1-8.7-15.6-6.8c-2.3,0.8-4.3,2.1-6.1,3.8c-2.9,2.8-3.6,6.6-4,10.5
		C345.3,88.3,345.2,90.5,345,92.6z"/>
	<path class="st0" d="M383.5,163.1c0-0.1,0-0.1,0-0.2c0.1-0.9,0.2-1.9,0.3-2.8c0.3-3.1,0.1-5.8-0.5-8.9c-1-5.3-6.4-9.2-11.2-9.2
		c-5,0-8.7,3.4-10.7,7.9c0,0-0.1,0-0.1,0.1c-0.6,0.4-1.1,1.1-1.6,1.6c-2.4,2.5-4.3,5.4-5.6,8.7c-2.5,6.3-2.6,14.6,0.6,20.9
		c0.6,1.8,1.5,3.4,2.8,4.6c0.2,0.2,0.5,0.4,0.7,0.7c4.8,4.6,11.3,5.7,17,2.4C383,184.3,386.8,172.1,383.5,163.1z"/>
	<path class="st0" d="M368.8,215c-5.5-3.1-14-3.1-18.3,2.5c-1.5,2-2.9,4.2-4.5,6.2c-0.1,0.2-0.3,0.4-0.6,0.7
		c-0.6,0.8-1.2,1.5-1.9,2.1c-6.2,6-8.8,13.8-7,22.7c1.1,5.4,5.1,9.5,9.6,11.6c5.1,2.3,9.8,1.6,14.8-0.9c9.5-4.9,11.6-16.9,14.8-26.6
		C377.8,226.9,374.3,218.2,368.8,215z"/>
	<path class="st0" d="M340.8,279.5c-2.3-2.5-5.4-4-8.6-4.4c-5.4-0.8-10.7,1.6-14,6.2c-0.4,0.4-0.9,0.9-1.3,1.3
		c0.1-0.1,0.2-0.1,0.2-0.2c-1.3,1.2-2.3,2.4-3.5,4.5c-0.3,0.5-0.6,1-0.9,1.5c-1.5,2.8-2.3,5.8-2.3,9.1c0,3.2,0.8,6.3,2.3,9.1
		c0.1,0.2,0.2,0.3,0.2,0.4c-0.1-0.2-0.2-0.4-0.3-0.6c0.6,1.4,1.4,2.7,2.6,3.9c0.8,0.8,2.2,2,3.1,2.6c1.3,0.9,2.9,1.5,4.3,2
		c5.5,1.9,12.3-0.1,16.3-4.6c1.3-1.5,2.7-3.2,3.7-5c1.8-3.3,2.3-6.8,2.6-10.5c0.2-2.7-0.1-5.4-0.6-8
		C344.2,284.1,342.5,281.3,340.8,279.5z"/>
	<path class="st0" d="M303.4,330.3c-1-1.9-2.3-3.5-4-4.6c-2.6-2.2-5.9-3.7-9.3-3.6c-2.7,0.1-5.3,0.9-7.8,2.3c-2.3,1.3-4,3.4-5.3,5.8
		c-0.7,0.8-1.4,1.5-2.1,3c-1.5,3-2.3,6.3-2.4,9.7c-0.1,3,0.7,6.3,2.1,8.9c1.2,2.2,3.3,4.6,5.4,5.8c2.3,1.3,5.2,2.5,7.8,2.3
		c2.7-0.2,4.7-0.5,7.1-1.6c2-0.9,4-2.2,5.5-3.9c2-2.2,3.2-4.9,4.2-7.7c1.4-4.1,1-8.2,0.3-12.4C304.5,332.9,304,331.6,303.4,330.3z"
		/>
	<path class="st0" d="M260.2,360.7c-0.5-1.7-1.2-3.5-2-5.1c-1.7-3.5-5.8-6.9-9.3-7.7c-3.8-0.9-8.8-1-12.1,1.7
		c-0.3,0.3-0.6,0.4-1,0.6c0,0,0.1,0,0.1,0c-1.5,0.8-2.9,1.9-4.3,3.3c-1.4,1.4-2.4,3.1-3.5,4.7c-0.6,1.5-1.1,2.9-1.7,4.4
		c-0.2,1.6-0.4,3.2-0.6,4.9c0,4.1,1.4,7.9,3.6,11.1c0.8,1.4,1.8,2.5,3,3.3c1.1,1.1,2.3,1.9,3.7,2.3c3.4,1.5,7.5,2.1,11.1,0.9
		c3-1,5.9-2.7,8.1-5.1c1-1.1,2.1-2.7,2.9-4c1.5-2.4,1.9-4.5,2.2-7.1c0.4-3.1,0.4-2.1,0-5.2C260.5,363.2,260.4,361.5,260.2,360.7z"/>
	<path class="st0" d="M189.2,354c-3.7-3-7.7-4.2-12.2-3.5c-2.2,0.1-4.3,0.8-6.2,2.1c-1.7,1.1-3.2,2.5-4.4,4.1
		c-0.2,0.2-0.5,0.4-0.8,0.7c-1.8,2.1-3.4,4.8-4.2,7.7c-1,3.8-0.6,7.8,0.8,11.3c1.1,2.9,2.7,5.1,5,7c3,2.5,6,3.4,9.8,3.7
		c3,0.2,6.7-1.1,9.3-2.7c1.7-1,3.2-2.4,4.6-3.8c3.2-3.4,4.7-7.9,4.9-12.6C196,362.4,193.1,357.3,189.2,354z"/>
	<path class="st0" d="M111.2,348.6c0,0,0-0.1,0-0.1c0,0,0,0,0-0.1C111.2,348.5,111.2,348.6,111.2,348.6z"/>
	<path class="st0" d="M128.5,335c-5.9-1.6-12.5,0.8-15.6,6.6c-0.5,0.9-1,2.3-1.3,3.3c0,0,0,0,0,0c0,0,0,0,0,0c0,0,0,0.1,0,0.1
		c-0.2,0.9-0.3,1.7-0.3,2.5c0-0.1,0-0.1,0-0.2c0,0.5,0,0.9,0,1.4c0.1,1,0.2,2.1,0.3,3.2c-0.1-0.9-0.2-1.7-0.3-2.6
		c0.1,1.6,0.3,3.2,1,4.9c0.3,0.7,0.5,1.2,0.8,1.7c0,0.1,0.1,0.2,0.1,0.3c0.5,1.2,0.9,2.3,1.4,3.5c0.9,1.7,2,3.1,3.5,4.1
		c2.3,1.9,5.3,3.3,8.3,3.2c2.4-0.1,4.7-0.8,6.9-2c2.8-1.6,5.6-5.4,6.3-8.8c0.9-4.6,0.8-9.2-1.4-13.4
		C136.2,339.1,132.4,336.1,128.5,335z M113.5,356.6c0.1,0.2,0.3,0.5,0.4,0.7c-0.1-0.2-0.2-0.3-0.4-0.5
		C113.5,356.7,113.5,356.6,113.5,356.6z"/>
	<path class="st0" d="M111.3,347.6c0,0.3-0.1,0.6-0.1,0.9c0,0.3,0.1,0.6,0.1,0.8c0-0.2,0-0.4,0-0.6
		C111.3,348.4,111.3,348,111.3,347.6z"/>
	<path class="st0" d="M91.3,306.8c-1.7-1-3.4-2.1-5.3-2.7c-2.6-0.8-5.3-0.6-7.9,0.3c-4.6,1.7-7.2,5.5-7.6,10.7
		c-0.6,9,6.7,15.2,13.2,19.3c5.3,3.3,12.2,1.8,15.9-3.4c3.7-5.1,3.4-12.7-1-17.4C96.4,311.2,94.3,308.5,91.3,306.8z"/>
	<path class="st0" d="M56.8,264.7c-2.8-0.9-5.9-0.5-8.5,0.7c-2.8,1.2-4.5,3.1-6.2,5.7c-1,1.6-1.6,3.4-1.8,5.3
		c-0.5,3.1-0.4,6.5-0.3,9.3c0.1,3.8,1.5,7.7,4,10.4c2.4,2.5,6.3,4.5,9.7,4.3c7.6-0.4,13.4-6.5,13.7-14.7c0-1.7,0.3-3.4,0.3-5
		C67.2,273.5,63.5,266.9,56.8,264.7z"/>
	<path class="st0" d="M48.5,248c0.6-3.1,0.9-6,0.6-9.1c-0.2-3.1-0.6-5.9-2.1-8.6c-1.5-2.6-3.3-4.7-5.7-6.2c-2.3-1.4-4.9-1.9-7.4-1.5
		c-2.3,0.3-5.2,1.4-6.7,3.5c-1.6,2.1-2.9,3.9-3.6,6.5c-0.7,2.4-0.5,4.7-0.2,7.1c0.3,2.4,1.2,4.3,2.1,6.3c0.2,0.7,0.4,1.3,0.6,2
		c1,5.2,6.4,9.4,11.2,9.2C42.1,257,47.4,253.6,48.5,248z"/>
	<path class="st0" d="M35.6,203c1.3-5.6,0.5-10.5-2.1-15.6c-2-3.9-6-6.1-10-6.1c0,0-0.1,0-0.1,0c3.1-5,1-13.6-6.3-13.6
		c-9.7,0-10.2,15.4-1.4,17c-1.6,1.6-2.8,3.5-3.3,5.8c-0.6,2.4-0.4,4.8,0.2,7.1c0.1,0.5,0.2,1,0.3,1.5c0,0.3,0,0.5,0,0.8
		c-0.2,6.2,4.5,11.4,10,12.2C28.5,212.6,34.2,209,35.6,203z M12.6,196.1c0.1,0.7,0.2,1.5,0.3,2.2c0,0,0,0.1,0,0.1
		C12.8,197.6,12.7,196.8,12.6,196.1z"/>
</g>
</svg>
