<?xml version="1.0" encoding="utf-8"?>
<!-- Generator: Adobe Illustrator 24.2.0, SVG Export Plug-In . SVG Version: 6.00 Build 0)  -->
<svg version="1.1" id="Layer_1" xmlns="http://www.w3.org/2000/svg" xmlns:xlink="http://www.w3.org/1999/xlink" x="0px" y="0px"
	 viewBox="0 0 119.2 215.8" style="enable-background:new 0 0 119.2 215.8;" xml:space="preserve">
<style type="text/css">
	.st0{opacity:0.1;}
	.st1{fill:#E5E5E5;}
	.st2{fill:#ADD1C9;}
	.st3{fill:#BBBFDC;}
	.st4{fill:#99B3D0;}
</style>
<g class="st0">
	<path class="st1" d="M114.9,85.3c0.5-0.2,0.9-0.5,1.3-0.9c2.1-2,2.5-5.5,0.6-7.8c-0.5-0.6-1.1-1.1-1.7-1.4
		c-0.1-2.6-0.4-5.1-0.7-7.7c-0.5-3.5-1.2-6.9-2.1-10.4c1.3-1,2.1-2.5,2-4.2c0-0.2-0.1-0.4-0.1-0.7c0.4-0.4,0.6-1.1,0.1-1.7
		c-1.2-1.3-2.7-2.2-4.3-2.3c-0.2-0.6-0.3-1.2-0.5-1.8c-1.4-5.2-2.7-10.6-3.4-16.1c1.1-0.5,2.2-1.4,2.9-2.5c1.9-3,0.8-6.2-2.3-7.5
		c-0.3-0.3-0.6-0.5-0.9-0.7c0.5-5.8,2.1-11.4,5.7-16.5c0.9-1.3-1.2-2.5-2.1-1.2c-3.6,5.2-5.4,11.1-5.9,17.2c-0.4,0-0.8,0.1-1.2,0.3
		c-0.1,0.1-0.2,0.1-0.4,0.2c-1.4,0.3-2.5,1.2-3,3.1c-0.7,2.6,0.5,5.2,2.6,6.6c0.6,0.8,1.4,1.2,2.2,1.3c0.2,2,0.6,4,0.9,5.9
		c0.8,4.1,1.8,8.1,2.9,12.2c-2.1,1-3.3,3.3-2.7,5.6c0.6,2.3,2.7,4,5.1,3.7c1.3,5.4,2.4,10.8,2.8,16.4c-0.6,0-1.1,0.1-1.7,0.4
		c-0.8,0.1-1.6,0.5-2.3,1.2c-2.1,2.1-2,6.2,0.1,8.2c1,1,2.3,1.4,3.6,1.5c-0.3,2.7-0.7,5.5-1.2,8.2c-0.2,0.1-0.4,0.1-0.7,0.2
		c-2.3,1-4,5.8-1.1,6.6c0,0,0,0,0,0c-0.5,1.7-1.1,3.3-1.7,5c-0.5-0.1-0.9-0.1-1.4,0c-2.7,0.5-4.2,3-4.2,5.6c0,1.6,0.6,3.2,1.7,4.3
		c-0.7,1.7-1.3,3.4-1.8,5.1c-1.5,4.6-2.3,9.2-2.7,13.8c-0.5,0-1,0.1-1.4,0.2c-1.8,0.5-3.2,2-3.3,3.9c-0.1,2,1.4,3.7,3.1,4.6
		c0.5,0.2,0.9,0.4,1.4,0.5c0.1,2.7,0.4,5.4,0.7,8c-1.7,1-2.4,3.3-0.5,5c0.3,0.2,0.5,0.4,0.8,0.5c0.2,0.2,0.3,0.3,0.5,0.4
		c0.3,1.5,0.6,3.1,0.9,4.7c0.3,1.6,0.7,3.2,1,4.8c-0.8,0.5-1.4,1.2-1.9,2.1c-0.2,0.3-0.4,0.6-0.6,1c-0.5,1-0.4,2.1-0.1,3.1
		c0,0.1,0,0.2,0,0.3c0.3,2.5,1.7,5.2,4.3,5.9c0.2,0,0.4,0.1,0.6,0.1c1.4,9.8,1.4,19.7-3.1,28.9c-0.7,1.4,1.4,2.6,2.1,1.2
		c4.6-9.6,4.8-20.1,3.4-30.4c1.6-0.6,3-2.1,3.4-3.9c0.4-1.8-0.1-3.6-1.1-5.1c0-0.1,0-0.3-0.1-0.5c-0.7-1.9-2.5-3.2-4.5-3.2
		c-0.6-2.9-1.2-5.8-1.7-8.7c0.8-0.5,1.3-1.5,1.5-2.3c0.1-0.7,0.1-1.3-0.1-2c0-0.7-0.3-1.3-0.9-1.8c-0.5-0.4-1-0.5-1.6-0.5
		c-0.3-2.5-0.6-5.1-0.7-7.6c0.5-0.1,0.9-0.4,1.3-0.7c1.3-1,2.1-2.8,1.6-4.4c-0.1-0.2-0.2-0.5-0.3-0.7c-0.1-0.8-0.5-1.6-1.2-2.1
		c-0.4-0.3-0.9-0.6-1.4-0.8c0.2-2.2,0.5-4.4,0.9-6.6c0.8-4,2-7.7,3.5-11.5c0,0,0.1,0,0.1,0c2.6,0.7,5.3-0.9,6.1-3.5
		c0.4-1.3,0.1-2.6-0.4-3.8c-0.2-1.2-0.9-2.3-1.8-3c0.7-1.9,1.3-3.7,1.9-5.6c1.3,0,2.7-0.6,3.4-1.9c1.1-1.9,0-4.1-1.7-4.9
		c0.4-2,0.8-4.1,1-6.1C114.7,87.2,114.8,86.2,114.9,85.3z M103.2,26.3c-0.2-0.1-0.4-0.2-0.6-0.3c0-0.2-0.1-0.5-0.1-0.7
		c0.2,0,0.3,0,0.5,0c0.1,0.1,0.1,0.2,0.2,0.3C103.2,25.8,103.3,26,103.2,26.3C103.2,26.3,103.2,26.3,103.2,26.3z M99.1,138.3
		c-0.5,0.1-1,0.3-1.5,0.7c-0.2-0.8,0.4-1.5,1.2-1.6c0.1,0,0.2,0,0.2,0C99.1,137.6,99.1,138,99.1,138.3z M106.7,174.8
		c0,0-0.1,0.1-0.1,0.1c-0.1-0.6-0.2-1.2-0.3-1.7C106.9,173.5,107.4,174.2,106.7,174.8z M103.6,153.6c0.1,0.5-0.1,1.1-0.3,1.6
		c-0.1,0.2-0.2,0.4-0.4,0.5c0-0.3-0.1-0.5-0.1-0.8c0.2-0.2,0.4-0.4,0.6-0.5c0.4-0.4-0.1-1.2-0.6-0.8c0,0-0.1,0.1-0.1,0.1
		c-0.1-0.4-0.1-0.8-0.2-1.1C102.9,152.7,103.3,153.1,103.6,153.6z M100,153.8c0,0.3,0.1,0.5,0.2,0.8c0.1,0.4,0.1,0.9,0.2,1.3
		c-0.2-0.3-0.4-0.6-0.5-0.9C99.8,154.6,99.8,154.2,100,153.8z M103.2,171.1c-0.4,0.2-0.6,0.6-0.8,0.9c0-0.5,0.1-1,0.3-1.5
		c0.2-0.2,0.3-0.3,0.5-0.4c0.1,0.3,0.1,0.6,0.2,0.8C103.4,171.1,103.3,171.1,103.2,171.1z M106.6,108.7c-0.5,0.1-1,0.3-1.4,0.7
		c0.3-0.7,0.9-0.9,1.5-0.9C106.6,108.6,106.6,108.7,106.6,108.7z M107.5,114.7c0.4-0.1,0.6-0.3,0.7-0.6c0.6-0.2,1.1-0.5,1.5-0.9
		C109.3,114.1,108.4,114.6,107.5,114.7z M110,98.9c-0.4-0.8-0.4-1.9,0.5-2.4c0.1,0,0.1-0.1,0.2-0.1C110.4,97.2,110.2,98,110,98.9z
		 M113.5,97.9c-0.1,0.6-0.7,1.1-1.2,1.4c0.2-0.8,0.4-1.5,0.6-2.3c0,0,0,0,0,0.1c0.1,0.3,0.4,0.3,0.6,0.2
		C113.6,97.5,113.6,97.7,113.5,97.9z"/>
	<path class="st2" d="M90.5,83.6c0.1-0.6-0.1-1.2-0.8-1.4c-1.2-0.4-2.4-0.3-3.5,0c-0.6-1.9-1.2-3.8-1.9-5.7c1.2-0.8,2.1-2.2,2.3-3.6
		c0.3-3-2.5-4-5-3.4c-1-2.6-2.1-5.2-3.2-7.7c1.4-0.9,2.3-2.4,2.1-4.2c-0.2-1.4-0.9-2.4-1.9-3c-0.8-1.5-2.3-2.3-3.8-2.4
		c-0.8-2.4-1.6-4.9-2.2-7.4c-1.1-4.4-1.7-9.2-1.5-13.9c1.4-0.1,2.7-0.7,3.7-1.7c2.2-2.3,1.4-6.1-0.9-8c-0.1-0.1-0.3-0.2-0.5-0.3
		c-0.2-0.3-0.3-0.6-0.6-0.8c1.9-6,5.5-11.4,11.3-14.9c1.3-0.8,0.1-2.9-1.2-2.1c-6,3.7-10.1,9.5-12.3,16c-1.2-0.1-2.5,0.2-3.4,1.1
		c-0.2,0.2-0.5,0.5-0.7,0.8c-0.3,0.2-0.6,0.5-0.9,0.8c-2,2.3-1.7,6.2,0.9,7.9c0.6,0.4,1.2,0.6,1.9,0.7c0,0,0,0,0,0
		c0,1.1,0,2.1,0,3.1c0.2,6.6,1.8,12.9,3.9,19.1c-0.8,0.4-1.5,1-2,1.8c-2,3.2,0.1,7.4,3.7,8.2c0.7,0.2,1.4,0.2,2.1,0
		c1.1,2.6,2.2,5.3,3.2,7.9c-1.8,1.5-2.5,4.6,0,6c0.4,0.2,0.8,0.3,1.3,0.3c0.4,0.2,0.9,0.4,1.3,0.4c0.1,0.3,0.2,0.5,0.3,0.8
		c0.6,1.8,1.2,3.7,1.8,5.5c-1.2,1.2-1.8,3-1.2,4.9c0.5,1.6,1.7,2.6,3,3.1c0.6,3.7,0.8,7.4,0.6,11.1c-0.2,3.1-0.8,6.1-1.7,9.1
		c-1.5-0.4-3.2-0.1-4.5,1.1c-2.9,2.4-3,7.3,0.1,9.7c0.1,0,0.1,0.1,0.2,0.1c-0.1,0.2-0.2,0.4-0.3,0.6c-3,6.3-6.5,12.5-9.3,18.9
		c0,0,0,0,0,0c-0.3,0-0.6,0-0.9,0.1c-3.7,0.7-4.7,5.5-2.1,7.9c-0.9,2.8-1.5,5.6-1.9,8.5c-0.1,0.1-0.2,0.3-0.2,0.4
		c-2.1,1.3-3.2,4.4-0.7,5.9c0.2,0.1,0.4,0.2,0.6,0.3c0,2.7,0.2,5.4,0.6,8.1c-0.6,0.1-1.2,0.4-1.8,0.9c-3.3,2.5-2.3,7.6,1.2,9.3
		c1,0.5,2,0.7,3,0.6c2.6,9.3,6.5,18.4,9.6,27.4c0.5,1.5,2.8,0.8,2.3-0.6c-3.1-9-7-18-9.6-27.3c1.5-0.7,2.7-2.1,3.2-3.9
		c1-3.8-1.9-7.2-5.6-7.5c-0.2-1.7-0.4-3.5-0.5-5.2c0-0.5,0-1,0-1.6c0.5,0,1.1-0.2,1.5-0.4c0.2,0,0.3-0.1,0.5-0.2
		c0.2-0.1,0.3-0.2,0.3-0.4c0.1-0.1,0.2-0.2,0.3-0.3c0.9-1.1,0.8-2.6,0.2-3.8c-0.1-1.1-0.6-2.1-1.9-2.6c-0.1,0-0.1,0-0.2-0.1
		c0.4-2.1,0.9-4.3,1.5-6.3c2.3,0.6,4.9-0.6,5.7-3.2c0.6-2.2-0.6-4.5-2.4-5.5c2.2-5.1,4.8-10.1,7.4-15.1c0.7-1.3,1.3-2.6,1.9-4
		c2.6,0.5,5.5-0.8,6.4-3.6c0.6-2,0.1-3.7-1-4.9c-0.2-0.9-0.6-1.6-1.2-2.2c0.3-1,0.6-2.1,0.9-3.1c1.4-5.9,1.5-12,0.6-18
		c1.4-0.2,2.8-1.1,3.5-2.6C92.9,87.1,92.1,84.9,90.5,83.6z M78.1,58.4c-0.1-0.1-0.2-0.2-0.3-0.3c-0.2-0.2-0.5-0.3-0.7-0.4
		c0-0.3-0.2-0.6-0.4-0.9c0-0.2-0.1-0.4-0.1-0.6c0.8,0.3,1.5,0.9,1.5,1.7C78.2,58.1,78.2,58.2,78.1,58.4z M78.9,73.7
		c0-0.5,0.1-1.1,0.4-1.6c0.1-0.2,0.3-0.5,0.6-0.7c0,0,0,0.1,0.1,0.1C79.3,72.2,79,72.9,78.9,73.7z M81,75.7C81,75.7,81,75.7,81,75.7
		C81,75.7,81,75.7,81,75.7c-0.4-0.2-0.6-0.5-0.7-0.7c0.3,0,0.6-0.1,0.8-0.4c0.1,0.3,0.2,0.7,0.4,1C81.3,75.7,81.2,75.7,81,75.7z
		 M82.5,71.7c0-0.1-0.1-0.1-0.1-0.2c0.1-0.1,0.2-0.2,0.3-0.4c0.4-0.1,0.9,0.1,1.2,0.4C83.4,71.4,82.9,71.5,82.5,71.7z M83.9,75.5
		C83.9,75.5,83.9,75.5,83.9,75.5c1-1,1.7-2.3,1.4-3.6c-0.1-0.3-0.2-0.6-0.4-0.9c0.6,0.6,0.7,1.6,0.3,2.6
		C85.1,74.4,84.6,75,83.9,75.5z M69.7,161.1C69.7,161.1,69.7,161.1,69.7,161.1c-0.1,0.8-0.5,1.6-1.1,2.3c0,0,0,0,0-0.1
		c0-0.4,0-0.9,0-1.3c0-0.3-0.2-0.5-0.4-0.5c0-0.4,0.1-0.8,0.1-1.3C68.8,160.4,69.3,160.6,69.7,161.1z M83.7,121.3
		c0-0.1,0.1-0.1,0.1-0.2c0.2-0.1,0.5-0.1,0.7-0.2c0.2,0.1,0.5,0.1,0.8,0.1C84.8,121.2,84.3,121.4,83.7,121.3z M87.5,87.5
		c-0.1-0.6-0.3-1.2-0.4-1.9C87.9,85.9,88.2,87,87.5,87.5z"/>
	<path class="st3" d="M49.9,83.9c0.1-2.5,0-5.1-0.2-7.6c0.5-0.2,1-0.5,1.4-0.9c2-1.8,2-4.7,0.8-6.9c0-0.2,0-0.3-0.1-0.5
		c-0.7-1.8-2.4-2.9-4.3-2.8c-0.8-3.1-1.8-6.2-2.7-9.2c0.1-0.2,0.3-0.4,0.4-0.6c0.7-1.4-0.3-3-1.6-3.4c-0.3-0.8-0.5-1.6-0.8-2.5
		c-0.4-1.2-0.7-2.4-1-3.6c0.4-0.2,0.8-0.4,1.1-0.7c2.6-2.3,1.9-6.8-0.9-8.2c-0.6-0.6-1.4-1-2.2-1.1C38.3,24.3,39.7,12.2,50,5.1
		c1.3-0.9,0.1-2.9-1.2-2.1C38,10.5,35.6,24.3,37.4,36.6c-1.2,0.9-1.8,2.6-2,4.1c-0.2,2,0.6,4.1,2.4,5.1c0.5,0.3,1.1,0.4,1.6,0.5
		c0.6,2.1,1.2,4.1,1.8,6.2c-0.9,0.8-1.2,2.4-0.4,3.4c0.1,0.1,0.1,0.1,0.2,0.2c0.4,0.5,1,0.8,1.6,0.8c0.9,3,1.9,6,2.7,9.1
		c-1.3,0.8-2.1,2.3-2.5,3.8c-0.5,2.2,0,4.9,2.1,6.2c0.7,0.5,1.6,0.7,2.4,0.8c0.2,2.1,0.3,4.2,0.2,6.4c0,0.3,0,0.7-0.1,1
		c-0.8,0.1-1.5,0.5-2,1.1c-0.1,0.1-0.1,0.2-0.2,0.4c-1.1,1.4-1.1,3.6,0.1,4.9c0.4,0.4,0.8,0.7,1.3,0.9c-0.2,1.3-0.5,2.6-0.8,3.9
		c-0.7,0-1.4,0.2-2,0.5c-2.6,1.2-5.3,5.3-3.6,8.1c0.5,0.8,1.4,1.6,2.5,2.1c-1.9,5.5-4,11-5.9,16.4c-0.8-0.2-1.6-0.1-2.4,0.3
		c-0.8,0.1-1.5,0.4-2.2,0.8c-3.4,2.4-3.7,8.6,0.3,10.5c0.2,0.1,0.5,0.2,0.7,0.3c-1,3.8-1.6,7.6-2.1,11.5c-0.4,0.2-0.7,0.4-1,0.6
		c-0.9,0.4-1.6,1.2-1.9,2.2c-0.1,0.3-0.1,0.6-0.1,0.9c-0.1,0.4-0.1,0.7-0.2,1c0,1.8,1.3,3,2.8,3.4c0,2.3,0.2,4.7,0.5,7
		c-2.5,1-3,4.4-1.6,6.5c0.8,1.2,2.1,1.9,3.4,2.1c1.9,6.6,5,12.7,8.2,18.9c3.7,7.2,7.2,14.7,7.1,23c0,1.5,2.4,1.5,2.4,0
		c0.2-13.8-8.9-25-13.6-37.3c-0.6-1.6-1.2-3.3-1.6-4.9c0.6-0.3,1.2-0.8,1.6-1.4c1.2-1.7,0.7-4-0.8-5.2c-0.6-0.9-1.5-1.6-2.6-1.9
		c-0.3-2.3-0.5-4.7-0.5-7c0.2-0.1,0.3-0.1,0.5-0.2c1.2-0.7,1.9-1.8,2-3.1c0.6-1.8-0.3-3.9-2.1-4.6c0.4-3.8,1.1-7.5,2-11.2
		c2.5-0.3,4.7-2.5,5.1-5.3c0.3-1.8-0.4-4-1.7-5.4c1.9-5.4,4-10.8,5.8-16.2c0.3,0,0.7-0.1,0.9-0.4c0.1-0.1,0.2-0.3,0.3-0.4
		c1.1,0,2.1-0.3,2.9-1c1.3-1.3,2-3.6,1.6-5.6c0.4-0.2,0.7-0.7,0.6-1.3c-0.4-1.6-1.5-2.7-2.9-3.3c0.3-1.4,0.6-2.7,0.8-4.1
		c0-0.1,0-0.2,0.1-0.3c0.4-0.2,0.8-0.5,1.1-0.9c2-1,3.3-3.5,1.5-5.5C51.3,84.2,50.6,84,49.9,83.9z M40.5,39.7c0-0.2-0.1-0.5-0.1-0.7
		c0.1,0,0.2,0,0.3,0.1c0,0,0,0.1,0,0.1c0.2,0.4,0.6,0.6,0.9,0.6c0.2,0.2,0.4,0.5,0.5,0.8C41.6,40.1,41.1,39.9,40.5,39.7z M42.1,55.5
		c-0.4-0.3-0.6-0.9-0.5-1.4c0-0.1,0.1-0.2,0.2-0.3c0.2,0.6,0.4,1.2,0.6,1.8C42.2,55.7,42.1,55.6,42.1,55.5z M46.5,86.1
		c-0.3,0.6-0.4,1.2-0.5,1.9C46,87.7,46,87.4,46,87c0-0.3,0.1-0.5,0.2-0.7c0.2-0.2,0.3-0.4,0.5-0.5C46.7,85.9,46.6,86,46.5,86.1z
		 M34.8,150.2c-0.1,0.3-0.3,0.6-0.6,0.9c0.1-0.1,0.1-0.2,0.1-0.3c0-0.3-0.1-0.6-0.2-0.8c0,0,0,0,0,0c-0.1-0.5-0.3-1-0.7-1.3
		c0-0.3,0-0.6,0.1-0.9C34.3,148.1,34.8,149,34.8,150.2C34.8,150.1,34.8,150.1,34.8,150.2z M31.1,147.4c0,0.3,0,0.6-0.1,0.9
		c-0.8,0.5-1.1,1.6-0.5,2.4c0.1,0.1,0.2,0.2,0.3,0.3c0,0.2,0,0.3,0,0.5c-0.1-0.1-0.2-0.2-0.3-0.3C29.2,149.8,29.8,148.1,31.1,147.4z
		 M38.3,129.2c-0.1,0.3-0.2,0.6-0.3,0.9c0-0.1,0-0.1,0-0.2c-0.1-0.3-0.2-0.5-0.3-0.7c0-0.2,0-0.4-0.1-0.5c0.2,0.1,0.5,0.1,0.8,0
		C38.4,128.9,38.3,129.1,38.3,129.2z M45,99c-0.1,0-0.1-0.1-0.2-0.1c-0.3-0.1-0.6-0.2-0.9-0.2c0.3-0.3,0.7-0.6,1.1-0.8
		c0,0.1,0,0.3,0,0.5c0,0.1,0,0.2,0,0.4C45.1,98.8,45.1,98.9,45,99z M48.1,102.1C48.1,102.1,48.1,102.1,48.1,102.1
		c-0.1,0-0.2,0-0.4-0.1c0,0,0,0,0,0c0,0,0,0,0,0c0-0.3-0.1-0.6-0.3-0.9c0-0.1,0-0.1-0.1-0.1c0-0.4,0-1,0-1.5c0,0,0-0.1,0-0.1
		c0,0,0.1,0,0.1,0.1C48.6,99.8,48.3,101.2,48.1,102.1z M49.6,89.5c0,0-0.1,0-0.1,0c0.1-1,0.2-2,0.3-3c0.1,0,0.2,0,0.3-0.1
		C50.4,87.5,50.1,88.7,49.6,89.5z M51.1,88.3c0.2-1,0.1-2.1-0.5-3c0.5,0.3,0.8,0.9,0.8,1.7C51.5,87.5,51.4,88,51.1,88.3z"/>
	<path class="st4" d="M18.9,105.5c0.4-1.5,0.3-3.2-0.4-4.6c-0.1-2.1-1.5-3.5-3.2-3.9c-0.3-3.1-0.7-6.2-1.2-9.4c0,0,0-0.1,0-0.1
		c0.5-0.3,0.9-0.8,1.1-1.5c0-0.1,0-0.2,0.1-0.3c0.4-0.9,0.7-1.9,0.1-2.8c-0.5-0.7-1.4-1.1-2.3-1.2c-0.6-3-1.3-6.1-1.9-9.1
		c0.5-0.2,1-0.5,1.4-0.9c1.3-1.3,1.3-3.3,0.7-5c0-0.8-0.3-1.6-0.8-2.3c-0.9-1.2-2.2-2.1-3.6-2.3c-0.6-3.1-1.1-6.3-1.6-9.5
		c0,0,0,0,0,0c0.5-0.2,0.9-0.6,1.1-1.1c0.7-0.9,0.8-2.2-0.1-3.1c-0.3-0.3-0.6-0.4-0.9-0.6c-0.2-0.2-0.4-0.4-0.7-0.6
		c0-0.3-0.1-0.6-0.1-0.9c-0.2-3.3-0.2-6.7-0.1-10c1.6-0.3,3-1.5,3.4-3.3c0.4-1.7-0.4-3.2-1.6-4c-0.3-0.4-0.7-0.8-1.2-1
		c0.2-1.9,0.5-3.8,0.8-5.6c1-5.9,1.8-15,7.9-18c1.4-0.7,0.2-2.7-1.2-2.1C9.8,4.9,8.1,10.1,7,14.9c-1,4.2-1.7,8.5-2.2,12.8
		c-0.9,0.1-1.8,0.5-2.5,1.2c-2.1,2.1-1.3,5.8,1.2,7.2c0.2,0.1,0.5,0.2,0.7,0.3c-0.1,3.7,0,7.4,0.3,11c-1.1,0.5-1.8,1.6-1.6,2.9
		C3,51,3.3,51.6,3.7,52c0.2,0.3,0.5,0.5,0.9,0.6c0.1,0,0.2,0.1,0.4,0.1c0.4,3.3,1,6.6,1.6,9.9c-3.8,1.7-2.6,8.3,0.7,9.9
		C7.7,72.8,8.2,73,8.7,73c0.4,1.8,0.8,3.6,1.2,5.4c0.3,1.3,0.5,2.6,0.8,3.9c-0.7,0.2-1.2,0.7-1.4,1.4c-0.5,0.8-0.7,1.8-0.3,2.8
		c0.1,0.3,0.3,0.6,0.5,0.9c0.5,0.8,1.4,1.3,2.3,1.3c0.4,2.8,0.8,5.7,1.1,8.5c-0.5,0.2-1,0.4-1.5,0.7c-2.7,2.1-3.3,7.3-0.6,9.7
		c0.8,0.7,1.7,1.1,2.7,1.2c0,3.3,0,6.5-0.2,9.8c-0.1,0-0.2,0.1-0.2,0.1c-0.1,0-0.2,0-0.3,0c-1.8,0-3.1,1-3.5,2.8
		c-0.3,1.5-0.3,3.6,0.9,4.8c0.6,0.6,1.4,0.9,2.2,1c-0.3,2.2-0.7,4.4-1.1,6.6c-0.6,0-1.1,0.1-1.7,0.4c-2.5,1.3-3.5,5.2-1.8,7.5
		c0.4,0.6,1,1,1.6,1.3c-0.8,4.1-1.6,8.1-2.3,12.2c-0.7,0.3-1.4,0.8-1.8,1.5c-0.7,0.7-1,2-0.6,2.9c0.3,0.8,0.9,1.4,1.7,1.8
		c0,0,0,0,0,0c-0.1,1.3-0.2,2.5-0.3,3.8c-0.1,2.5-0.1,5,0.1,7.5c-0.5,0.5-0.4,1.3,0.1,1.8c0,0-0.1,0-0.1,0c-4.4,0.8-3.9,6.1-1.1,8.4
		c0.9,0.7,1.8,1.1,2.6,1.1c1.8,9.5,4.9,18.8,8.1,27.8c0.5,1.4,2.8,0.8,2.3-0.6c-3.1-9.1-6.2-18.3-8.1-27.8c1.3-0.8,2.4-2.4,2.8-4.2
		c0.7-3.2-1.1-6.7-4.2-7c0-0.6-0.1-1.1-0.1-1.7c-0.1-2.9,0-5.7,0.3-8.6c0.6-0.1,1.1-0.3,1.6-0.7c0.2-0.1,0.3-0.2,0.5-0.4
		c1.7-1.6,1.1-4.5-0.8-5.6c-0.1-0.1-0.2-0.1-0.4-0.2c0.6-4,1.5-8,2.3-12c1.2-0.3,2.4-1.1,3-2.3c0.8-1.5,0.7-3.1-0.1-4.4
		c-0.2-0.8-0.6-1.4-1.2-1.9c0.3-1.9,0.7-3.8,0.9-5.7c0.1-0.6,0.1-1.2,0.2-1.8c1.5-0.4,2.8-1.4,3.4-2.8c0.9-2.2-0.4-5-2.6-5.8
		c0.2-3.3,0.3-6.7,0.3-10C17.2,108.1,18.4,107.1,18.9,105.5z M6.7,33.3C6.7,33.3,6.7,33.3,6.7,33.3c0.4-0.3,0.7-0.6,0.8-1
		c0,0,0.1,0,0.1,0.1c0,0.2,0,0.4-0.1,0.7c-0.2,0.5-0.5,0.8-0.9,1C6.6,33.8,6.6,33.5,6.7,33.3z M10.5,86c-0.2-0.3-0.3-0.6-0.3-0.9
		c0.1-0.2,0.3-0.4,0.4-0.5c-0.1,0.7,0.1,1.3,0.7,1.8c0,0.1,0,0.3,0.1,0.4C11.1,86.6,10.7,86.4,10.5,86z M9.7,179.8
		c0,0,0.1,0,0.1-0.1c0,0.2,0.1,0.4,0.1,0.5c-0.1,0.2-0.3,0.5-0.4,0.7c-0.1-0.3-0.1-0.7-0.2-1L9.7,179.8z M9.2,157.7
		c0.3,0.2,0.6,0.6,0.6,1c0,0.7-0.4,1-0.9,1.2C9,159.1,9.1,158.4,9.2,157.7z M6.3,157.3c0,0.1-0.1,0.2-0.1,0.2
		c-0.2,0.5-0.2,1-0.1,1.5c-0.1,0-0.2,0-0.3,0c-0.1-0.6-0.1-1.2,0.3-1.8C6.2,157.3,6.3,157.3,6.3,157.3z M12.5,125.8
		c-1.4-0.4-2.7-1.8-2.2-3.4c0.1-0.3,0.3-0.6,0.5-0.8c-0.3,1.3,0,2.7,1.2,3.6c0.2,0.1,0.3,0.2,0.5,0.3
		C12.5,125.5,12.5,125.6,12.5,125.8z M13,121.4c0,0.2-0.1,0.4-0.1,0.6c0,0,0,0,0,0c0,0.1,0,0.1,0,0.2c0,0.3-0.1,0.5-0.1,0.8
		c-0.4-0.3-0.6-0.8-0.5-1.3c0-0.3,0.1-0.6,0.3-0.8c0.1,0,0.3,0,0.4,0.1C13,121.2,13,121.3,13,121.4z M15.9,121.1
		c0.1,0,0.1,0.1,0.2,0.1c0.4,0.5,0.8,1.1,0.9,1.7c-0.1,0.9-0.9,1.5-1.9,1.7c0-0.1,0-0.1,0-0.2c0.1-0.1,0.2-0.2,0.3-0.3
		c0.1-0.3,0.1-0.6,0.2-0.9C15.9,122.8,16.1,122,15.9,121.1z"/>
</g>
</svg>
