<?xml version="1.0" encoding="utf-8"?>
<!-- Generator: Adobe Illustrator 24.2.0, SVG Export Plug-In . SVG Version: 6.00 Build 0)  -->
<svg version="1.1" id="Layer_1" xmlns="http://www.w3.org/2000/svg" xmlns:xlink="http://www.w3.org/1999/xlink" x="0px" y="0px"
	 viewBox="0 0 635 87.7" style="enable-background:new 0 0 635 87.7;" xml:space="preserve">
<style type="text/css">
	.st0{fill:#B2612F;}
</style>
<g>
	<path class="st0" d="M79.5,67.9c1.1-4.1,2.2-7.6,3.1-11.2c4.1-15.6,7.8-31.3,10.5-47.2C93.3,8.4,93.7,8,94.8,8c4,0.1,8,0.1,12,0
		c1.2,0,1.6,0.2,1.3,1.5c-4.9,23.4-11.4,46.4-18.9,69.1c-0.4,1.1-1,1.3-2,1.3c-5,0-10.1-0.1-15.1,0c-1.5,0-2-0.5-2.3-1.8
		C66.3,63.7,62.7,49.3,59,34.9c-0.1-0.5-0.3-1-0.6-1.9c-1.1,4.4-2.2,8.5-3.2,12.5C52.4,56.4,49.7,67.2,47,78
		c-0.4,1.4-0.9,1.9-2.5,1.9c-4.9-0.1-9.8-0.1-14.7,0c-1.3,0-1.9-0.4-2.3-1.7C20,55.7,13.6,32.9,8.8,9.7C8.6,8.5,8.6,8,10.1,8
		c4.1,0.1,8.1,0.1,12.2,0c1.3,0,1.7,0.4,1.9,1.7c3.3,18.8,7.7,37.4,12.8,55.8c0.1,0.5,0.3,1,0.9,1.6c0.8-3.3,1.7-6.5,2.5-9.8
		c3.5-13.5,6.9-27,10.3-40.5c0.4-1.5,1-1.8,2.4-1.8c3.7,0.1,7.5,0.1,11.2,0c1.3,0,1.8,0.5,2.1,1.6c4.1,16.3,8.3,32.6,12.5,48.9
		C79,66.2,79.2,66.8,79.5,67.9z"/>
	<path class="st0" d="M122.6,43.9c0-11.3,0-22.7,0-34c0-1.6,0.5-2,2-2c3.5,0.1,7,0.1,10.5,0c1.4,0,1.9,0.3,1.8,1.8
		c-0.1,8.7,0,17.4-0.1,26.1c0,1.6,0.4,2,2,2c9.9-0.1,19.8-0.1,29.7,0c1.5,0,2-0.4,1.9-1.9c-0.1-8.7,0-17.4-0.1-26.1
		c0-1.6,0.5-1.9,2-1.9c3.6,0.1,7.1,0.1,10.7,0c1.4,0,1.7,0.4,1.7,1.7c0,22.8,0,45.7,0,68.5c0,1.2-0.3,1.7-1.6,1.6
		c-3.6-0.1-7.2-0.1-10.9,0c-1.4,0-1.9-0.3-1.9-1.8c0.1-8.8,0-17.5,0.1-26.3c0-1.5-0.3-2.1-2-2.1c-9.9,0.1-19.8,0.1-29.7,0
		c-1.7,0-2,0.6-2,2.1c0.1,8.7,0,17.4,0.1,26.1c0,1.6-0.5,2-2,2c-3.4-0.1-6.9-0.1-10.3,0c-1.6,0.1-2-0.3-2-2
		C122.7,66.6,122.6,55.3,122.6,43.9z"/>
	<path class="st0" d="M370.4,81.1c-7.1,0.1-14.4-1.2-21.1-5c-3.6-2.1-6.7-4.7-9.3-8c-0.5-0.7-0.4-1,0.1-1.5c2.5-2.3,4.9-4.5,7.3-6.9
		c0.7-0.7,1.1-0.6,1.7,0.1c8.1,9.3,18.5,11.1,29.9,8.8c5.1-1,7.5-4.3,7.3-9c-0.1-3.2-2.1-5-4.6-6.4c-3.8-2.1-8.1-2.6-12.2-3.5
		c-5.6-1.1-11.2-2.1-16.3-4.6c-5.5-2.7-9.8-6.5-11-12.8c-1.8-9.1,2.5-17.6,10.8-21.9c7.8-4,16.1-4.3,24.5-3.3
		c8.4,1,15.4,4.9,20.9,11.4c0.8,0.9,0.8,1.4-0.1,2.1c-2.2,1.9-4.4,3.8-6.4,5.9c-1.1,1.1-1.6,0.9-2.5-0.2c-7.2-8.5-18.6-9.6-27.2-6.9
		c-4.2,1.3-6.2,4.3-6.2,8.1c0,2.7,1.2,4.6,3.6,5.9c4.1,2.3,8.7,2.8,13.2,3.7c6.4,1.3,12.7,2.6,18.5,5.8c13,7.2,11.5,26,0.9,32.7
		C385.7,80.1,378.5,81.2,370.4,81.1z"/>
	<path class="st0" d="M472.4,79.9c-1.9,0-3.9-0.1-5.8,0c-1.2,0.1-1.8-0.3-2.1-1.6c-1.3-5-2.7-9.9-4.1-14.9c-0.3-1.1-0.8-1.5-2-1.5
		c-8.9,0-17.8,0.1-26.7,0c-1.3,0-1.8,0.5-2.1,1.7c-1.3,5-2.7,9.9-4,14.9c-0.3,1.1-0.6,1.5-1.8,1.4c-3.9-0.1-7.8-0.1-11.6,0
		c-1.6,0-1.6-0.5-1.2-1.8c5.5-19.1,12.1-37.8,19.7-56.1c1.8-4.2,3.6-8.4,5.4-12.6c0.4-1,1-1.4,2.1-1.4c4.7,0.1,9.3,0.1,14,0
		c1.2,0,1.8,0.3,2.3,1.4c9.9,22.3,18.2,45.1,25,68.6c0.5,1.7,0.1,2-1.5,1.9C476.2,79.8,474.3,79.9,472.4,79.9z M445.1,19.8
		c-4,9.9-7.5,19.6-10.9,29.3c-0.4,1.2-0.1,1.4,1.1,1.4c6.5,0,13,0,19.6,0c1.5,0,1.4-0.6,1-1.6c-1-2.8-2-5.7-3-8.5
		C450.6,33.5,447.9,26.8,445.1,19.8z"/>
	<path class="st0" d="M261.3,79.9c-2,0-4-0.1-6,0c-1,0-1.4-0.3-1.7-1.3c-1.3-5-2.8-10-4.1-15.1c-0.3-1.2-0.9-1.6-2.1-1.6
		c-8.8,0-17.7,0-26.6,0c-1.3,0-1.8,0.4-2.1,1.6c-1.3,5-2.7,9.9-4,14.9c-0.3,1-0.6,1.5-1.7,1.5c-3.9-0.1-7.9-0.1-11.8,0
		c-1.3,0-1.5-0.4-1.1-1.5c6.8-23.6,15.2-46.6,25.2-69.1c0.4-1,1-1.3,2-1.3c4.7,0.1,9.4,0.1,14.1,0c1.2,0,1.7,0.4,2.1,1.4
		c10,22.3,18.3,45.2,25,68.7c0.4,1.4,0.2,1.8-1.3,1.7C265.3,79.8,263.3,79.9,261.3,79.9z M234.1,19.8c-4,9.9-7.5,19.5-10.9,29.3
		c-0.3,0.9-0.3,1.4,0.9,1.4c6.7,0,13.3,0,20,0c1,0,1.2-0.3,0.9-1.3c-0.6-1.7-1.2-3.5-1.8-5.3C240.4,35.9,237.4,28,234.1,19.8z"/>
	<path class="st0" d="M494.9,43.9c0-11.4,0-22.8,0-34.2c0-1.5,0.4-1.8,1.8-1.8c10,0.1,20,0,30,0c5.2,0,10.3,0.7,15.1,2.9
		c6.4,2.9,10.4,7.8,11.9,14.5c1.3,5.9,1.2,11.8-1.2,17.4c-3.3,7.8-9.7,11.6-17.7,13c-7.6,1.3-15.3,0.6-23,0.7
		c-2.8,0.1-2.8,0-2.8,2.8c0,6.2-0.1,12.4,0,18.5c0,1.7-0.5,2-2.1,2c-3.4-0.1-6.8-0.1-10.3,0c-1.4,0-1.8-0.3-1.8-1.8
		C494.9,66.7,494.9,55.3,494.9,43.9z M509,32.4c0,3.7,0,7.3,0,11c0,1.1,0.2,1.6,1.5,1.6c6-0.1,12,0.2,18-0.3
		c3.9-0.3,7.5-1.7,9.7-5.2c5.3-8.8,0.2-18.6-10-19.5c-5.9-0.5-11.9-0.1-17.8-0.3c-1.2,0-1.4,0.5-1.4,1.5C509,24.9,509,28.6,509,32.4
		z"/>
	<path class="st0" d="M570.4,43.7c0-11.3,0-22.5,0-33.8c0-1.6,0.4-2,2-2c9.9,0.1,19.8,0,29.6,0c6.9,0,13.5,1.1,19.3,5.2
		c5.1,3.6,7.7,8.8,8.3,14.9c0.8,7.1,0.1,14-4.8,19.9c-3.9,4.6-9,6.9-14.8,7.9c-7.6,1.3-15.3,0.5-23,0.7c-3,0.1-2.5-0.4-2.5,2.6
		c0,6.3-0.1,12.6,0,18.9c0,1.5-0.4,1.8-1.8,1.8c-3.5-0.1-7-0.1-10.5,0c-1.4,0-1.8-0.4-1.8-1.8C570.5,66.6,570.4,55.2,570.4,43.7z
		 M584.5,32.3c0,3.7,0,7.5,0,11.2c0,1.1,0.3,1.5,1.4,1.4c6-0.1,12,0.2,18-0.2c5.6-0.4,9.9-3.5,11-8.4c1.7-7.5-0.8-14.6-9.4-16.1
		c-6.7-1.1-13.4-0.4-20.1-0.6c-1.1,0-1,0.7-1,1.4C584.5,24.8,584.5,28.6,584.5,32.3z"/>
	<path class="st0" d="M301.6,8c9.6,0,19.1,0,28.7,0c1.4,0,1.9,0.3,1.9,1.8c-0.1,2.8-0.1,5.7,0,8.5c0.1,1.5-0.5,1.8-1.9,1.8
		c-6.7-0.1-13.3,0-20-0.1c-1.6,0-1.9,0.4-1.9,1.9c0.1,18.7,0,37.3,0.1,56c0,1.6-0.3,2.1-2,2c-3.3-0.1-6.6-0.2-9.9,0
		c-2.1,0.1-2.4-0.7-2.4-2.5c0.1-18.4,0-36.8,0.1-55.2c0-1.9-0.5-2.3-2.3-2.3c-6.6,0.1-13.2,0-19.8,0.1c-1.3,0-1.6-0.4-1.6-1.6
		c0.1-2.8,0.1-5.7,0-8.5C270.6,8.4,271,8,272.5,8C282.2,8.1,291.9,8,301.6,8z"/>
</g>
</svg>
