<?xml version="1.0" encoding="utf-8"?>
<!-- Generator: Adobe Illustrator 26.0.1, SVG Export Plug-In . SVG Version: 6.00 Build 0)  -->
<svg version="1.1" id="Layer_1" xmlns="http://www.w3.org/2000/svg" xmlns:xlink="http://www.w3.org/1999/xlink" x="0px" y="0px"
	 viewBox="0 0 800 150" style="enable-background:new 0 0 800 150;" xml:space="preserve">
<style type="text/css">
	.st0{fill:#016F8E;}
	.st1{fill:#C0F2EE;}
</style>
<g>
	<rect class="st0" width="800" height="150"/>
</g>
<g>
	<path class="st1" d="M352,62.4c0,10-6.6,18.7-15.3,30.9l-9.7,13.5h-15.2l16-22.4c-14.3,0.6-25.3-7.5-25.3-21.9
		c0-13.8,10-22.8,24.7-22.8C341.9,39.8,352,48.8,352,62.4z M327.1,50.8c-6.6,0-11.6,4.8-11.6,11.8c0,6.9,5,11.7,11.6,11.7
		s11.7-4.8,11.7-11.7C338.8,55.6,333.7,50.8,327.1,50.8z"/>
	<path class="st1" d="M407.3,62.4c0,10-6.6,18.7-15.3,30.9l-9.7,13.5H367l16-22.4c-14.3,0.6-25.3-7.5-25.3-21.9
		c0-13.8,10-22.8,24.7-22.8C397.2,39.8,407.3,48.8,407.3,62.4z M382.4,50.8c-6.6,0-11.6,4.8-11.6,11.8c0,6.9,5,11.7,11.6,11.7
		s11.7-4.8,11.7-11.7C394.1,55.6,389.1,50.8,382.4,50.8z"/>
	<path class="st1" d="M443.9,64c0,9.2-6.5,14.8-15.2,14.8c-8.9,0-15.2-5.6-15.2-14.8v-9.3c0-9.2,6.4-14.9,15.2-14.9
		c8.8,0,15.2,5.7,15.2,14.9V64z M428.7,48.2c-3.5,0-5.8,2.6-5.8,6.6v9.4c0,3.9,2.3,6.4,5.8,6.4c3.5,0,5.6-2.5,5.6-6.4v-9.4
		C434.2,50.7,432.1,48.2,428.7,48.2z M465.4,40.9h11.1l-37.9,66h-11.1L465.4,40.9z M490.6,93.3c0,9.1-6.6,14.8-15.2,14.8
		c-8.9,0-15.2-5.7-15.2-14.8v-9.4c0-9.1,6.4-14.9,15.2-14.9c8.7,0,15.2,5.8,15.2,14.9V93.3z M475.3,77.4c-3.5,0-5.8,2.6-5.8,6.5v9.4
		c0,4,2.2,6.4,5.8,6.4c3.5,0,5.6-2.4,5.6-6.4v-9.4C480.9,80,478.8,77.4,475.3,77.4z"/>
</g>
</svg>
